<?xml version="1.0" encoding="UTF-8" standalone="no"?>
<svg
   xmlns:dc="http://purl.org/dc/elements/1.1/"
   xmlns:cc="http://creativecommons.org/ns#"
   xmlns:rdf="http://www.w3.org/1999/02/22-rdf-syntax-ns#"
   xmlns:svg="http://www.w3.org/2000/svg"
   xmlns="http://www.w3.org/2000/svg"
   xmlns:sodipodi="http://sodipodi.sourceforge.net/DTD/sodipodi-0.dtd"
   xmlns:inkscape="http://www.inkscape.org/namespaces/inkscape"
   version="1.1"
   id="Layer_1"
   x="0px"
   y="0px"
   viewBox="0 0 504 504"
   style="enable-background:new 0 0 504 504;"
   xml:space="preserve"
   sodipodi:docname="alert-octagon.svg"
   inkscape:version="1.0.2 (e86c870879, 2021-01-15)"><metadata
   id="metadata51"><rdf:RDF><cc:Work
       rdf:about=""><dc:format>image/svg+xml</dc:format><dc:type
         rdf:resource="http://purl.org/dc/dcmitype/StillImage" /></cc:Work></rdf:RDF></metadata><defs
   id="defs49" /><sodipodi:namedview
   pagecolor="#ffffff"
   bordercolor="#666666"
   borderopacity="1"
   objecttolerance="10"
   gridtolerance="10"
   guidetolerance="10"
   inkscape:pageopacity="0"
   inkscape:pageshadow="2"
   inkscape:window-width="1141"
   inkscape:window-height="863"
   id="namedview47"
   showgrid="false"
   inkscape:zoom="0.39335318"
   inkscape:cx="154.41177"
   inkscape:cy="363.26337"
   inkscape:window-x="495"
   inkscape:window-y="113"
   inkscape:window-maximized="0"
   inkscape:current-layer="Layer_1" />
<polygon
   style="fill:#c42014;fill-opacity:0.98039216;stroke:none"
   points="152.4,500 10,353.6 10,148.8 152.4,4 357.2,4 502,148.8 502,353.6 357.2,500 "
   id="polygon2" />
<g
   id="g8">
	<path
   style="fill:#F4EFEF;"
   d="M254,325.6c-10.8,0-20-8.8-20-19.6V133.2c0-10.8,9.2-19.6,20-19.6s20,8.8,20,19.6V306   C274,316.8,264.8,325.6,254,325.6z"
   id="path4" />
	<path
   style="fill:#F4EFEF;"
   d="M254,388.4c-5.2,0-10.4-2-14-5.6s-5.6-8.8-5.6-14s2-10.4,5.6-14s8.8-5.6,14-5.6s10.4,2,14,5.6   s5.6,8.8,5.6,14s-2,10.4-5.6,14S259.2,388.4,254,388.4z"
   id="path6" />
</g>
<path
   d="M250,329.6c-13.2,0-24-10.8-24-23.6V133.2c0-13.2,10.8-23.6,24-23.6s24,10.8,24,23.6V306C274,319.2,263.2,329.6,250,329.6z   M250,117.6c-8.8,0-16,7.2-16,15.6V306c0,8.4,7.2,15.6,16,15.6s16-7.2,16-15.6V133.2C266,124.8,258.8,117.6,250,117.6z"
   id="path10"
   style="stroke:none" />
<path
   d="M250,392.4c-6.4,0-12.4-2.4-16.8-6.8c-4.4-4.4-6.8-10.4-6.8-16.8s2.4-12.4,6.8-16.8c4.4-4.4,10.4-6.8,16.8-6.8  c6,0,12.4,2.4,16.8,6.8c4.4,4.4,6.8,10.4,6.8,16.8s-2.4,12.4-6.8,16.8S256.4,392.4,250,392.4z M250,353.2c-4,0-8,1.6-11.2,4.8  c-2.8,2.8-4.4,6.8-4.4,11.2c0,4,1.6,8,4.4,11.2c2.8,2.8,6.8,4.4,11.2,4.4c4,0,8-1.6,11.2-4.4c2.8-2.8,4.4-6.8,4.4-11.2  c0-4-1.6-8-4.4-11.2C258,354.8,254,353.2,250,353.2z"
   id="path12" />
<path
   d="M357.2,504H152.4c-1.2,0-2-0.4-2.8-1.2L3.2,356.4c-0.8-0.8-1.2-1.6-1.2-2.8V148.8c0-1.2,0.4-2,1.2-2.8L149.6,1.2  c0.8-0.8,1.6-1.2,2.8-1.2h204.8c1.2,0,2,0.4,2.8,1.2L500.8,146c0.8,0.8,1.2,1.6,1.2,2.8v204.8c0,1.2-0.4,2-1.2,2.8L360,502.8  C359.2,503.6,358.4,504,357.2,504z M154,496h201.6L494,352V150.4L355.6,8H154L10,150.4V352L154,496z"
   id="path14" />
<g
   id="g16">
</g>
<g
   id="g18">
</g>
<g
   id="g20">
</g>
<g
   id="g22">
</g>
<g
   id="g24">
</g>
<g
   id="g26">
</g>
<g
   id="g28">
</g>
<g
   id="g30">
</g>
<g
   id="g32">
</g>
<g
   id="g34">
</g>
<g
   id="g36">
</g>
<g
   id="g38">
</g>
<g
   id="g40">
</g>
<g
   id="g42">
</g>
<g
   id="g44">
</g>
</svg>
