<?xml version="1.0" encoding="UTF-8" standalone="no"?>
<svg
   xmlns:dc="http://purl.org/dc/elements/1.1/"
   xmlns:cc="http://creativecommons.org/ns#"
   xmlns:rdf="http://www.w3.org/1999/02/22-rdf-syntax-ns#"
   xmlns:svg="http://www.w3.org/2000/svg"
   xmlns="http://www.w3.org/2000/svg"
   xmlns:sodipodi="http://sodipodi.sourceforge.net/DTD/sodipodi-0.dtd"
   xmlns:inkscape="http://www.inkscape.org/namespaces/inkscape"
   version="1.1"
   id="Layer_1"
   x="0px"
   y="0px"
   viewBox="0 0 512 512"
   style="enable-background:new 0 0 512 512;"
   xml:space="preserve"
   sodipodi:docname="align-position.svg"
   inkscape:version="1.0.2 (e86c870879, 2021-01-15)"><metadata
   id="metadata93"><rdf:RDF><cc:Work
       rdf:about=""><dc:format>image/svg+xml</dc:format><dc:type
         rdf:resource="http://purl.org/dc/dcmitype/StillImage" /></cc:Work></rdf:RDF></metadata><defs
   id="defs91">
	
	
	
	
	
	
	
	
</defs><sodipodi:namedview
   pagecolor="#ffffff"
   bordercolor="#666666"
   borderopacity="1"
   objecttolerance="10"
   gridtolerance="10"
   guidetolerance="10"
   inkscape:pageopacity="0"
   inkscape:pageshadow="2"
   inkscape:window-width="1680"
   inkscape:window-height="982"
   id="namedview89"
   showgrid="false"
   inkscape:zoom="0.77441406"
   inkscape:cx="221.85791"
   inkscape:cy="401.21182"
   inkscape:window-x="0"
   inkscape:window-y="15"
   inkscape:window-maximized="1"
   inkscape:current-layer="Layer_1" />
<path
   style="fill:#E6EAEA;"
   d="M256,66.271H72.15c-4.428,0-8.017,3.589-8.017,8.017v179.574H256V66.271z"
   id="path2" />
<g
   id="g8">
	<path
   style="fill:#CDD4D5;"
   d="M447.866,253.862V74.288c0-4.427-3.588-8.017-8.017-8.017H256v187.591H447.866z"
   id="path4" />
	<path
   style="fill:#CDD4D5;"
   d="M64.134,253.862v183.85c0,4.427,3.588,8.017,8.017,8.017H256V253.862H64.134z"
   id="path6" />
</g>
<path
   style="fill:#E6EAEA;"
   d="M256,253.862v191.866h183.85c4.428,0,8.017-3.589,8.017-8.017v-183.85H256z"
   id="path10" />
<g
   id="g38">
	<path
   style="fill:#0295AA;"
   d="M256,98.338c4.428,0,8.017-3.589,8.017-8.017V74.288c0-4.427-3.588-8.017-8.017-8.017   c-4.428,0-8.017,3.589-8.017,8.017v16.033C247.983,94.749,251.572,98.338,256,98.338z"
   id="path12" />
	<path
   style="fill:#0295AA;"
   d="M256,293.168c-4.428,0-8.017,3.589-8.017,8.017v30.124c0,4.427,3.588,8.017,8.017,8.017   c4.428,0,8.017-3.589,8.017-8.017v-30.124C264.017,296.757,260.428,293.168,256,293.168z"
   id="path14" />
	<path
   style="fill:#0295AA;"
   d="M256,353.415c-4.428,0-8.017,3.589-8.017,8.017v30.124c0,4.427,3.588,8.017,8.017,8.017   c4.428,0,8.017-3.589,8.017-8.017v-30.124C264.017,357.004,260.428,353.415,256,353.415z"
   id="path16" />
	<path
   style="fill:#0295AA;"
   d="M256,218.831c4.428,0,8.017-3.589,8.017-8.017v-30.124c0-4.427-3.588-8.017-8.017-8.017   c-4.428,0-8.017,3.589-8.017,8.017v30.124C247.983,215.242,251.572,218.831,256,218.831z"
   id="path18" />
	<path
   style="fill:#0295AA;"
   d="M256,158.584c4.428,0,8.017-3.589,8.017-8.017v-30.124c0-4.427-3.588-8.017-8.017-8.017   c-4.428,0-8.017,3.589-8.017,8.017v30.124C247.983,154.995,251.572,158.584,256,158.584z"
   id="path20" />
	<path
   style="fill:#0295AA;"
   d="M256,413.662c-4.428,0-8.017,3.589-8.017,8.017v16.033c0,4.427,3.588,8.017,8.017,8.017   c4.428,0,8.017-3.589,8.017-8.017v-16.033C264.017,417.251,260.428,413.662,256,413.662z"
   id="path22" />
	<path
   style="fill:#0295AA;"
   d="M90.322,247.983H74.288c-4.428,0-8.017,3.589-8.017,8.017c0,4.427,3.588,8.017,8.017,8.017h16.033   c4.428,0,8.017-3.589,8.017-8.017C98.338,251.573,94.75,247.983,90.322,247.983z"
   id="path24" />
	<path
   style="fill:#0295AA;"
   d="M150.568,247.983h-30.124c-4.428,0-8.017,3.589-8.017,8.017c0,4.427,3.588,8.017,8.017,8.017h30.124   c4.428,0,8.017-3.589,8.017-8.017C158.584,251.573,154.996,247.983,150.568,247.983z"
   id="path26" />
	<path
   style="fill:#0295AA;"
   d="M331.308,247.983h-30.124c-4.428,0-8.017,3.589-8.017,8.017c0,4.427,3.588,8.017,8.017,8.017h30.124   c4.428,0,8.017-3.589,8.017-8.017C339.325,251.573,335.736,247.983,331.308,247.983z"
   id="path28" />
	<path
   style="fill:#0295AA;"
   d="M391.555,247.983H361.43c-4.428,0-8.017,3.589-8.017,8.017c0,4.427,3.588,8.017,8.017,8.017h30.125   c4.428,0,8.017-3.589,8.017-8.017C399.572,251.573,395.983,247.983,391.555,247.983z"
   id="path30" />
	<path
   style="fill:#0295AA;"
   d="M271.062,247.983h-7.045v-7.045c0-4.427-3.588-8.017-8.017-8.017c-4.428,0-8.017,3.589-8.017,8.017   v7.045h-7.045c-4.428,0-8.017,3.589-8.017,8.017c0,4.427,3.588,8.017,8.017,8.017h7.045v7.045c0,4.427,3.588,8.017,8.017,8.017   c4.428,0,8.017-3.589,8.017-8.017v-7.045h7.045c4.428,0,8.017-3.589,8.017-8.017C279.078,251.573,275.489,247.983,271.062,247.983z   "
   id="path32" />
	<path
   style="fill:#0295AA;"
   d="M210.815,247.983H180.69c-4.428,0-8.017,3.589-8.017,8.017c0,4.427,3.588,8.017,8.017,8.017h30.125   c4.428,0,8.017-3.589,8.017-8.017C218.831,251.573,215.243,247.983,210.815,247.983z"
   id="path34" />
	<path
   style="fill:#0295AA;"
   d="M437.712,247.983h-16.033c-4.428,0-8.017,3.589-8.017,8.017c0,4.427,3.588,8.017,8.017,8.017h16.033   c4.428,0,8.017-3.589,8.017-8.017C445.729,251.573,442.14,247.983,437.712,247.983z"
   id="path36" />
</g>
<path
   style="fill:#f0353d"
   d="m 72.15,56.651 c -4.428,0 -8.017,-3.589 -8.017,-8.017 V 14.43 c 0,-4.427 3.588,-8.017 8.017,-8.017 4.429,0 8.017,3.589 8.017,8.017 v 34.205 c 0,4.427 -3.588,8.016 -8.017,8.016 z"
   id="path44" /><path
   style="fill:#f0353d"
   d="M 42.221,82.305 H 8.017 C 3.588,82.305 0,78.715 0,74.288 0,69.861 3.588,66.271 8.017,66.271 h 34.205 c 4.428,0 8.017,3.589 8.017,8.017 0,4.428 -3.589,8.017 -8.018,8.017 z"
   id="path46" />
<g
   id="g58">
</g>
<g
   id="g60">
</g>
<g
   id="g62">
</g>
<g
   id="g64">
</g>
<g
   id="g66">
</g>
<g
   id="g68">
</g>
<g
   id="g70">
</g>
<g
   id="g72">
</g>
<g
   id="g74">
</g>
<g
   id="g76">
</g>
<g
   id="g78">
</g>
<g
   id="g80">
</g>
<g
   id="g82">
</g>
<g
   id="g84">
</g>
<g
   id="g86">
</g>
</svg>
