<?xml version="1.0" encoding="iso-8859-1"?>
<!-- Generator: Adobe Illustrator 19.0.0, SVG Export Plug-In . SVG Version: 6.00 Build 0)  -->
<svg version="1.1" id="Layer_1" xmlns="http://www.w3.org/2000/svg" xmlns:xlink="http://www.w3.org/1999/xlink" x="0px" y="0px"
	 viewBox="0 0 512 512" style="enable-background:new 0 0 512 512;" xml:space="preserve">
<g>
	<path style="fill:#3D6DEB;" d="M23.273,279.272H153.27l-18.454,18.454c-9.089,9.087-9.089,23.824,0,32.912
		c4.544,4.544,10.501,6.817,16.455,6.817c5.956,0,11.913-2.271,16.455-6.817l58.177-58.179c0.545-0.543,1.06-1.116,1.547-1.711
		c0.22-0.267,0.41-0.548,0.613-0.821c0.251-0.332,0.509-0.659,0.74-1.005c0.225-0.334,0.419-0.68,0.622-1.022
		c0.183-0.309,0.377-0.611,0.549-0.929c0.188-0.352,0.348-0.714,0.517-1.071c0.155-0.329,0.32-0.653,0.461-0.991
		c0.144-0.351,0.261-0.709,0.388-1.066c0.13-0.36,0.268-0.715,0.38-1.083c0.107-0.36,0.188-0.725,0.281-1.088
		c0.093-0.372,0.197-0.742,0.273-1.12c0.085-0.424,0.135-0.85,0.194-1.277c0.047-0.326,0.109-0.645,0.143-0.974
		c0.15-1.53,0.15-3.07,0-4.6c-0.033-0.329-0.096-0.65-0.143-0.974c-0.059-0.427-0.109-0.853-0.194-1.277
		c-0.076-0.38-0.18-0.748-0.273-1.12c-0.093-0.363-0.172-0.728-0.281-1.088c-0.112-0.368-0.25-0.723-0.38-1.083
		c-0.127-0.357-0.244-0.714-0.388-1.064c-0.141-0.338-0.306-0.663-0.461-0.991c-0.169-0.358-0.329-0.72-0.517-1.071
		c-0.171-0.318-0.365-0.619-0.549-0.929c-0.205-0.343-0.399-0.689-0.622-1.022c-0.23-0.346-0.487-0.673-0.74-1.005
		c-0.205-0.273-0.394-0.554-0.613-0.821c-0.489-0.594-1.004-1.168-1.547-1.711l-58.177-58.179c-9.087-9.089-23.824-9.089-32.912,0
		c-9.089,9.087-9.089,23.824,0,32.912l18.455,18.451H23.273C10.42,232.726,0,243.146,0,255.999S10.42,279.272,23.273,279.272z"/>
	<path style="fill:#3D6DEB;" d="M512,255.999c0-12.853-10.42-23.273-23.273-23.273H358.73l18.452-18.452
		c9.089-9.087,9.089-23.824,0-32.912c-9.087-9.089-23.824-9.089-32.912,0l-58.169,58.169c-0.548,0.548-1.067,1.123-1.559,1.722
		c-0.205,0.25-0.382,0.515-0.576,0.773c-0.264,0.349-0.534,0.69-0.776,1.055c-0.217,0.323-0.405,0.659-0.604,0.991
		c-0.191,0.32-0.391,0.631-0.566,0.959c-0.185,0.344-0.34,0.697-0.504,1.047c-0.158,0.338-0.329,0.67-0.472,1.016
		c-0.143,0.344-0.258,0.695-0.382,1.044c-0.133,0.366-0.273,0.728-0.386,1.103c-0.107,0.354-0.186,0.712-0.276,1.071
		c-0.096,0.379-0.202,0.751-0.278,1.137c-0.084,0.419-0.133,0.839-0.192,1.261c-0.047,0.33-0.11,0.655-0.144,0.988
		c-0.151,1.53-0.151,3.07,0,4.6c0.033,0.324,0.095,0.639,0.14,0.96c0.061,0.431,0.112,0.864,0.197,1.292
		c0.076,0.374,0.178,0.737,0.27,1.105c0.093,0.368,0.174,0.738,0.285,1.103c0.109,0.362,0.245,0.711,0.372,1.064
		c0.129,0.363,0.248,0.728,0.397,1.085c0.137,0.33,0.296,0.647,0.448,0.968c0.172,0.366,0.337,0.735,0.528,1.095
		c0.166,0.307,0.354,0.599,0.531,0.898c0.211,0.354,0.411,0.711,0.641,1.053c0.222,0.33,0.467,0.639,0.704,0.957
		c0.216,0.29,0.419,0.588,0.65,0.87c0.467,0.569,0.962,1.114,1.479,1.637c0.023,0.022,0.039,0.045,0.061,0.067l58.182,58.182
		c4.544,4.544,10.501,6.817,16.455,6.817c5.956,0,11.913-2.271,16.455-6.817c9.089-9.087,9.089-23.824,0-32.912l-18.451-18.454
		h129.997C501.58,279.272,512,268.852,512,255.999z"/>
</g>
<g>
</g>
<g>
</g>
<g>
</g>
<g>
</g>
<g>
</g>
<g>
</g>
<g>
</g>
<g>
</g>
<g>
</g>
<g>
</g>
<g>
</g>
<g>
</g>
<g>
</g>
<g>
</g>
<g>
</g>
</svg>
