<?xml version="1.0" encoding="iso-8859-1"?>
<!-- Generator: Adobe Illustrator 19.0.0, SVG Export Plug-In . SVG Version: 6.00 Build 0)  -->
<svg version="1.1" id="Layer_1" xmlns="http://www.w3.org/2000/svg" xmlns:xlink="http://www.w3.org/1999/xlink" x="0px" y="0px"
	 viewBox="0 0 512 512" style="enable-background:new 0 0 512 512;" xml:space="preserve">
<g>
	<path style="fill:#5286FA;" d="M188.716,278.428L87.785,379.355l-33.64-33.642c-9.071-9.073-22.714-11.782-34.566-6.876
		C7.727,343.746,0,355.313,0,368.141V480.28c0,17.517,14.201,31.718,31.718,31.718L143.859,512c0.015-0.002,0.025-0.002,0.04,0
		c17.519,0,31.718-14.201,31.718-31.718c0-9.255-3.965-17.585-10.287-23.385l-32.687-32.687L233.57,323.286
		c12.387-12.387,12.387-32.469,0-44.856C221.187,266.041,201.101,266.043,188.716,278.428z"/>
	<path style="fill:#5286FA;" d="M480.282,0h-112.14c-12.829,0-24.393,7.729-29.303,19.581c-4.908,11.852-2.195,25.495,6.876,34.566
		l33.644,33.644L278.434,188.719c-12.387,12.387-12.387,32.469,0,44.856c6.193,6.193,14.311,9.289,22.427,9.289
		c8.118,0,16.235-3.096,22.427-9.291l100.927-100.927l33.64,33.642c6.067,6.069,14.18,9.291,22.433,9.291
		c4.087,0,8.209-0.789,12.131-2.415c11.852-4.91,19.581-16.477,19.581-29.303V31.718C512,14.201,497.799,0,480.282,0z"/>
</g>
<g>
</g>
<g>
</g>
<g>
</g>
<g>
</g>
<g>
</g>
<g>
</g>
<g>
</g>
<g>
</g>
<g>
</g>
<g>
</g>
<g>
</g>
<g>
</g>
<g>
</g>
<g>
</g>
<g>
</g>
</svg>
