<?xml version="1.0" encoding="iso-8859-1"?>
<!-- Generator: Adobe Illustrator 19.0.0, SVG Export Plug-In . SVG Version: 6.00 Build 0)  -->
<svg version="1.1" id="Layer_1" xmlns="http://www.w3.org/2000/svg" xmlns:xlink="http://www.w3.org/1999/xlink" x="0px" y="0px"
	 viewBox="0 0 512 512" style="enable-background:new 0 0 512 512;" xml:space="preserve">
<path style="fill:#5286FA;" d="M502.709,457.855L188.715,143.861l89.712-89.712c9.074-9.071,11.786-22.714,6.877-34.567
	c-4.908-11.852-16.474-19.581-29.301-19.581H31.718C14.203,0.002,0,14.204,0,31.72v224.282c0,12.827,7.729,24.393,19.581,29.303
	c3.925,1.626,8.046,2.415,12.131,2.415c8.253,0,16.369-3.223,22.435-9.291l89.712-89.714l313.994,313.992
	c6.196,6.196,14.311,9.291,22.429,9.291c8.116,0,16.235-3.096,22.425-9.291C515.098,490.326,515.098,470.242,502.709,457.855z"/>
<g>
</g>
<g>
</g>
<g>
</g>
<g>
</g>
<g>
</g>
<g>
</g>
<g>
</g>
<g>
</g>
<g>
</g>
<g>
</g>
<g>
</g>
<g>
</g>
<g>
</g>
<g>
</g>
<g>
</g>
</svg>
