<?xml version="1.0" encoding="iso-8859-1"?>
<!-- Generator: Adobe Illustrator 19.0.0, SVG Export Plug-In . SVG Version: 6.00 Build 0)  -->
<svg version="1.1" id="Layer_1" xmlns="http://www.w3.org/2000/svg" xmlns:xlink="http://www.w3.org/1999/xlink" x="0px" y="0px"
	 viewBox="0 0 512.001 512.001" style="enable-background:new 0 0 512.001 512.001;" xml:space="preserve">
<path style="fill:#5286FA;" d="M505.185,239.545L388.821,123.181c-6.654-6.658-16.668-8.645-25.363-5.046
	c-8.698,3.601-14.367,12.088-14.367,21.501v93.091H162.91v-93.091c0-9.413-5.669-17.9-14.367-21.501
	c-8.693-3.6-18.707-1.612-25.363,5.046L6.817,239.545c-9.089,9.087-9.089,23.822,0,32.912L123.18,388.821
	c4.453,4.453,10.406,6.816,16.462,6.816c2.999,0,6.023-0.579,8.901-1.772c8.696-3.603,14.367-12.089,14.367-21.501v-93.091h186.182
	v93.091c0,9.411,5.669,17.898,14.367,21.501c2.878,1.193,5.904,1.772,8.901,1.772c6.056,0,12.009-2.365,16.46-6.817l116.364-116.364
	C514.274,263.367,514.274,248.632,505.185,239.545z"/>
<g>
</g>
<g>
</g>
<g>
</g>
<g>
</g>
<g>
</g>
<g>
</g>
<g>
</g>
<g>
</g>
<g>
</g>
<g>
</g>
<g>
</g>
<g>
</g>
<g>
</g>
<g>
</g>
<g>
</g>
</svg>
