<?xml version="1.0" encoding="iso-8859-1"?>
<!-- Generator: Adobe Illustrator 19.0.0, SVG Export Plug-In . SVG Version: 6.00 Build 0)  -->
<svg version="1.1" id="Layer_1" xmlns="http://www.w3.org/2000/svg" xmlns:xlink="http://www.w3.org/1999/xlink" x="0px" y="0px"
	 viewBox="0 0 512 512" style="enable-background:new 0 0 512 512;" xml:space="preserve">
<path style="fill:#5286FA;" d="M424.212,132.645l33.642,33.642c6.067,6.069,14.18,9.291,22.433,9.291
	c4.087,0,8.209-0.789,12.131-2.415c11.852-4.91,19.581-16.477,19.581-29.303V31.718C511.999,14.201,497.798,0,480.281,0H368.143
	c-12.829,0-24.393,7.729-29.303,19.581c-4.908,11.852-2.195,25.495,6.876,34.566l33.642,33.642L256.002,211.145L132.644,87.789
	l33.642-33.642c9.071-9.071,11.784-22.714,6.876-34.566C168.253,7.729,156.691,0,143.86,0H31.719
	C14.202,0,0.001,14.201,0.001,31.718v112.14c0,12.829,7.727,24.395,19.581,29.305c3.922,1.626,8.046,2.415,12.131,2.415
	c8.253,0,16.367-3.223,22.433-9.291l33.642-33.642l123.356,123.356L87.788,379.355l-33.642-33.642
	c-9.069-9.073-22.717-11.78-34.566-6.876c-11.852,4.91-19.579,16.474-19.579,29.303v112.14c0,17.517,14.201,31.718,31.718,31.718
	h112.14c0.015-0.002,0.027-0.002,0.04,0c17.519,0,31.718-14.201,31.718-31.718c0-9.255-3.965-17.585-10.287-23.385l-32.687-32.687
	L256,300.855l123.354,123.356l-33.64,33.642c-9.071,9.071-11.784,22.714-6.876,34.566C343.747,504.271,355.311,512,368.14,512
	h112.14c17.517,0,31.718-14.201,31.718-31.718v-112.14c0-12.829-7.727-24.395-19.581-29.303
	c-11.848-4.904-25.495-2.197-34.566,6.876l-33.644,33.644L300.854,256.003L424.212,132.645z"/>
<g>
</g>
<g>
</g>
<g>
</g>
<g>
</g>
<g>
</g>
<g>
</g>
<g>
</g>
<g>
</g>
<g>
</g>
<g>
</g>
<g>
</g>
<g>
</g>
<g>
</g>
<g>
</g>
<g>
</g>
</svg>
