<?xml version="1.0" encoding="iso-8859-1"?>
<!-- Generator: Adobe Illustrator 19.0.0, SVG Export Plug-In . SVG Version: 6.00 Build 0)  -->
<svg version="1.1" id="Layer_1" xmlns="http://www.w3.org/2000/svg" xmlns:xlink="http://www.w3.org/1999/xlink" x="0px" y="0px"
	 viewBox="0 0 512.001 512.001" style="enable-background:new 0 0 512.001 512.001;" xml:space="preserve">
<path style="fill:#5286FA;" d="M488.729,116.363H162.911V23.272c0-9.413-5.669-17.9-14.367-21.501
	c-8.692-3.6-18.707-1.61-25.363,5.046L6.817,123.18c-9.089,9.089-9.089,23.824,0,32.912l116.364,116.364
	c4.451,4.453,10.404,6.817,16.46,6.817c2.999,0,6.023-0.579,8.901-1.772c8.696-3.603,14.367-12.089,14.367-21.501V162.91h302.545
	v325.818c0,12.853,10.42,23.273,23.273,23.273S512,501.581,512,488.728V139.635C512.001,126.783,501.581,116.363,488.729,116.363z"
	/>
<g>
</g>
<g>
</g>
<g>
</g>
<g>
</g>
<g>
</g>
<g>
</g>
<g>
</g>
<g>
</g>
<g>
</g>
<g>
</g>
<g>
</g>
<g>
</g>
<g>
</g>
<g>
</g>
<g>
</g>
</svg>
