<?xml version="1.0" encoding="iso-8859-1"?>
<!-- Generator: Adobe Illustrator 19.0.0, SVG Export Plug-In . SVG Version: 6.00 Build 0)  -->
<svg version="1.1" id="Layer_1" xmlns="http://www.w3.org/2000/svg" xmlns:xlink="http://www.w3.org/1999/xlink" x="0px" y="0px"
	 viewBox="0 0 512.001 512.001" style="enable-background:new 0 0 512.001 512.001;" xml:space="preserve">
<path style="fill:#5286FA;" d="M502.709,9.292c-12.385-12.387-32.469-12.387-44.856,0L143.859,323.286l-89.714-89.711
	c-9.073-9.071-22.714-11.782-34.566-6.876C7.727,231.609,0,243.173,0,256.002v224.279c0,17.517,14.201,31.718,31.718,31.718h224.281
	c0.015-0.002,0.025-0.002,0.042,0c17.519,0,31.718-14.201,31.718-31.718c0-9.255-3.963-17.585-10.285-23.385l-88.76-88.758
	l313.994-313.99C515.098,41.761,515.098,21.679,502.709,9.292z"/>
<g>
</g>
<g>
</g>
<g>
</g>
<g>
</g>
<g>
</g>
<g>
</g>
<g>
</g>
<g>
</g>
<g>
</g>
<g>
</g>
<g>
</g>
<g>
</g>
<g>
</g>
<g>
</g>
<g>
</g>
</svg>
