<?xml version="1.0" encoding="iso-8859-1"?>
<!-- Generator: Adobe Illustrator 19.0.0, SVG Export Plug-In . SVG Version: 6.00 Build 0)  -->
<svg version="1.1" id="Layer_1" xmlns="http://www.w3.org/2000/svg" xmlns:xlink="http://www.w3.org/1999/xlink" x="0px" y="0px"
	 viewBox="0 0 511.998 511.998" style="enable-background:new 0 0 511.998 511.998;" xml:space="preserve">
<path style="fill:#5286FA;" d="M480.28,0H256.001c-12.829,0-24.393,7.729-29.303,19.581c-4.908,11.852-2.195,25.495,6.876,34.566
	l89.711,89.714L9.291,457.853c-12.385,12.385-12.385,32.469,0,44.856c6.193,6.193,14.311,9.289,22.429,9.289
	s16.235-3.098,22.427-9.289l313.992-313.994l89.711,89.711c6.067,6.069,14.18,9.289,22.433,9.289c4.087,0,8.209-0.789,12.131-2.415
	c11.852-4.91,19.581-16.477,19.581-29.303V31.718C511.998,14.201,497.796,0,480.28,0z"/>
<g>
</g>
<g>
</g>
<g>
</g>
<g>
</g>
<g>
</g>
<g>
</g>
<g>
</g>
<g>
</g>
<g>
</g>
<g>
</g>
<g>
</g>
<g>
</g>
<g>
</g>
<g>
</g>
<g>
</g>
</svg>
