<?xml version="1.0" encoding="iso-8859-1"?>
<!-- Generator: Adobe Illustrator 19.0.0, SVG Export Plug-In . SVG Version: 6.00 Build 0)  -->
<svg version="1.1" id="Layer_1" xmlns="http://www.w3.org/2000/svg" xmlns:xlink="http://www.w3.org/1999/xlink" x="0px" y="0px"
	 viewBox="0 0 512.001 512.001" style="enable-background:new 0 0 512.001 512.001;" xml:space="preserve">
<path style="fill:#5286FA;" d="M505.184,123.181L388.82,6.818c-6.656-6.658-16.666-8.648-25.363-5.046
	c-8.696,3.603-14.367,12.089-14.367,21.502v93.091H23.274c-12.853,0-23.273,10.42-23.273,23.273v349.09
	c0,12.853,10.42,23.273,23.273,23.273s23.273-10.42,23.273-23.273V162.911h302.545v93.091c0,9.413,5.669,17.9,14.367,21.501
	c2.878,1.192,5.904,1.772,8.899,1.772c6.057,0,12.01-2.365,16.462-6.817l116.363-116.363
	C514.272,147.005,514.272,132.27,505.184,123.181z"/>
<g>
</g>
<g>
</g>
<g>
</g>
<g>
</g>
<g>
</g>
<g>
</g>
<g>
</g>
<g>
</g>
<g>
</g>
<g>
</g>
<g>
</g>
<g>
</g>
<g>
</g>
<g>
</g>
<g>
</g>
</svg>
