<?xml version="1.0" encoding="iso-8859-1"?>
<!-- Generator: Adobe Illustrator 19.0.0, SVG Export Plug-In . SVG Version: 6.00 Build 0)  -->
<svg version="1.1" id="Layer_1" xmlns="http://www.w3.org/2000/svg" xmlns:xlink="http://www.w3.org/1999/xlink" x="0px" y="0px"
	 viewBox="0 0 512 512" style="enable-background:new 0 0 512 512;" xml:space="preserve">
<path style="fill:#5286FA;" d="M505.183,355.908L388.819,239.545c-6.654-6.658-16.668-8.645-25.363-5.046
	c-8.696,3.601-14.367,12.088-14.367,21.501v93.091H46.545V23.273C46.545,10.42,36.125,0,23.273,0S0,10.42,0,23.273v349.091
	c0,12.853,10.42,23.273,23.273,23.273h325.818v93.091c0,9.411,5.669,17.898,14.367,21.501c2.878,1.193,5.904,1.772,8.901,1.772
	c6.056,0,12.009-2.365,16.46-6.817l116.364-116.364C514.273,379.73,514.273,364.996,505.183,355.908z"/>
<g>
</g>
<g>
</g>
<g>
</g>
<g>
</g>
<g>
</g>
<g>
</g>
<g>
</g>
<g>
</g>
<g>
</g>
<g>
</g>
<g>
</g>
<g>
</g>
<g>
</g>
<g>
</g>
<g>
</g>
</svg>
