<?xml version="1.0" encoding="iso-8859-1"?>
<!-- Generator: Adobe Illustrator 19.0.0, SVG Export Plug-In . SVG Version: 6.00 Build 0)  -->
<svg version="1.1" id="Layer_1" xmlns="http://www.w3.org/2000/svg" xmlns:xlink="http://www.w3.org/1999/xlink" x="0px" y="0px"
	 viewBox="0 0 512.001 512.001" style="enable-background:new 0 0 512.001 512.001;" xml:space="preserve">
<path style="fill:#5286FA;" d="M372.365,349.092h-93.091V162.91h93.091c9.413,0,17.898-5.671,21.501-14.367
	c3.601-8.696,1.61-18.707-5.046-25.363L272.457,6.817c-9.087-9.089-23.824-9.089-32.912,0L123.181,123.18
	c-6.656,6.656-8.647,16.666-5.046,25.363c3.604,8.696,12.089,14.367,21.502,14.367h93.091v186.182h-93.091
	c-9.413,0-17.898,5.671-21.501,14.367c-3.601,8.696-1.61,18.707,5.046,25.363l116.364,116.364
	c4.543,4.544,10.499,6.816,16.455,6.816c5.956,0,11.913-2.271,16.455-6.817L388.82,388.82c6.656-6.656,8.647-16.666,5.046-25.363
	C390.263,354.762,381.779,349.092,372.365,349.092z"/>
<g>
</g>
<g>
</g>
<g>
</g>
<g>
</g>
<g>
</g>
<g>
</g>
<g>
</g>
<g>
</g>
<g>
</g>
<g>
</g>
<g>
</g>
<g>
</g>
<g>
</g>
<g>
</g>
<g>
</g>
</svg>
