<?xml version="1.0" encoding="iso-8859-1"?>
<!-- Generator: Adobe Illustrator 19.0.0, SVG Export Plug-In . SVG Version: 6.00 Build 0)  -->
<svg version="1.1" id="Layer_1" xmlns="http://www.w3.org/2000/svg" xmlns:xlink="http://www.w3.org/1999/xlink" x="0px" y="0px"
	 viewBox="0 0 511.999 511.999" style="enable-background:new 0 0 511.999 511.999;" xml:space="preserve">
<path style="fill:#5286FA;" d="M488.728,232.726H162.91v-93.091c0-9.413-5.669-17.9-14.367-21.501
	c-8.698-3.603-18.71-1.61-25.363,5.046L6.817,239.544c-9.089,9.089-9.089,23.824,0,32.912L123.18,388.82
	c4.453,4.453,10.404,6.817,16.462,6.817c2.998,0,6.021-0.58,8.899-1.772c8.696-3.603,14.367-12.089,14.367-21.501v-93.091h325.818
	c12.853,0,23.273-10.42,23.273-23.273C511.999,243.148,501.581,232.726,488.728,232.726z"/>
<g>
</g>
<g>
</g>
<g>
</g>
<g>
</g>
<g>
</g>
<g>
</g>
<g>
</g>
<g>
</g>
<g>
</g>
<g>
</g>
<g>
</g>
<g>
</g>
<g>
</g>
<g>
</g>
<g>
</g>
</svg>
