<?xml version="1.0" encoding="iso-8859-1"?>
<!-- Generator: Adobe Illustrator 19.0.0, SVG Export Plug-In . SVG Version: 6.00 Build 0)  -->
<svg version="1.1" id="Layer_1" xmlns="http://www.w3.org/2000/svg" xmlns:xlink="http://www.w3.org/1999/xlink" x="0px" y="0px"
	 viewBox="0 0 512.002 512.002" style="enable-background:new 0 0 512.002 512.002;" xml:space="preserve">
<path style="fill:#5286FA;" d="M488.729,0c-12.853,0-23.273,10.42-23.273,23.273v325.818H162.911V256
	c0-9.413-5.669-17.9-14.367-21.501c-8.698-3.604-18.71-1.612-25.363,5.046L6.818,355.908c-9.089,9.087-9.089,23.822,0,32.912
	l116.364,116.364c4.453,4.453,10.404,6.817,16.462,6.817c2.998,0,6.021-0.579,8.899-1.772c8.696-3.603,14.367-12.089,14.367-21.501
	v-93.091h325.818c12.853,0,23.273-10.42,23.273-23.273V23.273C512.002,10.42,501.582,0,488.729,0z"/>
<g>
</g>
<g>
</g>
<g>
</g>
<g>
</g>
<g>
</g>
<g>
</g>
<g>
</g>
<g>
</g>
<g>
</g>
<g>
</g>
<g>
</g>
<g>
</g>
<g>
</g>
<g>
</g>
<g>
</g>
</svg>
