<?xml version="1.0" encoding="iso-8859-1"?>
<!-- Generator: Adobe Illustrator 19.0.0, SVG Export Plug-In . SVG Version: 6.00 Build 0)  -->
<svg version="1.1" id="Layer_1" xmlns="http://www.w3.org/2000/svg" xmlns:xlink="http://www.w3.org/1999/xlink" x="0px" y="0px"
	 viewBox="0 0 512.001 512.001" style="enable-background:new 0 0 512.001 512.001;" xml:space="preserve">
<path style="fill:#6A82A1;" d="M491.797,212.222c-11.157,0-20.203,9.046-20.203,20.203v3.373h-77.492v-3.373
	c0-11.157-9.046-20.203-20.203-20.203c-11.157,0-20.203,9.046-20.203,20.203v3.373h-77.493v-77.493h3.373
	c11.157,0,20.203-9.046,20.203-20.203s-9.046-20.203-20.203-20.203h-3.373V40.406h3.373c11.157,0,20.203-9.046,20.203-20.203
	S290.733,0,279.576,0h-47.152c-11.157,0-20.203,9.046-20.203,20.203s9.046,20.203,20.203,20.203h3.373v77.492h-3.373
	c-11.157,0-20.203,9.046-20.203,20.203s9.046,20.203,20.203,20.203h3.373v77.493h-77.493v-3.373
	c0-11.157-9.046-20.203-20.203-20.203s-20.203,9.046-20.203,20.203v3.373H40.406v-3.373c0-11.157-9.046-20.203-20.203-20.203
	S0,221.267,0,232.424v47.152c0,11.157,9.046,20.203,20.203,20.203s20.203-9.046,20.203-20.203v-3.373h77.492v3.373
	c0,11.157,9.046,20.203,20.203,20.203s20.203-9.046,20.203-20.203v-3.373h77.493v77.492h-3.373
	c-11.157,0-20.203,9.046-20.203,20.203c0,11.157,9.046,20.203,20.203,20.203h3.373v77.493h-3.373
	c-11.157,0-20.203,9.046-20.203,20.203c0,11.157,9.046,20.203,20.203,20.203h47.152c11.157,0,20.203-9.046,20.203-20.203
	c0-11.157-9.046-20.203-20.203-20.203h-3.373v-77.493h3.373c11.157,0,20.203-9.046,20.203-20.203
	c0-11.157-9.046-20.203-20.203-20.203h-3.373v-77.492h77.493v3.373c0,11.157,9.046,20.203,20.203,20.203
	c11.157,0,20.203-9.046,20.203-20.203v-3.373h77.492v3.373c0,11.157,9.046,20.203,20.203,20.203
	c11.157,0,20.203-9.046,20.203-20.203v-47.152C512,221.266,502.954,212.222,491.797,212.222z"/>
<path style="fill:#FFDA79;" d="M491.797,185.346c-91.06,0-165.143-74.083-165.143-165.143C326.654,9.046,335.699,0,346.857,0
	c11.157,0,20.203,9.046,20.203,20.203c0,68.78,55.957,124.739,124.737,124.739c11.157,0,20.203,9.046,20.203,20.203
	C512,176.302,502.954,185.346,491.797,185.346z"/>
<path style="fill:#FFAFAE;" d="M165.143,512c-11.157,0-20.203-9.046-20.203-20.203c0-68.78-55.957-124.737-124.737-124.737
	C9.046,367.06,0,358.014,0,346.857c0-11.157,9.046-20.203,20.203-20.203c91.06,0,165.143,74.083,165.143,165.143
	C185.346,502.954,176.302,512,165.143,512z"/>
<path style="fill:#36495E;" d="M491.797,212.222c-11.157,0-20.203,9.046-20.203,20.203v3.373h-77.492v-3.373
	c0-11.157-9.046-20.203-20.203-20.203c-11.157,0-20.203,9.046-20.203,20.203v3.373h-77.493v-77.493h3.373
	c11.157,0,20.203-9.046,20.203-20.203s-9.046-20.203-20.203-20.203h-3.373V40.406h3.373c11.157,0,20.203-9.046,20.203-20.203
	S290.733,0,279.576,0H256v512h23.576c11.157,0,20.203-9.046,20.203-20.203c0-11.157-9.046-20.203-20.203-20.203h-3.373v-77.493
	h3.373c11.157,0,20.203-9.046,20.203-20.203c0-11.157-9.046-20.203-20.203-20.203h-3.373v-77.492h77.493v3.373
	c0,11.157,9.046,20.203,20.203,20.203c11.157,0,20.203-9.046,20.203-20.203v-3.373h77.492v3.373
	c0,11.157,9.046,20.203,20.203,20.203c11.157,0,20.203-9.046,20.203-20.203v-47.152C512,221.266,502.954,212.222,491.797,212.222z"
	/>
<g>
</g>
<g>
</g>
<g>
</g>
<g>
</g>
<g>
</g>
<g>
</g>
<g>
</g>
<g>
</g>
<g>
</g>
<g>
</g>
<g>
</g>
<g>
</g>
<g>
</g>
<g>
</g>
<g>
</g>
</svg>
