<?xml version="1.0" encoding="iso-8859-1"?>
<!-- Generator: Adobe Illustrator 19.0.0, SVG Export Plug-In . SVG Version: 6.00 Build 0)  -->
<svg version="1.1" id="Layer_1" xmlns="http://www.w3.org/2000/svg" xmlns:xlink="http://www.w3.org/1999/xlink" x="0px" y="0px"
	 viewBox="0 0 512 512" style="enable-background:new 0 0 512 512;" xml:space="preserve">
<g>
	<rect x="163.31" y="70.581" style="fill:#874641;" width="17.655" height="26.483"/>
	<rect x="322.207" y="70.581" style="fill:#874641;" width="17.655" height="26.483"/>
</g>
<path style="fill:#915046;" d="M459.034,476.65H52.966c-19.501,0-35.31-15.809-35.31-35.31V308.926h476.69V441.34
	C494.345,460.841,478.536,476.65,459.034,476.65z"/>
<path style="fill:#9B5A50;" d="M459.034,458.995H52.966c-9.751,0-17.655-7.904-17.655-17.655V308.926H476.69V441.34
	C476.69,451.09,468.786,458.995,459.034,458.995z"/>
<path style="fill:#AA6455;" d="M459.034,335.409H52.966C23.713,335.409,0,311.696,0,282.443V105.891
	c0-9.751,7.904-17.655,17.655-17.655h476.69c9.751,0,17.655,7.904,17.655,17.655v176.552
	C512,311.696,488.287,335.409,459.034,335.409z"/>
<path style="fill:#874641;" d="M459.034,353.064c12.87,0,24.908-3.517,35.31-9.556v-21.666c-9.376,8.408-21.726,13.566-35.31,13.566
	H52.966c-13.586,0-25.935-5.159-35.31-13.567v21.666c10.402,6.039,22.441,9.556,35.31,9.556h406.069V353.064z"/>
<path style="fill:#9B5A50;" d="M141.241,485.478h-17.655c-4.875,0-8.828-3.953-8.828-8.828V88.236c0-4.875,3.953-8.828,8.828-8.828
	h17.655c4.875,0,8.828,3.953,8.828,8.828V476.65C150.069,481.525,146.116,485.478,141.241,485.478z"/>
<g>
	<path style="fill:#915046;" d="M141.241,485.478h-17.655c-4.875,0-8.828-3.953-8.828-8.828V317.754h35.31V476.65
		C150.069,481.525,146.116,485.478,141.241,485.478z"/>
	<path style="fill:#915046;" d="M158.897,238.305h-52.966c-9.751,0-17.655-7.904-17.655-17.655l0,0
		c0-9.751,7.904-17.655,17.655-17.655h52.966c9.751,0,17.655,7.904,17.655,17.655l0,0
		C176.552,230.4,168.648,238.305,158.897,238.305z"/>
</g>
<g>
	<rect x="114.759" y="202.99" style="fill:#874641;" width="35.31" height="35.31"/>
	<path style="fill:#874641;" d="M150.069,397.202h-35.31c-4.875,0-8.828-3.953-8.828-8.828l0,0c0-4.875,3.953-8.828,8.828-8.828
		h35.31c4.875,0,8.828,3.953,8.828,8.828l0,0C158.897,393.249,154.944,397.202,150.069,397.202z"/>
</g>
<path style="fill:#FFC36E;" d="M150.069,300.098h-35.31c-9.737,0-17.655,7.918-17.655,17.655v26.483
	c0,9.737,7.918,17.655,17.655,17.655l-0.013-44.138h0.013h35.31v44.138c9.737,0,17.655-7.918,17.655-17.655v-26.483
	C167.724,308.017,159.806,300.098,150.069,300.098z"/>
<path style="fill:#FFD782;" d="M132.414,326.581c-4.875,0-8.828-3.953-8.828-8.828v-17.655c0-4.875,3.953-8.828,8.828-8.828
	c4.875,0,8.828,3.953,8.828,8.828v17.655C141.241,322.629,137.289,326.581,132.414,326.581z"/>
<path style="fill:#9B5A50;" d="M388.414,485.478h-17.655c-4.875,0-8.828-3.953-8.828-8.828V88.236c0-4.875,3.953-8.828,8.828-8.828
	h17.655c4.875,0,8.828,3.953,8.828,8.828V476.65C397.241,481.525,393.289,485.478,388.414,485.478z"/>
<g>
	<path style="fill:#915046;" d="M388.414,485.478h-17.655c-4.875,0-8.828-3.953-8.828-8.828V317.754h35.31V476.65
		C397.241,481.525,393.289,485.478,388.414,485.478z"/>
	<path style="fill:#915046;" d="M406.069,238.305h-52.966c-9.751,0-17.655-7.904-17.655-17.655l0,0
		c0-9.751,7.904-17.655,17.655-17.655h52.966c9.751,0,17.655,7.904,17.655,17.655l0,0C423.724,230.4,415.82,238.305,406.069,238.305
		z"/>
</g>
<g>
	<rect x="361.931" y="202.99" style="fill:#874641;" width="35.31" height="35.31"/>
	<path style="fill:#874641;" d="M397.241,397.202h-35.31c-4.875,0-8.828-3.953-8.828-8.828l0,0c0-4.875,3.953-8.828,8.828-8.828
		h35.31c4.875,0,8.828,3.953,8.828,8.828l0,0C406.069,393.249,402.116,397.202,397.241,397.202z"/>
</g>
<path style="fill:#FFC36E;" d="M397.241,300.098h-35.31c-9.737,0-17.655,7.918-17.655,17.655v26.483
	c0,9.737,7.918,17.655,17.655,17.655l-0.013-44.138h0.013h35.31v44.138c9.737,0,17.655-7.918,17.655-17.655v-26.483
	C414.897,308.017,406.978,300.098,397.241,300.098z"/>
<path style="fill:#FFD782;" d="M379.586,326.581c-4.875,0-8.828-3.953-8.828-8.828v-17.655c0-4.875,3.953-8.828,8.828-8.828
	s8.828,3.953,8.828,8.828v17.655C388.414,322.629,384.461,326.581,379.586,326.581z"/>
<path style="fill:#9B5A50;" d="M330.955,78.1c-7.315,0-13.241-5.927-13.241-13.241c0-2.478-1.311-4.138-2.259-4.388
	c-38.182-9.974-89.716-9.974-127.896,0c-0.948,0.25-2.259,1.909-2.259,4.388c0,7.315-5.927,13.241-13.241,13.241
	s-13.241-5.927-13.241-13.241c0-14.276,9.065-26.616,22.044-30.008c42.492-11.104,98.802-11.104,141.293,0
	c12.979,3.392,22.044,15.733,22.044,30.008C344.196,72.173,338.27,78.1,330.955,78.1z"/>
<g>
</g>
<g>
</g>
<g>
</g>
<g>
</g>
<g>
</g>
<g>
</g>
<g>
</g>
<g>
</g>
<g>
</g>
<g>
</g>
<g>
</g>
<g>
</g>
<g>
</g>
<g>
</g>
<g>
</g>
</svg>
