<?xml version="1.0" encoding="UTF-8" standalone="no"?>
<svg
   xmlns:dc="http://purl.org/dc/elements/1.1/"
   xmlns:cc="http://creativecommons.org/ns#"
   xmlns:rdf="http://www.w3.org/1999/02/22-rdf-syntax-ns#"
   xmlns:svg="http://www.w3.org/2000/svg"
   xmlns="http://www.w3.org/2000/svg"
   xmlns:sodipodi="http://sodipodi.sourceforge.net/DTD/sodipodi-0.dtd"
   xmlns:inkscape="http://www.inkscape.org/namespaces/inkscape"
   version="1.1"
   id="Capa_1"
   x="0px"
   y="0px"
   viewBox="0 0 55 55"
   style="enable-background:new 0 0 55 55;"
   xml:space="preserve"
   sodipodi:docname="checked-list.svg"
   inkscape:version="1.0.2 (e86c870879, 2021-01-15)"><metadata
   id="metadata63"><rdf:RDF><cc:Work
       rdf:about=""><dc:format>image/svg+xml</dc:format><dc:type
         rdf:resource="http://purl.org/dc/dcmitype/StillImage" /></cc:Work></rdf:RDF></metadata><defs
   id="defs61">
	
	

		
		
		
		
		
		
		
	</defs><sodipodi:namedview
   pagecolor="#ffffff"
   bordercolor="#666666"
   borderopacity="1"
   objecttolerance="10"
   gridtolerance="10"
   guidetolerance="10"
   inkscape:pageopacity="0"
   inkscape:pageshadow="2"
   inkscape:window-width="1680"
   inkscape:window-height="982"
   id="namedview59"
   showgrid="false"
   inkscape:zoom="5.0975971"
   inkscape:cx="65.35941"
   inkscape:cy="21.089258"
   inkscape:window-x="0"
   inkscape:window-y="15"
   inkscape:window-maximized="1"
   inkscape:current-layer="Capa_1"
   inkscape:document-rotation="0" />
<path
   style="fill:#3abca7"
   d="M 44.136,52 H 8.864 C 4.245,52 0.5,48.255 0.5,43.636 V 8.364 C 0.5,3.745 4.245,0 8.864,0 H 44.136 C 48.755,0 52.5,3.745 52.5,8.364 V 43.636 C 52.5,48.255 48.755,52 44.136,52 Z"
   id="path2" /><path
   style="fill:#ffffff"
   d="m 44.5,14 h -18 c -0.552,0 -1,-0.447 -1,-1 0,-0.553 0.448,-1 1,-1 h 18 c 0.553,0 1,0.447 1,1 0,0.553 -0.447,1 -1,1 z"
   id="path4" /><path
   style="fill:#ffffff"
   d="m 44.5,28 h -18 c -0.552,0 -1,-0.447 -1,-1 0,-0.553 0.448,-1 1,-1 h 18 c 0.553,0 1,0.447 1,1 0,0.553 -0.447,1 -1,1 z"
   id="path6" /><path
   style="fill:#ffffff"
   d="m 44.5,42 h -18 c -0.552,0 -1,-0.447 -1,-1 0,-0.553 0.448,-1 1,-1 h 18 c 0.553,0 1,0.447 1,1 0,0.553 -0.447,1 -1,1 z"
   id="path8" /><path
   style="fill:#ffffff;stroke-width:2.08737"
   d="m 11.179872,39.035441 c -0.332006,0 -0.667189,-0.178284 -0.953127,-0.548569 L 2.9655088,29.081667 C 2.2633721,28.173787 2.1219917,26.454025 2.6477999,25.244432 3.173608,24.03484 4.1680369,23.787983 4.8717621,24.695863 l 6.0714169,7.860985 9.925225,-19.989831 c 0.570287,-1.151994 1.575837,-1.28365 2.239847,-0.296226 0.665601,0.98468 0.74344,2.715412 0.171563,3.864663 L 12.387165,38.078189 c -0.314531,0.630853 -0.757735,0.957252 -1.207293,0.957252 z"
   id="path12" />
<g
   id="g28">
</g>
<g
   id="g30">
</g>
<g
   id="g32">
</g>
<g
   id="g34">
</g>
<g
   id="g36">
</g>
<g
   id="g38">
</g>
<g
   id="g40">
</g>
<g
   id="g42">
</g>
<g
   id="g44">
</g>
<g
   id="g46">
</g>
<g
   id="g48">
</g>
<g
   id="g50">
</g>
<g
   id="g52">
</g>
<g
   id="g54">
</g>
<g
   id="g56">
</g>
</svg>
