<?xml version="1.0" encoding="iso-8859-1"?>
<!-- Generator: Adobe Illustrator 19.0.0, SVG Export Plug-In . SVG Version: 6.00 Build 0)  -->
<svg xmlns="http://www.w3.org/2000/svg" xmlns:xlink="http://www.w3.org/1999/xlink" version="1.1" id="Capa_1" x="0px" y="0px" viewBox="0 0 462.5 462.5" style="enable-background:new 0 0 462.5 462.5;" xml:space="preserve" width="512" height="512">
<g>
	<path style="fill:#C1E8E6;" d="M193.751,204.18V7.5h-110v196.68c-47.14,21.06-80,68.35-80,123.32c0,74.56,60.44,135,135,135   c19.8,0,38.6-4.26,55.54-11.92l60.65-191.82C240.741,234.81,219.361,215.62,193.751,204.18z"/>
	<path style="fill:#6DA8D6;" d="M240.121,300.19l-40.31,112.68c-17.22,12.35-38.3,19.63-61.06,19.63c-57.9,0-105-47.1-105-105   c0-9.36,1.25-18.53,3.63-27.31H240.121z"/>
	<path style="fill:#98D9D5;" d="M196.251,15h-115c-4.143,0-7.5-3.358-7.5-7.5s3.357-7.5,7.5-7.5h115c4.143,0,7.5,3.358,7.5,7.5   S200.394,15,196.251,15z"/>
	<path style="fill:#F2EBD9;" d="M456.841,429.8l-83.8-234.24V97.5h-95.49v98.06l-83.8,234.24c-2.82,7.88-2.41,15.12,0.54,20.78   c3.77,7.27,11.75,11.92,22.49,11.92h217.03C452.911,462.5,463.271,447.79,456.841,429.8z"/>
	<polygon style="fill:#FFCC75;" points="367.881,270.19 425.941,432.5 224.651,432.5 282.711,270.19  "/>
	<path style="fill:#FFCC75;" d="M375.544,105H275.05c-4.143,0-7.5-3.358-7.5-7.5s3.357-7.5,7.5-7.5h100.494   c4.143,0,7.5,3.358,7.5,7.5S379.687,105,375.544,105z"/>
</g>















</svg>
