<?xml version="1.0" encoding="iso-8859-1"?>
<!-- Generator: Adobe Illustrator 19.0.0, SVG Export Plug-In . SVG Version: 6.00 Build 0)  -->
<svg version="1.1" id="Layer_1" xmlns="http://www.w3.org/2000/svg" xmlns:xlink="http://www.w3.org/1999/xlink" x="0px" y="0px"
	 viewBox="0 0 511.998 511.998" style="enable-background:new 0 0 511.998 511.998;" xml:space="preserve">
<g>
	<path style="fill:#0089FF;" d="M472.271,216.272l-216.266,216.27L39.729,216.27c-9.087-9.087-23.824-9.089-32.912,0.002
		c-9.089,9.089-9.089,23.824,0,32.912L239.55,481.911c4.364,4.364,10.283,6.816,16.455,6.816c6.172,0,12.092-2.453,16.455-6.817
		l232.721-232.727c9.089-9.089,9.089-23.824,0-32.912C496.095,207.183,481.358,207.181,472.271,216.272z"/>
	<path style="fill:#0089FF;" d="M239.55,295.729c4.364,4.364,10.283,6.816,16.455,6.816c6.172,0,12.092-2.453,16.455-6.817
		L505.182,63c9.089-9.089,9.089-23.824,0-32.912c-9.087-9.089-23.824-9.089-32.912,0l-216.266,216.27L39.729,30.088
		c-9.087-9.089-23.824-9.089-32.912,0s-9.089,23.824,0,32.912L239.55,295.729z"/>
</g>
<g>
</g>
<g>
</g>
<g>
</g>
<g>
</g>
<g>
</g>
<g>
</g>
<g>
</g>
<g>
</g>
<g>
</g>
<g>
</g>
<g>
</g>
<g>
</g>
<g>
</g>
<g>
</g>
<g>
</g>
</svg>
