<?xml version="1.0" encoding="iso-8859-1"?>
<!-- Generator: Adobe Illustrator 19.0.0, SVG Export Plug-In . SVG Version: 6.00 Build 0)  -->
<svg version="1.1" id="Layer_1" xmlns="http://www.w3.org/2000/svg" xmlns:xlink="http://www.w3.org/1999/xlink" x="0px" y="0px"
	 viewBox="0 0 511.98 511.98" style="enable-background:new 0 0 511.98 511.98;" xml:space="preserve">
<path style="fill:#EC5564;" d="M255.99,501.309c-33.124,0-65.248-6.484-95.489-19.28c-29.209-12.359-55.451-30.047-77.981-52.576
	c-22.53-22.53-40.225-48.765-52.576-77.982c-12.796-30.233-19.28-62.373-19.28-95.481c0-33.124,6.484-65.263,19.28-95.497
	c12.351-29.217,30.046-55.451,52.576-77.981c22.53-22.531,48.771-40.218,77.981-52.577c30.241-12.796,62.365-19.28,95.489-19.28
	s65.248,6.484,95.497,19.28c29.201,12.359,55.436,30.046,77.966,52.577c22.529,22.53,40.232,48.764,52.592,77.981
	c12.78,30.233,19.28,62.373,19.28,95.497c0,33.108-6.5,65.248-19.28,95.481c-12.359,29.217-30.062,55.451-52.592,77.981
	c-22.53,22.529-48.765,40.217-77.966,52.576C321.238,494.825,289.114,501.309,255.99,501.309z"/>
<path style="fill:#D94452;" d="M255.99,0C114.613,0,0,114.605,0,255.99c0,141.37,114.613,255.99,255.99,255.99
	c141.37,0,255.99-114.62,255.99-255.99C511.98,114.605,397.36,0,255.99,0z M421.922,421.906
	c-21.562,21.562-46.655,38.482-74.591,50.311c-28.921,12.219-59.654,18.421-91.341,18.421s-62.419-6.202-91.333-18.421
	c-27.944-11.828-53.037-28.749-74.599-50.311c-21.554-21.546-38.476-46.655-50.295-74.591
	c-12.233-28.921-18.428-59.638-18.428-91.325c0-31.702,6.195-62.419,18.429-91.34c11.82-27.937,28.741-53.045,50.295-74.591
	c21.562-21.562,46.654-38.483,74.599-50.311c28.913-12.218,59.645-18.421,91.332-18.421s62.42,6.203,91.341,18.421
	c27.936,11.828,53.029,28.749,74.591,50.311c21.562,21.546,38.467,46.654,50.295,74.591c12.234,28.921,18.421,59.638,18.421,91.34
	c0,31.687-6.187,62.404-18.421,91.325C460.388,375.251,443.483,400.36,421.922,421.906z"/>
<g>
</g>
<g>
</g>
<g>
</g>
<g>
</g>
<g>
</g>
<g>
</g>
<g>
</g>
<g>
</g>
<g>
</g>
<g>
</g>
<g>
</g>
<g>
</g>
<g>
</g>
<g>
</g>
<g>
</g>
</svg>
