<?xml version="1.0" encoding="iso-8859-1"?>
<!-- Generator: Adobe Illustrator 19.0.0, SVG Export Plug-In . SVG Version: 6.00 Build 0)  -->
<svg version="1.1" id="Layer_1" xmlns="http://www.w3.org/2000/svg" xmlns:xlink="http://www.w3.org/1999/xlink" x="0px" y="0px"
	 viewBox="0 0 512 512" style="enable-background:new 0 0 512 512;" xml:space="preserve">
<circle style="fill:#25B6D2;" cx="99.24" cy="370.388" r="99.24"/>
<circle style="fill:#E04F5F;" cx="256" cy="141.612" r="99.24"/>
<path style="fill:#FFFFFF;" d="M412.76,465.588c-52.6,0-95.24-42.64-95.24-95.24s42.64-95.24,95.24-95.24s95.24,42.64,95.24,95.24
	c0,0.016,0,0.024,0,0.04C507.92,422.948,465.32,465.524,412.76,465.588z"/>
<path style="fill:#AAC1CE;" d="M412.76,279.124c50.392,0.008,91.24,40.856,91.232,91.248s-40.856,91.24-91.248,91.232
	c-50.376-0.008-91.216-40.84-91.232-91.216C321.56,320.012,362.384,279.18,412.76,279.124 M412.76,271.124
	c-54.808,0-99.24,44.432-99.24,99.24s44.432,99.24,99.24,99.24c54.8,0,99.224-44.416,99.24-99.216
	c0.016-54.808-44.408-99.248-99.216-99.264C412.776,271.124,412.768,271.124,412.76,271.124z"/>
<g>
</g>
<g>
</g>
<g>
</g>
<g>
</g>
<g>
</g>
<g>
</g>
<g>
</g>
<g>
</g>
<g>
</g>
<g>
</g>
<g>
</g>
<g>
</g>
<g>
</g>
<g>
</g>
<g>
</g>
</svg>
