<?xml version="1.0" encoding="UTF-8" standalone="no"?>
<svg
   xmlns:osb="http://www.openswatchbook.org/uri/2009/osb"
   xmlns:dc="http://purl.org/dc/elements/1.1/"
   xmlns:cc="http://creativecommons.org/ns#"
   xmlns:rdf="http://www.w3.org/1999/02/22-rdf-syntax-ns#"
   xmlns:svg="http://www.w3.org/2000/svg"
   xmlns="http://www.w3.org/2000/svg"
   xmlns:sodipodi="http://sodipodi.sourceforge.net/DTD/sodipodi-0.dtd"
   xmlns:inkscape="http://www.inkscape.org/namespaces/inkscape"
   version="1.1"
   id="Capa_1"
   x="0px"
   y="0px"
   viewBox="0 0 58 58"
   style="enable-background:new 0 0 58 58;"
   xml:space="preserve"
   sodipodi:docname="0.svg"
   inkscape:version="1.0.2 (e86c870879, 2021-01-15)"><metadata
   id="metadata63"><rdf:RDF><cc:Work
       rdf:about=""><dc:format>image/svg+xml</dc:format><dc:type
         rdf:resource="http://purl.org/dc/dcmitype/StillImage" /><dc:title></dc:title></cc:Work></rdf:RDF></metadata><defs
   id="defs61"><linearGradient
   id="linearGradient912"
   osb:paint="solid"><stop
     style="stop-color:#888888;stop-opacity:1;"
     offset="0"
     id="stop910" /></linearGradient>
	
	
</defs><sodipodi:namedview
   pagecolor="#ffffff"
   bordercolor="#666666"
   borderopacity="1"
   objecttolerance="10"
   gridtolerance="10"
   guidetolerance="10"
   inkscape:pageopacity="0"
   inkscape:pageshadow="2"
   inkscape:window-width="1680"
   inkscape:window-height="982"
   id="namedview59"
   showgrid="false"
   inkscape:zoom="1.7090518"
   inkscape:cx="-40.366493"
   inkscape:cy="191.63388"
   inkscape:window-x="0"
   inkscape:window-y="15"
   inkscape:window-maximized="1"
   inkscape:current-layer="Capa_1"
   inkscape:document-rotation="0" />
















<g
   id="g748"
   transform="matrix(0.13336646,0,0,0.10651986,-205.87096,-147.98508)"><path
     fill="#fdee21"
     stroke="#fdee21"
     stroke-width="0.0938"
     d="m 1699.42,1473.64 c 20.48,-2.13 41.6799,0.15 60.7799,8.09 16.2301,6.8 30.24,18.34 40.8101,32.3301 16.53,21.7799 25.3,48.3199 30.74,74.84 6.86,34.5399 7.99,69.95 6.87,105.0699 -0.96,28.29 -4.1801,56.63 -11.4,84.0601 -6.47,23.48 -16.11,46.5699 -31.83,65.4299 -8.52,9.9701 -18.72,18.5801 -30.41,24.5801 -16.24,8.48 -34.74,12.09 -52.98,11.71 -26.41,0.2 -53,-9.3 -72.58,-27.1801 -18.8201,-16.6899 -31.5701,-39.1499 -40.27,-62.5099 -14.3101,-38.5601 -18.3101,-80.27 -16.09,-121.14 1.62,-34.8401 6.62,-69.8201 18.1899,-102.8401 6.1,-17.0399 14.09,-33.5 24.84,-48.12 8.65,-11.8199 19.4301,-22.13 31.8101,-30 12.55,-7.81 26.86,-12.58 41.52,-14.32 m 10.04,16.13 c -8.97,1.45 -17.08,6.66 -22.63,13.78 -5.0599,6.98 -8.5399,15.01 -10.6,23.37 -3.5599,14.49 -5.9299,29.24 -8.39,43.9399 -5.1899,34.8 -8.64,69.89 -9.39,105.0701 -0.11,34.3999 0,68.88 3.51,103.13 1.76,16.5599 4.4401,33.1699 10.4601,48.7799 4.37,12.17 10.8099,24.77 22.5499,31.3 10.66,5.24 23.65,5.71 34.73,1.47 11.17,-4.15 18.5701,-14.5599 22.53,-25.39 5.0801,-14.1899 6.1,-29.36 7.78,-44.21 2.79,-33.58 3.27,-67.3 3.66,-100.98 0.13,-36.7001 0.51,-73.5 -3.1801,-110.0601 -1.97,-19.65 -4.83,-39.4099 -11.27,-58.15 -4.08,-10.8099 -9.35,-22.24 -19.51,-28.5699 -5.9699,-3.8599 -13.3499,-4.6898 -20.2499,-3.4799 z"
     id="path742" /><path
     fill="#fffac0"
     stroke="#fffac0"
     stroke-width="0.0938"
     d="m 1699.33,1465.48 c 19.36,-1.36 39.27,-0.28 57.62,6.5601 14.42,4.7799 27.5,13.0299 38.4,23.5599 21.3301,20.9301 33.86,49.15 41.04,77.79 8.22,32.86 10.67,66.86 10.46,100.64 0.05,16.02 -0.38,32.0399 -2.0599,47.97 -0.52,7.0601 -1.13,14.14 -2.54,21.1 -3.89,27.9501 -11.0699,55.8201 -24.25,80.92 -5.09,8.6899 -10.05,17.58 -17.05,24.9399 -3.87,5.0901 -8.47,9.54 -13.5499,13.4 -19.75,17.3101 -46.41,25.46 -72.42,25.29 -18.9199,0.5499 -38,-3.4 -55.03,-11.6801 -10.76,-4.98 -20.1399,-12.4 -29,-20.1599 -20.7999,-20.14 -34.37,-46.54 -43.09,-73.8701 -10.08,-32.22 -14.1,-66.21 -13.21,-99.8999 0.86,-35.3501 4.61,-70.91 14.6699,-104.91 6.9801,-23.23 16.6001,-46.04 31.4901,-65.37 9.2799,-12.9401 21.5499,-23.4 34.9099,-31.95 C 1669.1,1472.11 1684.03,1467.38 1699.33,1465.48 m 0.09,8.16 c -14.66,1.74 -28.9701,6.51 -41.52,14.3199 -12.38,7.87 -23.16,18.1801 -31.8101,30 -10.75,14.62 -18.74,31.0801 -24.84,48.12 -11.5699,33.02 -16.5699,68 -18.1899,102.8401 -2.2201,40.87 1.7799,82.58 16.09,121.14 8.7,23.36 21.45,45.8199 40.27,62.5099 19.58,17.88 46.1699,27.38 72.58,27.1801 18.24,0.38 36.74,-3.23 52.98,-11.71 11.6901,-6 21.89,-14.61 30.41,-24.5801 15.72,-18.86 25.36,-41.95 31.83,-65.4299 7.22,-27.4301 10.4401,-55.77 11.4,-84.0601 1.12,-35.12 -0.01,-70.53 -6.87,-105.0699 -5.4399,-26.52 -14.21,-53.0601 -30.74,-74.84 -10.5701,-13.9901 -24.58,-25.53 -40.8101,-32.3301 C 1741.1,1473.79 1719.9,1471.51 1699.42,1473.64 Z"
     id="path744" /><path
     fill="#fffac0"
     stroke="#fffac0"
     stroke-width="0.0938"
     d="m 1709.46,1489.77 c 6.9,-1.21 14.28,-0.38 20.25,3.48 10.16,6.33 15.4301,17.76 19.51,28.5699 6.4401,18.7401 9.3,38.5 11.27,58.15 3.6901,36.5601 3.3101,73.36 3.1801,110.0601 -0.39,33.6799 -0.87,67.4 -3.66,100.98 -1.6801,14.85 -2.7,30.02 -7.78,44.21 -3.96,10.8301 -11.36,21.24 -22.53,25.39 -11.08,4.24 -24.0699,3.77 -34.73,-1.47 -11.74,-6.53 -18.1799,-19.13 -22.5499,-31.3 -6.02,-15.61 -8.7001,-32.22 -10.4601,-48.7799 -3.51,-34.25 -3.62,-68.7301 -3.51,-103.13 0.75,-35.1801 4.2001,-70.27 9.39,-105.0701 2.4601,-14.7 4.8301,-29.45 8.39,-43.9399 2.0601,-8.36 5.54,-16.39 10.6,-23.37 5.5499,-7.12 13.6599,-12.3301 22.6299,-13.7801 m -1,7.95 c -7.7799,2.55 -14.49,8.11 -18.3199,15.36 -5.1,8.8501 -7.13,18.9801 -9.08,28.89 -3,13.54 -4.76,27.29 -6.88,40.99 -2.89,19.28 -4.7301,38.7001 -5.9701,58.13 -0.6699,3.9401 -0.85,7.9301 -0.83,11.9301 -1.8101,22.26 -0.73,44.66 -0.89,66.99 -0.27,7.04 0.92,14.02 0.8101,21.0599 -0.04,11.9701 1.6899,23.8501 2.2699,35.79 0.9701,5.34 0.76,10.83 2.1801,16.11 0.9,9.63 4.25,18.72 6.38,28.1 3.12,8.0601 6.41,16.25 11.65,23.2201 3.4199,4.72 8.6,7.7999 13.9199,9.96 6.92,1.33 14.25,1.85 21.05,-0.39 7.14,-1.89 12.72,-7.4399 16.41,-13.65 3.99,-6.84 5.65,-14.7 7.4199,-22.33 1.2101,-8.95 2.8301,-17.85 3.4,-26.86 1.1801,-16.34 2.71,-32.66 2.6901,-49.05 0.9099,-23.98 1.0199,-47.99 1.14,-71.99 -0.14,-19.65 0.2899,-39.35 -1.16,-58.96 -0.07,-5.01 0.04,-10.03 -0.92,-14.96 -0.64,-16.14 -2.9399,-32.1801 -5.72,-48.0701 -2.52,-9.02 -3.4401,-18.62 -7.84,-26.98 -3.4601,-9.62 -9.49,-19.37 -19.27,-23.48 -4.14,-0.26 -8.3399,-0.3401 -12.44,0.19 z"
     id="path746" /></g></svg>
