<?xml version="1.0" encoding="UTF-8" standalone="no"?>
<svg
   xmlns:osb="http://www.openswatchbook.org/uri/2009/osb"
   xmlns:dc="http://purl.org/dc/elements/1.1/"
   xmlns:cc="http://creativecommons.org/ns#"
   xmlns:rdf="http://www.w3.org/1999/02/22-rdf-syntax-ns#"
   xmlns:svg="http://www.w3.org/2000/svg"
   xmlns="http://www.w3.org/2000/svg"
   xmlns:sodipodi="http://sodipodi.sourceforge.net/DTD/sodipodi-0.dtd"
   xmlns:inkscape="http://www.inkscape.org/namespaces/inkscape"
   version="1.1"
   id="Capa_1"
   x="0px"
   y="0px"
   viewBox="0 0 58 58"
   style="enable-background:new 0 0 58 58;"
   xml:space="preserve"
   sodipodi:docname="6.svg"
   inkscape:version="1.0.2 (e86c870879, 2021-01-15)"><metadata
   id="metadata63"><rdf:RDF><cc:Work
       rdf:about=""><dc:format>image/svg+xml</dc:format><dc:type
         rdf:resource="http://purl.org/dc/dcmitype/StillImage" /><dc:title></dc:title></cc:Work></rdf:RDF></metadata><defs
   id="defs61"><linearGradient
   id="linearGradient912"
   osb:paint="solid"><stop
     style="stop-color:#888888;stop-opacity:1;"
     offset="0"
     id="stop910" /></linearGradient>
	
	
</defs><sodipodi:namedview
   pagecolor="#ffffff"
   bordercolor="#666666"
   borderopacity="1"
   objecttolerance="10"
   gridtolerance="10"
   guidetolerance="10"
   inkscape:pageopacity="0"
   inkscape:pageshadow="2"
   inkscape:window-width="1680"
   inkscape:window-height="982"
   id="namedview59"
   showgrid="false"
   inkscape:zoom="2.4169642"
   inkscape:cx="-6.8591814"
   inkscape:cy="153.62364"
   inkscape:window-x="0"
   inkscape:window-y="15"
   inkscape:window-maximized="1"
   inkscape:current-layer="Capa_1"
   inkscape:document-rotation="0" />
















<g
   id="g344"
   transform="matrix(0.15992318,0,0,0.09502896,-3.6033191,-128.26961)"><path
     fill="#8bc63e"
     stroke="#8bc63e"
     stroke-width="0.0938"
     d="m 225.37,1458.4399 c 10.96,-3.5 22.11,-6.9099 33.64,-7.8099 5.35,-0.6 11.02,1.8199 13.93,6.42 2.37,4.2799 1.09,9.59 -1.44,13.5 -3.15,4.08 -7.66,6.84 -12.43,8.6499 -19.06,7.2301 -35.62,19.66 -50.65,33.2001 -27.47,25.59 -50.11,56.6699 -64.72,91.33 -3.4,8.84 -7.2,17.71 -8.74,27.09 16.04,-12.21 36.14,-18.3899 56.06,-20.0699 21.11,-1.26 42.87,2.41 61.51,12.73 17.86,9.86 31.96,25.87 40.66,44.24 9.19,19.3101 13.08,40.9301 12.4,62.25 -0.47,26.05 -5.32,52.5801 -17.91,75.64 -9.15,17.35 -23.67,31.09 -39.24,42.6801 -17.45,13.35 -38.65,21.4199 -60.45,23.7999 -21,2.28 -42.67,2.14 -63.1,-3.77 -18.01,-5.0099 -34.49,-15.3999 -46.65,-29.6 -12.36,-14.49 -22,-31.2 -29.13,-48.8199 -9.96,-24.98 -13.3,-52.13 -12.8,-78.88 0.19,-45.17 12.99,-90.04 35.67,-129.04 33.31,-58.4103 89.28,-103.3202 153.39,-123.5403 m 24.7,1.4701 c -13.36,2.74 -26.25,7.2799 -38.98,12.11 -37.09,14.27 -70.3,37.72 -97.49,66.58 -40.36,43.89 -66.08,101.66 -69.08,161.42 -0.92,21.08 -0.08,42.36 4.56,63 4.72,21.0599 13.91,41.01 26.14,58.76 5.23,7.3199 10.66,14.65 17.7,20.34 16.27,14.95 38.41,21.62 60.09,23.05 23.01,1.1 46.86,-0.53 68.16,-10.02 16.88,-7.2001 31.06,-19.27 44.06,-31.97 13.11,-14.04 22.09,-31.67 26.71,-50.25 5.27,-19.13 6.31,-39.15 5.4,-58.88 -2.03,-23.8601 -10.36,-47.8201 -26.5,-65.8501 -12.68,-14.21 -30.16,-23.97 -48.89,-27.4099 -21.55,-4.54 -44.5,-2.6001 -64.69,6.37 -8.65,3.47 -16.74,8.48 -23.38,15.0599 -3.01,-0.89 -5.69,-2.58 -8.56,-3.78 -0.26,-4.0699 1.19,-7.9399 2.2,-11.8099 2.71,-10.39 6.34,-20.54 10.75,-30.33 14.53,-33.1001 36.36,-62.7301 62.43,-87.66 16.65,-15.42 35.22,-29.4401 56.7,-37.3201 3.61,-1.7699 7.88,-4.0099 8.75,-8.3199 0.91,-2.21 -1.59,-3.38 -3.08,-4.3 -4.37,-0.55 -8.72,0.39 -13,1.21 z"
     id="path338" /><path
     fill="#8bc63e"
     stroke="#8bc63e"
     stroke-width="0.0938"
     d="m 156.47,1649.61 c 8.46,-0.33 17.28,-1.36 25.42,1.59 11.06,3.7301 19.62,12.5701 25.38,22.4801 9.12,15.97 13.38,34.2599 15.3,52.3999 1.93,15.2001 1.93,30.5801 1.28,45.87 -1.01,18.01 -3.21,36.41 -10.95,52.9301 -4.18,8 -9.55,15.98 -17.65,20.4399 -8.35,5.3401 -18.6,6.53 -28.3,5.9801 -10.96,-0.66 -20.67,-7.6001 -26.94,-16.3101 -9.54,-12.87 -13.94,-28.64 -17.24,-44.08 -2.75,-15.13 -4.51,-30.5 -4.39,-45.88 -0.13,-13.3101 -0.04,-26.61 0.23,-39.91 0.91,-11.63 1.41,-23.6 5.98,-34.5 2.33,-5.5599 6.23,-10.37 10.99,-14.02 6.08,-4.39 13.57,-6.09 20.89,-6.99 m -0.98,8.15 c -3.52,0.53 -7.06,1.1799 -10.35,2.6 -6.78,2.6801 -11.93,8.76 -14.12,15.64 -2.99,8.35 -3.55,17.28 -4.25,26.04 -0.67,14.99 -0.53,29.99 -0.53,44.99 0.43,18.88 2.53,37.84 7.61,56.08 3.45,11.63 8.12,23.4501 16.89,32.16 5.08,5.01 12.01,8.27 19.23,8.2 8.8,0.1901 18.11,-1.76 24.97,-7.59 5.1,-4.09 8.6,-9.78 11.37,-15.59 5.59,-12.73 7.8,-26.62 9.06,-40.36 1.85,-25 1.37,-50.4301 -4.44,-74.91 -2.39,-9.24 -5.3,-18.48 -10.21,-26.72 -4.23,-7.4401 -10.14,-14.2301 -17.83,-18.1801 -8.51,-4.18 -18.28,-3.0899 -27.4,-2.3599 z"
     id="path340" /><path
     fill="#d9e021"
     stroke="#d9e021"
     stroke-width="0.0938"
     d="m 250.07,1459.91 c 4.28,-0.8201 8.63,-1.76 13,-1.2101 1.49,0.92 3.99,2.0901 3.08,4.3 -0.87,4.3101 -5.14,6.55 -8.75,8.3199 -21.48,7.88 -40.05,21.9 -56.7,37.3201 -26.07,24.9299 -47.9,54.5599 -62.43,87.66 -4.41,9.7899 -8.04,19.9399 -10.75,30.33 -1.01,3.87 -2.46,7.74 -2.2,11.8099 2.87,1.2001 5.55,2.89 8.56,3.78 6.64,-6.58 14.73,-11.59 23.38,-15.0599 20.19,-8.9701 43.14,-10.91 64.69,-6.37 18.73,3.4399 36.21,13.2 48.89,27.4099 16.14,18.03 24.47,41.99 26.5,65.8501 0.91,19.73 -0.13,39.75 -5.4,58.88 -4.62,18.58 -13.6,36.21 -26.71,50.25 -13,12.7 -27.18,24.7699 -44.06,31.97 -21.3,9.49 -45.15,11.12 -68.16,10.02 -21.68,-1.4301 -43.82,-8.1001 -60.09,-23.05 -7.04,-5.6899 -12.47,-13.02 -17.7,-20.34 -12.23,-17.75 -21.42,-37.7001 -26.14,-58.76 -4.64,-20.64 -5.48,-41.92 -4.56,-63 3,-59.76 28.72,-117.53 69.08,-161.42 27.19,-28.86 60.4,-52.3099 97.49,-66.58 12.73,-4.83 25.62,-9.3699 38.98,-12.1099 m -93.6,189.7 c -7.32,0.9 -14.81,2.6 -20.89,6.99 -4.76,3.65 -8.66,8.4601 -10.99,14.02 -4.57,10.9 -5.07,22.87 -5.98,34.5 -0.27,13.3 -0.36,26.6 -0.23,39.91 -0.12,15.38 1.64,30.75 4.39,45.88 3.3,15.4399 7.7,31.21 17.24,44.08 6.27,8.71 15.98,15.65 26.94,16.3101 9.7,0.5499 19.95,-0.64 28.3,-5.9801 8.1,-4.46 13.47,-12.4399 17.65,-20.4399 7.74,-16.52 9.94,-34.92 10.95,-52.9301 0.65,-15.2899 0.65,-30.6699 -1.28,-45.87 -1.92,-18.14 -6.18,-36.4299 -15.3,-52.3999 -5.76,-9.91 -14.32,-18.75 -25.38,-22.4801 -8.14,-2.95 -16.96,-1.92 -25.42,-1.59 z"
     id="path342" /></g></svg>
