<?xml version="1.0" encoding="UTF-8" standalone="no"?>
<svg
   xmlns:osb="http://www.openswatchbook.org/uri/2009/osb"
   xmlns:dc="http://purl.org/dc/elements/1.1/"
   xmlns:cc="http://creativecommons.org/ns#"
   xmlns:rdf="http://www.w3.org/1999/02/22-rdf-syntax-ns#"
   xmlns:svg="http://www.w3.org/2000/svg"
   xmlns="http://www.w3.org/2000/svg"
   xmlns:sodipodi="http://sodipodi.sourceforge.net/DTD/sodipodi-0.dtd"
   xmlns:inkscape="http://www.inkscape.org/namespaces/inkscape"
   version="1.1"
   id="Capa_1"
   x="0px"
   y="0px"
   viewBox="0 0 58 58"
   style="enable-background:new 0 0 58 58;"
   xml:space="preserve"
   sodipodi:docname="4.svg"
   inkscape:version="1.0.2 (e86c870879, 2021-01-15)"><metadata
   id="metadata63"><rdf:RDF><cc:Work
       rdf:about=""><dc:format>image/svg+xml</dc:format><dc:type
         rdf:resource="http://purl.org/dc/dcmitype/StillImage" /><dc:title></dc:title></cc:Work></rdf:RDF></metadata><defs
   id="defs61"><linearGradient
   id="linearGradient912"
   osb:paint="solid"><stop
     style="stop-color:#888888;stop-opacity:1;"
     offset="0"
     id="stop910" /></linearGradient>
	
	
</defs><sodipodi:namedview
   pagecolor="#ffffff"
   bordercolor="#666666"
   borderopacity="1"
   objecttolerance="10"
   gridtolerance="10"
   guidetolerance="10"
   inkscape:pageopacity="0"
   inkscape:pageshadow="2"
   inkscape:window-width="1680"
   inkscape:window-height="982"
   id="namedview59"
   showgrid="false"
   inkscape:zoom="2.4169642"
   inkscape:cx="-6.8591814"
   inkscape:cy="-44.972598"
   inkscape:window-x="0"
   inkscape:window-y="15"
   inkscape:window-maximized="1"
   inkscape:current-layer="Capa_1"
   inkscape:document-rotation="0" />
















<g
   id="g10"
   transform="matrix(0.1095865,0,0,0.08323354,-114.42917,-68.076636)"><path
     fill="#92268e"
     stroke="#92268e"
     stroke-width="0.0938"
     d="m 1326.87,964.83 c 3.91,-5.47 9.36,-10.3 16.11,-11.66 4.59,-1.06 10.21,-0.37 13.15,3.72 3.73,5.23 3.63,12.02 4.0599,18.16 0.01,87.3701 0.01,174.73 0,262.1 12.6201,0.14 25.25,-0.05 37.8701,0.09 5.46,-0.11 11.2699,3.99 11.1799,9.83 0.07,14.64 0,29.27 0.03,43.91 0.05,3.38 0.13,7.22 -2.3201,9.89 -2.7699,2.92 -7.0299,3.67 -10.88,3.73 -11.98,0.08 -23.96,-0.08 -35.9299,0.06 0.15,29.7899 -0.01,59.58 0.08,89.37 0.03,3.98 -0.37,8.8099 -4.01,11.24 -3.58,2.41 -8.11,1.95 -12.2,2.0699 -20.3201,0 -40.64,-0.01 -60.95,0 -3.6001,-0.11 -7.51,0.29 -10.7201,-1.62 -2.89,-1.85 -3.8099,-5.52 -3.75,-8.74 -0.12,-30.7999 0.08,-61.6 -0.1,-92.4 -55.15,0.08 -110.3,0.02 -165.45,0.03 -7.1801,-0.09 -15.1901,-1.86 -19.88,-7.74 -3.36,-4.17 -3.27,-9.9301 -2.16,-14.89 1.76,-8.5699 7.08,-15.7999 12.5,-22.4399 C 1171.29,1161.3 1249.09,1063.0699 1326.87,964.83 m 15.72,-3.2 c -6.39,2.53 -9.88,8.79 -14,13.89 -76.64,96.6699 -153.1799,193.4399 -229.7899,290.15 -2.5801,3.24 -5.2101,6.48 -6.9701,10.2699 -2.36,4.3201 -4.37,9.4301 -3.2699,14.4 0.73,3.1801 4.0399,4.0701 6.6599,5.23 3.4401,1.2001 7.16,0.9701 10.77,1.12 54.6801,0 109.36,0.01 164.04,-0.01 2.1799,0.08 4.47,-0.4401 6.58,0.4099 -0.21,32.64 0.02,65.29 -0.11,97.9301 0.2,1.41 -0.63,3.87 1.33,4.39 21.05,0 42.11,-0.01 63.17,0 3.64,-0.04 7.33,0.22 10.91,-0.62 0.65,-4.5701 0.1899,-9.1801 0.3199,-13.75 -0.02,-29.38 0.04,-58.76 -0.03,-88.14 15.54,-0.63 31.14,0.21 46.7001,-0.4401 1.34,0.2001 2.63,-1.0599 2.4399,-2.4199 0.04,-15.6801 0.06,-31.36 -0.02,-47.03 -0.7699,-2.3101 -3.5,-1.66 -5.3199,-1.79 -14.61,-0.34 -29.24,0.29 -43.8199,-0.34 0.13,-89.64 0,-179.29 0.07,-268.93 -0.07,-4.75 -0.15,-9.68 -2.1899,-14.05 -1.9201,-2.15 -5.1701,-1.19 -7.4701,-0.27 z"
     id="path4" /><path
     fill="#92268e"
     stroke="#92268e"
     stroke-width="0.0938"
     d="m 1265.3199,1086.45 c 3.51,-1.8199 8.3301,-0.34 10.2301,3.14 1.5599,2.4701 1.5199,5.54 1.6899,8.38 -0.04,48.35 -0.03,96.7001 0,145.05 0.07,1.5 -0.64,2.22 -2.13,2.16 -36.7,-0.09 -73.41,-0.02 -110.11,-0.04 -4.49,0.02 -9.37,0.36 -13.41,-1.89 -4.98,-3 -4.9299,-10.2 -1.9099,-14.6 3.4199,-5.15 7.5099,-9.8301 11.35,-14.67 32.6,-40.73 65.01,-81.6 97.64,-122.2999 1.7601,-2.2402 4.03,-4.0801 6.6499,-5.2301 m -1.4699,11.46 c -35.35,44.2899 -70.6799,88.6 -106.0399,132.88 -1.2401,1.5599 -2.25,3.33 -2.52,5.35 2.6499,1.5599 5.7999,0.9399 8.74,1.0599 35.0699,0.01 70.15,-0.03 105.23,0.02 -0.1901,-47.78 0.25,-95.5699 -0.22,-143.33 -2.4501,0.1101 -3.7601,2.3801 -5.1901,4.0201 z"
     id="path6" /><path
     fill="#b53ae3"
     stroke="#b53ae3"
     stroke-width="0.0938"
     d="m 1342.59,961.63 c 2.3,-0.92 5.55,-1.88 7.4701,0.27 2.0399,4.37 2.12,9.3 2.1899,14.05 -0.07,89.64 0.06,179.29 -0.07,268.93 14.58,0.63 29.21,0 43.8199,0.34 1.8199,0.13 4.55,-0.52 5.3199,1.79 0.08,15.67 0.06,31.35 0.02,47.03 0.1901,1.36 -1.1,2.62 -2.4399,2.4199 -15.5601,0.65 -31.16,-0.1899 -46.7001,0.4401 0.07,29.38 0.01,58.76 0.03,88.14 -0.13,4.5699 0.3301,9.1799 -0.3199,13.75 -3.5801,0.84 -7.27,0.58 -10.91,0.62 -21.0601,-0.01 -42.12,0 -63.17,0 -1.96,-0.52 -1.13,-2.98 -1.33,-4.39 0.13,-32.64 -0.1,-65.29 0.11,-97.9301 -2.11,-0.85 -4.4,-0.33 -6.58,-0.4099 -54.6801,0.02 -109.36,0.01 -164.04,0.01 -3.61,-0.1499 -7.33,0.08 -10.77,-1.12 -2.62,-1.1599 -5.9299,-2.0499 -6.6599,-5.23 -1.1001,-4.97 0.9099,-10.08 3.2699,-14.4 1.76,-3.7899 4.39,-7.0299 6.9701,-10.2699 76.61,-96.7101 153.1499,-193.4801 229.7899,-290.15 4.12,-5.1 7.61,-11.36 14,-13.89 m -77.2701,124.82 c -2.62,1.15 -4.8899,2.99 -6.6499,5.2301 -32.63,40.7 -65.04,81.5699 -97.64,122.2999 -3.8401,4.84 -7.9301,9.52 -11.35,14.67 -3.02,4.4 -3.0701,11.6 1.9099,14.6 4.04,2.25 8.92,1.91 13.41,1.89 36.7,0.02 73.41,-0.05 110.11,0.04 1.49,0.06 2.2001,-0.66 2.13,-2.16 -0.03,-48.35 -0.04,-96.7001 0,-145.05 -0.17,-2.84 -0.13,-5.9099 -1.6899,-8.38 -1.9,-3.48 -6.72,-4.96 -10.2301,-3.14 z"
     id="path8" /></g></svg>
