<?xml version="1.0" encoding="UTF-8" standalone="no"?>
<svg
   xmlns:osb="http://www.openswatchbook.org/uri/2009/osb"
   xmlns:dc="http://purl.org/dc/elements/1.1/"
   xmlns:cc="http://creativecommons.org/ns#"
   xmlns:rdf="http://www.w3.org/1999/02/22-rdf-syntax-ns#"
   xmlns:svg="http://www.w3.org/2000/svg"
   xmlns="http://www.w3.org/2000/svg"
   xmlns:sodipodi="http://sodipodi.sourceforge.net/DTD/sodipodi-0.dtd"
   xmlns:inkscape="http://www.inkscape.org/namespaces/inkscape"
   version="1.1"
   id="Capa_1"
   x="0px"
   y="0px"
   viewBox="0 0 58 58"
   style="enable-background:new 0 0 58 58;"
   xml:space="preserve"
   sodipodi:docname="2.svg"
   inkscape:version="1.0.2 (e86c870879, 2021-01-15)"><metadata
   id="metadata63"><rdf:RDF><cc:Work
       rdf:about=""><dc:format>image/svg+xml</dc:format><dc:type
         rdf:resource="http://purl.org/dc/dcmitype/StillImage" /><dc:title></dc:title></cc:Work></rdf:RDF></metadata><defs
   id="defs61"><linearGradient
   id="linearGradient912"
   osb:paint="solid"><stop
     style="stop-color:#888888;stop-opacity:1;"
     offset="0"
     id="stop910" /></linearGradient>
	
	
</defs><sodipodi:namedview
   pagecolor="#ffffff"
   bordercolor="#666666"
   borderopacity="1"
   objecttolerance="10"
   gridtolerance="10"
   guidetolerance="10"
   inkscape:pageopacity="0"
   inkscape:pageshadow="2"
   inkscape:window-width="1680"
   inkscape:window-height="982"
   id="namedview59"
   showgrid="false"
   inkscape:zoom="9.6678567"
   inkscape:cx="5.2772012"
   inkscape:cy="36.203954"
   inkscape:window-x="0"
   inkscape:window-y="15"
   inkscape:window-maximized="1"
   inkscape:current-layer="Capa_1"
   inkscape:document-rotation="0" />
















<g
   id="g734"
   transform="matrix(0.10772885,0,0,0.09813012,-37.235958,-86.782422)"><path
     fill="#8cc63d"
     stroke="#8cc63d"
     stroke-width="0.0938"
     d="m 517.96,960.02 c 27.46,-3.77 56.45,0.37 80.61,14.4 19.58,11.08 35.81,28.12 45.5,48.46 10.57,20.9301 12.95,45.16 9.77,68.1899 -2.59,20.2201 -9.45,39.76 -19.15,57.64 -19.19,35.49 -47.54,64.88 -76.89,92.11 -21.56,19.78 -43.68,38.9301 -65.65,58.26 -0.91,0.7101 -1.78,1.52 -2.32,2.5801 31.06,0.13 62.13,0.03 93.19,0.05 10.75,0.17 21.71,-1.5399 31.39,-6.38 16.23,-7.98 26.29,-23.76 35.07,-38.89 2.16,-4.0399 7.11,-6.33 11.48,-4.4399 4.93,2.05 11.25,4.28 12.8,10.03 1.15,3.0599 -0.68,6.1699 -1.7,9.03 -13.65,35.6599 -27.39,71.2999 -41.03,106.97 -1.41,3.73 -3.94,7.48 -8.0601,8.4399 -3.71,0.39 -7.93,1 -11.22,-1.1899 -3.28,-1.9301 -3.63,-6.25 -6.23,-8.77 -2.71,-1.9301 -6.06,-2.5 -9.26,-2.97 -9.39,-1.15 -18.86,-0.8501 -28.29,-0.9 -35.31,0 -70.62,0 -105.93,0 -12.38,0.08 -24.77,-0.3101 -37.13,0.58 -10.68,0.29 -21.33,1.6901 -32,1.77 -4.46,0 -7.85,-3.9 -8.86,-7.96 -1.27,-6.1901 0.82,-13.14 5.8,-17.16 30.49,-28.14 60.02,-57.4 87.44,-88.55 23.81,-27.74 47.53,-56.1699 64.22,-88.9199 10.87,-21.26 18.6,-44.41 20.31,-68.3301 1.75,-20.38 -0.75,-42.1699 -12.4,-59.5 -8.75,-13.58 -23.45,-23.1099 -39.46,-25.4 -23.9,-3.98 -48.36,6.82 -64.34,24.4 -5.69,6.16 -10.74,12.89 -15,20.12 -1.9,3.2301 -5.59,6.2001 -9.57,4.9901 -4.32,-1.4501 -8.5,-3.3501 -12.72,-5.0601 -3.68,-2.29 -4.24,-7.0599 -2.55,-10.76 8.93,-22.73 22.48,-43.88 40.68,-60.28 C 466.07,974.52 491.56,963.25 517.96,960.02 m -51.69,27.2 c -21.27,14.05 -37.55,34.73 -48.33,57.6801 -1.68,3.91 -4.16,7.6 -4.77,11.89 3.11,1.6599 6.43,3.1599 9.91,3.86 10.77,-18.12 25.74,-34.62 45.28,-43.33 21.99,-10.11 49.55,-9.45 69.73,4.55 12.84,8.4 21.74,21.79 26.79,36.1 7.29,21.2001 6.32,44.24 2.21,65.99 -7.4901,38.4301 -28.1201,72.78 -51.66,103.49 -35.87,46.62 -77.17,88.8 -120.47,128.52 -3.28,2.53 -3.89,7.0801 -2.74,10.86 9.22,0.52 18.49,-1.0399 27.74,-1.34 23.66,-1.5 47.39,-0.5599 71.08,-0.8199 31.32,0.05 62.63,-0.12 93.94,0.09 8.02,0.6899 16.65,0.21 23.85,4.37 3.65,2.13 5.44,6.02 7.38,9.58 2.47,0.17 6.17,0.8 6.95,-2.39 11.25,-29.1699 22.31,-58.4299 33.6201,-87.58 2.8799,-8.26 6.71,-16.24 9.1,-24.62 -1.79,-2.8 -5.79,-4.08 -8.99,-4.65 -6.94,12.36 -14.78,24.54 -25.49,34 -9.36,8.13 -21.12,13.3401 -33.35,15.2001 -8.61,1.46 -17.37,0.7899 -26.05,0.95 -31.3,0.02 -62.59,-0.04 -93.89,0.04 -0.49,-3.3101 -1.46,-7.6801 1.65,-9.98 31.89,-29.0701 65.37,-56.42 95.79,-87.0901 25.46,-26.11 49.14,-55.24 62.23,-89.6799 7.89,-21.3201 11.2599,-44.5 8.37,-67.11 -3.52,-22.14 -14.19,-43.15 -30.39,-58.6901 -16.8,-16.24 -39.02,-26.46 -62.12,-29.48 C 523.5,964.07 491.7,970.25 466.27,987.22 Z"
     id="path730" /><path
     fill="#c5df96"
     stroke="#c5df96"
     stroke-width="0.0938"
     d="m 466.27,987.22 c 25.43,-16.97 57.23,-23.15 87.37,-19.59 23.1,3.02 45.32,13.24 62.12,29.48 16.2,15.54 26.87,36.55 30.39,58.6901 2.89,22.61 -0.48,45.7899 -8.37,67.11 -13.09,34.4399 -36.77,63.5699 -62.23,89.6799 -30.42,30.67 -63.9,58.02 -95.79,87.0901 -3.11,2.2999 -2.14,6.6699 -1.65,9.98 31.3,-0.08 62.59,-0.02 93.89,-0.04 8.68,-0.16 17.44,0.51 26.05,-0.95 12.23,-1.86 23.99,-7.0701 33.35,-15.2001 10.71,-9.46 18.55,-21.64 25.49,-34 3.2,0.5701 7.2,1.85 8.99,4.65 -2.39,8.38 -6.22,16.36 -9.1,24.62 -11.3101,29.15 -22.3701,58.41 -33.6201,87.58 -0.78,3.1901 -4.48,2.5601 -6.95,2.39 -1.94,-3.5599 -3.73,-7.45 -7.38,-9.58 -7.2,-4.16 -15.83,-3.6801 -23.85,-4.37 -31.31,-0.21 -62.62,-0.04 -93.94,-0.09 -23.69,0.26 -47.42,-0.6801 -71.08,0.8199 -9.25,0.3 -18.52,1.86 -27.74,1.34 -1.15,-3.7799 -0.54,-8.33 2.74,-10.86 43.3,-39.72 84.6,-81.9 120.47,-128.52 23.54,-30.71 44.17,-65.0599 51.66,-103.49 4.11,-21.75 5.08,-44.7899 -2.21,-65.99 -5.05,-14.3099 -13.95,-27.7 -26.79,-36.1 -20.1801,-14 -47.74,-14.66 -69.73,-4.55 -19.54,8.71 -34.51,25.21 -45.28,43.33 -3.48,-0.7001 -6.8,-2.2001 -9.91,-3.86 0.61,-4.29 3.09,-7.98 4.77,-11.89 C 428.72,1021.95 445,1001.27 466.27,987.22 Z"
     id="path732" /></g></svg>
