<?xml version="1.0" encoding="UTF-8" standalone="no"?>
<svg
   xmlns:osb="http://www.openswatchbook.org/uri/2009/osb"
   xmlns:dc="http://purl.org/dc/elements/1.1/"
   xmlns:cc="http://creativecommons.org/ns#"
   xmlns:rdf="http://www.w3.org/1999/02/22-rdf-syntax-ns#"
   xmlns:svg="http://www.w3.org/2000/svg"
   xmlns="http://www.w3.org/2000/svg"
   xmlns:sodipodi="http://sodipodi.sourceforge.net/DTD/sodipodi-0.dtd"
   xmlns:inkscape="http://www.inkscape.org/namespaces/inkscape"
   version="1.1"
   id="Capa_1"
   x="0px"
   y="0px"
   viewBox="0 0 58 58"
   style="enable-background:new 0 0 58 58;"
   xml:space="preserve"
   sodipodi:docname="1.svg"
   inkscape:version="1.0.2 (e86c870879, 2021-01-15)"><metadata
   id="metadata63"><rdf:RDF><cc:Work
       rdf:about=""><dc:format>image/svg+xml</dc:format><dc:type
         rdf:resource="http://purl.org/dc/dcmitype/StillImage" /><dc:title></dc:title></cc:Work></rdf:RDF></metadata><defs
   id="defs61"><linearGradient
   id="linearGradient912"
   osb:paint="solid"><stop
     style="stop-color:#888888;stop-opacity:1;"
     offset="0"
     id="stop910" /></linearGradient>
	
	
</defs><sodipodi:namedview
   pagecolor="#ffffff"
   bordercolor="#666666"
   borderopacity="1"
   objecttolerance="10"
   gridtolerance="10"
   guidetolerance="10"
   inkscape:pageopacity="0"
   inkscape:pageshadow="2"
   inkscape:window-width="1680"
   inkscape:window-height="982"
   id="namedview59"
   showgrid="false"
   inkscape:zoom="3.4181035"
   inkscape:cx="29.817837"
   inkscape:cy="81.67127"
   inkscape:window-x="0"
   inkscape:window-y="15"
   inkscape:window-maximized="1"
   inkscape:current-layer="Capa_1"
   inkscape:document-rotation="0" />
















<g
   id="g16"
   transform="matrix(0.1515449,0,0,0.09086158,-8.9492383,-77.372836)"><path
     fill="#f8931e"
     stroke="#f8931e"
     stroke-width="0.0938"
     d="m 246.34,967.42 c 3.81,-1.15 8.65,-1.52 11.56,1.73 2.36,3.06 3.51,7.02 3.3,10.89 -1.17,65.65 -1.93,131.31 -1.86,196.98 0.15,42.3099 0.34,84.62 0.53,126.9399 -0.02,10.36 -0.08,20.75 0.97,31.0701 0.7,4.9 1.91,11.2 7.42,12.78 8.57,2.98 17.86,1.8199 26.77,2.09 5.66,0.12 11.35,-0.24 17,0.1799 3.68,0.3201 7.32,2.88 7.8,6.75 0.54,5.39 0.13,10.8401 0.26,16.26 0.13,3.0601 -0.95,6.8 -4.08,8 -3.13,1.54 -6.69,1.16 -10.06,1.17 -30.33,-0.63 -60.65,-1.3201 -90.98,-1.75 -35,0.27 -70,1.2 -105,1.78 -3.92,0.22 -7.62,-2.28 -8.25,-6.26 -0.18,-6 -0.11,-12 -0.05,-17.98 -0.23,-4.12 3.49,-7.3201 7.36,-7.7001 15.3,-1.46 30.93,1.11 46.06,-2.15 6.16,-1.01 10.29,-6.3899 11.53,-12.22 2.26,-11.16 1.76,-22.62 2.14,-33.9299 0.34,-55.3601 -0.13,-110.7201 0,-166.0801 -0.11,-20.7 0.24,-41.4 -0.18,-62.09 -0.71,-5.79 -1.23,-13.55 -7.18,-16.38 -11.71,-1.1801 -23.26,2.4 -34.42,5.53 -7.3,2.0699 -14.6,4.12 -21.88,6.26 -3.51,0.83 -8.13,1.37 -10.63,-1.8 -2.12,-2.3199 -2.48,-5.63 -3.64,-8.4399 -1.11,-3.5801 -3.29,-7.0801 -2.58,-10.9501 0.84,-3.3199 3.8,-5.5599 6.66,-7.12 39.84,-19.46 79.65,-38.99 119.48,-58.48 10.69,-4.9298 20.97,-10.8298 31.95,-15.0798 m 1.06,8.01 c -10.92,4.93 -21.6,10.39 -32.4,15.58 -39.47,19.7 -79.34,38.59 -118.75,58.4 0.78,4.26 2.52,8.2899 4.03,12.34 0.64,-0.03 1.92,-0.08 2.56,-0.11 16.03,-4.1901 31.72,-10.0601 48.24,-12.11 5.46,-0.16 11.56,-1.27 16.36,2.0599 7.05,5.9401 8.96,15.63 9.21,24.41 0.09,27.67 0.01,55.34 0.05,83.01 -0.26,52.87 0.73,105.74 -0.28,158.61 -0.83,10.38 -0.15,22.12 -7.07,30.72 -5.05,6.67 -13.94,8.3101 -21.77,9.12 -11.16,0.7001 -22.37,0.25 -33.54,0.41 -1.4,0.29 -3.42,-0.3 -4.33,1.08 -0.28,4.7001 -0.16,9.4301 -0.05,14.14 0.59,1.89 2.89,1.13 4.34,1.3 28.33,-0.86 56.68,-1.16 85.02,-1.6801 25,-0.47 49.99,0.7101 74.99,0.78 12.64,0.14 25.29,1.3101 37.92,0.65 0.27,-5.37 0.43,-10.76 -0.03,-16.1 -13.85,-0.86 -27.88,0.95 -41.63,-1.39 -7.38,-1.1 -14.17,-6.28 -15.94,-13.72 -2.65,-11.4401 -2.31,-23.3101 -2.26,-34.9701 -0.63,-68.34 -0.89,-136.6799 -0.56,-205.01 0.42,-35 1.2,-69.98 1.31,-104.98 0.1,-6.98 0.86,-14 0.21,-20.96 -0.26,-2.9297 -3.71,-2.7797 -5.63,-1.5797 z"
     id="path12" /><path
     fill="#f15a25"
     stroke="#f15a25"
     stroke-width="0.0938"
     d="m 247.4,975.43 c 1.92,-1.2 5.37,-1.35 5.63,1.58 0.65,6.96 -0.11,13.98 -0.21,20.96 -0.11,35 -0.89,69.98 -1.31,104.98 -0.33,68.3301 -0.07,136.67 0.56,205.01 -0.05,11.66 -0.39,23.53 2.26,34.9701 1.77,7.4399 8.56,12.62 15.94,13.72 13.75,2.34 27.78,0.53 41.63,1.39 0.46,5.34 0.3,10.73 0.03,16.1 -12.63,0.66 -25.28,-0.51 -37.92,-0.65 -25,-0.07 -49.99,-1.25 -74.99,-0.78 -28.34,0.52 -56.69,0.8201 -85.02,1.6801 -1.45,-0.17 -3.75,0.59 -4.34,-1.3 -0.11,-4.71 -0.23,-9.4399 0.05,-14.14 0.91,-1.38 2.93,-0.7899 4.33,-1.08 11.17,-0.16 22.38,0.29 33.54,-0.41 7.83,-0.8099 16.72,-2.45 21.77,-9.12 6.92,-8.6 6.24,-20.34 7.07,-30.72 1.01,-52.87 0.02,-105.74 0.28,-158.61 -0.04,-27.67 0.04,-55.34 -0.05,-83.01 -0.25,-8.78 -2.16,-18.47 -9.21,-24.41 -4.8,-3.33 -10.9,-2.22 -16.36,-2.0599 -16.52,2.0499 -32.21,7.9199 -48.24,12.11 -0.64,0.03 -1.92,0.08 -2.56,0.11 -1.51,-4.05 -3.25,-8.08 -4.03,-12.34 39.41,-19.8101 79.28,-38.7 118.75,-58.4 10.8,-5.1903 21.48,-10.6503 32.4,-15.5803 z"
     id="path14" /></g></svg>
