<?xml version="1.0" encoding="UTF-8" standalone="no"?>
<svg
   xmlns:osb="http://www.openswatchbook.org/uri/2009/osb"
   xmlns:dc="http://purl.org/dc/elements/1.1/"
   xmlns:cc="http://creativecommons.org/ns#"
   xmlns:rdf="http://www.w3.org/1999/02/22-rdf-syntax-ns#"
   xmlns:svg="http://www.w3.org/2000/svg"
   xmlns="http://www.w3.org/2000/svg"
   xmlns:sodipodi="http://sodipodi.sourceforge.net/DTD/sodipodi-0.dtd"
   xmlns:inkscape="http://www.inkscape.org/namespaces/inkscape"
   version="1.1"
   id="Capa_1"
   x="0px"
   y="0px"
   viewBox="0 0 58 58"
   style="enable-background:new 0 0 58 58;"
   xml:space="preserve"
   sodipodi:docname="5.svg"
   inkscape:version="1.0.2 (e86c870879, 2021-01-15)"><metadata
   id="metadata63"><rdf:RDF><cc:Work
       rdf:about=""><dc:format>image/svg+xml</dc:format><dc:type
         rdf:resource="http://purl.org/dc/dcmitype/StillImage" /><dc:title></dc:title></cc:Work></rdf:RDF></metadata><defs
   id="defs61"><linearGradient
   id="linearGradient912"
   osb:paint="solid"><stop
     style="stop-color:#888888;stop-opacity:1;"
     offset="0"
     id="stop910" /></linearGradient>
	
	
</defs><sodipodi:namedview
   pagecolor="#ffffff"
   bordercolor="#666666"
   borderopacity="1"
   objecttolerance="10"
   gridtolerance="10"
   guidetolerance="10"
   inkscape:pageopacity="0"
   inkscape:pageshadow="2"
   inkscape:window-width="1680"
   inkscape:window-height="982"
   id="namedview59"
   showgrid="false"
   inkscape:zoom="2.4169642"
   inkscape:cx="-6.8591814"
   inkscape:cy="4.6764621"
   inkscape:window-x="0"
   inkscape:window-y="15"
   inkscape:window-maximized="1"
   inkscape:current-layer="Capa_1"
   inkscape:document-rotation="0" />
















<g
   id="g728"
   transform="matrix(0.13789704,0,0,0.08813989,-204.19697,-73.182274)"><path
     fill="#e35260"
     stroke="#e35260"
     stroke-width="0.0938"
     d="m 1743.24,948.32 c 2.13,-3.7 6.95,-4.7 10.8,-3.4 4.22,1.37 9.27,2.16 11.88,6.2 1.72,3.07 1.48,6.84 0.49,10.12 -7.5801,26.55 -15.03,53.14 -22.63,79.6901 -1.38,4.83 -3.9501,9.83 -8.85,11.84 -7.2301,2.98 -15.28,2.37 -22.9401,2.51 -39.29,0.07 -78.59,-0.16 -117.87,0.11 -1.61,6.5599 -2.12,13.6 -3.39,20.34 -1.71,12.3201 -4.1,24.5701 -5.48,36.9401 22.63,1.12 45.17,4.46 67.1801,9.86 19.1,4.6599 37.49,12.83 53,25 15.7799,12.25 28.4199,28.61 35.7599,47.23 13.8501,35.12 11.6801,76.1899 -5.87,109.64 -17.0699,33.1 -47.1,58.5 -81.24,72.74 -21.83,9.1799 -45.45,13.97 -69.11,14.48 -19.5,0.5 -39.38,-2.3199 -57.26,-10.37 -8.33,-4.04 -16.8099,-9.26 -21.36,-17.62 -3.5,-6.0601 -2.74,-13.5699 -0.72,-19.98 2.38,-7.37 9.28,-13.6801 17.34,-13.38 9.13,0.29 17.97,3.5 25.89,7.9199 7,3.6801 13.34,8.7001 21.01,11.03 21.89,6.9501 46.72,5.48 67.09,-5.4099 15.01,-7.8401 26.7001,-21.7001 31.8101,-37.8501 5.47,-16.9099 5.98,-35.4099 1.79,-52.6499 -4.8101,-19.7301 -17.9801,-37.3501 -35.89,-47.04 -18.9501,-10.21 -40.49,-14.34 -61.7001,-16.5 -7.38,-0.89 -14.88,-0.1801 -22.21,-1.35 -5.6801,-1.04 -9.12,-6.9801 -8.1901,-12.4701 7.41,-62.6599 14.91,-125.3099 22.3301,-187.96 0.3199,-3.09 1.51,-6.19 4.08,-8.1 2.37,-1.52 5.22,-2.1 8.02,-2.15 44.7,-0.01 89.39,0 134.09,0 6.0701,0 12.54,-1.34 17.1,-5.62 C 1735.21,965.61 1738.35,956.3 1743.24,948.32 m 7,3.84 c -4.38,7.33 -7.6,15.38 -13.0599,22.04 -5.79,7.81 -15.6901,11.48 -25.1901,11.45 -41,0.05 -82.01,0.01 -123.01,0.02 -5.15,0.31 -10.47,-0.69 -15.49,0.68 -1.33,3.76 -1.0599,7.83 -1.79,11.73 -7.0699,59.32 -14.11,118.65 -21.1799,177.98 -0.2001,1.6499 -0.37,4.0399 1.6899,4.58 4.89,0.91 9.9,0.37 14.8501,0.77 15.5099,0.9 30.98,3.3199 45.9199,7.63 16.14,4.62 32.03,11.88 43.9301,24.02 14.1599,14.34 22.48,33.95 23.95,53.97 1.65,20.26 -1.6899,41.65 -12.89,58.95 -10.73,16.8101 -28.6799,28.1901 -47.9199,32.71 -20.26,4.7101 -42.39,3.4501 -61.3201,-5.5099 -11.1699,-6.4501 -22.39,-14.53 -35.78,-14.9401 -4.45,-0.3199 -8.0499,3.45 -9.51,7.34 -1.75,4.6801 -2.58,10.3301 0.17,14.8201 4.22,6.5499 11.17,10.66 18.0601,13.9199 20.12,8.8601 42.6499,10.5801 64.35,8.8101 22.0499,-1.85 43.8199,-7.59 63.73,-17.29 32.49,-15.74 60.25,-42.65 73.6801,-76.48 8.8899,-21.9 10.97,-46.3199 6.72,-69.5 -3.04,-17.13 -10.05,-33.6 -20.79,-47.3099 -12.87,-16.6101 -30.84,-28.8101 -50.27,-36.49 -16.97,-6.4301 -34.9199,-9.7101 -52.7899,-12.4301 -13.3501,-1.6901 -26.8,-3.66 -40.29,-2.8101 0.08,-2.34 0.34,-4.6499 0.8,-6.9299 3.5399,-22.15 6.6799,-44.38 10.4199,-66.49 38.5801,-0.11 77.16,-0.02 115.74,-0.05 8.97,-0.26 18.11,0.75 26.9501,-1.1899 4.1,-0.7201 5.64,-5.0601 6.5699,-8.5801 7.6,-27.29 15.6801,-54.46 23.02,-81.8199 C 1757.02,953.48 1753.35,953.18 1750.24,952.16 Z"
     id="path724" /><path
     fill="#f9c3d1"
     stroke="#f9c3d1"
     stroke-width="0.0938"
     d="m 1750.24,952.16 c 3.11,1.02 6.78,1.32 9.27,3.6 -7.34,27.36 -15.42,54.53 -23.02,81.8199 -0.9299,3.52 -2.47,7.86 -6.5699,8.5801 -8.8401,1.9399 -17.9801,0.9299 -26.9501,1.1899 -38.58,0.03 -77.1599,-0.06 -115.74,0.05 -3.74,22.11 -6.88,44.34 -10.4199,66.49 -0.4601,2.28 -0.7201,4.59 -0.8,6.9299 13.49,-0.85 26.9399,1.12 40.29,2.8101 17.87,2.72 35.8199,6 52.7899,12.4301 19.4301,7.6799 37.4,19.8799 50.27,36.49 10.74,13.71 17.75,30.1799 20.79,47.3099 4.25,23.1801 2.1699,47.6 -6.72,69.5 -13.4301,33.83 -41.1901,60.74 -73.6801,76.48 -19.91,9.7001 -41.6801,15.4401 -63.73,17.29 -21.7001,1.77 -44.23,0.05 -64.35,-8.8101 -6.89,-3.2599 -13.8401,-7.37 -18.0601,-13.9199 -2.75,-4.49 -1.92,-10.14 -0.17,-14.8201 1.4601,-3.89 5.0601,-7.6599 9.51,-7.34 13.39,0.41 24.6101,8.49 35.78,14.9401 18.9301,8.96 41.0601,10.22 61.3201,5.5099 19.24,-4.5199 37.1899,-15.8999 47.9199,-32.71 11.2001,-17.2999 14.54,-38.6899 12.89,-58.95 -1.47,-20.02 -9.79,-39.63 -23.95,-53.97 -11.9,-12.14 -27.79,-19.4 -43.9301,-24.02 -14.9399,-4.3101 -30.41,-6.73 -45.9199,-7.63 -4.9501,-0.4 -9.9601,0.14 -14.8501,-0.77 -2.0599,-0.54 -1.89,-2.9301 -1.6899,-4.58 7.0699,-59.3301 14.11,-118.66 21.1799,-177.98 0.7301,-3.9 0.4601,-7.97 1.79,-11.73 5.02,-1.37 10.34,-0.37 15.49,-0.68 41,-0.01 82.01,0.03 123.01,-0.02 9.5,0.03 19.4,-3.64 25.1901,-11.45 C 1742.64,967.54 1745.86,959.49 1750.24,952.16 Z"
     id="path726" /></g></svg>
