<?xml version="1.0" encoding="UTF-8" standalone="no"?>
<svg
   xmlns:osb="http://www.openswatchbook.org/uri/2009/osb"
   xmlns:dc="http://purl.org/dc/elements/1.1/"
   xmlns:cc="http://creativecommons.org/ns#"
   xmlns:rdf="http://www.w3.org/1999/02/22-rdf-syntax-ns#"
   xmlns:svg="http://www.w3.org/2000/svg"
   xmlns="http://www.w3.org/2000/svg"
   xmlns:sodipodi="http://sodipodi.sourceforge.net/DTD/sodipodi-0.dtd"
   xmlns:inkscape="http://www.inkscape.org/namespaces/inkscape"
   version="1.1"
   id="Capa_1"
   x="0px"
   y="0px"
   viewBox="0 0 58 58"
   style="enable-background:new 0 0 58 58;"
   xml:space="preserve"
   sodipodi:docname="7.svg"
   inkscape:version="1.0.2 (e86c870879, 2021-01-15)"><metadata
   id="metadata63"><rdf:RDF><cc:Work
       rdf:about=""><dc:format>image/svg+xml</dc:format><dc:type
         rdf:resource="http://purl.org/dc/dcmitype/StillImage" /><dc:title></dc:title></cc:Work></rdf:RDF></metadata><defs
   id="defs61"><linearGradient
   id="linearGradient912"
   osb:paint="solid"><stop
     style="stop-color:#888888;stop-opacity:1;"
     offset="0"
     id="stop910" /></linearGradient>
	
	
</defs><sodipodi:namedview
   pagecolor="#ffffff"
   bordercolor="#666666"
   borderopacity="1"
   objecttolerance="10"
   gridtolerance="10"
   guidetolerance="10"
   inkscape:pageopacity="0"
   inkscape:pageshadow="2"
   inkscape:window-width="1680"
   inkscape:window-height="982"
   id="namedview59"
   showgrid="false"
   inkscape:zoom="2.4169642"
   inkscape:cx="-6.8591814"
   inkscape:cy="153.62364"
   inkscape:window-x="0"
   inkscape:window-y="15"
   inkscape:window-maximized="1"
   inkscape:current-layer="Capa_1"
   inkscape:document-rotation="0" />
















<g
   id="g754"
   transform="matrix(0.14457333,0,0,0.09428642,-51.410711,-128.12934)"><path
     fill="#f994b2"
     stroke="#f994b2"
     stroke-width="0.0938"
     d="m 421.3,1465.0601 c 0.89,-3.5601 4.01,-6.0901 7.67,-6.2301 4.8,-0.2799 10.67,-1.0199 14.34,2.8 3.96,4.22 1.85,10.3199 2.28,15.46 3.38,2.1901 7.52,2.4301 11.42,2.9301 9.97,0.88 20,0.46 30,0.5599 55.65,0.01 111.3,-0.01 166.95,0.02 4.21,-0.22 8.55,2.38 9.71,6.5701 1.94,5.83 -1.39,11.5299 -3.88,16.63 -4.57,8.33 -9.99,16.1599 -14.52,24.5299 -18.94,33.75 -36.47,68.3 -52.29,103.63 -18.55,42.6801 -34.65,86.4601 -48,131.05 -6.9,23.12 -13.17,46.4299 -19.38,69.75 -2.5099,9.15 -4.54,18.53 -8.72,27.11 -5.81,12.59 -15.09,24.16 -27.85,30.15 -10.39,4.88 -22.65,5.98 -33.65,2.53 -8.8,-2.7301 -16.47,-8.9301 -20.97,-16.9701 -6.06,-10.33 -6.99,-23.0399 -4.31,-34.5499 3.65,-16.4 10.72,-31.78 18.27,-46.7001 9.02,-17.0199 19.19,-33.3999 29.06,-49.9199 38.06,-62.91 76.5,-125.5901 115.37,-187.99 -44.26,-0.08 -88.51,-0.03 -132.77,-0.03 -10.7,0.17 -22.04,1.38 -31.16,7.47 -10.3,6.63 -16.38,17.66 -24.71,26.3201 -5.23,4.58 -12.57,1.4199 -17.56,-1.92 -3.69,-1.86 -5.09,-6.55 -3.47,-10.26 12.66,-37.6701 25.46,-75.2901 38.17,-112.94 m 2.97,16.0999 c -11.28,33.3199 -22.64,66.6 -33.77,99.96 2.53,1.62 6.12,4.8101 9.06,2.46 7.3,-8.63 13.67,-18.3099 22.9,-25.0699 7.13,-5.27 15.79,-8.03 24.5,-9.1801 9.62,-1.49 19.38,-0.72 29.06,-0.9099 43.65,-0.02 87.3,0.06 130.95,-0.04 -0.16,0.91 -0.5,1.78 -1,2.59 -6.24,9.48 -12.2599,19.1 -18.25,28.74 -40.5,65.3 -80.72,130.79 -120.19,196.7201 -10.79,18.33 -20.9,37.25 -27.4,57.58 -2.43,8.39 -4.59,17.24 -2.92,26.01 1.47,10.29 8.19,19.88 17.88,23.97 10,4.09 21.73,3.24 31.33,-1.59 14.17,-7.14 22.84,-21.8101 27.36,-36.54 8.52,-30.99 16.42,-62.16 25.95,-92.86 12.85,-42.04 28.2,-83.3199 45.7,-123.65 16.7,-37.36 35.27,-73.89 55.49,-109.47 4.23,-7.72 9.48,-14.84 13.31,-22.77 1.12,-2.5499 2.63,-5.28 1.73,-8.13 -0.5,-0.11 -1.5,-0.33 -2,-0.4399 -55.9901,-0.04 -111.98,-0.01 -167.98,-0.02 -11.72,-0.15 -23.54,0.54 -35.17,-1.3 -4.35,-0.9 -9.47,-1.97 -11.84,-6.1599 -2.78,-4.1901 -0.68,-9.3601 -1.28,-13.9801 -2.59,-0.7899 -5.32,-0.45 -7.98,-0.5399 -2.73,4.4496 -3.48,9.8096 -5.44,14.6196 z"
     id="path750" /><path
     fill="#e45161"
     stroke="#e45161"
     stroke-width="0.0938"
     d="m 424.27,1481.16 c 1.96,-4.8101 2.71,-10.17 5.44,-14.62 2.66,0.09 5.39,-0.25 7.98,0.5399 0.6,4.62 -1.5,9.79 1.28,13.9801 2.37,4.1899 7.49,5.2599 11.84,6.1599 11.63,1.8401 23.45,1.15 35.17,1.3 56,0.01 111.99,-0.02 167.98,0.02 0.5,0.11 1.5,0.33 2,0.4399 0.9,2.85 -0.61,5.5801 -1.73,8.13 -3.83,7.9301 -9.08,15.05 -13.31,22.77 -20.22,35.58 -38.79,72.11 -55.49,109.47 -17.5,40.3301 -32.85,81.61 -45.7,123.65 -9.53,30.7 -17.43,61.87 -25.95,92.86 -4.52,14.73 -13.19,29.4 -27.36,36.54 -9.6,4.83 -21.33,5.6799 -31.33,1.59 -9.69,-4.09 -16.41,-13.6799 -17.88,-23.97 -1.67,-8.77 0.49,-17.62 2.92,-26.01 6.5,-20.33 16.61,-39.25 27.4,-57.58 C 507,1710.5 547.22,1645.01 587.72,1579.71 c 5.9901,-9.64 12.01,-19.26 18.25,-28.74 0.5,-0.8099 0.84,-1.6799 1,-2.59 -43.65,0.1 -87.3,0.02 -130.95,0.04 -9.68,0.1899 -19.44,-0.5801 -29.06,0.9099 -8.71,1.15 -17.37,3.91 -24.5,9.1801 -9.23,6.76 -15.6,16.4399 -22.9,25.0699 -2.94,2.3501 -6.53,-0.84 -9.06,-2.46 11.13,-33.3599 22.49,-66.6399 33.77,-99.9599 z"
     id="path752" /></g></svg>
