<?xml version="1.0" encoding="UTF-8" standalone="no"?>
<svg
   xmlns:osb="http://www.openswatchbook.org/uri/2009/osb"
   xmlns:dc="http://purl.org/dc/elements/1.1/"
   xmlns:cc="http://creativecommons.org/ns#"
   xmlns:rdf="http://www.w3.org/1999/02/22-rdf-syntax-ns#"
   xmlns:svg="http://www.w3.org/2000/svg"
   xmlns="http://www.w3.org/2000/svg"
   xmlns:sodipodi="http://sodipodi.sourceforge.net/DTD/sodipodi-0.dtd"
   xmlns:inkscape="http://www.inkscape.org/namespaces/inkscape"
   version="1.1"
   id="Capa_1"
   x="0px"
   y="0px"
   viewBox="0 0 58 58"
   style="enable-background:new 0 0 58 58;"
   xml:space="preserve"
   sodipodi:docname="8.svg"
   inkscape:version="1.0.2 (e86c870879, 2021-01-15)"><metadata
   id="metadata63"><rdf:RDF><cc:Work
       rdf:about=""><dc:format>image/svg+xml</dc:format><dc:type
         rdf:resource="http://purl.org/dc/dcmitype/StillImage" /><dc:title></dc:title></cc:Work></rdf:RDF></metadata><defs
   id="defs61"><linearGradient
   id="linearGradient912"
   osb:paint="solid"><stop
     style="stop-color:#888888;stop-opacity:1;"
     offset="0"
     id="stop910" /></linearGradient>
	
	
</defs><sodipodi:namedview
   pagecolor="#ffffff"
   bordercolor="#666666"
   borderopacity="1"
   objecttolerance="10"
   gridtolerance="10"
   guidetolerance="10"
   inkscape:pageopacity="0"
   inkscape:pageshadow="2"
   inkscape:window-width="1680"
   inkscape:window-height="982"
   id="namedview59"
   showgrid="false"
   inkscape:zoom="0.85452588"
   inkscape:cx="-151.01871"
   inkscape:cy="216.52095"
   inkscape:window-x="0"
   inkscape:window-y="15"
   inkscape:window-maximized="1"
   inkscape:current-layer="Capa_1"
   inkscape:document-rotation="0" />
















<g
   id="g354"
   transform="matrix(0.16342025,0,0,0.09262473,-125.26644,-125.40014)"><path
     fill="#aee0e9"
     stroke="#aee0e9"
     stroke-width="0.0938"
     d="m 864.06,1477.05 c 21.36,-9.0601 44.77,-12.7101 67.89,-12.0701 22.77,0.76 45.66,6.7001 65.03,18.92 13.74,8.6 25.73,20.4199 33.17,34.9299 4.96,9.27 7.5499,19.7001 7.97,30.1901 0.15,18.7999 -2.87,38.1899 -12.6899,54.53 -12.0201,20.1799 -31.2001,34.75 -50.7101,47.2 -2.54,1.85 -5.7,2.88 -7.87,5.23 14.6801,8.9301 29.56,18.0601 42.15,29.9401 11.38,10.6899 21.1,23.35 27.4,37.6899 5.5399,12.41 8.4399,25.87 9.5699,39.38 1.98,19.22 -1.75,38.98 -10.9099,56.03 -17.0601,33.5499 -50.78,56.7999 -87.1501,64.78 -22.92,5.21 -46.81,4.8999 -69.97,1.5 -21.34,-3.5 -42.67,-10.74 -59.5,-24.7201 -14.48,-11.7799 -24.85,-28.7699 -27.89,-47.25 -1.97,-10.7 -1.15,-21.6699 0.43,-32.35 2.78,-16.98 9.64,-33.29 20.01,-47.04 11.85,-16.0399 27.34,-29.0299 43.79,-40.1399 2.16,-1.5801 4.75,-2.6901 6.41,-4.8601 -16.75,-12.4399 -34.18,-24.2999 -48.52,-39.58 -10.38,-10.9 -18.52,-24.14 -22.28,-38.78 -5.3,-20.5599 -4.33,-42.83 3.55,-62.61 C 806.18,1515.9301 832.61,1490.26 864.06,1477.05 m 25.94,-0.06 c -22.13,5.09 -43.15,15.6801 -59.68,31.35 -13.7,12.8 -24.45,28.87 -30.45,46.67 -6.23,17.78 -6.27,37.47 -1.23,55.54 4.92,17.4299 16.94,31.7799 30.37,43.48 14.77,12.89 30.94,24.0399 46.86,35.4299 -0.17,0.1901 -0.51,0.5601 -0.69,0.74 -16.88,10.27 -33.37,21.5801 -47.14,35.87 -13.37,13.87 -23.78,30.9901 -27.96,49.9301 -3.65,16.5699 -4.33,34.53 2.46,50.4301 6.95,17.09 21.1,30.48 37.39,38.72 21.59,10.9299 46.15,14.5399 70.13,14.62 21.73,0.3199 43.66,-3.8101 63.4,-13.05 28.09,-13.12 51.72,-37.25 61.07,-67.15 4.03,-12.0699 4.62,-25 3.35,-37.58 -1.09,-12.53 -4.01,-24.98 -9.35,-36.4 -6.22,-13.5499 -15.63,-25.47 -26.7,-35.37 -15.37,-13.88 -33.46,-24.2899 -51.76,-33.7899 0.9,-1.29 2.55,-1.7101 3.83,-2.52 16.44,-9.37 32.56,-19.62 46.5699,-32.4401 11.21,-10.34 20.59,-23.08 25.12,-37.78 3.76,-11.7999 4.8,-24.33 4.4301,-36.6499 -1,-17.6901 -10.49,-33.99 -23.4,-45.75 -15.51,-14.38 -35.75,-22.9501 -56.44,-26.52 C 930.24,1471.5 909.67,1472.53 890,1476.99 Z"
     id="path346" /><path
     fill="#aee0e9"
     stroke="#aee0e9"
     stroke-width="0.0938"
     d="m 880.68,1510.61 c 10,-12.13 25.75,-18.84 41.39,-18.34 16.32,-0.6901 32.45,7.49 41.89,20.75 12.85,17.7 16.43,40.58 14.92,61.99 -1.99,29.74 -18.84,57.88 -43.91,73.92 -16.64,-9.6801 -33.58,-19.16 -48.39,-31.5601 -6.96,-6.08 -13.6,-12.84 -17.8,-21.17 -5.02,-9.5399 -6.65,-20.5199 -6.1801,-31.2 C 863.1,1545.7 868.09,1525.6801 880.68,1510.61 m 31.32,-9.62 c -11.44,2.13 -21.78,9.14 -28.27,18.77 -10.2,14.89 -13.63,33.46 -13.17,51.25 0.09,10.51 3.66,21 10.32,29.17 10.63,13.2999 25.53,22.1699 39.75,31.12 4.8,2.5499 9.14,6.08 14.33,7.84 11.63,-8.46 21.09,-19.87 27.41,-32.78 9.85,-20.15 11.23,-43.8099 5.85,-65.42 -3.55,-13.96 -11.24,-27.6799 -23.89,-35.23 -9.67,-5.7799 -21.43,-6.44 -32.33,-4.72 z"
     id="path348" /><path
     fill="#aee0e9"
     stroke="#aee0e9"
     stroke-width="0.0938"
     d="m 889.13,1698.97 c 16.78,9 33.25,18.8 48.43,30.35 12.6,9.7301 24.53,21.37 30.73,36.3301 6.31,14.89 5.84,31.63 3.26,47.3099 -2.79,16.02 -10.48,31.98 -24.19,41.38 -13.97,9.36 -32.03,12.42 -48.37,8.65 -19.23,-4.9299 -35.55,-19.12 -44.12,-36.91 -9.1,-18.5599 -10.06,-40.14 -6.39,-60.2 4.83,-26.26 19.46,-50.62 40.65,-66.91 M 854.5,1789 c -0.02,18.53 6.43,37.52 19.75,50.73 10.7,10.55 25.54,17.96 40.85,16.8301 13.26,-0.5801 26.75,-5.66 35.57,-15.88 11.09,-12.7401 14.41,-30.25 14.68,-46.6801 0.48,-12.46 -2.8,-25.12 -9.94,-35.4 -11.64,-16.78 -29.14,-28.08 -46.08,-38.89 -6.44,-3.63 -12.5,-8.0599 -19.33,-10.9099 C 866.72,1728.2 853.75,1758.85 854.5,1789 Z"
     id="path350" /><path
     fill="#18577a"
     stroke="#18577a"
     stroke-width="0.0938"
     d="m 890,1476.99 c 19.67,-4.46 40.24,-5.49 60.18,-2.22 20.69,3.5699 40.93,12.14 56.44,26.52 12.91,11.76 22.4,28.0599 23.4,45.75 0.37,12.3199 -0.67,24.85 -4.4301,36.6499 -4.53,14.7001 -13.91,27.4401 -25.12,37.78 C 986.46,1634.29 970.34,1644.54 953.9,1653.91 c -1.28,0.8099 -2.9301,1.23 -3.83,2.52 18.3,9.5 36.39,19.9099 51.76,33.7899 11.07,9.9 20.48,21.8201 26.7,35.37 5.34,11.42 8.26,23.87 9.35,36.4 1.27,12.58 0.6801,25.51 -3.35,37.58 -9.35,29.9 -32.98,54.03 -61.07,67.15 -19.7401,9.24 -41.67,13.37 -63.4,13.05 -23.98,-0.08 -48.54,-3.6901 -70.13,-14.62 -16.29,-8.24 -30.44,-21.63 -37.39,-38.72 -6.79,-15.9 -6.11,-33.8601 -2.46,-50.4301 4.18,-18.9399 14.59,-36.0601 27.96,-49.9301 13.77,-14.2899 30.26,-25.6 47.14,-35.87 0.18,-0.1799 0.52,-0.5499 0.69,-0.74 -15.92,-11.39 -32.09,-22.5399 -46.86,-35.4299 -13.43,-11.7001 -25.45,-26.05 -30.37,-43.48 -5.04,-18.0701 -5,-37.76 1.23,-55.54 6,-17.8 16.75,-33.87 30.45,-46.67 C 846.85,1492.67 867.87,1482.08 890,1476.99 m -9.32,33.62 c -12.59,15.0701 -17.58,35.09 -18.08,54.39 -0.47,10.6801 1.16,21.66 6.1801,31.2 4.2,8.3301 10.84,15.0901 17.8,21.17 14.81,12.4 31.75,21.88 48.39,31.5601 25.07,-16.04 41.92,-44.1801 43.91,-73.92 1.51,-21.41 -2.07,-44.29 -14.92,-61.99 -9.44,-13.26 -25.57,-21.4401 -41.89,-20.75 C 906.43,1491.77 890.68,1498.48 880.68,1510.61 m 8.45,188.36 c -21.19,16.29 -35.82,40.65 -40.65,66.91 -3.67,20.0599 -2.71,41.64 6.39,60.2 8.57,17.79 24.89,31.9801 44.12,36.91 16.34,3.77 34.4,0.71 48.37,-8.65 13.71,-9.4 21.4,-25.36 24.19,-41.38 2.58,-15.6799 3.05,-32.4199 -3.26,-47.3099 -6.2,-14.9601 -18.13,-26.6 -30.73,-36.3301 -15.18,-11.55 -31.65,-21.35 -48.43,-30.35 z"
     id="path352" /></g></svg>
