<?xml version="1.0" encoding="UTF-8" standalone="no"?>
<svg
   xmlns:osb="http://www.openswatchbook.org/uri/2009/osb"
   xmlns:dc="http://purl.org/dc/elements/1.1/"
   xmlns:cc="http://creativecommons.org/ns#"
   xmlns:rdf="http://www.w3.org/1999/02/22-rdf-syntax-ns#"
   xmlns:svg="http://www.w3.org/2000/svg"
   xmlns="http://www.w3.org/2000/svg"
   xmlns:sodipodi="http://sodipodi.sourceforge.net/DTD/sodipodi-0.dtd"
   xmlns:inkscape="http://www.inkscape.org/namespaces/inkscape"
   version="1.1"
   id="Capa_1"
   x="0px"
   y="0px"
   viewBox="0 0 58 58"
   style="enable-background:new 0 0 58 58;"
   xml:space="preserve"
   sodipodi:docname="3.svg"
   inkscape:version="1.0.2 (e86c870879, 2021-01-15)"><metadata
   id="metadata63"><rdf:RDF><cc:Work
       rdf:about=""><dc:format>image/svg+xml</dc:format><dc:type
         rdf:resource="http://purl.org/dc/dcmitype/StillImage" /><dc:title></dc:title></cc:Work></rdf:RDF></metadata><defs
   id="defs61"><linearGradient
   id="linearGradient912"
   osb:paint="solid"><stop
     style="stop-color:#888888;stop-opacity:1;"
     offset="0"
     id="stop910" /></linearGradient>
	
	
</defs><sodipodi:namedview
   pagecolor="#ffffff"
   bordercolor="#666666"
   borderopacity="1"
   objecttolerance="10"
   gridtolerance="10"
   guidetolerance="10"
   inkscape:pageopacity="0"
   inkscape:pageshadow="2"
   inkscape:window-width="1680"
   inkscape:window-height="982"
   id="namedview59"
   showgrid="false"
   inkscape:zoom="1.7090518"
   inkscape:cx="-78.801052"
   inkscape:cy="-22.44623"
   inkscape:window-x="0"
   inkscape:window-y="15"
   inkscape:window-maximized="1"
   inkscape:current-layer="Capa_1"
   inkscape:document-rotation="0" />
















<g
   id="g740"
   transform="matrix(0.11908235,0,0,0.08511405,-83.215923,-68.923625)"><path
     fill="#4798ed"
     stroke="#4798ed"
     stroke-width="0.0938"
     d="m 836.32,972.3 c 22,-11.12 47.32,-14.38 71.69,-12.22 21.22,1.74 42.41,8.43 59.48,21.43 15.53,11.81 27.23,28.79 32.04,47.76 4.81,17.76 1.59,36.85 -5.88,53.4 -9.36,20.3099 -25.73,36.49 -43.69,49.39 -5.79,4.2799 -12.06,7.85 -18.06,11.8099 17.49,4.62 34.02,12.84 48.25,24.02 17.09,13.41 31.05,31.37 37.73,52.2 6.4301,19.6901 5.07,41.27 -1.13,60.8401 -10.74,33.6399 -36.67,60.88 -67.37,77.49 -21.08,11.63 -44.49,18.7 -68.31,21.9099 -22.56,2.8101 -45.59,2.8101 -68.02,-1.13 -16.74,-3.2 -33.79,-8.9399 -46.42,-20.85 -6.96,-6.64 -12.29,-15.5699 -12.79,-25.35 -0.17,-8.87 2.77,-17.8101 8.36,-24.71 4.73,-6.13 11.9,-10.7101 19.75,-11.13 9.42,-0.4401 18.95,2.6899 26.23,8.6899 6.22,4.92 10.79,11.5801 14.51,18.52 2.66,4.89 4.48,10.39 8.56,14.36 7.82,8.21 19.84,10.29 30.72,10.01 16.78,-0.04 32.96,-8.23 43.76,-20.9299 14.29,-16.64 20.6,-39.13 19.82,-60.8201 -0.37,-19.35 -4.95,-39.1799 -16.31,-55.13 -11.86,-16.96 -30.47,-28.03 -49.89,-34.27 -7.77,-2.9 -16.17,-3.77 -23.78,-7.1 -3.89,-1.51 -6.92,-5.1799 -7.27,-9.38 -0.27,-4.88 -0.32,-10.64 3.76,-14.09 4.77,-3.67 11.03,-3.91 16.65,-5.39 17.77,-4.3199 35.5,-12.09 47.91,-25.95 9.7,-10.5601 15.13,-24.51 16.57,-38.67 2.24,-18 -2.12,-37.77 -15.49,-50.6901 -14.56,-14.64 -38.42,-16.5099 -56.75,-8.45 -18.14,8.12 -30.28,25.22 -38.29,42.8199 -2.52,4.9401 -3.62,11.1801 -8.47,14.5 -3.84,2.7401 -8.33,-0.1299 -12.28,-1.0399 -3.59,-1.4401 -8.72,-1.4 -10.43,-5.51 -1.98,-4 -0.52,-8.51 0.33,-12.6 C 780,1020.7 803.4,988.33 836.32,972.3 m 18.09,1.14 c -19.68,6.34 -37.3,18.67 -50.3799,34.64 -12.23,15.01 -20.9301,32.92 -24.97,51.8599 -0.24,1.65 -1.03,3.4601 -0.27,5.1101 3.85,0.7899 7.53,2.1899 11.33,3.22 1.66,-1.9301 2.48,-4.37 3.49,-6.65 6.84,-16.42 16.61,-32.1899 30.85,-43.17 16.02,-12.51 38.2,-16.53 57.6,-10.5 14.33,4.18 26.16,15.05 32.59,28.4 8.24,16.54 8.58,36.02 4.2599,53.7101 -3.89,15.95 -13.34,30.47 -26.47,40.33 -14.52,11.37 -32.43,17.29 -50.31,20.8099 -2.52,0.49 -6.11,1.55 -5.88,4.76 -0.02,2.3401 -0.84,5.77 1.91,6.9401 4.55,2.34 9.71,3.01 14.6,4.4 10.95,2.86 21.59,6.95 31.55,12.35 15.68,8.58 29.19,21.48 37.45,37.4299 9.86,18.92 12.72,40.78 11.48,61.88 -1.65,20.91 -9.55,41.8 -24.21,57.0701 -12.11,12.77 -29.4,20.59 -47.05,20.65 -11.38,0.24 -23.48,-1.8 -32.67,-8.9401 -5.27,-3.9 -8.97,-9.53 -11.59,-15.45 -4.36,-9.3201 -10.3199,-18.53 -19.53,-23.64 -6.61,-3.23 -14.79,-5.12 -21.76,-1.97 -10.03,5.23 -15.79,17.2699 -14.38,28.37 1.63,9.2999 8.33,16.8199 15.77,22.2 10.12,7.13 22.07,11.1801 34.13,13.6 22.35,4.41 45.44,4.4301 68,1.5801 37.37,-4.88 74.24,-20.3301 100.84,-47.55 15.2,-15.74 26.8,-35.38 31.18,-56.96 3.4901,-16.41 3.08,-33.92 -3.1899,-49.63 -6.27,-16.78 -17.84,-31.15 -31.53,-42.51 -16.99,-13.85 -37.61,-23.4501 -59.38,-26.53 -0.06,-2.1801 -0.09,-4.34 -0.13,-6.49 4.77,-3.36 10.19,-5.6901 15.05,-8.9301 18.81,-11.5399 36.58,-25.89 48.37,-44.8199 8.9301,-14.23 13.82,-31.23 12.45,-48.0701 -2.11,-18.96 -12.04,-36.6799 -26.25,-49.2399 -15.11,-13.27 -34.64,-20.65 -54.43,-23.15 C 893.38,966.25 873.19,967.21 854.41,973.44 Z"
     id="path736" /><path
     fill="#afdfe9"
     stroke="#afdfe9"
     stroke-width="0.0938"
     d="m 854.41,973.44 c 18.78,-6.23 38.97,-7.19 58.52,-4.89 19.79,2.5 39.32,9.88 54.43,23.15 14.21,12.56 24.14,30.28 26.25,49.2399 1.37,16.8401 -3.52,33.8401 -12.45,48.0701 -11.79,18.9299 -29.56,33.28 -48.37,44.8199 -4.86,3.24 -10.28,5.5701 -15.05,8.9301 0.04,2.15 0.07,4.3099 0.13,6.49 21.77,3.08 42.39,12.6801 59.38,26.53 13.69,11.36 25.26,25.73 31.53,42.51 6.27,15.71 6.68,33.22 3.1899,49.63 -4.3799,21.58 -15.98,41.22 -31.18,56.96 -26.6,27.22 -63.47,42.67 -100.84,47.55 -22.56,2.85 -45.65,2.83 -68,-1.5801 -12.06,-2.4199 -24.01,-6.47 -34.13,-13.6 -7.44,-5.38 -14.14,-12.9 -15.77,-22.2 -1.41,-11.1001 4.35,-23.14 14.38,-28.37 6.97,-3.15 15.15,-1.26 21.76,1.97 9.21,5.11 15.17,14.3199 19.53,23.64 2.6201,5.9199 6.32,11.5499 11.59,15.45 9.19,7.14 21.29,9.1801 32.67,8.9401 17.65,-0.06 34.94,-7.88 47.05,-20.65 14.66,-15.27 22.56,-36.16 24.21,-57.0701 1.24,-21.1 -1.62,-42.96 -11.48,-61.88 -8.26,-15.95 -21.77,-28.85 -37.45,-37.4299 -9.96,-5.4 -20.6,-9.49 -31.55,-12.35 -4.89,-1.39 -10.05,-2.0601 -14.6,-4.4 -2.75,-1.17 -1.93,-4.6 -1.91,-6.9401 -0.23,-3.21 3.36,-4.27 5.88,-4.76 17.88,-3.5199 35.79,-9.4399 50.31,-20.8099 13.13,-9.86 22.58,-24.38 26.47,-40.33 4.32,-17.6901 3.98,-37.17 -4.2599,-53.7101 -6.4301,-13.35 -18.26,-24.22 -32.59,-28.4 -19.4,-6.03 -41.58,-2.01 -57.6,10.5 -14.2401,10.98 -24.01,26.7499 -30.85,43.17 -1.01,2.28 -1.83,4.72 -3.49,6.65 -3.8,-1.03 -7.48,-2.4301 -11.33,-3.22 -0.7599,-1.65 0.03,-3.4601 0.27,-5.1101 4.04,-18.9398 12.74,-36.8498 24.97,-51.8598 13.08,-15.97 30.7,-28.3 50.38,-34.64 z"
     id="path738" /></g></svg>
