<?xml version="1.0" encoding="iso-8859-1"?>
<!-- Generator: Adobe Illustrator 19.0.0, SVG Export Plug-In . SVG Version: 6.00 Build 0)  -->
<svg version="1.1" id="Layer_1" xmlns="http://www.w3.org/2000/svg" xmlns:xlink="http://www.w3.org/1999/xlink" x="0px" y="0px"
	 viewBox="0 0 512 512" style="enable-background:new 0 0 512 512;" xml:space="preserve">
<g>
	<rect x="46.545" y="201.697" style="fill:#9BC9FF;" width="108.606" height="263.758"/>
	<polygon style="fill:#9BC9FF;" points="46.545,155.152 178.424,155.152 465.455,155.152 465.455,46.545 46.545,46.545 	"/>
	<rect x="201.697" y="201.697" style="fill:#9BC9FF;" width="263.758" height="263.758"/>
</g>
<path style="fill:#8CB7E8;" d="M488.727,0H23.273C10.42,0,0,10.42,0,23.273v155.152v310.303C0,501.58,10.42,512,23.273,512h155.152
	h310.303C501.58,512,512,501.58,512,488.727V178.424V23.273C512,10.42,501.58,0,488.727,0z M155.152,465.455H46.545V201.697h108.606
	V465.455z M465.455,465.455H201.697V201.697h263.758V465.455z M465.455,155.152h-287.03H46.545V46.545h418.909V155.152z"/>
<g>
	<rect x="256" y="46.545" style="fill:#BDFDFF;" width="209.455" height="108.606"/>
	<rect x="256" y="201.697" style="fill:#BDFDFF;" width="209.455" height="263.758"/>
</g>
<path style="fill:#5286FA;" d="M488.727,0H256v46.545h209.455v108.606H256v46.545h209.455v263.758H256V512h232.727
	C501.58,512,512,501.58,512,488.727V178.424V23.273C512,10.42,501.58,0,488.727,0z"/>
<path style="fill:#3D6DEB;" d="M201.697,465.455V201.697H256v-46.545h-77.576H46.545V46.545H256V0H23.273C10.42,0,0,10.42,0,23.273
	v155.152v310.303C0,501.58,10.42,512,23.273,512h155.152H256v-46.545H201.697z M155.152,465.455H46.545V201.697h108.606V465.455z"/>
<g>
</g>
<g>
</g>
<g>
</g>
<g>
</g>
<g>
</g>
<g>
</g>
<g>
</g>
<g>
</g>
<g>
</g>
<g>
</g>
<g>
</g>
<g>
</g>
<g>
</g>
<g>
</g>
<g>
</g>
</svg>
