<?xml version="1.0" encoding="iso-8859-1"?>
<!-- Generator: Adobe Illustrator 19.0.0, SVG Export Plug-In . SVG Version: 6.00 Build 0)  -->
<svg version="1.1" id="Layer_1" xmlns="http://www.w3.org/2000/svg" xmlns:xlink="http://www.w3.org/1999/xlink" x="0px" y="0px"
	 viewBox="0 0 512 512" style="enable-background:new 0 0 512 512;" xml:space="preserve">
<g>
	<rect x="46.545" y="46.545" style="fill:#9BC9FF;" width="418.909" height="186.182"/>
	<rect x="46.545" y="279.273" style="fill:#9BC9FF;" width="418.909" height="186.182"/>
</g>
<path style="fill:#8CB7E8;" d="M488.727,0H23.273C10.42,0,0,10.42,0,23.273V256v232.727C0,501.58,10.42,512,23.273,512h465.455
	C501.58,512,512,501.58,512,488.727V256V23.273C512,10.42,501.58,0,488.727,0z M465.455,465.455H46.545V279.273h418.909V465.455z
	 M465.455,232.727H46.545V46.545h418.909V232.727z"/>
<g>
	<rect x="256" y="46.545" style="fill:#BDFDFF;" width="209.455" height="186.182"/>
	<rect x="256" y="279.273" style="fill:#BDFDFF;" width="209.455" height="186.182"/>
</g>
<path style="fill:#5286FA;" d="M488.727,0H256v46.545h209.455v186.182H256v46.545h209.455v186.182H256V512h232.727
	C501.58,512,512,501.58,512,488.727V256V23.273C512,10.42,501.58,0,488.727,0z"/>
<path style="fill:#3D6DEB;" d="M46.545,465.455V279.273H256v-46.545H46.545V46.545H256V0H23.273C10.42,0,0,10.42,0,23.273V256
	v232.727C0,501.58,10.42,512,23.273,512H256v-46.545H46.545z"/>
<g>
</g>
<g>
</g>
<g>
</g>
<g>
</g>
<g>
</g>
<g>
</g>
<g>
</g>
<g>
</g>
<g>
</g>
<g>
</g>
<g>
</g>
<g>
</g>
<g>
</g>
<g>
</g>
<g>
</g>
</svg>
