<?xml version="1.0" encoding="iso-8859-1"?>
<!-- Generator: Adobe Illustrator 19.0.0, SVG Export Plug-In . SVG Version: 6.00 Build 0)  -->
<svg version="1.1" id="Layer_1" xmlns="http://www.w3.org/2000/svg" xmlns:xlink="http://www.w3.org/1999/xlink" x="0px" y="0px"
	 viewBox="0 0 512 512" style="enable-background:new 0 0 512 512;" xml:space="preserve">
<g>
	<polygon style="fill:#9BC9FF;" points="46.545,465.455 155.152,465.455 155.152,333.576 155.152,178.424 155.152,46.545 
		46.545,46.545 	"/>
	<rect x="201.697" y="201.697" style="fill:#9BC9FF;" width="263.758" height="108.606"/>
	<rect x="201.697" y="356.848" style="fill:#9BC9FF;" width="263.758" height="108.606"/>
	<rect x="201.697" y="46.545" style="fill:#9BC9FF;" width="263.758" height="108.606"/>
</g>
<path style="fill:#5286FA;" d="M488.727,0H178.424H23.273C10.42,0,0,10.42,0,23.273v465.455C0,501.58,10.42,512,23.273,512h155.152
	h310.303C501.58,512,512,501.58,512,488.727V333.576V178.424V23.273C512,10.42,501.58,0,488.727,0z M155.152,178.424v155.152
	v131.879H46.545V46.545h108.606V178.424z M465.455,465.455H201.697V356.848h263.758V465.455z M465.455,310.303H201.697V201.697
	h263.758V310.303z M465.455,155.152H201.697V46.545h263.758V155.152z"/>
<g>
	<rect x="256" y="201.697" style="fill:#BDFDFF;" width="209.455" height="108.606"/>
	<rect x="256" y="356.848" style="fill:#BDFDFF;" width="209.455" height="108.606"/>
	<rect x="256" y="46.545" style="fill:#BDFDFF;" width="209.455" height="108.606"/>
</g>
<path style="fill:#3D6DEB;" d="M201.697,465.455V356.848H256v-46.545h-54.303V201.697H256v-46.545h-54.303V46.545H256V0h-77.576
	H23.273C10.42,0,0,10.42,0,23.273v465.455C0,501.58,10.42,512,23.273,512h155.152H256v-46.545H201.697z M155.152,178.424v155.152
	v131.879H46.545V46.545h108.606V178.424z"/>
<g>
</g>
<g>
</g>
<g>
</g>
<g>
</g>
<g>
</g>
<g>
</g>
<g>
</g>
<g>
</g>
<g>
</g>
<g>
</g>
<g>
</g>
<g>
</g>
<g>
</g>
<g>
</g>
<g>
</g>
</svg>
