<?xml version="1.0" encoding="UTF-8" standalone="no"?>
<svg
   xmlns:dc="http://purl.org/dc/elements/1.1/"
   xmlns:cc="http://creativecommons.org/ns#"
   xmlns:rdf="http://www.w3.org/1999/02/22-rdf-syntax-ns#"
   xmlns:svg="http://www.w3.org/2000/svg"
   xmlns="http://www.w3.org/2000/svg"
   xmlns:sodipodi="http://sodipodi.sourceforge.net/DTD/sodipodi-0.dtd"
   xmlns:inkscape="http://www.inkscape.org/namespaces/inkscape"
   version="1.1"
   id="Layer_1"
   x="0px"
   y="0px"
   viewBox="0 0 512 512"
   style="enable-background:new 0 0 512 512;"
   xml:space="preserve"
   sodipodi:docname="div.svg"
   inkscape:version="1.0.2 (e86c870879, 2021-01-15)"><metadata
   id="metadata39"><rdf:RDF><cc:Work
       rdf:about=""><dc:format>image/svg+xml</dc:format><dc:type
         rdf:resource="http://purl.org/dc/dcmitype/StillImage" /></cc:Work></rdf:RDF></metadata><defs
   id="defs37" /><sodipodi:namedview
   pagecolor="#ffffff"
   bordercolor="#666666"
   borderopacity="1"
   objecttolerance="10"
   gridtolerance="10"
   guidetolerance="10"
   inkscape:pageopacity="0"
   inkscape:pageshadow="2"
   inkscape:window-width="1442"
   inkscape:window-height="932"
   id="namedview35"
   showgrid="false"
   inkscape:zoom="1.0951869"
   inkscape:cx="191.86421"
   inkscape:cy="251.76082"
   inkscape:window-x="0"
   inkscape:window-y="15"
   inkscape:window-maximized="0"
   inkscape:current-layer="Layer_1" />
<path
   style="fill:#ff0c38;stroke-width:0.744295"
   d="M 382.81893,63.286846 H 247.43991 191.03186 c -52.87564,0 -95.893544,45.073254 -95.893544,100.475824 0,55.39952 43.017904,100.47125 95.893544,100.47125 h 39.48549 v 171.39599 c 0,9.79144 7.57672,17.73004 16.92256,17.73004 9.34583,0 16.92256,-7.9386 16.92256,-17.7308 V 246.50312 98.747686 h 33.84439 V 435.62915 c 0,9.7922 7.57672,17.7308 16.92256,17.7308 9.34584,0 16.92256,-7.9386 16.92256,-17.7308 V 98.747686 h 50.76695 c 9.34584,0 16.92256,-7.93859 16.92256,-17.7308 0,-9.79221 -7.57672,-17.73004 -16.92256,-17.73004 z M 230.51735,228.77231 h -39.48549 c -34.21378,0 -62.04842,-29.16329 -62.04842,-65.00964 0,-35.84863 27.83537,-65.014214 62.04842,-65.014214 h 39.48549 z"
   id="path2" />
<g
   id="g4">
</g>
<g
   id="g6">
</g>
<g
   id="g8">
</g>
<g
   id="g10">
</g>
<g
   id="g12">
</g>
<g
   id="g14">
</g>
<g
   id="g16">
</g>
<g
   id="g18">
</g>
<g
   id="g20">
</g>
<g
   id="g22">
</g>
<g
   id="g24">
</g>
<g
   id="g26">
</g>
<g
   id="g28">
</g>
<g
   id="g30">
</g>
<g
   id="g32">
</g>
<rect
   x="24.086311"
   y="26.029343"
   width="466.21988"
   height="454.48807"
   rx="46.621986"
   ry="64.926865"
   id="rect2"
   style="stroke-width:27.5092;fill:none;stroke:#ff0c38;stroke-opacity:1" /></svg>
