<?xml version="1.0" encoding="iso-8859-1"?>
<!-- Generator: Adobe Illustrator 19.0.0, SVG Export Plug-In . SVG Version: 6.00 Build 0)  -->
<svg version="1.1" id="Layer_1" xmlns="http://www.w3.org/2000/svg" xmlns:xlink="http://www.w3.org/1999/xlink" x="0px" y="0px"
	 viewBox="0 0 512.002 512.002" style="enable-background:new 0 0 512.002 512.002;" xml:space="preserve">
<path style="fill:#FC4C59;" d="M494.219,156.046l-57.95,15.277c-23.866,6.291-49.252,2.883-70.612-9.484l-99.042-57.34
	c-6.564-3.8-14.661-3.8-21.225,0l-99.042,57.34c-21.36,12.367-46.746,15.776-70.612,9.484l-57.95-15.277
	c-10.393-2.739-19.929,6.642-17.359,17.079L55.84,398.137c3.498,14.203,22.621,16.706,29.656,3.881l11.067-20.175
	c8.712-15.882,25.846-25.269,43.92-24.061l52.097,3.479c8.389,0.56,16.748-1.465,23.951-5.803l18.26-11
	c13.049-7.861,29.374-7.861,42.423,0l18.26,11c7.202,4.338,15.561,6.364,23.951,5.803l52.097-3.479
	c18.074-1.207,35.207,8.18,43.92,24.061l11.067,20.175c7.036,12.824,26.158,10.322,29.656-3.881l55.414-225.013
	C514.148,162.688,504.61,153.305,494.219,156.046z M215.354,291.158c-8.59-3.311-21.533-6.959-36.872-5.714
	c-25.536,2.072-35.191,15.874-50.535,16.666c-14.811,0.764-35.891-10.543-63.438-63.438c25.717,7.833,46.585,9.33,61.288,9.139
	c17.947-0.232,47.44-3.247,47.44-3.247l60.51,25.844L215.354,291.158z M378.576,302.11c-15.344-0.793-25-14.594-50.535-16.666
	c-15.339-1.245-28.282,2.403-36.872,5.714l-4.628-38.389l46.745-8.205l0,0c0,0,29.494,3.014,47.44,3.247
	c14.702,0.191,35.571-1.307,61.287-9.139C414.468,291.567,393.387,302.874,378.576,302.11z"/>
<path style="fill:#E83A64;" d="M458.357,365.921l-13.134-23.944c-10.34-18.849-30.673-29.989-52.123-28.556l-61.829,4.128
	c-9.956,0.665-19.877-1.739-28.424-6.888l-21.671-13.054c-15.486-9.328-34.861-9.328-50.347,0l-21.671,13.054
	c-8.547,5.148-18.468,7.553-28.424,6.888l-61.829-4.128c-21.45-1.433-41.784,9.707-52.123,28.556l-13.134,23.944
	c-1.201,2.189-2.704,3.988-4.401,5.438l6.594,26.777c3.498,14.203,22.621,16.706,29.656,3.881l11.067-20.175
	c8.712-15.882,25.846-25.269,43.92-24.061l52.097,3.479c8.389,0.56,16.748-1.465,23.951-5.803l18.26-11
	c13.049-7.861,29.374-7.861,42.423,0l18.26,11c7.202,4.338,15.561,6.364,23.951,5.803l52.097-3.479
	c18.074-1.207,35.207,8.18,43.92,24.061l11.067,20.175c7.036,12.824,26.158,10.322,29.656-3.881l6.594-26.777
	C461.061,369.91,459.558,368.11,458.357,365.921z"/>
<g>
	<circle style="fill:#FFDB6C;" cx="198.599" cy="321.249" r="8.064"/>
	<circle style="fill:#FFDB6C;" cx="164.238" cy="325.77" r="8.064"/>
	<circle style="fill:#FFDB6C;" cx="129.889" cy="329.321" r="8.064"/>
	<circle style="fill:#FFDB6C;" cx="311.239" cy="321.734" r="8.064"/>
	<circle style="fill:#FFDB6C;" cx="345.599" cy="326.243" r="8.064"/>
	<circle style="fill:#FFDB6C;" cx="379.96" cy="329.794" r="8.064"/>
	<path style="fill:#FFDB6C;" d="M494.218,156.046l-57.949,15.277c-23.866,6.291-49.252,2.883-70.612-9.484l-99.043-57.34
		c-6.564-3.8-14.661-3.8-21.226,0l-99.043,57.34c-21.36,12.367-46.746,15.776-70.612,9.484l-57.95-15.278
		c-10.393-2.739-19.929,6.642-17.358,17.078l9.471,38.458c15.706-4.322,32.24-6.642,49.319-6.642
		c85.869,0,158.098,58.358,179.218,137.574c9.662-4.569,20.675-5.165,30.692-1.79c21.724-78.304,93.511-135.784,178.733-135.784
		c18.756,0,36.857,2.795,53.921,7.971l9.799-39.788C514.148,162.688,504.61,153.305,494.218,156.046z"/>
</g>
<path style="fill:#FFB04C;" d="M7.197,200.622c3.036-1.734,6.753-2.377,10.587-1.366l24.543,6.471
	c5.564-0.504,11.193-0.786,16.888-0.786c21.426,0,42.001,3.634,61.146,10.318c9.043-2.067,17.81-5.476,25.986-10.209l99.043-57.34
	c6.564-3.8,14.661-3.8,21.225,0l99.043,57.34c7.317,4.236,15.114,7.395,23.154,9.499c18.548-6.226,38.402-9.608,59.047-9.608
	c6.936,0,13.781,0.384,20.519,1.128l25.842-6.812c3.835-1.011,7.551-0.368,10.587,1.366l6.772-27.497
	c2.57-10.435-6.967-19.818-17.358-17.078l-57.95,15.275c-23.866,6.291-49.252,2.883-70.612-9.484l-99.043-57.34
	c-6.564-3.8-14.661-3.8-21.225,0l-99.043,57.34c-21.36,12.367-46.746,15.776-70.612,9.484l-57.95-15.277
	c-10.393-2.739-19.929,6.642-17.358,17.078L7.197,200.622z"/>
<g>
	<path style="fill:#7C54B8;" d="M274.068,168.772c0,14.994-20.161,121.232-20.161,121.232s-20.161-106.237-20.161-121.232
		s9.026-23.915,20.161-23.915S274.068,153.779,274.068,168.772z"/>
	<path style="fill:#7C54B8;" d="M169.556,198.904c4.984,7.513,53.901,51.729,53.901,51.729s-21.706-62.262-26.691-69.777
		c-4.985-7.515-15.116-9.565-22.63-4.581C166.623,181.258,164.572,191.39,169.556,198.904z"/>
	<path style="fill:#7C54B8;" d="M342.874,194.283c-4.984,7.513-53.901,51.729-53.901,51.729s21.706-62.262,26.691-69.777
		c4.985-7.515,15.116-9.565,22.63-4.581C345.807,176.637,347.857,186.769,342.874,194.283z"/>
</g>
<g>
</g>
<g>
</g>
<g>
</g>
<g>
</g>
<g>
</g>
<g>
</g>
<g>
</g>
<g>
</g>
<g>
</g>
<g>
</g>
<g>
</g>
<g>
</g>
<g>
</g>
<g>
</g>
<g>
</g>
</svg>
