<?xml version="1.0" encoding="iso-8859-1"?>
<!-- Generator: Adobe Illustrator 19.0.0, SVG Export Plug-In . SVG Version: 6.00 Build 0)  -->
<svg version="1.1" id="Layer_1" xmlns="http://www.w3.org/2000/svg" xmlns:xlink="http://www.w3.org/1999/xlink" x="0px" y="0px"
	 viewBox="0 0 269.469 269.469" style="enable-background:new 0 0 269.469 269.469;" xml:space="preserve">
<g>
	<circle style="fill:#FF7876;" cx="51.287" cy="46.948" r="34.427"/>
	<path style="fill:#FF7876;" d="M78.744,114.305H23.829c-12.54,0-20.378,13.576-14.108,24.436l9.852,17.064v101.143H83V155.805
		l9.852-17.064C99.122,127.88,91.285,114.305,78.744,114.305z"/>
	<circle style="fill:#FFDB77;" cx="206.287" cy="46.948" r="34.427"/>
	<g>
		<path style="fill:#FFDB77;" d="M261.96,213.019l-23.96-41.5v-25.501c0-17.515-14.199-31.713-31.713-31.713l0,0
			c-17.515,0-31.714,14.199-31.714,31.713v25.501l-23.96,41.5h23.96v43.928H238v-43.928L261.96,213.019L261.96,213.019z"/>
		<g>
			<path style="fill:#414042;" d="M51.287,88.875c23.119,0,41.927-18.809,41.927-41.927c0-23.119-18.809-41.928-41.927-41.928
				C28.168,5.02,9.36,23.829,9.36,46.948C9.359,70.066,28.168,88.875,51.287,88.875z M51.287,20.02
				c14.848,0,26.927,12.08,26.927,26.928s-12.08,26.927-26.927,26.927c-14.848,0-26.927-12.079-26.927-26.927
				C24.359,32.101,36.439,20.02,51.287,20.02z"/>
			<path style="fill:#414042;" d="M78.744,106.805H23.829c-18.312,0-29.768,19.811-20.603,35.686l8.847,15.324v99.134
				c0,4.142,3.358,7.5,7.5,7.5H83c4.142,0,7.5-3.358,7.5-7.5v-99.134l8.848-15.324C108.507,126.626,97.068,106.805,78.744,106.805z
				 M86.357,134.99l-9.853,17.064c-0.658,1.14-1.005,2.434-1.005,3.75v93.644H27.073v-93.644c0-1.316-0.347-2.609-1.005-3.75
				l-9.852-17.064c-3.389-5.868,0.847-13.186,7.613-13.186h54.915C85.506,121.805,89.747,129.119,86.357,134.99z"/>
			<path style="fill:#414042;" d="M206.287,88.875c23.119,0,41.927-18.809,41.927-41.927c0-23.119-18.809-41.928-41.927-41.928
				c-23.119,0-41.927,18.809-41.927,41.928C164.359,70.066,183.168,88.875,206.287,88.875z M206.287,20.02
				c14.848,0,26.927,12.08,26.927,26.928s-12.08,26.927-26.927,26.927c-14.848,0-26.927-12.079-26.927-26.927
				C179.359,32.101,191.439,20.02,206.287,20.02z"/>
			<path style="fill:#414042;" d="M268.456,209.27L245.5,169.51v-23.491c0-21.623-17.591-39.214-39.213-39.214
				s-39.213,17.591-39.213,39.214v23.491l-22.956,39.76c-2.885,4.997,0.734,11.25,6.495,11.25h16.46v36.429
				c0,4.142,3.358,7.5,7.5,7.5H238c4.142,0,7.5-3.358,7.5-7.5V220.52h16.46C267.731,220.52,271.336,214.258,268.456,209.27z
				 M238,205.52c-4.142,0-7.5,3.357-7.5,7.5v36.429h-48.427V213.02c0-4.143-3.358-7.5-7.5-7.5h-10.97l17.465-30.25
				c0.658-1.14,1.005-2.434,1.005-3.75v-25.501c0-13.352,10.862-24.214,24.213-24.214s24.213,10.862,24.213,24.214v25.501
				c0,1.316,0.347,2.61,1.005,3.75l17.465,30.25L238,205.52L238,205.52z"/>
		</g>
	</g>
</g>
<g>
</g>
<g>
</g>
<g>
</g>
<g>
</g>
<g>
</g>
<g>
</g>
<g>
</g>
<g>
</g>
<g>
</g>
<g>
</g>
<g>
</g>
<g>
</g>
<g>
</g>
<g>
</g>
<g>
</g>
</svg>
