<?xml version="1.0" encoding="UTF-8" standalone="no"?>
<svg
   xmlns:dc="http://purl.org/dc/elements/1.1/"
   xmlns:cc="http://creativecommons.org/ns#"
   xmlns:rdf="http://www.w3.org/1999/02/22-rdf-syntax-ns#"
   xmlns:svg="http://www.w3.org/2000/svg"
   xmlns="http://www.w3.org/2000/svg"
   xmlns:sodipodi="http://sodipodi.sourceforge.net/DTD/sodipodi-0.dtd"
   xmlns:inkscape="http://www.inkscape.org/namespaces/inkscape"
   version="1.1"
   id="Capa_1"
   x="0px"
   y="0px"
   viewBox="0 0 58.707 58.707"
   style="enable-background:new 0 0 58.707 58.707;"
   xml:space="preserve"
   sodipodi:docname="file-css.svg"
   inkscape:version="1.0.2 (e86c870879, 2021-01-15)"><metadata
   id="metadata73"><rdf:RDF><cc:Work
       rdf:about=""><dc:format>image/svg+xml</dc:format><dc:type
         rdf:resource="http://purl.org/dc/dcmitype/StillImage" /><dc:title></dc:title></cc:Work></rdf:RDF></metadata><defs
   id="defs71">
	
	

		
		
		
	</defs><sodipodi:namedview
   pagecolor="#ffffff"
   bordercolor="#666666"
   borderopacity="1"
   objecttolerance="10"
   gridtolerance="10"
   guidetolerance="10"
   inkscape:pageopacity="0"
   inkscape:pageshadow="2"
   inkscape:window-width="1920"
   inkscape:window-height="1012"
   id="namedview69"
   showgrid="false"
   inkscape:zoom="2.387857"
   inkscape:cx="-71.799217"
   inkscape:cy="-42.713887"
   inkscape:window-x="0"
   inkscape:window-y="0"
   inkscape:window-maximized="1"
   inkscape:current-layer="Capa_1"
   inkscape:document-rotation="0" />
<polygon
   style="fill:#efebde"
   points="46.072,58 46.072,14 32.072,0 1.072,0 1.072,58 "
   id="polygon2" /><polygon
   style="fill:#d5d0bb"
   points="32.072,14 46.072,14 32.072,0 "
   id="polygon16" />
<g
   id="g38">
</g>
<g
   id="g40">
</g>
<g
   id="g42">
</g>
<g
   id="g44">
</g>
<g
   id="g46">
</g>
<g
   id="g48">
</g>
<g
   id="g50">
</g>
<g
   id="g52">
</g>
<g
   id="g54">
</g>
<g
   id="g56">
</g>
<g
   id="g58">
</g>
<g
   id="g60">
</g>
<g
   id="g62">
</g>
<g
   id="g64">
</g>
<g
   id="g66">
</g>
<text
   xml:space="preserve"
   style="font-style:normal;font-weight:normal;font-size:21.0961px;line-height:1.25;font-family:sans-serif;letter-spacing:0px;word-spacing:0px;fill:#000000;fill-opacity:1;stroke:none;stroke-width:0.527404"
   x="16.867043"
   y="47.99728"
   id="text961"
   transform="scale(0.88588757,1.1288114)"><tspan
     sodipodi:role="line"
     id="tspan959"
     x="16.867043"
     y="47.99728"
     style="font-style:normal;font-variant:normal;font-weight:bold;font-stretch:normal;font-size:21.0961px;font-family:sans-serif;-inkscape-font-specification:'sans-serif, Bold';font-variant-ligatures:normal;font-variant-caps:normal;font-variant-numeric:normal;font-variant-east-asian:normal;fill:#6a6a6a;fill-opacity:1;stroke-width:0.527404">CSS</tspan></text><g
   id="g10"
   transform="matrix(0.17412008,0,0,0.1394396,-4.3934597,6.5975441)"><path
     style="fill:#004a94"
     d="m 100.128,122.335 c 3.615,0 6.452,-0.699 8.511,-2.098 2.058,-1.398 3.088,-3.372 3.088,-5.918 v -11.976 c 0,-4.37 0.77,-7.639 2.309,-9.808 1.541,-2.169 4.048,-3.748 7.521,-4.739 3.474,-0.99 8.275,-1.485 14.406,-1.485 v 13.156 c -2.798,0.094 -4.692,0.307 -5.683,0.636 -0.989,0.331 -1.783,0.841 -2.381,1.532 -0.596,0.692 -0.895,1.636 -0.895,2.83 v 12.778 c 0,3.553 -0.888,6.28 -2.665,8.181 -1.776,1.902 -4.66,3.135 -8.651,3.701 v 0.566 c 4.022,0.628 6.914,1.871 8.675,3.725 1.759,1.855 2.641,4.479 2.641,7.874 v 13.014 c 0,1.226 0.33,2.184 0.991,2.876 0.659,0.691 1.539,1.203 2.639,1.533 1.1,0.33 2.876,0.542 5.329,0.636 v 13.108 c -6.193,0 -11.019,-0.503 -14.476,-1.508 -3.459,-1.007 -5.949,-2.602 -7.473,-4.786 -1.525,-2.185 -2.287,-5.493 -2.287,-9.926 v -11.693 c 0,-2.515 -1.054,-4.479 -3.16,-5.894 -2.106,-1.415 -4.919,-2.123 -8.44,-2.123 v -14.192 z"
     id="path6" /><path
     style="fill:#004a94"
     d="m 203.06,136.527 c -3.489,0 -6.287,0.708 -8.393,2.123 -2.106,1.415 -3.159,3.379 -3.159,5.894 v 11.693 c 0,4.401 -0.771,7.701 -2.312,9.902 -1.54,2.2 -4.039,3.803 -7.496,4.81 -3.458,1.005 -8.268,1.508 -14.429,1.508 v -13.108 c 3.396,-0.127 5.737,-0.589 7.026,-1.392 1.287,-0.801 1.933,-2.019 1.933,-3.654 V 141.29 c 0,-3.395 0.881,-6.019 2.641,-7.874 1.761,-1.854 4.651,-3.096 8.676,-3.725 v -0.566 c -3.992,-0.565 -6.877,-1.799 -8.651,-3.701 -1.776,-1.901 -2.665,-4.628 -2.665,-8.181 v -12.778 c 0,-1.225 -0.307,-2.176 -0.918,-2.852 -0.613,-0.676 -1.4,-1.179 -2.359,-1.509 -0.958,-0.33 -2.853,-0.542 -5.682,-0.636 V 86.311 c 6.161,0 10.971,0.495 14.429,1.485 3.457,0.991 5.956,2.57 7.496,4.739 1.541,2.169 2.312,5.438 2.312,9.808 v 11.976 c 0,2.546 1.021,4.519 3.064,5.918 2.043,1.399 4.873,2.098 8.487,2.098 z"
     id="path8" /></g></svg>
