<?xml version="1.0" encoding="UTF-8" standalone="no"?>
<svg
   xmlns:dc="http://purl.org/dc/elements/1.1/"
   xmlns:cc="http://creativecommons.org/ns#"
   xmlns:rdf="http://www.w3.org/1999/02/22-rdf-syntax-ns#"
   xmlns:svg="http://www.w3.org/2000/svg"
   xmlns="http://www.w3.org/2000/svg"
   xmlns:sodipodi="http://sodipodi.sourceforge.net/DTD/sodipodi-0.dtd"
   xmlns:inkscape="http://www.inkscape.org/namespaces/inkscape"
   version="1.1"
   id="Capa_1"
   x="0px"
   y="0px"
   viewBox="0 0 58.707 58.707"
   style="enable-background:new 0 0 58.707 58.707;"
   xml:space="preserve"
   sodipodi:docname="file-xml.svg"
   inkscape:version="1.0.2 (e86c870879, 2021-01-15)"><metadata
   id="metadata73"><rdf:RDF><cc:Work
       rdf:about=""><dc:format>image/svg+xml</dc:format><dc:type
         rdf:resource="http://purl.org/dc/dcmitype/StillImage" /><dc:title></dc:title></cc:Work></rdf:RDF></metadata><defs
   id="defs71">
	
	

		
		
		
	</defs><sodipodi:namedview
   pagecolor="#ffffff"
   bordercolor="#666666"
   borderopacity="1"
   objecttolerance="10"
   gridtolerance="10"
   guidetolerance="10"
   inkscape:pageopacity="0"
   inkscape:pageshadow="2"
   inkscape:window-width="1920"
   inkscape:window-height="1012"
   id="namedview69"
   showgrid="false"
   inkscape:zoom="4.7757139"
   inkscape:cx="6.7189834"
   inkscape:cy="36.248642"
   inkscape:window-x="0"
   inkscape:window-y="0"
   inkscape:window-maximized="1"
   inkscape:current-layer="Capa_1"
   inkscape:document-rotation="0" />
<polygon
   style="fill:#efebde"
   points="46.072,58 46.072,14 32.072,0 1.072,0 1.072,58 "
   id="polygon2" /><polygon
   style="fill:#d5d0bb"
   points="32.072,14 46.072,14 32.072,0 "
   id="polygon16" />
<g
   id="g38">
</g>
<g
   id="g40">
</g>
<g
   id="g42">
</g>
<g
   id="g44">
</g>
<g
   id="g46">
</g>
<g
   id="g48">
</g>
<g
   id="g50">
</g>
<g
   id="g52">
</g>
<g
   id="g54">
</g>
<g
   id="g56">
</g>
<g
   id="g58">
</g>
<g
   id="g60">
</g>
<g
   id="g62">
</g>
<g
   id="g64">
</g>
<g
   id="g66">
</g>
<path
   style="fill:#50bee8;stroke-width:0.0870216"
   d="m 49.483715,52.621065 c 0,0.76232 -0.62941,1.38604 -1.39869,1.38604 h -30.77104 c -0.76927,0 -1.39868,-0.62372 -1.39868,-1.38604 v -13.86037 c 0,-0.76232 0.62941,-1.38604 1.39868,-1.38604 h 30.77104 c 0.76928,0 1.39869,0.62372 1.39869,1.38604 z"
   id="path8" /><g
   id="g16"
   transform="matrix(0.08741773,0,0,0.08662734,13.117935,16.584093)"><path
     style="fill:#ffffff"
     d="m 131.28,326.176 22.272,-27.888 c 6.64,-8.688 19.568,2.432 12.288,10.752 -7.664,9.088 -15.728,18.944 -23.424,29.024 l 26.112,32.496 c 7.024,9.6 -7.04,18.816 -13.952,9.344 l -23.536,-30.192 -23.152,30.832 c -6.528,9.328 -20.992,-1.152 -13.68,-9.856 l 25.712,-32.624 c -8.064,-10.096 -15.872,-19.936 -23.664,-29.024 -8.064,-9.6 6.912,-19.44 12.784,-10.48 z"
     id="path10" /><path
     style="fill:#ffffff"
     d="m 201.264,327.84 v 47.328 c 0,5.648 -4.608,8.832 -9.2,8.832 -4.096,0 -7.68,-3.184 -7.68,-8.832 v -72.016 c 0,-6.656 5.648,-8.848 7.68,-8.848 3.696,0 5.872,2.192 8.048,4.624 l 28.16,37.984 29.152,-39.408 c 4.24,-5.232 14.592,-3.2 14.592,5.648 v 72.016 c 0,5.648 -3.584,8.832 -7.664,8.832 -4.608,0 -8.192,-3.184 -8.192,-8.832 V 327.84 l -21.248,26.864 c -4.592,5.648 -10.352,5.648 -14.576,0 z"
     id="path12" /><path
     style="fill:#ffffff"
     d="m 294.288,303.152 c 0,-4.224 3.584,-7.808 8.064,-7.808 4.096,0 7.552,3.6 7.552,7.808 v 64.096 h 34.8 c 12.528,0 12.8,16.752 0,16.752 h -42.336 c -4.48,0 -8.064,-3.184 -8.064,-7.808 v -73.04 z"
     id="path14" /></g></svg>
