<?xml version="1.0" encoding="UTF-8" standalone="no"?>
<svg
   xmlns:dc="http://purl.org/dc/elements/1.1/"
   xmlns:cc="http://creativecommons.org/ns#"
   xmlns:rdf="http://www.w3.org/1999/02/22-rdf-syntax-ns#"
   xmlns:svg="http://www.w3.org/2000/svg"
   xmlns="http://www.w3.org/2000/svg"
   xmlns:sodipodi="http://sodipodi.sourceforge.net/DTD/sodipodi-0.dtd"
   xmlns:inkscape="http://www.inkscape.org/namespaces/inkscape"
   version="1.1"
   id="Capa_1"
   x="0px"
   y="0px"
   viewBox="0 0 58.707 58.707"
   style="enable-background:new 0 0 58.707 58.707;"
   xml:space="preserve"
   sodipodi:docname="file-ntf.svg"
   inkscape:version="1.0.2 (e86c870879, 2021-01-15)"><metadata
   id="metadata73"><rdf:RDF><cc:Work
       rdf:about=""><dc:format>image/svg+xml</dc:format><dc:type
         rdf:resource="http://purl.org/dc/dcmitype/StillImage" /><dc:title></dc:title></cc:Work></rdf:RDF></metadata><defs
   id="defs71">
	
	
</defs><sodipodi:namedview
   pagecolor="#ffffff"
   bordercolor="#666666"
   borderopacity="1"
   objecttolerance="10"
   gridtolerance="10"
   guidetolerance="10"
   inkscape:pageopacity="0"
   inkscape:pageshadow="2"
   inkscape:window-width="1920"
   inkscape:window-height="1012"
   id="namedview69"
   showgrid="false"
   inkscape:zoom="9.5514278"
   inkscape:cx="35.416192"
   inkscape:cy="25.235807"
   inkscape:window-x="0"
   inkscape:window-y="0"
   inkscape:window-maximized="1"
   inkscape:current-layer="Capa_1" />
<g
   id="g18">
		<polygon
   style="fill:#efebde"
   points="1.072,0 1.072,58 46.072,58 46.072,14 32.072,0 "
   id="polygon2" />
		<g
   id="g14">
			<path
   style="fill:#d5d0bb"
   d="m 11.072,23 h 25 c 0.552,0 1,-0.447 1,-1 0,-0.553 -0.448,-1 -1,-1 h -25 c -0.552,0 -1,0.447 -1,1 0,0.553 0.448,1 1,1 z"
   id="path4" />
			<path
   style="fill:#d5d0bb"
   d="m 11.072,15 h 10 c 0.552,0 1,-0.447 1,-1 0,-0.553 -0.448,-1 -1,-1 h -10 c -0.552,0 -1,0.447 -1,1 0,0.553 0.448,1 1,1 z"
   id="path6" />
			<path
   style="fill:#d5d0bb"
   d="m 36.072,29 h -25 c -0.552,0 -1,0.447 -1,1 0,0.553 0.448,1 1,1 h 25 c 0.552,0 1,-0.447 1,-1 0,-0.553 -0.448,-1 -1,-1 z"
   id="path8" />
			<path
   style="fill:#d5d0bb"
   d="m 36.072,37 h -25 c -0.552,0 -1,0.447 -1,1 0,0.553 0.448,1 1,1 h 25 c 0.552,0 1,-0.447 1,-1 0,-0.553 -0.448,-1 -1,-1 z"
   id="path10" />
			<path
   style="fill:#d5d0bb"
   d="m 36.072,45 h -25 c -0.552,0 -1,0.447 -1,1 0,0.553 0.448,1 1,1 h 25 c 0.552,0 1,-0.447 1,-1 0,-0.553 -0.448,-1 -1,-1 z"
   id="path12" />
		</g>
		<polygon
   style="fill:#d5d0bb"
   points="46.072,14 32.072,0 32.072,14 "
   id="polygon16" />
	</g>
<g
   id="g38">
</g>
<g
   id="g40">
</g>
<g
   id="g42">
</g>
<g
   id="g44">
</g>
<g
   id="g46">
</g>
<g
   id="g48">
</g>
<g
   id="g50">
</g>
<g
   id="g52">
</g>
<g
   id="g54">
</g>
<g
   id="g56">
</g>
<g
   id="g58">
</g>
<g
   id="g60">
</g>
<g
   id="g62">
</g>
<g
   id="g64">
</g>
<g
   id="g66">
</g>
<text
   xml:space="preserve"
   style="font-style:normal;font-weight:normal;font-size:40px;line-height:1.25;font-family:sans-serif;letter-spacing:0px;word-spacing:0px;fill:#000000;fill-opacity:1;stroke:none"
   x="21.128624"
   y="53.893929"
   id="text1054"><tspan
     sodipodi:role="line"
     id="tspan1052"
     x="21.128624"
     y="53.893929"
     style="font-style:normal;font-variant:normal;font-weight:normal;font-stretch:normal;font-size:13.3333px;font-family:'Biting My Nails';-inkscape-font-specification:'Biting My Nails, Normal';font-variant-ligatures:normal;font-variant-caps:normal;font-variant-numeric:normal;font-variant-east-asian:normal">NTF</tspan></text><path
   style="fill:#404040;fill-opacity:1;stroke:#000000;stroke-width:0.420236"
   d="m 35.705429,50.075025 -0.0275,-3.742896 -1.75156,-0.0287 -1.75156,-0.0287 0.387291,-0.782701 0.387291,-0.782701 h 4.060201 c 2.23311,0 4.060201,0.02473 4.060201,0.05496 0,0.03023 -0.164838,0.382285 -0.366306,0.782347 l -0.366305,0.727386 -1.492056,0.02905 -1.492055,0.02905 -0.0275,3.742896 -0.0275,3.742896 h -0.782578 -0.782578 z"
   id="path1056" /><path
   style="fill:#404040;fill-opacity:1;stroke:#000000;stroke-width:0.420236"
   d="m 41.174493,50.782649 v -3.035271 l 0.757375,-1.519022 0.757375,-1.519021 h 3.796061 3.796061 l -0.388539,0.785223 -0.388539,0.785223 H 46.671724 43.83916 l -0.494763,0.996 c -0.272119,0.5478 -0.494762,1.042491 -0.494762,1.099312 0,0.06535 1.01911,0.103312 2.773598,0.103312 h 2.773597 l -0.388539,0.785223 -0.388539,0.785223 h -2.385058 -2.385059 v 1.884535 1.884535 h -0.837571 -0.837571 z"
   id="path1058" /><path
   style="fill:#404040;fill-opacity:1;stroke:#000000;stroke-width:0.420236"
   d="m 21.910357,49.705746 v -4.112175 l 0.88318,-0.438012 0.883179,-0.438012 2.859717,3.40233 2.859716,3.402331 0.0276,-3.406437 0.02761,-3.406436 h 0.83614 0.836141 v 4.112175 4.112175 l -0.881815,0.437336 -0.881816,0.437335 -2.86108,-3.412781 -2.861081,-3.41278 -0.02761,3.417563 -0.02761,3.417563 h -0.83614 -0.836141 z"
   id="path1060" /></svg>
