<?xml version="1.0" encoding="iso-8859-1"?>
<!-- Generator: Adobe Illustrator 19.0.0, SVG Export Plug-In . SVG Version: 6.00 Build 0)  -->
<svg version="1.1" id="Layer_1" xmlns="http://www.w3.org/2000/svg" xmlns:xlink="http://www.w3.org/1999/xlink" x="0px" y="0px"
	 viewBox="0 0 511.844 511.844" style="enable-background:new 0 0 511.844 511.844;" xml:space="preserve">
<path style="fill:#7F4545;" d="M287.397,10.661C287.397,4.772,282.633,0,276.729,0c-2.594,0-4.968,0.922-6.811,2.468V2.46
	c-1.406,1.172-34.365,29.444-25.118,95.65l21.118-2.952c-3.123-22.36-1.015-42.674,6.062-58.739
	c5.311-12.013,11.59-17.581,11.652-17.636l-0.078,0.07l0,0C285.897,16.901,287.397,13.957,287.397,10.661z"/>
<path style="fill:#965353;" d="M255.922,85.302c0,0-335.257,64.996,0,426.542C591.179,150.298,255.922,85.302,255.922,85.302z"/>
<path style="fill:#7F4545;" d="M404.907,241.637l-28.866,28.867l-45.236-45.244l55.296-55.288
	c-3.78-6.311-7.981-12.191-12.512-17.651l-57.857,57.857l-45.252-45.236l53.327-53.327c-6.811-3.882-13.558-7.256-19.993-10.169
	l-48.407,48.415l-48.095-48.095c-6.436,2.937-13.152,6.326-19.932,10.224l52.953,52.952l-45.251,45.236l-57.295-57.295
	c-4.514,5.491-8.7,11.396-12.418,17.737l54.64,54.64l-45.236,45.244l-27.835-27.828c0.125,10.599,1.312,21.877,3.717,33.865
	l9.029,9.044l-5.592,5.608c1.968,7.356,4.405,14.963,7.295,22.836l13.386-13.371l45.236,45.236l-29.21,29.21
	c3.562,6.123,7.389,12.34,11.465,18.697l32.818-32.817l45.251,45.236l-40.362,40.361c4.311,5.499,8.778,11.06,13.433,16.73
	l42.003-42.004l42.564,42.566c4.655-5.655,9.139-11.231,13.449-16.73l-40.94-40.924l45.252-45.236l33.442,33.442
	c4.078-6.357,7.904-12.574,11.497-18.666l-29.866-29.866l45.236-45.236l14.137,14.137c2.921-7.857,5.357-15.449,7.357-22.806
	l-6.404-6.404l10.309-10.325C403.752,263.358,404.845,252.157,404.907,241.637z M255.406,180.024l45.252,45.236l-45.252,45.244
	l-45.252-45.244L255.406,180.024z M195.081,330.821l-45.236-45.236l45.236-45.244l45.251,45.244L195.081,330.821z M255.406,391.147
	l-45.252-45.252l45.252-45.236l45.252,45.236L255.406,391.147z M315.732,330.821l-45.252-45.236l45.252-45.244l45.236,45.244
	L315.732,330.821z"/>
<g>
</g>
<g>
</g>
<g>
</g>
<g>
</g>
<g>
</g>
<g>
</g>
<g>
</g>
<g>
</g>
<g>
</g>
<g>
</g>
<g>
</g>
<g>
</g>
<g>
</g>
<g>
</g>
<g>
</g>
</svg>
