<?xml version="1.0" encoding="UTF-8" standalone="no"?>
<svg
   xmlns:dc="http://purl.org/dc/elements/1.1/"
   xmlns:cc="http://creativecommons.org/ns#"
   xmlns:rdf="http://www.w3.org/1999/02/22-rdf-syntax-ns#"
   xmlns:svg="http://www.w3.org/2000/svg"
   xmlns="http://www.w3.org/2000/svg"
   xmlns:sodipodi="http://sodipodi.sourceforge.net/DTD/sodipodi-0.dtd"
   xmlns:inkscape="http://www.inkscape.org/namespaces/inkscape"
   version="1.1"
   id="Capa_1"
   x="0px"
   y="0px"
   viewBox="0 0 58.707 58.707"
   style="enable-background:new 0 0 58.707 58.707;"
   xml:space="preserve"
   sodipodi:docname="file-powerpoint.svg"
   inkscape:version="1.0.2 (e86c870879, 2021-01-15)"><metadata
   id="metadata73"><rdf:RDF><cc:Work
       rdf:about=""><dc:format>image/svg+xml</dc:format><dc:type
         rdf:resource="http://purl.org/dc/dcmitype/StillImage" /><dc:title></dc:title></cc:Work></rdf:RDF></metadata><defs
   id="defs71">
	
	

		
		
		
	</defs><sodipodi:namedview
   pagecolor="#ffffff"
   bordercolor="#666666"
   borderopacity="1"
   objecttolerance="10"
   gridtolerance="10"
   guidetolerance="10"
   inkscape:pageopacity="0"
   inkscape:pageshadow="2"
   inkscape:window-width="1920"
   inkscape:window-height="1012"
   id="namedview69"
   showgrid="false"
   inkscape:zoom="4.7757139"
   inkscape:cx="6.7189834"
   inkscape:cy="36.248642"
   inkscape:window-x="0"
   inkscape:window-y="0"
   inkscape:window-maximized="1"
   inkscape:current-layer="Capa_1"
   inkscape:document-rotation="0" />
<polygon
   style="fill:#efebde"
   points="46.072,58 46.072,14 32.072,0 1.072,0 1.072,58 "
   id="polygon2" /><polygon
   style="fill:#d5d0bb"
   points="32.072,14 46.072,14 32.072,0 "
   id="polygon16" />
<g
   id="g38">
</g>
<g
   id="g40">
</g>
<g
   id="g42">
</g>
<g
   id="g44">
</g>
<g
   id="g46">
</g>
<g
   id="g48">
</g>
<g
   id="g50">
</g>
<g
   id="g52">
</g>
<g
   id="g54">
</g>
<g
   id="g56">
</g>
<g
   id="g58">
</g>
<g
   id="g60">
</g>
<g
   id="g62">
</g>
<g
   id="g64">
</g>
<g
   id="g66">
</g>
<path
   d="m 36.957948,31.335723 h 1.607166 v 2.542301 c 3.030417,0.01699 6.063555,-0.03123 9.091022,0.01378 0.651982,-0.06216 1.162229,0.44337 1.097145,1.093077 0.04808,5.2767 -0.01131,10.55611 0.02835,15.83575 -0.02835,0.57062 0.05669,1.203365 -0.272133,1.70889 -0.413866,0.299433 -0.95246,0.259874 -1.43731,0.282485 -2.834706,-0.01378 -5.669415,-0.0077 -8.507071,-0.0077 v 2.824793 h -1.762966 c -4.320095,-0.785286 -8.648808,-1.502782 -12.971624,-2.259822 -0.003,-6.590123 0,-13.180461 0,-19.767874 4.373614,-0.753871 8.747681,-1.522225 13.127418,-2.265251 z"
   fill="#d24625"
   id="path2"
   style="stroke-width:0.226379" /><path
   d="m 38.565114,34.725465 h 9.354535 v 17.2312 h -9.354535 v -2.259823 h 6.803299 v -1.129911 h -6.803299 v -1.412397 h 6.803299 v -1.129911 h -6.800351 c -0.003,-0.553657 -0.003,-1.107315 -0.0054,-1.660987 1.122545,0.347335 2.400885,0.338976 3.404372,-0.333542 1.085806,-0.641119 1.652748,-1.864355 1.74618,-3.084667 -1.244323,-0.0092 -2.488874,-0.0061 -3.730477,-0.0061 -0.0027,-1.2289 0.01403,-2.457571 -0.0254,-3.683532 -0.464892,0.09032 -0.929784,0.186435 -1.391954,0.285195 v -2.815975 z"
   fill="#ffffff"
   id="path4"
   style="stroke-width:0.226379" /><path
   d="m 40.552359,36.665984 c 1.970234,0.09032 3.625477,1.742784 3.730475,3.700464 -1.244551,0.01378 -2.488874,0.0092 -3.733424,0.0092 0,-1.237244 -0.0027,-2.474504 0.003,-3.709053 z"
   fill="#d24625"
   id="path6"
   style="stroke-width:0.226379" /><path
   d="m 28.377175,38.798816 c 1.539359,0.07348 3.404596,-0.607454 4.680215,0.542359 1.221873,1.477477 0.898716,4.194692 -0.912775,5.079197 -0.643366,0.327448 -1.380389,0.28247 -2.080677,0.259644 -0.003,1.104605 -0.0054,2.20898 -0.003,3.313585 a 300.08672,299.03653 0 0 0 -1.686765,-0.14115 c -0.0254,-3.017108 -0.03084,-6.036696 0.003,-9.053558 z"
   fill="#ffffff"
   id="path8"
   style="stroke-width:0.226379" /><path
   d="m 30.060991,40.327134 c 0.558551,-0.02557 1.250219,-0.127066 1.62735,0.395468 0.323156,0.553657 0.306147,1.282452 0.03674,1.853056 -0.323156,0.581919 -1.054512,0.525412 -1.618731,0.593217 C 30.0467,42.22246 30.0526,41.276045 30.061,40.327134 Z"
   fill="#d24625"
   id="path10"
   style="stroke-width:0.226379" /></svg>
