<?xml version="1.0" encoding="UTF-8" standalone="no"?>
<svg
   xmlns:dc="http://purl.org/dc/elements/1.1/"
   xmlns:cc="http://creativecommons.org/ns#"
   xmlns:rdf="http://www.w3.org/1999/02/22-rdf-syntax-ns#"
   xmlns:svg="http://www.w3.org/2000/svg"
   xmlns="http://www.w3.org/2000/svg"
   xmlns:sodipodi="http://sodipodi.sourceforge.net/DTD/sodipodi-0.dtd"
   xmlns:inkscape="http://www.inkscape.org/namespaces/inkscape"
   version="1.1"
   id="Capa_1"
   x="0px"
   y="0px"
   viewBox="0 0 58.707 58.707"
   style="enable-background:new 0 0 58.707 58.707;"
   xml:space="preserve"
   sodipodi:docname="file-doc.svg"
   inkscape:version="1.0.2 (e86c870879, 2021-01-15)"><metadata
   id="metadata73"><rdf:RDF><cc:Work
       rdf:about=""><dc:format>image/svg+xml</dc:format><dc:type
         rdf:resource="http://purl.org/dc/dcmitype/StillImage" /><dc:title></dc:title></cc:Work></rdf:RDF></metadata><defs
   id="defs71">
	
	

		
		
		
	</defs><sodipodi:namedview
   pagecolor="#ffffff"
   bordercolor="#666666"
   borderopacity="1"
   objecttolerance="10"
   gridtolerance="10"
   guidetolerance="10"
   inkscape:pageopacity="0"
   inkscape:pageshadow="2"
   inkscape:window-width="1920"
   inkscape:window-height="1012"
   id="namedview69"
   showgrid="false"
   inkscape:zoom="4.7757139"
   inkscape:cx="6.7189834"
   inkscape:cy="36.248642"
   inkscape:window-x="0"
   inkscape:window-y="0"
   inkscape:window-maximized="1"
   inkscape:current-layer="Capa_1"
   inkscape:document-rotation="0" />
<polygon
   style="fill:#efebde"
   points="46.072,58 46.072,14 32.072,0 1.072,0 1.072,58 "
   id="polygon2" /><polygon
   style="fill:#d5d0bb"
   points="32.072,14 46.072,14 32.072,0 "
   id="polygon16" />
<g
   id="g38">
</g>
<g
   id="g40">
</g>
<g
   id="g42">
</g>
<g
   id="g44">
</g>
<g
   id="g46">
</g>
<g
   id="g48">
</g>
<g
   id="g50">
</g>
<g
   id="g52">
</g>
<g
   id="g54">
</g>
<g
   id="g56">
</g>
<g
   id="g58">
</g>
<g
   id="g60">
</g>
<g
   id="g62">
</g>
<g
   id="g64">
</g>
<g
   id="g66">
</g>
<g
   id="g12"
   transform="matrix(0.21968876,0,0,0.20236108,2.2423536,18.425986)"><rect
     x="90.902"
     y="61.703999"
     style="fill:#004a94"
     width="119.89"
     height="119.89"
     id="rect4" /><rect
     x="101.303"
     y="72.105003"
     style="fill:#ffffff"
     width="99.088997"
     height="99.086998"
     id="rect6" /><g
     id="g10"><path
       style="fill:#004a94"
       d="m 130.047,141.736 1.845,-4.797 4.337,-10.702 15.453,-35.612 h 15.499 v 36.535 c 0,4.797 -0.4,9.657 -1.199,14.577 0.307,-0.861 2.352,-6.181 6.135,-15.961 l 13.978,-35.15 h 17.852 l -29.292,67.441 H 153.39 v -28.6 c 0,-4.766 0.199,-9.749 0.6,-14.946 -1.016,4.09 -2.83,9.456 -5.443,16.099 l -11.671,27.447 h -20.021 l -2.26,-67.441 h 17.067 l -0.461,33.813 c -0.185,8.21 -0.57,13.976 -1.154,17.297 z"
       id="path8" /></g></g></svg>
