<?xml version="1.0" encoding="iso-8859-1"?>
<!-- Generator: Adobe Illustrator 19.0.0, SVG Export Plug-In . SVG Version: 6.00 Build 0)  -->
<svg version="1.1" id="Layer_1" xmlns="http://www.w3.org/2000/svg" xmlns:xlink="http://www.w3.org/1999/xlink" x="0px" y="0px"
	 viewBox="0 0 512 512" style="enable-background:new 0 0 512 512;" xml:space="preserve">
<path style="fill:#777777;" d="M445.217,381.217h-80.696V222.609c0-10.74-8.739-19.478-19.478-19.478h-80.696v-128
	c0-4.61-3.738-8.348-8.348-8.348s-8.348,3.738-8.348,8.348v128h-80.696c-10.74,0-19.478,8.738-19.478,19.478v44.435l-1.39,66.696
	c-0.001,0.058-0.001,0.116-0.001,0.174v47.304H66.783c-10.74,0-19.478,8.739-19.478,19.478v77.913c0,4.61,3.738,8.348,8.348,8.348
	S64,483.219,64,478.609v-77.913c0-1.534,1.249-2.783,2.783-2.783h180.87v80.696c0,4.61,3.738,8.348,8.348,8.348
	s8.348-3.738,8.348-8.348v-80.696h180.87c1.534,0,2.783,1.249,2.783,2.783v77.913c0,4.61,3.738,8.348,8.348,8.348
	s8.348-3.738,8.348-8.348v-77.913C464.696,389.956,455.957,381.217,445.217,381.217z M347.826,381.217H162.783V334l1.39-66.696
	c0.001-0.058,0.001-0.116,0.001-0.174v-44.522c0-1.534,1.249-2.783,2.783-2.783h178.087c1.534,0,2.783,1.249,2.783,2.783V381.217z"
	/>
<path style="fill:#FFBC00;" d="M172.522,0h166.957c33.81,0,61.217,27.408,61.217,61.217l0,0c0,33.81-27.408,61.217-61.217,61.217
	H172.522c-33.81,0-61.217-27.408-61.217-61.217l0,0C111.304,27.408,138.712,0,172.522,0z"/>
<path style="fill:#56889B;" d="M512,478.609C512,497.051,497.051,512,478.609,512h-44.522c-18.442,0-33.391-14.949-33.391-33.391
	s14.949-33.391,33.391-33.391h44.522C497.051,445.217,512,460.167,512,478.609z M281.043,445.217h-50.087
	c-18.442,0-33.391,14.949-33.391,33.391S212.514,512,230.957,512h50.087c18.442,0,33.391-14.949,33.391-33.391
	S299.485,445.217,281.043,445.217z M77.913,445.217H33.391C14.949,445.217,0,460.167,0,478.609S14.949,512,33.391,512h44.522
	c18.442,0,33.391-14.949,33.391-33.391S96.355,445.217,77.913,445.217z"/>
<path style="fill:#92B703;" d="M233.739,300.522c0,18.441-14.949,33.391-33.391,33.391h-89.043
	c-18.441,0-33.391-14.95-33.391-33.391c0-18.442,14.949-33.391,33.391-33.391h89.043C218.789,267.13,233.739,282.08,233.739,300.522
	z M400.696,267.13h-89.043c-18.441,0-33.391,14.949-33.391,33.391c0,18.441,14.949,33.391,33.391,33.391h89.043
	c18.441,0,33.391-14.95,33.391-33.391C434.087,282.08,419.138,267.13,400.696,267.13z"/>
<path style="fill:#E0A000;" d="M331.13,44.522c0,4.61-3.738,8.348-8.348,8.348H189.217c-4.61,0-8.348-3.738-8.348-8.348
	s3.738-8.348,8.348-8.348h133.565C327.393,36.174,331.13,39.912,331.13,44.522z M289.391,69.565h-66.783
	c-4.61,0-8.348,3.738-8.348,8.348s3.738,8.348,8.348,8.348h66.783c4.61,0,8.348-3.738,8.348-8.348S294.002,69.565,289.391,69.565z"
	/>
<g>
</g>
<g>
</g>
<g>
</g>
<g>
</g>
<g>
</g>
<g>
</g>
<g>
</g>
<g>
</g>
<g>
</g>
<g>
</g>
<g>
</g>
<g>
</g>
<g>
</g>
<g>
</g>
<g>
</g>
</svg>
