<?xml version="1.0" encoding="UTF-8" standalone="no"?>
<svg
   xmlns:dc="http://purl.org/dc/elements/1.1/"
   xmlns:cc="http://creativecommons.org/ns#"
   xmlns:rdf="http://www.w3.org/1999/02/22-rdf-syntax-ns#"
   xmlns:svg="http://www.w3.org/2000/svg"
   xmlns="http://www.w3.org/2000/svg"
   xmlns:sodipodi="http://sodipodi.sourceforge.net/DTD/sodipodi-0.dtd"
   xmlns:inkscape="http://www.inkscape.org/namespaces/inkscape"
   version="1.1"
   id="Capa_1"
   x="0px"
   y="0px"
   viewBox="0 0 58.707 58.707"
   style="enable-background:new 0 0 58.707 58.707;"
   xml:space="preserve"
   sodipodi:docname="file-jar.svg"
   inkscape:version="1.0.2 (e86c870879, 2021-01-15)"><metadata
   id="metadata73"><rdf:RDF><cc:Work
       rdf:about=""><dc:format>image/svg+xml</dc:format><dc:type
         rdf:resource="http://purl.org/dc/dcmitype/StillImage" /><dc:title></dc:title></cc:Work></rdf:RDF></metadata><defs
   id="defs71">
	
	

		
		
		
	</defs><sodipodi:namedview
   pagecolor="#ffffff"
   bordercolor="#666666"
   borderopacity="1"
   objecttolerance="10"
   gridtolerance="10"
   guidetolerance="10"
   inkscape:pageopacity="0"
   inkscape:pageshadow="2"
   inkscape:window-width="1920"
   inkscape:window-height="1012"
   id="namedview69"
   showgrid="false"
   inkscape:zoom="2.387857"
   inkscape:cx="-71.799217"
   inkscape:cy="-42.713887"
   inkscape:window-x="0"
   inkscape:window-y="0"
   inkscape:window-maximized="1"
   inkscape:current-layer="Capa_1"
   inkscape:document-rotation="0" />
<polygon
   style="fill:#efebde"
   points="46.072,58 46.072,14 32.072,0 1.072,0 1.072,58 "
   id="polygon2" /><polygon
   style="fill:#d5d0bb"
   points="32.072,14 46.072,14 32.072,0 "
   id="polygon16" />
<g
   id="g38">
</g>
<g
   id="g40">
</g>
<g
   id="g42">
</g>
<g
   id="g44">
</g>
<g
   id="g46">
</g>
<g
   id="g48">
</g>
<g
   id="g50">
</g>
<g
   id="g52">
</g>
<g
   id="g54">
</g>
<g
   id="g56">
</g>
<g
   id="g58">
</g>
<g
   id="g60">
</g>
<g
   id="g62">
</g>
<g
   id="g64">
</g>
<g
   id="g66">
</g>
<g
   id="g18"
   transform="matrix(0.29505671,0,0,0.34290468,-10.439087,-42.035711)"><path
     style="fill:#a4a9ad"
     d="m 93.286,288.935 c -2.363,0 -4.605,-0.23 -6.728,-0.689 V 278.17 c 0.7,0.131 1.444,0.279 2.231,0.443 0.788,0.164 1.641,0.246 2.56,0.246 2.144,0 3.675,-0.646 4.594,-1.936 0.919,-1.292 1.378,-3.501 1.378,-6.63 v -44.402 h 13.028 v 43.286 c 0,6.498 -1.422,11.416 -4.266,14.752 -2.843,3.337 -7.109,5.006 -12.797,5.006 z"
     id="path12" /><path
     style="fill:#a4a9ad"
     d="m 150.158,273.871 -2.362,-8.992 h -15.588 l -2.429,8.992 h -14.243 l 15.654,-48.176 h 17.295 l 15.851,48.176 z m -5.054,-19.625 -2.067,-7.876 c -0.481,-1.751 -1.066,-4.015 -1.756,-6.794 -0.688,-2.777 -1.144,-4.768 -1.361,-5.973 -0.197,1.116 -0.586,2.954 -1.166,5.514 -0.58,2.561 -1.865,7.604 -3.856,15.129 z"
     id="path14" /><path
     style="fill:#a4a9ad"
     d="m 182.484,256.412 v 17.459 h -12.963 v -47.979 h 15.72 c 13.039,0 19.559,4.725 19.559,14.177 0,5.559 -2.713,9.857 -8.139,12.898 l 13.98,20.904 H 195.94 l -10.174,-17.459 z m 0,-9.746 h 2.428 c 4.529,0 6.794,-2.002 6.794,-6.006 0,-3.304 -2.221,-4.956 -6.662,-4.956 h -2.56 z"
     id="path16" /></g><path
   style="fill:#868686;fill-opacity:1;stroke-width:0.180044"
   d="m 28.610902,25.561467 h -3.972615 c -0.308496,0 -0.559029,-0.313061 -0.559029,-0.699006 0,-0.385944 0.250533,-0.698606 0.559029,-0.698606 h 3.972615 c 0.897474,0 1.627335,-0.913219 1.627335,-2.034813 0,-1.122399 -0.729861,-2.035217 -1.627335,-2.035217 h -1.892036 c -0.308657,0 -0.558867,-0.313265 -0.558867,-0.698807 0,-0.386146 0.25021,-0.698806 0.558867,-0.698806 h 1.892036 c 1.513822,0 2.745232,1.539348 2.745232,3.43283 0,1.892682 -1.231249,3.432425 -2.745232,3.432425 z"
   id="path4" /><path
   style="fill:#bfbfbf;fill-opacity:1;stroke-width:0.180044"
   d="m 28.938237,16.987145 c -0.933379,5.044656 -2.812855,9.788126 -7.420175,10.917575 H 16.438016 C 11.831502,26.775471 9.9513804,22.031801 9.0180018,16.987145 Z"
   id="path6" /><rect
   x="12.025518"
   y="27.668362"
   style="fill:#a4a9ad;stroke-width:0.180044"
   width="13.904395"
   height="2.1397061"
   id="rect8" /></svg>
