<?xml version="1.0" encoding="UTF-8" standalone="no"?>
<svg
   xmlns:dc="http://purl.org/dc/elements/1.1/"
   xmlns:cc="http://creativecommons.org/ns#"
   xmlns:rdf="http://www.w3.org/1999/02/22-rdf-syntax-ns#"
   xmlns:svg="http://www.w3.org/2000/svg"
   xmlns="http://www.w3.org/2000/svg"
   xmlns:sodipodi="http://sodipodi.sourceforge.net/DTD/sodipodi-0.dtd"
   xmlns:inkscape="http://www.inkscape.org/namespaces/inkscape"
   version="1.1"
   id="Capa_1"
   x="0px"
   y="0px"
   viewBox="0 0 58 58"
   style="enable-background:new 0 0 58 58;"
   xml:space="preserve"
   sodipodi:docname="file-plus.svg"
   inkscape:version="1.0.2 (e86c870879, 2021-01-15)"><metadata
   id="metadata63"><rdf:RDF><cc:Work
       rdf:about=""><dc:format>image/svg+xml</dc:format><dc:type
         rdf:resource="http://purl.org/dc/dcmitype/StillImage" /></cc:Work></rdf:RDF></metadata><defs
   id="defs61" /><sodipodi:namedview
   pagecolor="#ffffff"
   bordercolor="#666666"
   borderopacity="1"
   objecttolerance="10"
   gridtolerance="10"
   guidetolerance="10"
   inkscape:pageopacity="0"
   inkscape:pageshadow="2"
   inkscape:window-width="1680"
   inkscape:window-height="982"
   id="namedview59"
   showgrid="false"
   inkscape:zoom="4.8339283"
   inkscape:cx="-12.048555"
   inkscape:cy="12.872788"
   inkscape:window-x="0"
   inkscape:window-y="15"
   inkscape:window-maximized="1"
   inkscape:current-layer="Capa_1" />
<g
   id="g26"><g
   id="g24"><g
   id="g18">
		<polygon
   style="fill:#EFEBDE;"
   points="46.5,14 32.5,0 1.5,0 1.5,58 46.5,58   "
   id="polygon2" />
		<g
   id="g14">
			<path
   style="fill:#D5D0BB;"
   d="M11.5,23h25c0.552,0,1-0.447,1-1s-0.448-1-1-1h-25c-0.552,0-1,0.447-1,1S10.948,23,11.5,23z"
   id="path4" />
			<path
   style="fill:#D5D0BB;"
   d="M11.5,15h10c0.552,0,1-0.447,1-1s-0.448-1-1-1h-10c-0.552,0-1,0.447-1,1S10.948,15,11.5,15z"
   id="path6" />
			<path
   style="fill:#D5D0BB;"
   d="M36.5,29h-25c-0.552,0-1,0.447-1,1s0.448,1,1,1h25c0.552,0,1-0.447,1-1S37.052,29,36.5,29z"
   id="path8" />
			<path
   style="fill:#D5D0BB;"
   d="M36.5,37h-25c-0.552,0-1,0.447-1,1s0.448,1,1,1h25c0.552,0,1-0.447,1-1S37.052,37,36.5,37z"
   id="path10" />
			<path
   style="fill:#D5D0BB;"
   d="M36.5,45h-25c-0.552,0-1,0.447-1,1s0.448,1,1,1h25c0.552,0,1-0.447,1-1S37.052,45,36.5,45z"
   id="path12" />
		</g>
		<polygon
   style="fill:#D5D0BB;"
   points="32.5,0 32.5,14 46.5,14   "
   id="polygon16" />
	</g>
		
		
	</g>
	
	
</g>

<g
   id="g28">
</g>
<g
   id="g34">
</g>
<g
   id="g36"><g
   id="g30">
</g>
</g>
<g
   id="g38">
</g>

<g
   id="g40">
</g>
<g
   id="g42">
</g>
<g
   id="g44">
</g>
<g
   id="g46">
</g>
<g
   id="g48">
</g>
<g
   id="g50">
</g>
<g
   id="g52">
</g>
<g
   id="g54">
</g>
<g
   id="g56">
</g>
<path
   style="fill:none;stroke:#000000;stroke-width:1px;stroke-linecap:butt;stroke-linejoin:miter;stroke-opacity:1"
   d="m 1.5,0 h 31 l 14,14 v 44 h -45 z"
   id="path910" /><circle
   style="fill:#71c386"
   cx="45.699337"
   cy="45.861187"
   r="12"
   id="circle20" /><g
   id="g32"
   transform="translate(1.5105284,0.26469608)"><path
     style="fill:#ffffff"
     d="m 50.5,45 h -5 v -5 c 0,-0.552 -0.448,-1 -1,-1 -0.552,0 -1,0.448 -1,1 v 5 h -5 c -0.552,0 -1,0.448 -1,1 0,0.552 0.448,1 1,1 h 5 v 5 c 0,0.552 0.448,1 1,1 0.552,0 1,-0.448 1,-1 v -5 h 5 c 0.552,0 1,-0.448 1,-1 0,-0.552 -0.448,-1 -1,-1 z"
     id="path22" /></g></svg>
