<?xml version="1.0" encoding="UTF-8" standalone="no"?>
<svg
   xmlns:dc="http://purl.org/dc/elements/1.1/"
   xmlns:cc="http://creativecommons.org/ns#"
   xmlns:rdf="http://www.w3.org/1999/02/22-rdf-syntax-ns#"
   xmlns:svg="http://www.w3.org/2000/svg"
   xmlns="http://www.w3.org/2000/svg"
   xmlns:sodipodi="http://sodipodi.sourceforge.net/DTD/sodipodi-0.dtd"
   xmlns:inkscape="http://www.inkscape.org/namespaces/inkscape"
   version="1.1"
   id="Capa_1"
   x="0px"
   y="0px"
   viewBox="0 0 58.707 58.707"
   style="enable-background:new 0 0 58.707 58.707;"
   xml:space="preserve"
   sodipodi:docname="file-javascript.svg"
   inkscape:version="1.0.2 (e86c870879, 2021-01-15)"><metadata
   id="metadata73"><rdf:RDF><cc:Work
       rdf:about=""><dc:format>image/svg+xml</dc:format><dc:type
         rdf:resource="http://purl.org/dc/dcmitype/StillImage" /><dc:title /></cc:Work></rdf:RDF></metadata><defs
   id="defs71">
	
	
</defs><sodipodi:namedview
   pagecolor="#ffffff"
   bordercolor="#666666"
   borderopacity="1"
   objecttolerance="10"
   gridtolerance="10"
   guidetolerance="10"
   inkscape:pageopacity="0"
   inkscape:pageshadow="2"
   inkscape:window-width="1680"
   inkscape:window-height="982"
   id="namedview69"
   showgrid="false"
   inkscape:zoom="9.5514278"
   inkscape:cx="35.416192"
   inkscape:cy="25.445199"
   inkscape:window-x="0"
   inkscape:window-y="15"
   inkscape:window-maximized="1"
   inkscape:current-layer="Capa_1"
   inkscape:document-rotation="0" />
<g
   id="g18">
		<polygon
   style="fill:#efebde"
   points="1.072,0 1.072,58 46.072,58 46.072,14 32.072,0 "
   id="polygon2" />
		<g
   id="g14">
			<path
   style="fill:#d5d0bb"
   d="m 11.072,23 h 25 c 0.552,0 1,-0.447 1,-1 0,-0.553 -0.448,-1 -1,-1 h -25 c -0.552,0 -1,0.447 -1,1 0,0.553 0.448,1 1,1 z"
   id="path4" />
			<path
   style="fill:#d5d0bb"
   d="m 11.072,15 h 10 c 0.552,0 1,-0.447 1,-1 0,-0.553 -0.448,-1 -1,-1 h -10 c -0.552,0 -1,0.447 -1,1 0,0.553 0.448,1 1,1 z"
   id="path6" />
			<path
   style="fill:#d5d0bb"
   d="m 36.072,29 h -25 c -0.552,0 -1,0.447 -1,1 0,0.553 0.448,1 1,1 h 25 c 0.552,0 1,-0.447 1,-1 0,-0.553 -0.448,-1 -1,-1 z"
   id="path8" />
			<path
   style="fill:#d5d0bb"
   d="m 36.072,37 h -25 c -0.552,0 -1,0.447 -1,1 0,0.553 0.448,1 1,1 h 25 c 0.552,0 1,-0.447 1,-1 0,-0.553 -0.448,-1 -1,-1 z"
   id="path10" />
			<path
   style="fill:#d5d0bb"
   d="m 36.072,45 h -25 c -0.552,0 -1,0.447 -1,1 0,0.553 0.448,1 1,1 h 25 c 0.552,0 1,-0.447 1,-1 0,-0.553 -0.448,-1 -1,-1 z"
   id="path12" />
		</g>
		<polygon
   style="fill:#d5d0bb"
   points="46.072,14 32.072,0 32.072,14 "
   id="polygon16" />
	</g>
<g
   id="g38">
</g>
<g
   id="g40">
</g>
<g
   id="g42">
</g>
<g
   id="g44">
</g>
<g
   id="g46">
</g>
<g
   id="g48">
</g>
<g
   id="g50">
</g>
<g
   id="g52">
</g>
<g
   id="g54">
</g>
<g
   id="g56">
</g>
<g
   id="g58">
</g>
<g
   id="g60">
</g>
<g
   id="g62">
</g>
<g
   id="g64">
</g>
<g
   id="g66">
</g>
<text
   xml:space="preserve"
   style="font-style:normal;font-weight:normal;font-size:100.363px;line-height:1.25;font-family:sans-serif;letter-spacing:0px;word-spacing:0px;fill:#676767;fill-opacity:1;stroke:none;stroke-width:2.50908"
   x="2.2755327"
   y="43.841068"
   id="text1084"
   transform="scale(0.87149659,1.1474514)"><tspan
     sodipodi:role="line"
     id="tspan1082"
     x="2.2755327"
     y="43.841068"
     style="font-style:normal;font-variant:normal;font-weight:bold;font-stretch:normal;font-size:40.1452px;font-family:sans-serif;-inkscape-font-specification:'sans-serif, Bold';font-variant-ligatures:normal;font-variant-caps:normal;font-variant-numeric:normal;font-variant-east-asian:normal;fill:#676767;fill-opacity:1;stroke-width:2.50908">JS</tspan></text></svg>
