<?xml version="1.0" encoding="UTF-8" standalone="no"?>
<svg
   xmlns:osb="http://www.openswatchbook.org/uri/2009/osb"
   xmlns:dc="http://purl.org/dc/elements/1.1/"
   xmlns:cc="http://creativecommons.org/ns#"
   xmlns:rdf="http://www.w3.org/1999/02/22-rdf-syntax-ns#"
   xmlns:svg="http://www.w3.org/2000/svg"
   xmlns="http://www.w3.org/2000/svg"
   xmlns:sodipodi="http://sodipodi.sourceforge.net/DTD/sodipodi-0.dtd"
   xmlns:inkscape="http://www.inkscape.org/namespaces/inkscape"
   version="1.1"
   id="Capa_1"
   x="0px"
   y="0px"
   viewBox="0 0 58 58"
   style="enable-background:new 0 0 58 58;"
   xml:space="preserve"
   sodipodi:docname="file-binary.svg"
   inkscape:version="1.0.2 (e86c870879, 2021-01-15)"><metadata
   id="metadata63"><rdf:RDF><cc:Work
       rdf:about=""><dc:format>image/svg+xml</dc:format><dc:type
         rdf:resource="http://purl.org/dc/dcmitype/StillImage" /><dc:title /></cc:Work></rdf:RDF></metadata><defs
   id="defs61"><linearGradient
   id="linearGradient912"
   osb:paint="solid"><stop
     style="stop-color:#888888;stop-opacity:1;"
     offset="0"
     id="stop910" /></linearGradient>
	
	
</defs><sodipodi:namedview
   pagecolor="#ffffff"
   bordercolor="#666666"
   borderopacity="1"
   objecttolerance="10"
   gridtolerance="10"
   guidetolerance="10"
   inkscape:pageopacity="0"
   inkscape:pageshadow="2"
   inkscape:window-width="1680"
   inkscape:window-height="982"
   id="namedview59"
   showgrid="false"
   inkscape:zoom="6.836207"
   inkscape:cx="42.015881"
   inkscape:cy="53.472308"
   inkscape:window-x="0"
   inkscape:window-y="15"
   inkscape:window-maximized="1"
   inkscape:current-layer="Capa_1"
   inkscape:document-rotation="0" />
<g
   id="g18">
		<polygon
   style="fill:#efebde"
   points="1.5,0 1.5,58 46.5,58 46.5,14 32.5,0 "
   id="polygon2" />
		<g
   id="g14">
			<path
   style="fill:#d5d0bb"
   d="m 11.5,23 h 25 c 0.552,0 1,-0.447 1,-1 0,-0.553 -0.448,-1 -1,-1 h -25 c -0.552,0 -1,0.447 -1,1 0,0.553 0.448,1 1,1 z"
   id="path4" />
			<path
   style="fill:#d5d0bb"
   d="m 11.5,15 h 10 c 0.552,0 1,-0.447 1,-1 0,-0.553 -0.448,-1 -1,-1 h -10 c -0.552,0 -1,0.447 -1,1 0,0.553 0.448,1 1,1 z"
   id="path6" />
			<path
   style="fill:#d5d0bb"
   d="m 36.5,29 h -25 c -0.552,0 -1,0.447 -1,1 0,0.553 0.448,1 1,1 h 25 c 0.552,0 1,-0.447 1,-1 0,-0.553 -0.448,-1 -1,-1 z"
   id="path8" />
			<path
   style="fill:#d5d0bb"
   d="m 36.5,37 h -25 c -0.552,0 -1,0.447 -1,1 0,0.553 0.448,1 1,1 h 25 c 0.552,0 1,-0.447 1,-1 0,-0.553 -0.448,-1 -1,-1 z"
   id="path10" />
			<path
   style="fill:#d5d0bb"
   d="m 36.5,45 h -25 c -0.552,0 -1,0.447 -1,1 0,0.553 0.448,1 1,1 h 25 c 0.552,0 1,-0.447 1,-1 0,-0.553 -0.448,-1 -1,-1 z"
   id="path12" />
		</g>
		<polygon
   style="fill:#d5d0bb"
   points="46.5,14 32.5,0 32.5,14 "
   id="polygon16" />
	</g>
<g
   id="g28">
</g>
<g
   id="g30">
</g>
<g
   id="g32">
</g>
<g
   id="g34">
</g>
<g
   id="g36">
</g>
<g
   id="g38">
</g>
<g
   id="g40">
</g>
<g
   id="g42">
</g>
<g
   id="g44">
</g>
<g
   id="g46">
</g>
<g
   id="g48">
</g>
<g
   id="g50">
</g>
<g
   id="g52">
</g>
<g
   id="g54">
</g>
<g
   id="g56">
</g>
<g
   id="g5"
   transform="translate(-77.207884,-98.052531)" /><g
   id="g7"
   transform="translate(-77.207884,-98.052531)" /><g
   id="g9"
   transform="translate(-77.207884,-98.052531)" /><g
   id="g11"
   transform="translate(-77.207884,-98.052531)" /><g
   id="g13"
   transform="translate(-77.207884,-98.052531)" /><g
   id="g15"
   transform="translate(-77.207884,-98.052531)" /><g
   id="g17"
   transform="translate(-77.207884,-98.052531)" /><g
   id="g19"
   transform="translate(-77.207884,-98.052531)" /><g
   id="g21"
   transform="translate(-77.207884,-98.052531)" /><g
   id="g23"
   transform="translate(-77.207884,-98.052531)" /><g
   id="g25"
   transform="translate(-77.207884,-98.052531)" /><g
   id="g27"
   transform="translate(-77.207884,-98.052531)" /><g
   id="g29"
   transform="translate(-77.207884,-98.052531)" /><g
   id="g31"
   transform="translate(-77.207884,-98.052531)" /><g
   id="g33"
   transform="translate(-77.207884,-98.052531)" /><text
   xml:space="preserve"
   style="font-style:normal;font-weight:normal;font-size:11.9849px;line-height:1.25;font-family:sans-serif;letter-spacing:0px;word-spacing:0px;fill:#000000;fill-opacity:1;stroke:none;stroke-width:0.299622"
   x="9.6120768"
   y="25.69071"
   id="text876"
   transform="scale(0.93840771,1.0656349)"><tspan
     sodipodi:role="line"
     id="tspan874"
     x="9.6120768"
     y="25.69071"
     style="font-style:normal;font-variant:normal;font-weight:bold;font-stretch:normal;font-size:11.9849px;font-family:sans-serif;-inkscape-font-specification:'sans-serif, Bold';font-variant-ligatures:normal;font-variant-caps:normal;font-variant-numeric:normal;font-variant-east-asian:normal;fill:#525252;fill-opacity:1;stroke-width:0.299622">01001</tspan><tspan
     sodipodi:role="line"
     x="9.6120768"
     y="40.671837"
     style="font-style:normal;font-variant:normal;font-weight:bold;font-stretch:normal;font-size:11.9849px;font-family:sans-serif;-inkscape-font-specification:'sans-serif, Bold';font-variant-ligatures:normal;font-variant-caps:normal;font-variant-numeric:normal;font-variant-east-asian:normal;fill:#525252;fill-opacity:1;stroke-width:0.299622"
     id="tspan878">11011</tspan></text></svg>
