<?xml version="1.0" encoding="UTF-8" standalone="no"?>
<svg
   xmlns:dc="http://purl.org/dc/elements/1.1/"
   xmlns:cc="http://creativecommons.org/ns#"
   xmlns:rdf="http://www.w3.org/1999/02/22-rdf-syntax-ns#"
   xmlns:svg="http://www.w3.org/2000/svg"
   xmlns="http://www.w3.org/2000/svg"
   xmlns:sodipodi="http://sodipodi.sourceforge.net/DTD/sodipodi-0.dtd"
   xmlns:inkscape="http://www.inkscape.org/namespaces/inkscape"
   version="1.1"
   id="Capa_1"
   x="0px"
   y="0px"
   viewBox="0 0 58.707 58.707"
   style="enable-background:new 0 0 58.707 58.707;"
   xml:space="preserve"
   sodipodi:docname="file-zip.svg"
   inkscape:version="1.0.2 (e86c870879, 2021-01-15)"><metadata
   id="metadata73"><rdf:RDF><cc:Work
       rdf:about=""><dc:format>image/svg+xml</dc:format><dc:type
         rdf:resource="http://purl.org/dc/dcmitype/StillImage" /><dc:title></dc:title></cc:Work></rdf:RDF></metadata><defs
   id="defs71">
	
	

		
		
		
	</defs><sodipodi:namedview
   pagecolor="#ffffff"
   bordercolor="#666666"
   borderopacity="1"
   objecttolerance="10"
   gridtolerance="10"
   guidetolerance="10"
   inkscape:pageopacity="0"
   inkscape:pageshadow="2"
   inkscape:window-width="1920"
   inkscape:window-height="1012"
   id="namedview69"
   showgrid="false"
   inkscape:zoom="6.7538794"
   inkscape:cx="-20.419364"
   inkscape:cy="43.009954"
   inkscape:window-x="0"
   inkscape:window-y="0"
   inkscape:window-maximized="1"
   inkscape:current-layer="Capa_1"
   inkscape:document-rotation="0" />
<polygon
   style="fill:#efebde"
   points="46.072,58 46.072,14 32.072,0 1.072,0 1.072,58 "
   id="polygon2" /><polygon
   style="fill:#d5d0bb"
   points="32.072,14 46.072,14 32.072,0 "
   id="polygon16" />
<g
   id="g38">
</g>
<g
   id="g40">
</g>
<g
   id="g42">
</g>
<g
   id="g44">
</g>
<g
   id="g46">
</g>
<g
   id="g48">
</g>
<g
   id="g50">
</g>
<g
   id="g52">
</g>
<g
   id="g54">
</g>
<g
   id="g56">
</g>
<g
   id="g58">
</g>
<g
   id="g60">
</g>
<g
   id="g62">
</g>
<g
   id="g64">
</g>
<g
   id="g66">
</g>
<path
   style="fill:#a1a7af;stroke-width:0.0984203"
   d="m 37.845987,27.344545 c -0.185936,0 -0.37274,-0.0651 -0.526641,-0.19857 l -4.940272,-4.28332 c -0.187769,-0.16273 -0.29632,-0.40386 -0.29632,-0.65815 0,-0.25429 0.108551,-0.49532 0.29632,-0.65816 l 4.940272,-4.28332 c 0.349293,-0.30287 0.868504,-0.25368 1.159613,0.10963 0.291206,0.36351 0.243926,0.90371 -0.105366,1.20658 l -4.181285,3.62537 4.181188,3.62517 c 0.349389,0.30297 0.396669,0.84307 0.105367,1.20658 -0.162682,0.20329 -0.396959,0.30819 -0.632876,0.30819 z"
   id="path18" /><g
   id="g26"
   transform="matrix(0.0964897,0,0,0.10038955,-2.3294298,-6.0650946)"><path
     style="fill:#55606e"
     d="m 313.975,315.733 c -4.713,0 -8.533,-3.821 -8.533,-8.533 v -25.6 c 0,-4.713 3.821,-8.533 8.533,-8.533 4.712,0 8.533,3.821 8.533,8.533 v 25.6 c 0,4.713 -3.821,8.533 -8.533,8.533 z"
     id="path20" /><path
     style="fill:#55606e"
     d="M 365.175,273.067 H 348.108 V 256 c 0,-4.713 -3.821,-8.533 -8.533,-8.533 -4.713,0 -8.533,3.821 -8.533,8.533 v 17.067 H 296.909 V 256 c 0,-4.713 -3.821,-8.533 -8.533,-8.533 -4.712,0 -8.533,3.821 -8.533,8.533 v 17.067 H 245.71 V 256 c 0,-4.713 -3.821,-8.533 -8.533,-8.533 -4.713,0 -8.533,3.821 -8.533,8.533 v 17.067 H 194.511 V 256 c 0,-4.713 -3.821,-8.533 -8.533,-8.533 -4.713,0 -8.533,3.821 -8.533,8.533 v 17.067 h -17.067 c -4.713,0 -8.533,3.821 -8.533,8.533 0,4.713 3.821,8.533 8.533,8.533 h 42.667 V 307.2 c 0,4.713 3.821,8.533 8.533,8.533 4.713,0 8.533,-3.821 8.533,-8.533 v -17.067 h 34.133 V 307.2 c 0,4.713 3.821,8.533 8.533,8.533 4.712,0 8.533,-3.821 8.533,-8.533 v -17.067 h 93.867 c 4.713,0 8.533,-3.821 8.533,-8.533 -0.002,-4.713 -3.823,-8.533 -8.535,-8.533 z"
     id="path22" /><path
     style="fill:#55606e"
     d="m 365.175,349.333 c -4.419,0 -8,-3.582 -8,-8 V 281.6 c 0,-4.418 3.581,-8 8,-8 4.419,0 8,3.582 8,8 v 59.733 c 0,4.418 -3.581,8 -8,8 z"
     id="path24" /></g><path
   style="fill:#f79f4d;stroke-width:0.0984203"
   d="m 29.853745,30.520275 2.470137,-2.56998 c 0.321503,-0.33449 0.842934,-0.33449 1.164437,0 l 2.470137,2.56998 c 0.154383,0.16062 0.241127,0.37857 0.241127,0.60575 v 9.06839 c 0,0.47313 -0.368687,0.85662 -0.823346,0.85662 h -4.940273 c -0.454756,0 -0.823346,-0.38359 -0.823346,-0.85662 v -9.06839 c 0,-0.22718 0.08674,-0.44513 0.241127,-0.60575 z"
   id="path28" /><polygon
   style="fill:#ffc44f"
   points="390.775,460.8 339.575,460.8 339.575,370.467 365.175,344.867 390.775,370.467 "
   id="polygon30"
   transform="matrix(0.0964897,0,0,0.10038955,-2.3294298,-6.0650946)" /><g
   id="g36"
   transform="matrix(0.0964897,0,0,0.10038955,-2.3294298,-6.0650946)"><path
     style="fill:#bf722a"
     d="m 365.175,451.733 c -4.419,0 -8,-3.582 -8,-8 v -17.067 c 0,-4.418 3.581,-8 8,-8 4.419,0 8,3.582 8,8 v 17.067 c 0,4.418 -3.581,8 -8,8 z"
     id="path32" /><path
     style="fill:#bf722a"
     d="m 365.175,400.533 c -4.419,0 -8,-3.582 -8,-8 v -17.067 c 0,-4.418 3.581,-8 8,-8 4.419,0 8,3.582 8,8 v 17.067 c 0,4.418 -3.581,8 -8,8 z"
     id="path34" /></g><path
   style="fill:#ffc44f;stroke-width:0.0771335"
   d="M 46.855277,56.090031 H 21.802076 c -0.524096,0 -0.786624,-0.79317 -0.415993,-1.257115 l 4.290364,-5.370626 -4.290364,-5.370628 c -0.370631,-0.463945 -0.108106,-1.257113 0.415993,-1.257113 h 25.053201 c 0.324915,0 0.588272,0.329747 0.588272,0.73639 v 11.782623 c 6.9e-5,0.406721 -0.263357,0.736469 -0.588272,0.736469 z"
   id="path8" /><g
   id="g16"
   transform="matrix(0.06894149,0,0,0.0862987,20.50301,40.625306)"><path
     style="fill:#ffffff"
     d="M 194.508,128 H 170.06 l 31.003,-37.203 c 2.119,-2.544 2.577,-6.084 1.173,-9.083 -1.405,-2.998 -4.417,-4.914 -7.728,-4.914 h -42.667 c -4.713,0 -8.533,3.821 -8.533,8.533 0,4.712 3.821,8.533 8.533,8.533 h 24.448 l -31.003,37.203 c -2.119,2.544 -2.577,6.084 -1.173,9.083 1.405,2.998 4.417,4.914 7.728,4.914 h 42.667 c 4.713,0 8.533,-3.821 8.533,-8.533 0,-4.712 -3.821,-8.533 -8.533,-8.533 z"
     id="path10" /><path
     style="fill:#ffffff"
     d="m 220.108,76.8 c -4.713,0 -8.533,3.821 -8.533,8.533 v 51.2 c 0,4.713 3.821,8.533 8.533,8.533 4.713,0 8.533,-3.821 8.533,-8.533 v -51.2 c 0,-4.712 -3.821,-8.533 -8.533,-8.533 z"
     id="path12" /><path
     style="fill:#ffffff"
     d="m 279.841,76.8 h -34.133 c -4.713,0 -8.533,3.821 -8.533,8.533 v 51.2 c 0,4.713 3.821,8.533 8.533,8.533 4.713,0 8.533,-3.821 8.533,-8.533 v -17.067 h 25.6 c 4.713,0 8.533,-3.821 8.533,-8.533 v -25.6 c 10e-4,-4.712 -3.82,-8.533 -8.533,-8.533 z m -8.533,25.6 h -17.067 v -8.533 h 17.067 z"
     id="path14" /></g></svg>
