<?xml version="1.0" encoding="UTF-8" standalone="no"?>
<svg
   xmlns:dc="http://purl.org/dc/elements/1.1/"
   xmlns:cc="http://creativecommons.org/ns#"
   xmlns:rdf="http://www.w3.org/1999/02/22-rdf-syntax-ns#"
   xmlns:svg="http://www.w3.org/2000/svg"
   xmlns="http://www.w3.org/2000/svg"
   xmlns:sodipodi="http://sodipodi.sourceforge.net/DTD/sodipodi-0.dtd"
   xmlns:inkscape="http://www.inkscape.org/namespaces/inkscape"
   version="1.1"
   id="Capa_1"
   x="0px"
   y="0px"
   viewBox="0 0 58.707 58.707"
   style="enable-background:new 0 0 58.707 58.707;"
   xml:space="preserve"
   sodipodi:docname="file-excel.svg"
   inkscape:version="1.0.2 (e86c870879, 2021-01-15)"><metadata
   id="metadata73"><rdf:RDF><cc:Work
       rdf:about=""><dc:format>image/svg+xml</dc:format><dc:type
         rdf:resource="http://purl.org/dc/dcmitype/StillImage" /><dc:title></dc:title></cc:Work></rdf:RDF></metadata><defs
   id="defs71">
	
	

		
		
		
	</defs><sodipodi:namedview
   pagecolor="#ffffff"
   bordercolor="#666666"
   borderopacity="1"
   objecttolerance="10"
   gridtolerance="10"
   guidetolerance="10"
   inkscape:pageopacity="0"
   inkscape:pageshadow="2"
   inkscape:window-width="1920"
   inkscape:window-height="1012"
   id="namedview69"
   showgrid="false"
   inkscape:zoom="4.7757139"
   inkscape:cx="6.7189834"
   inkscape:cy="36.248642"
   inkscape:window-x="0"
   inkscape:window-y="0"
   inkscape:window-maximized="1"
   inkscape:current-layer="Capa_1"
   inkscape:document-rotation="0" />
<polygon
   style="fill:#efebde"
   points="46.072,58 46.072,14 32.072,0 1.072,0 1.072,58 "
   id="polygon2" /><polygon
   style="fill:#d5d0bb"
   points="32.072,14 46.072,14 32.072,0 "
   id="polygon16" />
<g
   id="g38">
</g>
<g
   id="g40">
</g>
<g
   id="g42">
</g>
<g
   id="g44">
</g>
<g
   id="g46">
</g>
<g
   id="g48">
</g>
<g
   id="g50">
</g>
<g
   id="g52">
</g>
<g
   id="g54">
</g>
<g
   id="g56">
</g>
<g
   id="g58">
</g>
<g
   id="g60">
</g>
<g
   id="g62">
</g>
<g
   id="g64">
</g>
<g
   id="g66">
</g>
<path
   d="m 38.037133,31.346174 h 1.675056 v 2.331793 c 2.822893,0 5.64556,0.0059 8.468228,-0.0083 0.476686,0.02025 1.001198,-0.01445 1.41562,0.279821 0.290344,0.431387 0.256729,0.979351 0.276356,1.47486 -0.01399,5.060023 -0.0083,10.117239 -0.0054,15.174217 -0.01399,0.848312 0.07603,1.71388 -0.09588,2.550525 -0.112795,0.606272 -0.817788,0.620733 -1.288835,0.641247 -2.921479,0.0083 -5.845664,-0.0059 -8.770076,0 v 2.623281 h -1.75135 C 33.663262,55.60613 29.35707,54.860185 25.054036,54.081822 V 33.681568 c 4.328752,-0.77835 8.657278,-1.544821 12.983097,-2.334826 z"
   fill="#207245"
   id="path2"
   style="stroke-width:0.229357" /><path
   d="m 39.712189,34.552394 h 9.305869 v 18.362957 h -9.305869 v -1.748854 h 2.255969 v -2.04033 h -2.255969 v -1.165891 h 2.255969 v -2.04033 h -2.255969 v -1.165902 h 2.255969 v -2.04033 h -2.255969 v -1.165903 h 2.255969 v -2.04033 h -2.255969 v -1.165903 h 2.255969 v -2.040329 h -2.255969 z"
   fill="#ffffff"
   id="path4"
   style="stroke-width:0.229357" /><path
   d="m 43.096142,36.301249 h 3.947944 v 2.040329 h -3.947944 z"
   fill="#207245"
   id="path6"
   style="stroke-width:0.229357" /><path
   d="m 33.406759,39.032261 c 0.637311,-0.04666 1.277555,-0.08741 1.917572,-0.119385 a 588.20853,607.98149 0 0 1 -2.275595,4.777157 c 0.775602,1.632264 1.567672,3.252873 2.345982,4.885137 a 161.59049,167.02245 0 0 1 -2.035786,-0.134083 c -0.479394,-1.215564 -1.063238,-2.390101 -1.407273,-3.660928 -0.383289,1.183384 -0.930588,2.299626 -1.370275,3.459927 -0.617684,-0.0083 -1.235369,-0.03494 -1.852828,-0.06135 0.724618,-1.466001 1.423967,-2.943904 2.171144,-4.401283 -0.634378,-1.501212 -1.331021,-2.97304 -1.985252,-4.465405 0.620392,-0.03802 1.240783,-0.0758 1.861174,-0.11074 0.420062,1.139788 0.879603,2.26464 1.226796,3.433575 0.372009,-1.238648 0.927655,-2.404551 1.404341,-3.602633 z"
   fill="#ffffff"
   id="path8"
   style="stroke-width:0.229357" /><path
   d="m 43.096142,39.507481 h 3.947944 v 2.04033 h -3.947944 z m 0,3.206233 h 3.947944 v 2.04033 h -3.947944 z m 0,3.206232 h 3.947944 v 2.04033 h -3.947944 z m 0,3.206221 h 3.947944 v 2.04033 h -3.947944 z"
   fill="#207245"
   id="path10"
   style="stroke-width:0.229357" /></svg>
