<?xml version="1.0" encoding="iso-8859-1"?>
<!-- Generator: Adobe Illustrator 19.0.0, SVG Export Plug-In . SVG Version: 6.00 Build 0)  -->
<svg version="1.1" id="Layer_1" xmlns="http://www.w3.org/2000/svg" xmlns:xlink="http://www.w3.org/1999/xlink" x="0px" y="0px"
	 viewBox="0 0 512 512" style="enable-background:new 0 0 512 512;" xml:space="preserve">
<path style="fill:#9E9D9D;" d="M431.65,486.4c0,4.917-3.997,8.904-8.928,8.904H52.225c-4.931,0-8.928-3.987-8.928-8.904
	c0-4.917,3.997-8.904,8.928-8.904h370.499C427.654,477.496,431.65,481.483,431.65,486.4z"/>
<path style="fill:#5B7F81;" d="M0,16.696h408.617v227.495c0,101.475-82.091,184.498-182.429,184.498l0,0
	c-100.338,0-182.432-83.024-182.432-184.498V100.776L0,16.696L0,16.696z"/>
<path style="fill:#415E5C;" d="M512,88.921v140.077c0,5.262-4.276,9.528-9.552,9.528s-9.552-4.266-9.552-9.528V88.921
	c0-29.319-23.526-53.171-52.443-53.171h-31.834v208.441c0,101.475-82.091,184.498-182.429,184.498
	c-83.58,0-154.489-57.611-175.849-135.503c27.078,22.072,61.437,35.329,98.714,35.329c86.784,0,157.786-71.809,157.786-159.577
	V16.696h71.617h30.161h31.834C479.903,16.696,512,49.095,512,88.921z"/>
<path style="fill:#FFFFFF;" d="M357.08,245.104C357.08,321.692,295.415,384,219.619,384c-4.931,0-8.928-3.987-8.928-8.904
	s3.997-8.904,8.928-8.904c65.951,0,119.605-54.319,119.605-121.087c0-4.917,3.997-8.904,8.928-8.904S357.08,240.187,357.08,245.104z
	"/>
<path style="fill:#FFEE88;" d="M222.601,126.137c0,26.299-21.012,48.184-47.647,48.184c-26.628,0-47.644-21.885-47.644-48.184
	c0-12.279,39.628-90.434,47.644-109.441C182.973,35.703,222.601,113.858,222.601,126.137L222.601,126.137z"/>
<g>
</g>
<g>
</g>
<g>
</g>
<g>
</g>
<g>
</g>
<g>
</g>
<g>
</g>
<g>
</g>
<g>
</g>
<g>
</g>
<g>
</g>
<g>
</g>
<g>
</g>
<g>
</g>
<g>
</g>
</svg>
