<?xml version="1.0" encoding="iso-8859-1"?>
<!-- Generator: Adobe Illustrator 19.0.0, SVG Export Plug-In . SVG Version: 6.00 Build 0)  -->
<svg version="1.1" id="Layer_1" xmlns="http://www.w3.org/2000/svg" xmlns:xlink="http://www.w3.org/1999/xlink" x="0px" y="0px"
	 viewBox="0 0 512 512" style="enable-background:new 0 0 512 512;" xml:space="preserve">
<path style="fill:#876E6E;" d="M502.857,105.143c-5.049,0-9.143-4.094-9.143-9.143V77.714c0-5.049,4.094-9.143,9.143-9.143
	c5.049,0,9.143-4.094,9.143-9.143s-4.094-9.143-9.143-9.143H9.143C4.094,50.286,0,54.379,0,59.429s4.094,9.143,9.143,9.143
	s9.143,4.094,9.143,9.143V96c0,5.049-4.094,9.143-9.143,9.143S0,109.237,0,114.286v283.429c0,5.049,4.094,9.143,9.143,9.143
	s9.143,4.094,9.143,9.143v18.286c0,5.049-4.094,9.143-9.143,9.143S0,447.522,0,452.571c0,5.049,4.094,9.143,9.143,9.143h493.714
	c5.049,0,9.143-4.094,9.143-9.143c0-5.049-4.094-9.143-9.143-9.143c-5.049,0-9.143-4.094-9.143-9.143V416
	c0-5.049,4.094-9.143,9.143-9.143c5.049,0,9.143-4.094,9.143-9.143V114.286C512,109.237,507.906,105.143,502.857,105.143z
	 M64,434.286c0,5.049-4.094,9.143-9.143,9.143h-9.143c-5.049,0-9.143-4.094-9.143-9.143V416c0-5.049,4.094-9.143,9.143-9.143h9.143
	c5.049,0,9.143,4.094,9.143,9.143V434.286z M64,96c0,5.049-4.094,9.143-9.143,9.143h-9.143c-5.049,0-9.143-4.094-9.143-9.143V77.714
	c0-5.049,4.094-9.143,9.143-9.143h9.143c5.049,0,9.143,4.094,9.143,9.143V96z M109.714,434.286c0,5.049-4.094,9.143-9.143,9.143
	h-9.143c-5.049,0-9.143-4.094-9.143-9.143V416c0-5.049,4.094-9.143,9.143-9.143h9.143c5.049,0,9.143,4.094,9.143,9.143V434.286z
	 M109.714,96c0,5.049-4.094,9.143-9.143,9.143h-9.143c-5.049,0-9.143-4.094-9.143-9.143V77.714c0-5.049,4.094-9.143,9.143-9.143
	h9.143c5.049,0,9.143,4.094,9.143,9.143V96z M155.429,434.286c0,5.049-4.094,9.143-9.143,9.143h-9.143
	c-5.049,0-9.143-4.094-9.143-9.143V416c0-5.049,4.094-9.143,9.143-9.143h9.143c5.049,0,9.143,4.094,9.143,9.143V434.286z
	 M155.429,96c0,5.049-4.094,9.143-9.143,9.143h-9.143c-5.049,0-9.143-4.094-9.143-9.143V77.714c0-5.049,4.094-9.143,9.143-9.143
	h9.143c5.049,0,9.143,4.094,9.143,9.143V96z M201.143,434.286c0,5.049-4.094,9.143-9.143,9.143h-9.143
	c-5.049,0-9.143-4.094-9.143-9.143V416c0-5.049,4.094-9.143,9.143-9.143H192c5.049,0,9.143,4.094,9.143,9.143V434.286z M201.143,96
	c0,5.049-4.094,9.143-9.143,9.143h-9.143c-5.049,0-9.143-4.094-9.143-9.143V77.714c0-5.049,4.094-9.143,9.143-9.143H192
	c5.049,0,9.143,4.094,9.143,9.143V96z M246.857,434.286c0,5.049-4.094,9.143-9.143,9.143h-9.143c-5.049,0-9.143-4.094-9.143-9.143
	V416c0-5.049,4.094-9.143,9.143-9.143h9.143c5.049,0,9.143,4.094,9.143,9.143V434.286z M246.857,96c0,5.049-4.094,9.143-9.143,9.143
	h-9.143c-5.049,0-9.143-4.094-9.143-9.143V77.714c0-5.049,4.094-9.143,9.143-9.143h9.143c5.049,0,9.143,4.094,9.143,9.143V96z
	 M292.571,434.286c0,5.049-4.094,9.143-9.143,9.143h-9.143c-5.049,0-9.143-4.094-9.143-9.143V416c0-5.049,4.094-9.143,9.143-9.143
	h9.143c5.049,0,9.143,4.094,9.143,9.143V434.286z M292.571,96c0,5.049-4.094,9.143-9.143,9.143h-9.143
	c-5.049,0-9.143-4.094-9.143-9.143V77.714c0-5.049,4.094-9.143,9.143-9.143h9.143c5.049,0,9.143,4.094,9.143,9.143V96z
	 M338.286,434.286c0,5.049-4.094,9.143-9.143,9.143H320c-5.049,0-9.143-4.094-9.143-9.143V416c0-5.049,4.094-9.143,9.143-9.143
	h9.143c5.049,0,9.143,4.094,9.143,9.143V434.286z M338.286,96c0,5.049-4.094,9.143-9.143,9.143H320
	c-5.049,0-9.143-4.094-9.143-9.143V77.714c0-5.049,4.094-9.143,9.143-9.143h9.143c5.049,0,9.143,4.094,9.143,9.143V96z M384,434.286
	c0,5.049-4.094,9.143-9.143,9.143h-9.143c-5.049,0-9.143-4.094-9.143-9.143V416c0-5.049,4.094-9.143,9.143-9.143h9.143
	c5.049,0,9.143,4.094,9.143,9.143V434.286z M384,96c0,5.049-4.094,9.143-9.143,9.143h-9.143c-5.049,0-9.143-4.094-9.143-9.143
	V77.714c0-5.049,4.094-9.143,9.143-9.143h9.143c5.049,0,9.143,4.094,9.143,9.143V96z M429.714,434.286
	c0,5.049-4.094,9.143-9.143,9.143h-9.143c-5.049,0-9.143-4.094-9.143-9.143V416c0-5.049,4.094-9.143,9.143-9.143h9.143
	c5.049,0,9.143,4.094,9.143,9.143V434.286z M429.714,96c0,5.049-4.094,9.143-9.143,9.143h-9.143c-5.049,0-9.143-4.094-9.143-9.143
	V77.714c0-5.049,4.094-9.143,9.143-9.143h9.143c5.049,0,9.143,4.094,9.143,9.143V96z M475.429,434.286
	c0,5.049-4.094,9.143-9.143,9.143h-9.143c-5.049,0-9.143-4.094-9.143-9.143V416c0-5.049,4.094-9.143,9.143-9.143h9.143
	c5.049,0,9.143,4.094,9.143,9.143V434.286z M475.429,96c0,5.049-4.094,9.143-9.143,9.143h-9.143c-5.049,0-9.143-4.094-9.143-9.143
	V77.714c0-5.049,4.094-9.143,9.143-9.143h9.143c5.049,0,9.143,4.094,9.143,9.143V96z"/>
<g>
	<path style="fill:#C9BEBE;" d="M420.571,388.571H91.429c-5.049,0-9.143-4.094-9.143-9.143V132.571c0-5.049,4.094-9.143,9.143-9.143
		h329.143c5.049,0,9.143,4.094,9.143,9.143v246.857C429.714,384.478,425.621,388.571,420.571,388.571z"/>
	<path style="fill:#C9BEBE;" d="M512,388.571h-54.857c-5.049,0-9.143-4.094-9.143-9.143V132.571c0-5.049,4.094-9.143,9.143-9.143
		H512V388.571z"/>
	<path style="fill:#C9BEBE;" d="M0,123.429h54.857c5.049,0,9.143,4.094,9.143,9.143v246.857c0,5.049-4.094,9.143-9.143,9.143H0
		V123.429z"/>
</g>
<g>
</g>
<g>
</g>
<g>
</g>
<g>
</g>
<g>
</g>
<g>
</g>
<g>
</g>
<g>
</g>
<g>
</g>
<g>
</g>
<g>
</g>
<g>
</g>
<g>
</g>
<g>
</g>
<g>
</g>
</svg>
