<?xml version="1.0" encoding="UTF-8" standalone="no"?>
<svg
   xmlns:dc="http://purl.org/dc/elements/1.1/"
   xmlns:cc="http://creativecommons.org/ns#"
   xmlns:rdf="http://www.w3.org/1999/02/22-rdf-syntax-ns#"
   xmlns:svg="http://www.w3.org/2000/svg"
   xmlns="http://www.w3.org/2000/svg"
   xmlns:sodipodi="http://sodipodi.sourceforge.net/DTD/sodipodi-0.dtd"
   xmlns:inkscape="http://www.inkscape.org/namespaces/inkscape"
   version="1.1"
   id="Layer_1"
   x="0px"
   y="0px"
   viewBox="0 0 309.267 309.267"
   style="enable-background:new 0 0 309.267 309.267;"
   xml:space="preserve"
   sodipodi:docname="folder-up.svg"
   inkscape:version="1.0.2 (e86c870879, 2021-01-15)"><metadata
   id="metadata45"><rdf:RDF><cc:Work
       rdf:about=""><dc:format>image/svg+xml</dc:format><dc:type
         rdf:resource="http://purl.org/dc/dcmitype/StillImage" /><dc:title /></cc:Work></rdf:RDF></metadata><defs
   id="defs43" /><sodipodi:namedview
   pagecolor="#ffffff"
   bordercolor="#666666"
   borderopacity="1"
   objecttolerance="10"
   gridtolerance="10"
   guidetolerance="10"
   inkscape:pageopacity="0"
   inkscape:pageshadow="2"
   inkscape:window-width="1680"
   inkscape:window-height="982"
   id="namedview41"
   showgrid="false"
   inkscape:zoom="1.2820637"
   inkscape:cx="37.424777"
   inkscape:cy="206.01978"
   inkscape:window-x="0"
   inkscape:window-y="15"
   inkscape:window-maximized="1"
   inkscape:current-layer="Layer_1"
   inkscape:document-rotation="0" />
<g
   id="g8">
	<path
   style="fill:#D0994B;"
   d="M260.944,43.491H125.64c0,0-18.324-28.994-28.994-28.994H48.323c-10.67,0-19.329,8.65-19.329,19.329   v222.286c0,10.67,8.659,19.329,19.329,19.329h212.621c10.67,0,19.329-8.659,19.329-19.329V62.82   C280.273,52.15,271.614,43.491,260.944,43.491z"
   id="path2" />
	<path
   style="fill:#E4E7E7;"
   d="M28.994,72.484h251.279v77.317H28.994V72.484z"
   id="path4" />
	<path
   style="fill:#F4B459;"
   d="M19.329,91.814h270.609c10.67,0,19.329,8.65,19.329,19.329l-19.329,164.298   c0,10.67-8.659,19.329-19.329,19.329H38.658c-10.67,0-19.329-8.659-19.329-19.329L0,111.143C0,100.463,8.659,91.814,19.329,91.814z   "
   id="path6" />
</g>
<g
   id="g10">
</g>
<g
   id="g12">
</g>
<g
   id="g14">
</g>
<g
   id="g16">
</g>
<g
   id="g18">
</g>
<g
   id="g20">
</g>
<g
   id="g22">
</g>
<g
   id="g24">
</g>
<g
   id="g26">
</g>
<g
   id="g28">
</g>
<g
   id="g30">
</g>
<g
   id="g32">
</g>
<g
   id="g34">
</g>
<g
   id="g36">
</g>
<g
   id="g38">
</g>
<path
   style="fill:#7dd2f0;stroke-width:0.507279"
   d="m 294.96818,142.11125 c 0,-67.371286 -61.89633,-121.986025 -138.24892,-121.986025 -76.352578,0 -138.249988,54.614739 -138.249988,121.986025 0,67.3713 61.896331,121.98509 138.248908,121.98509 76.35259,0 138.25,-54.61474 138.25,-121.98509 z"
   id="path2-3" /><path
   style="opacity:0.1;stroke-width:0.507279;enable-background:new"
   d="m 55.662702,142.11125 c 0,-61.805696 52.095188,-112.868078 119.652188,-120.883861 -6.08296,-0.72192 -12.28907,-1.102164 -18.59671,-1.102164 -76.352577,0 -138.248908,54.614739 -138.248908,121.986025 0,67.3713 61.896331,121.98509 138.248908,121.98509 6.30764,0 12.51375,-0.38024 18.59671,-1.10216 -67.557,-8.01579 -119.652188,-59.07817 -119.652188,-120.88293 z"
   id="path4-1" /><polygon
   style="fill:#ffffff"
   points="298.856,391.199 213.144,391.199 213.144,290.091 153.879,290.091 256.001,114.809 358.121,290.091 298.856,290.091 "
   id="polygon6"
   transform="matrix(0.54003694,0,0,0.4765061,18.469272,20.125225)" /></svg>
