<?xml version="1.0" encoding="UTF-8" standalone="no"?>
<svg
   xmlns:dc="http://purl.org/dc/elements/1.1/"
   xmlns:cc="http://creativecommons.org/ns#"
   xmlns:rdf="http://www.w3.org/1999/02/22-rdf-syntax-ns#"
   xmlns:svg="http://www.w3.org/2000/svg"
   xmlns="http://www.w3.org/2000/svg"
   xmlns:sodipodi="http://sodipodi.sourceforge.net/DTD/sodipodi-0.dtd"
   xmlns:inkscape="http://www.inkscape.org/namespaces/inkscape"
   version="1.1"
   id="Layer_1"
   x="0px"
   y="0px"
   viewBox="0 0 309.267 309.267"
   style="enable-background:new 0 0 309.267 309.267;"
   xml:space="preserve"
   sodipodi:docname="folder-gold.svg"
   inkscape:version="1.0.2 (e86c870879, 2021-01-15)"><metadata
   id="metadata45"><rdf:RDF><cc:Work
       rdf:about=""><dc:format>image/svg+xml</dc:format><dc:type
         rdf:resource="http://purl.org/dc/dcmitype/StillImage" /><dc:title></dc:title></cc:Work></rdf:RDF></metadata><defs
   id="defs43">
	
	
	
</defs><sodipodi:namedview
   pagecolor="#ffffff"
   bordercolor="#666666"
   borderopacity="1"
   objecttolerance="10"
   gridtolerance="10"
   guidetolerance="10"
   inkscape:pageopacity="0"
   inkscape:pageshadow="2"
   inkscape:window-width="1280"
   inkscape:window-height="791"
   id="namedview41"
   showgrid="false"
   inkscape:zoom="0.90655595"
   inkscape:cx="72.285293"
   inkscape:cy="137.87123"
   inkscape:window-x="398"
   inkscape:window-y="146"
   inkscape:window-maximized="0"
   inkscape:current-layer="Layer_1" />
<path
   style="fill:#ac8c25;fill-opacity:1"
   d="M 260.944,43.491 H 125.64 c 0,0 -18.324,-28.994 -28.994,-28.994 H 48.323 c -10.67,0 -19.329,8.65 -19.329,19.329 v 222.286 c 0,10.67 8.659,19.329 19.329,19.329 h 212.621 c 10.67,0 19.329,-8.659 19.329,-19.329 V 62.82 c 0,-10.67 -8.659,-19.329 -19.329,-19.329 z"
   id="path2" /><path
   style="fill:#e4e7e7"
   d="m 28.994,72.484 h 251.279 v 77.317 H 28.994 Z"
   id="path4" /><path
   style="fill:#d4af37;fill-opacity:1"
   d="m 19.329,91.814 h 270.609 c 10.67,0 19.329,8.65 19.329,19.329 l -19.329,164.298 c 0,10.67 -8.659,19.329 -19.329,19.329 H 38.658 c -10.67,0 -19.329,-8.659 -19.329,-19.329 L 0,111.143 C 0,100.463 8.659,91.814 19.329,91.814 Z"
   id="path6" />
<g
   id="g10">
</g>
<g
   id="g12">
</g>
<g
   id="g14">
</g>
<g
   id="g16">
</g>
<g
   id="g18">
</g>
<g
   id="g20">
</g>
<g
   id="g22">
</g>
<g
   id="g24">
</g>
<g
   id="g26">
</g>
<g
   id="g28">
</g>
<g
   id="g30">
</g>
<g
   id="g32">
</g>
<g
   id="g34">
</g>
<g
   id="g36">
</g>
<g
   id="g38">
</g>
</svg>
