<?xml version="1.0" encoding="UTF-8" standalone="no"?>
<svg
   xmlns:dc="http://purl.org/dc/elements/1.1/"
   xmlns:cc="http://creativecommons.org/ns#"
   xmlns:rdf="http://www.w3.org/1999/02/22-rdf-syntax-ns#"
   xmlns:svg="http://www.w3.org/2000/svg"
   xmlns="http://www.w3.org/2000/svg"
   xmlns:sodipodi="http://sodipodi.sourceforge.net/DTD/sodipodi-0.dtd"
   xmlns:inkscape="http://www.inkscape.org/namespaces/inkscape"
   version="1.1"
   id="Layer_1"
   x="0px"
   y="0px"
   viewBox="0 0 309.267 309.267"
   style="enable-background:new 0 0 309.267 309.267;"
   xml:space="preserve"
   sodipodi:docname="folder-up.svg"
   inkscape:version="1.0.2 (e86c870879, 2021-01-15)"><metadata
   id="metadata45"><rdf:RDF><cc:Work
       rdf:about=""><dc:format>image/svg+xml</dc:format><dc:type
         rdf:resource="http://purl.org/dc/dcmitype/StillImage" /><dc:title></dc:title></cc:Work></rdf:RDF></metadata><defs
   id="defs43" /><sodipodi:namedview
   pagecolor="#ffffff"
   bordercolor="#666666"
   borderopacity="1"
   objecttolerance="10"
   gridtolerance="10"
   guidetolerance="10"
   inkscape:pageopacity="0"
   inkscape:pageshadow="2"
   inkscape:window-width="1920"
   inkscape:window-height="1012"
   id="namedview41"
   showgrid="false"
   inkscape:zoom="1.2820637"
   inkscape:cx="38.204769"
   inkscape:cy="206.01978"
   inkscape:window-x="0"
   inkscape:window-y="0"
   inkscape:window-maximized="1"
   inkscape:current-layer="Layer_1" />
<g
   id="g8">
	<path
   style="fill:#D0994B;"
   d="M260.944,43.491H125.64c0,0-18.324-28.994-28.994-28.994H48.323c-10.67,0-19.329,8.65-19.329,19.329   v222.286c0,10.67,8.659,19.329,19.329,19.329h212.621c10.67,0,19.329-8.659,19.329-19.329V62.82   C280.273,52.15,271.614,43.491,260.944,43.491z"
   id="path2" />
	<path
   style="fill:#E4E7E7;"
   d="M28.994,72.484h251.279v77.317H28.994V72.484z"
   id="path4" />
	<path
   style="fill:#F4B459;"
   d="M19.329,91.814h270.609c10.67,0,19.329,8.65,19.329,19.329l-19.329,164.298   c0,10.67-8.659,19.329-19.329,19.329H38.658c-10.67,0-19.329-8.659-19.329-19.329L0,111.143C0,100.463,8.659,91.814,19.329,91.814z   "
   id="path6" />
</g>
<g
   id="g10">
</g>
<g
   id="g12">
</g>
<g
   id="g14">
</g>
<g
   id="g16">
</g>
<g
   id="g18">
</g>
<g
   id="g20">
</g>
<g
   id="g22">
</g>
<g
   id="g24">
</g>
<g
   id="g26">
</g>
<g
   id="g28">
</g>
<g
   id="g30">
</g>
<g
   id="g32">
</g>
<g
   id="g34">
</g>
<g
   id="g36">
</g>
<g
   id="g38">
</g>
<path
   style="fill:#7dd2f0;stroke-width:0.257138"
   d="m 313.6541,239.30351 c 0,-33.97585 -31.53616,-61.51848 -70.43778,-61.51848 -38.90161,0 -70.43832,27.54263 -70.43832,61.51848 0,33.97586 31.53616,61.51801 70.43777,61.51801 38.90162,0 70.43833,-27.54263 70.43833,-61.51801 z"
   id="path2-3" /><path
   style="opacity:0.1;stroke-width:0.257138;enable-background:new"
   d="m 191.72804,239.30351 c 0,-31.16908 26.54248,-56.92023 60.96275,-60.96265 -3.09927,-0.36407 -6.26128,-0.55583 -9.47502,-0.55583 -38.90161,0 -70.43777,27.54263 -70.43777,61.51848 0,33.97586 31.53616,61.51801 70.43777,61.51801 3.21374,0 6.37575,-0.19176 9.47502,-0.55583 -34.42027,-4.04242 -60.96275,-29.79357 -60.96275,-60.96218 z"
   id="path4-1" /><polygon
   style="fill:#ffffff"
   points="358.121,290.091 298.856,290.091 298.856,391.199 213.144,391.199 213.144,290.091 153.879,290.091 256.001,114.809 "
   id="polygon6"
   transform="matrix(0.27514864,0,0,0.24030565,172.778,177.78503)" /></svg>
