<?xml version="1.0" encoding="UTF-8" standalone="no"?>
<svg
   xmlns:dc="http://purl.org/dc/elements/1.1/"
   xmlns:cc="http://creativecommons.org/ns#"
   xmlns:rdf="http://www.w3.org/1999/02/22-rdf-syntax-ns#"
   xmlns:svg="http://www.w3.org/2000/svg"
   xmlns="http://www.w3.org/2000/svg"
   xmlns:sodipodi="http://sodipodi.sourceforge.net/DTD/sodipodi-0.dtd"
   xmlns:inkscape="http://www.inkscape.org/namespaces/inkscape"
   version="1.1"
   id="Layer_1"
   x="0px"
   y="0px"
   viewBox="0 0 309.267 309.267"
   style="enable-background:new 0 0 309.267 309.267;"
   xml:space="preserve"
   sodipodi:docname="folder-closed.svg"
   inkscape:version="1.0.2 (e86c870879, 2021-01-15)"><metadata
   id="metadata45"><rdf:RDF><cc:Work
       rdf:about=""><dc:format>image/svg+xml</dc:format><dc:type
         rdf:resource="http://purl.org/dc/dcmitype/StillImage" /><dc:title></dc:title></cc:Work></rdf:RDF></metadata><defs
   id="defs43">
	
	
	
</defs><sodipodi:namedview
   pagecolor="#ffffff"
   bordercolor="#666666"
   borderopacity="1"
   objecttolerance="10"
   gridtolerance="10"
   guidetolerance="10"
   inkscape:pageopacity="0"
   inkscape:pageshadow="2"
   inkscape:window-width="1920"
   inkscape:window-height="1012"
   id="namedview41"
   showgrid="false"
   inkscape:zoom="1.2820637"
   inkscape:cx="257.14018"
   inkscape:cy="155.28867"
   inkscape:window-x="0"
   inkscape:window-y="0"
   inkscape:window-maximized="1"
   inkscape:current-layer="Layer_1" />
<path
   style="fill:#d0994b"
   d="M 260.944,43.491 H 125.64 c 0,0 -18.324,-28.994 -28.994,-28.994 H 48.323 c -10.67,0 -19.329,8.65 -19.329,19.329 v 222.286 c 0,10.67 8.659,19.329 19.329,19.329 h 212.621 c 10.67,0 19.329,-8.659 19.329,-19.329 V 62.82 c 0,-10.67 -8.659,-19.329 -19.329,-19.329 z"
   id="path2" /><path
   style="fill:#f4b459;stroke-width:1.05989"
   d="M 29.302055,48.896077 H 280.23187 c 9.89406,0 17.92336,10.479165 17.92336,23.416391 L 280.23187,271.35361 c 0,12.92632 -8.0293,23.41639 -17.92336,23.41639 H 47.225414 c -9.894057,0 -17.923359,-10.49007 -17.923359,-23.41639 L 11.378695,72.312468 c 0,-12.938437 8.029302,-23.416391 17.92336,-23.416391 z"
   id="path6" />
<g
   id="g10">
</g>
<g
   id="g12">
</g>
<g
   id="g14">
</g>
<g
   id="g16">
</g>
<g
   id="g18">
</g>
<g
   id="g20">
</g>
<g
   id="g22">
</g>
<g
   id="g24">
</g>
<g
   id="g26">
</g>
<g
   id="g28">
</g>
<g
   id="g30">
</g>
<g
   id="g32">
</g>
<g
   id="g34">
</g>
<g
   id="g36">
</g>
<g
   id="g38">
</g>
</svg>
