<?xml version="1.0" encoding="iso-8859-1"?>
<!-- Generator: Adobe Illustrator 19.0.0, SVG Export Plug-In . SVG Version: 6.00 Build 0)  -->
<svg xmlns="http://www.w3.org/2000/svg" xmlns:xlink="http://www.w3.org/1999/xlink" version="1.1" id="Capa_1" x="0px" y="0px" viewBox="0 0 455 455" style="enable-background:new 0 0 455 455;" xml:space="preserve" width="512" height="512">
<g>
	<path style="fill:#185F8D;" d="M351.552,37.01c19.503,0,36.405,13.204,41.104,32.11L455,319.975l-15.848-1.576L378.1,72.739   c-3.034-12.205-13.95-20.729-26.548-20.729c-4.143,0-7.5-3.358-7.5-7.5S347.409,37.01,351.552,37.01z"/>
	<path style="fill:#6DA8D6;" d="M439.92,305.161h-17.27l-0.67,0.31l2.79,35.13h15.15c8.33,0,15.08-6.75,15.08-15.08v-5.28   C455,311.911,448.25,305.161,439.92,305.161z"/>
	<path style="fill:#185F8D;" d="M103.448,37.01c-19.503,0-36.405,13.204-41.104,32.11L0,319.975l15.848-1.576L76.9,72.739   c3.034-12.205,13.95-20.729,26.548-20.729c4.143,0,7.5-3.358,7.5-7.5S107.591,37.01,103.448,37.01z"/>
	<path style="fill:#6DA8D6;" d="M32.35,305.161H15.08c-8.33,0-15.08,6.75-15.08,15.08v5.28c0,8.33,6.75,15.08,15.08,15.08h15.15   l2.79-35.13L32.35,305.161z"/>
	<path style="fill:#6DA8D6;" d="M405.404,275.468c-17.504-12.328-40.644-19.118-65.157-19.118c-24.515,0-47.654,6.79-65.158,19.118   c-13.962,9.834-23.131,22.291-26.698,35.946c-6.365-3.133-13.488-4.8-20.891-4.8s-14.525,1.667-20.891,4.8   c-3.567-13.655-12.737-26.111-26.698-35.946c-17.504-12.328-40.644-19.118-65.157-19.118c-24.515,0-47.654,6.79-65.158,19.118   c-18.302,12.891-28.381,30.287-28.381,48.983c0,51.577,41.962,93.539,93.539,93.539c50.396,0,91.604-40.064,93.465-90.014   c5.387-4.12,12.125-6.362,19.281-6.362s13.894,2.241,19.281,6.362c1.861,49.95,43.069,90.014,93.466,90.014   c51.577,0,93.538-41.961,93.538-93.539C433.785,305.755,423.706,288.359,405.404,275.468z"/>
	<path style="fill:#C1E8E6;" d="M340.247,402.99c-43.307,0-78.539-35.232-78.539-78.539c0-29.28,35.232-53.101,78.539-53.101   c43.306,0,78.538,23.821,78.538,53.101C418.785,367.757,383.553,402.99,340.247,402.99z"/>
	<path style="fill:#C1E8E6;" d="M114.754,402.99c-43.307,0-78.539-35.232-78.539-78.539c0-29.28,35.232-53.101,78.539-53.101   c43.306,0,78.538,23.821,78.538,53.101C193.292,367.757,158.06,402.99,114.754,402.99z"/>
	<path style="fill:#FFFFFF;" d="M55.174,375.536c6.589,7.673,14.625,14.059,23.689,18.737l100.225-100.225   c-6.857-6.612-15.874-12.125-26.366-16.06L55.174,375.536z"/>
	<path style="fill:#FFFFFF;" d="M280.667,375.536c6.589,7.673,14.626,14.059,23.689,18.737l100.225-100.225   c-6.857-6.612-15.874-12.125-26.365-16.06L280.667,375.536z"/>
</g>















</svg>
