<?xml version="1.0" encoding="iso-8859-1"?>
<!-- Generator: Adobe Illustrator 19.0.0, SVG Export Plug-In . SVG Version: 6.00 Build 0)  -->
<svg version="1.1" id="Layer_1" xmlns="http://www.w3.org/2000/svg" xmlns:xlink="http://www.w3.org/1999/xlink" x="0px" y="0px"
	 viewBox="0 0 392.598 392.598" style="enable-background:new 0 0 392.598 392.598;" xml:space="preserve">
<path style="fill:#194F82;" d="M303.256,0.065c-6.012,0-10.925,4.848-10.925,10.925s4.848,10.925,10.925,10.925
	c37.236,0,67.62,30.384,67.62,67.62v178.554c-8.663-5.56-109.059-1.939-109.059-1.939c-18.036,0-32.711,14.675-32.711,32.711v18.747
	c-20.493-10.537-44.994-10.537-65.358,0v-18.683c0-18.036-14.675-32.711-32.711-32.711c0.711,0-104.016-4.331-109.059,1.939V89.535
	c0-37.236,30.319-67.62,67.62-67.62c6.012,0,10.925-4.848,10.925-10.925S95.483,0,89.471,0C40.145,0,0.064,40.081,0.064,89.406
	v270.352c0,18.101,14.675,32.776,32.711,32.776h98.133c18.036,0,32.711-14.675,32.711-32.711v-15.968
	c18.618-16.485,46.739-16.485,65.358,0v16.032c0,18.036,14.675,32.711,32.711,32.711h98.133c18.036,0,32.711-14.675,32.711-32.711
	V89.471C392.663,40.145,352.582,0.065,303.256,0.065z M141.899,359.887c0,6.012-4.848,10.925-10.925,10.925H32.905
	c-6.012,0-10.925-4.848-10.925-10.925v-2.844h20.105c6.012,0,10.925-4.849,10.925-10.925c0-6.012-4.848-10.925-10.925-10.925H21.98
	v-9.115h37.624c6.012,0,10.925-4.848,10.925-10.925c0-6.012-4.848-10.925-10.925-10.925H21.915v-5.301
	c0-6.012,4.848-10.925,10.925-10.925h98.133c6.012,0,10.925,4.848,10.925,10.925V359.887L141.899,359.887z M370.877,359.887
	c0,6.012-4.848,10.925-10.925,10.925h-98.133c-6.012,0-10.925-4.848-10.925-10.925v-60.962c0-6.012,4.848-10.925,10.925-10.925
	h98.133c6.012,0,10.925,4.848,10.925,10.925V359.887z"/>
<path style="fill:#56ACE0;" d="M130.974,288.065H32.84c-6.012,0-10.925,4.848-10.925,10.925v5.301h37.689
	c6.012,0,10.925,4.848,10.925,10.925c0,6.012-4.848,10.925-10.925,10.925H21.915v9.115H42.02c6.012,0,10.925,4.848,10.925,10.925
	c0,6.012-4.848,10.925-10.925,10.925H21.915v2.844c0,6.012,4.848,10.925,10.925,10.925h98.133c6.012,0,10.925-4.848,10.925-10.925
	V298.99C141.899,292.913,136.986,288.065,130.974,288.065z"/>
<path style="fill:#FFC10D;" d="M359.951,288.065h-98.133c-6.012,0-10.925,4.848-10.925,10.925v60.897
	c0,6.012,4.848,10.925,10.925,10.925h98.133c6.012,0,10.925-4.848,10.925-10.925v-60.962
	C370.877,292.913,365.964,288.065,359.951,288.065z"/>
<g>
</g>
<g>
</g>
<g>
</g>
<g>
</g>
<g>
</g>
<g>
</g>
<g>
</g>
<g>
</g>
<g>
</g>
<g>
</g>
<g>
</g>
<g>
</g>
<g>
</g>
<g>
</g>
<g>
</g>
</svg>
