<?xml version="1.0" encoding="UTF-8" standalone="no"?>
<svg
   xmlns:dc="http://purl.org/dc/elements/1.1/"
   xmlns:cc="http://creativecommons.org/ns#"
   xmlns:rdf="http://www.w3.org/1999/02/22-rdf-syntax-ns#"
   xmlns:svg="http://www.w3.org/2000/svg"
   xmlns="http://www.w3.org/2000/svg"
   xmlns:sodipodi="http://sodipodi.sourceforge.net/DTD/sodipodi-0.dtd"
   xmlns:inkscape="http://www.inkscape.org/namespaces/inkscape"
   version="1.1"
   id="Layer_1"
   x="0px"
   y="0px"
   viewBox="0 0 512 512"
   style="enable-background:new 0 0 512 512;"
   xml:space="preserve"
   sodipodi:docname="hadra.svg"
   inkscape:version="1.0.2 (e86c870879, 2021-01-15)"><metadata
   id="metadata63"><rdf:RDF><cc:Work
       rdf:about=""><dc:format>image/svg+xml</dc:format><dc:type
         rdf:resource="http://purl.org/dc/dcmitype/StillImage" /></cc:Work></rdf:RDF></metadata><defs
   id="defs61">
	
	
</defs><sodipodi:namedview
   pagecolor="#ffffff"
   bordercolor="#666666"
   borderopacity="1"
   objecttolerance="10"
   gridtolerance="10"
   guidetolerance="10"
   inkscape:pageopacity="0"
   inkscape:pageshadow="2"
   inkscape:window-width="1680"
   inkscape:window-height="982"
   id="namedview59"
   showgrid="false"
   inkscape:zoom="1.0951869"
   inkscape:cx="300.44251"
   inkscape:cy="264.98578"
   inkscape:window-x="0"
   inkscape:window-y="15"
   inkscape:window-maximized="1"
   inkscape:current-layer="Layer_1" />
<path
   style="fill:#ff5023"
   d="m 243.534,148.725 h -35.306 c 0,-11.637 -4.505,-16.666 -11.971,-24.997 -8.854,-9.882 -20.981,-23.417 -20.981,-48.557 0,-25.14 12.128,-38.674 20.981,-48.557 7.466,-8.331 11.971,-13.36 11.971,-24.997 h 35.306 c 0,25.14 -12.128,38.674 -20.981,48.557 -7.466,8.331 -11.971,13.36 -11.971,24.997 0,11.637 4.505,16.666 11.971,24.996 8.853,9.884 20.981,23.418 20.981,48.558 z"
   id="path2" /><path
   style="fill:#ffb922;fill-opacity:0.92816907"
   d="M 321.206,148.725 H 285.9 c 0,-11.637 -4.505,-16.666 -11.971,-24.997 -8.854,-9.882 -20.981,-23.417 -20.981,-48.557 0,-25.14 12.128,-38.674 20.981,-48.557 l 26.296,23.561 c -7.466,8.331 -11.971,13.36 -11.971,24.997 0,11.637 4.505,16.666 11.971,24.996 8.854,9.883 20.981,23.417 20.981,48.557 z"
   id="path4" />
<g
   id="g12">
	<path
   style="fill:#93C7EF;"
   d="M401.233,313.485v-35.306c26.599,0,44.05-5.122,54.917-16.117   c15.742-15.926,20.12-47.329,20.516-89.8H424.77v-35.306h86.961l0.204,17.447c0.723,61.897-4.155,105.649-30.672,132.478   C463.565,304.782,437.388,313.485,401.233,313.485z"
   id="path8" />
	<path
   style="fill:#93C7EF;"
   d="M5.884,136.956v75.119c0,46.706,14.52,91.357,41.99,129.13l89.791,123.462h171.876l89.791-123.462   c27.47-37.774,41.99-82.425,41.99-129.13v-75.119C441.322,136.956,5.884,136.956,5.884,136.956z"
   id="path10" />
</g>
<path
   style="fill:#78B9EB;"
   d="M224.704,136.956v327.71h84.838l89.791-123.462c27.47-37.772,41.99-82.424,41.99-129.129v-75.119  C441.322,136.956,224.704,136.956,224.704,136.956z"
   id="path14" />

<path
   style="fill:#AED5F3;"
   d="M0,437.055v26.253c0,25.957,21.118,47.074,47.074,47.074h353.058  c25.957,0,47.074-21.118,47.074-47.074v-26.253H0z"
   id="path24" />
<path
   style="fill:#93C7EF;"
   d="M224.704,437.055v73.328h175.429c25.957,0,47.074-21.118,47.074-47.074v-26.253H224.704z"
   id="path26" />
<g
   id="g28">
</g>
<g
   id="g30">
</g>
<g
   id="g32">
</g>
<g
   id="g34">
</g>
<g
   id="g36">
</g>
<g
   id="g38">
</g>
<g
   id="g40">
</g>
<g
   id="g42">
</g>
<g
   id="g44">
</g>
<g
   id="g46">
</g>
<g
   id="g48">
</g>
<g
   id="g50">
</g>
<g
   id="g52">
</g>
<g
   id="g54">
</g>
<g
   id="g56">
</g>
<text
   xml:space="preserve"
   style="font-style:normal;font-weight:normal;font-size:303.595px;line-height:1.25;font-family:sans-serif;letter-spacing:0px;word-spacing:0px;fill:#ffffff;fill-opacity:1;stroke:none;stroke-width:7.58987;"
   x="68.037895"
   y="405.59579"
   id="text896"
   transform="scale(1.1126874,0.89872503)"><tspan
     sodipodi:role="line"
     id="tspan894"
     x="68.037895"
     y="405.59579"
     style="font-style:normal;font-variant:normal;font-weight:normal;font-stretch:normal;font-size:303.595px;font-family:cmsy10;-inkscape-font-specification:'cmsy10, Normal';font-variant-ligatures:normal;font-variant-caps:normal;font-variant-numeric:normal;font-variant-east-asian:normal;stroke-width:7.58987;fill:#ffffff;fill-opacity:1;">H</tspan></text></svg>
