<?xml version="1.0" encoding="UTF-8" standalone="no"?>
<svg
   xmlns:dc="http://purl.org/dc/elements/1.1/"
   xmlns:cc="http://creativecommons.org/ns#"
   xmlns:rdf="http://www.w3.org/1999/02/22-rdf-syntax-ns#"
   xmlns:svg="http://www.w3.org/2000/svg"
   xmlns="http://www.w3.org/2000/svg"
   xmlns:sodipodi="http://sodipodi.sourceforge.net/DTD/sodipodi-0.dtd"
   xmlns:inkscape="http://www.inkscape.org/namespaces/inkscape"
   version="1.1"
   id="Layer_1"
   x="0px"
   y="0px"
   viewBox="0 0 455 455"
   style="enable-background:new 0 0 455 455;"
   xml:space="preserve"
   sodipodi:docname="insert-rows.svg"
   inkscape:version="1.0.2 (e86c870879, 2021-01-15)"><metadata
   id="metadata69"><rdf:RDF><cc:Work
       rdf:about=""><dc:format>image/svg+xml</dc:format><dc:type
         rdf:resource="http://purl.org/dc/dcmitype/StillImage" /><dc:title></dc:title></cc:Work></rdf:RDF></metadata><defs
   id="defs67">
	
	
	
	
	
	
	
	
	
	
	
	
	
	
	
</defs><sodipodi:namedview
   pagecolor="#ffffff"
   bordercolor="#666666"
   borderopacity="1"
   objecttolerance="10"
   gridtolerance="10"
   guidetolerance="10"
   inkscape:pageopacity="0"
   inkscape:pageshadow="2"
   inkscape:window-width="1680"
   inkscape:window-height="982"
   id="namedview65"
   showgrid="false"
   inkscape:zoom="0.61619305"
   inkscape:cx="409.99476"
   inkscape:cy="17.249346"
   inkscape:window-x="0"
   inkscape:window-y="15"
   inkscape:window-maximized="1"
   inkscape:current-layer="Layer_1" />
<rect
   x="40"
   y="317.595"
   style="fill:#9bfbff"
   width="98.333"
   height="60.189999"
   id="rect2" /><rect
   x="178.33299"
   y="117.215"
   style="fill:#9bfbff"
   width="49.167"
   height="60.189999"
   id="rect4" /><rect
   x="178.33299"
   y="317.595"
   style="fill:#9bfbff"
   width="49.167"
   height="60.189999"
   id="rect6" /><rect
   x="40"
   y="117.215"
   style="fill:#9bfbff"
   width="98.333"
   height="60.189999"
   id="rect8" /><rect
   x="40"
   y="217.405"
   style="fill:#43c309;fill-opacity:1"
   width="98.333"
   height="60.189999"
   id="rect10" /><rect
   x="178.33299"
   y="217.405"
   style="fill:#43c309;fill-opacity:1"
   width="49.167"
   height="60.189999"
   id="rect12" /><rect
   x="316.66699"
   y="217.405"
   style="fill:#008000"
   width="98.333"
   height="60.189999"
   id="rect14" /><rect
   x="227.5"
   y="117.215"
   style="fill:#46f8ff"
   width="49.167"
   height="60.189999"
   id="rect16" /><rect
   x="316.66699"
   y="117.215"
   style="fill:#46f8ff"
   width="98.333"
   height="60.189999"
   id="rect18" /><rect
   x="316.66699"
   y="317.595"
   style="fill:#46f8ff"
   width="98.333"
   height="60.189999"
   id="rect20" /><rect
   x="227.5"
   y="217.405"
   style="fill:#008000"
   width="49.167"
   height="60.189999"
   id="rect22" /><rect
   x="227.5"
   y="317.595"
   style="fill:#46f8ff"
   width="49.167"
   height="60.189999"
   id="rect24" /><path
   style="fill:#2488ff"
   d="m 415,117.215 v 60.19 h -98.333 v -60.19 h -40 v 60.19 h -98.334 v -60.19 h -40 v 60.19 H 40 v -60.19 H 0 v 300.57 H 455 V 117.215 Z M 40,317.595 h 98.333 v 60.19 H 40 Z m 138.333,0 h 98.334 v 60.19 h -98.334 z m 138.334,0 H 415 v 60.19 H 316.667 Z M 415,217.405 v 60.19 h -98.333 v -60.19 H 415 Z m -138.333,0 v 60.19 h -98.334 v -60.19 z m -138.334,0 v 60.19 H 40 v -60.19 z"
   id="path26" /><rect
   y="37.215"
   style="fill:#005ece"
   width="227.5"
   height="80"
   id="rect28"
   x="0" /><rect
   x="227.5"
   y="37.215"
   style="fill:#003f8a"
   width="227.5"
   height="80"
   id="rect30" />
<g
   id="g34">
</g>
<g
   id="g36">
</g>
<g
   id="g38">
</g>
<g
   id="g40">
</g>
<g
   id="g42">
</g>
<g
   id="g44">
</g>
<g
   id="g46">
</g>
<g
   id="g48">
</g>
<g
   id="g50">
</g>
<g
   id="g52">
</g>
<g
   id="g54">
</g>
<g
   id="g56">
</g>
<g
   id="g58">
</g>
<g
   id="g60">
</g>
<g
   id="g62">
</g>
</svg>
