<?xml version="1.0" encoding="iso-8859-1"?>
<!-- Generator: Adobe Illustrator 19.0.0, SVG Export Plug-In . SVG Version: 6.00 Build 0)  -->
<svg version="1.1" id="Layer_1" xmlns="http://www.w3.org/2000/svg" xmlns:xlink="http://www.w3.org/1999/xlink" x="0px" y="0px"
	 viewBox="0 0 511.983 511.983" style="enable-background:new 0 0 511.983 511.983;" xml:space="preserve">
<path style="fill:#FECD57;" d="M437.294,0H74.673C51.095,0,32.002,19.101,32.002,42.662c0,0,0,0.008,0,0.016v469.305H394.67V85.333
	L437.294,0z"/>
<path d="M415.981,85.333L415.981,85.333c0,0,0,0,0.031,0H415.981z"/>
<path style="fill:#F5BA45;" d="M437.294,0L437.294,0c-23.563,0-42.655,19.101-42.655,42.662c0,23.569,0,42.671,0,42.671h42.655l0,0
	c23.562,0,42.687-19.102,42.687-42.671C479.98,19.1,460.855,0,437.294,0z"/>
<g>
	<path style="fill:#424953;" d="M341.328,298.645h-21.343c0-5.875-4.781-10.655-10.656-10.655c-5.906,0-10.656,4.78-10.656,10.655
		c0-5.875-4.781-10.655-10.687-10.655c-5.876,0-10.656,4.78-10.656,10.655h-21.336c-5.89,0-10.671,4.781-10.671,10.688
		c0,5.874,4.781,10.656,10.671,10.656h85.334c5.874,0,10.655-4.782,10.655-10.656C351.983,303.427,347.202,298.645,341.328,298.645z
		"/>
	<path style="fill:#424953;" d="M99.125,103.535c1.922,1.938,4.594,3.125,7.546,3.125c2.938,0,5.61-1.188,7.531-3.125l13.797-13.788
		l13.78,13.788c1.938,1.938,4.609,3.125,7.547,3.125c2.953,0,5.609-1.188,7.547-3.125L178.2,82.208
		c1.938-1.93,3.125-4.594,3.125-7.547c0-5.891-4.766-10.664-10.656-10.664c-2.952,0-5.625,1.195-7.546,3.133l-13.797,13.781
		l-13.78-13.781c-1.938-1.938-4.594-3.133-7.547-3.133c-2.953,0-5.625,1.195-7.547,3.133l-13.781,13.781L92.875,67.13
		c-1.922-1.938-4.594-3.133-7.547-3.133c-5.89,0-10.655,4.773-10.655,10.664c0,2.953,1.188,5.617,3.125,7.547L99.125,103.535z"/>
	<path style="fill:#424953;" d="M341.328,426.641c-2.938,0-5.625,1.203-7.563,3.124l-13.78,13.813l-13.781-13.813
		c-1.938-1.921-4.594-3.124-7.531-3.124c-2.968,0-5.624,1.203-7.563,3.124l-13.78,13.813l-13.788-13.813
		c-1.938-1.921-4.609-3.124-7.548-3.124c-5.89,0-10.671,4.781-10.671,10.688c0,2.937,1.203,5.594,3.125,7.53l21.327,21.343
		c1.938,1.923,4.617,3.126,7.555,3.126s5.594-1.203,7.53-3.126l13.813-13.796l13.781,13.796c1.938,1.923,4.593,3.126,7.531,3.126
		c2.938,0,5.625-1.203,7.562-3.126l21.313-21.343c1.938-1.937,3.124-4.594,3.124-7.53
		C351.983,431.423,347.202,426.641,341.328,426.641z"/>
	<path style="fill:#424953;" d="M127.999,127.995c-29.452,0-53.326,23.874-53.326,53.334c0,29.453,23.874,53.327,53.326,53.327
		s53.326-23.874,53.326-53.327C181.325,151.869,157.451,127.995,127.999,127.995z M127.999,213.329
		c-17.641,0-31.999-14.359-31.999-32c0-17.647,14.358-31.998,31.999-31.998c17.64,0,31.999,14.351,31.999,31.998
		C159.998,198.97,145.638,213.329,127.999,213.329z"/>
	<path style="fill:#424953;" d="M127.999,191.993c5.891,0,10.672-4.773,10.672-10.664c0-5.89-4.781-10.671-10.672-10.671
		c-5.891,0-10.672,4.781-10.672,10.671C117.327,187.22,122.108,191.993,127.999,191.993z"/>
	<path style="fill:#424953;" d="M351.983,63.997h-106.66v106.661h106.66V63.997z M330.672,149.331h-64.006V85.333h64.006
		L330.672,149.331L330.672,149.331z"/>
	<path style="fill:#424953;" d="M85.328,277.335h21.343c5.891,0,10.656-4.782,10.656-10.68c0-5.891-4.766-10.664-10.656-10.664
		H85.328c-5.89,0-10.655,4.773-10.655,10.664C74.673,272.553,79.438,277.335,85.328,277.335z"/>
	<path style="fill:#424953;" d="M149.326,255.991c-5.891,0-10.655,4.773-10.655,10.664c0,5.897,4.765,10.68,10.655,10.68h21.343
		c5.891,0,10.656-4.782,10.656-10.68c0-5.891-4.766-10.664-10.656-10.664H149.326z"/>
	<polygon style="fill:#424953;" points="160.138,298.645 96,298.645 76.329,298.645 74.673,298.645 74.673,405.33 96,405.33 
		96,319.989 160.138,319.989 160.138,383.986 138.811,383.986 138.811,341.331 117.468,341.331 117.468,383.986 117.468,405.33 
		138.811,405.33 160.138,405.33 173.325,405.33 181.466,405.33 181.466,298.645 164.67,298.645 	"/>
	<path style="fill:#424953;" d="M170.669,447.985c-61.075,0-73.294-11.079-74.919-12.97c-1.063-4.78-5.313-8.374-10.422-8.374
		c-5.859,0-10.624,4.75-10.655,10.609l0,0c0,0.015,0,0.046,0,0.046s0,0.017,0,0.032v0.016c0,2.109,0.641,7.406,6.219,13.015
		c12.499,12.578,42.701,18.969,89.777,18.969c5.891,0,10.656-4.781,10.656-10.688C181.325,452.765,176.559,447.985,170.669,447.985z
		 M96,437.251c0-0.266-0.031-0.547-0.047-0.813C95.984,436.673,96,436.954,96,437.251z M96,437.391c0-0.016,0-0.031,0-0.047
		C96,437.36,96,437.36,96,437.391L96,437.391z"/>
	<path style="fill:#424953;" d="M245.323,351.988c0,29.467,23.874,53.342,53.35,53.342c29.437,0,53.311-23.875,53.311-53.342
		v-10.657H245.307L245.323,351.988z M328.828,362.643c-4.405,12.438-16.249,21.343-30.155,21.343
		c-13.937,0-25.78-8.905-30.194-21.343H328.828z"/>
	<path style="fill:#424953;" d="M298.735,191.993c-29.444,0-53.334,37.335-53.334,37.335s23.89,37.327,53.334,37.327
		c29.469,0,53.343-37.327,53.343-37.327S328.204,191.993,298.735,191.993z M321.078,233.187c-8.249,7.827-16.187,12.14-22.343,12.14
		c-6.155,0-14.094-4.313-22.311-12.14c-1.376-1.289-2.657-2.594-3.845-3.859c1.188-1.273,2.469-2.578,3.845-3.867
		c8.217-7.828,16.155-12.132,22.311-12.132s14.094,4.304,22.343,12.132c1.345,1.289,2.626,2.594,3.813,3.867
		C323.704,230.594,322.423,231.898,321.078,233.187z"/>
</g>
<path style="fill:#646C77;" d="M447.98,437.329c-11.78,0-21.343-9.578-21.343-21.344V164.416l21.343-21.335l21.312,21.335v251.569
	C469.292,427.751,459.73,437.329,447.98,437.329z"/>
<path style="fill:#424953;" d="M447.98,127.995l-31.999,31.999v255.991c0,17.671,14.313,32,31.999,32c17.656,0,32-14.329,32-32
	V159.994L447.98,127.995z M458.637,415.985c0,5.875-4.781,10.656-10.656,10.656s-10.687-4.781-10.687-10.656V168.83l10.687-10.664
	l10.656,10.664V415.985z"/>
<path style="fill:#F5BA45;" d="M212.715,0c-6.578,8.647-10.063,19.437-10.063,31.702v480.28h21.328V31.702
	c0-12.398,4.953-21.141,15.14-26.718c5.75-3.156,11.719-4.469,14.983-4.984C254.103,0,212.715,0,212.715,0z"/>
<g>
</g>
<g>
</g>
<g>
</g>
<g>
</g>
<g>
</g>
<g>
</g>
<g>
</g>
<g>
</g>
<g>
</g>
<g>
</g>
<g>
</g>
<g>
</g>
<g>
</g>
<g>
</g>
<g>
</g>
</svg>
