<?xml version="1.0" encoding="UTF-8" standalone="no"?>
<svg
   xmlns:osb="http://www.openswatchbook.org/uri/2009/osb"
   xmlns:dc="http://purl.org/dc/elements/1.1/"
   xmlns:cc="http://creativecommons.org/ns#"
   xmlns:rdf="http://www.w3.org/1999/02/22-rdf-syntax-ns#"
   xmlns:svg="http://www.w3.org/2000/svg"
   xmlns="http://www.w3.org/2000/svg"
   xmlns:sodipodi="http://sodipodi.sourceforge.net/DTD/sodipodi-0.dtd"
   xmlns:inkscape="http://www.inkscape.org/namespaces/inkscape"
   version="1.1"
   id="Capa_1"
   x="0px"
   y="0px"
   viewBox="0 0 58 58"
   style="enable-background:new 0 0 58 58;"
   xml:space="preserve"
   sodipodi:docname="number.svg"
   inkscape:version="1.0.2 (e86c870879, 2021-01-15)"><metadata
   id="metadata63"><rdf:RDF><cc:Work
       rdf:about=""><dc:format>image/svg+xml</dc:format><dc:type
         rdf:resource="http://purl.org/dc/dcmitype/StillImage" /><dc:title></dc:title></cc:Work></rdf:RDF></metadata><defs
   id="defs61"><linearGradient
   id="linearGradient912"
   osb:paint="solid"><stop
     style="stop-color:#888888;stop-opacity:1;"
     offset="0"
     id="stop910" /></linearGradient>
	
	
</defs><sodipodi:namedview
   pagecolor="#ffffff"
   bordercolor="#666666"
   borderopacity="1"
   objecttolerance="10"
   gridtolerance="10"
   guidetolerance="10"
   inkscape:pageopacity="0"
   inkscape:pageshadow="2"
   inkscape:window-width="1680"
   inkscape:window-height="982"
   id="namedview59"
   showgrid="false"
   inkscape:zoom="6.836207"
   inkscape:cx="22.638479"
   inkscape:cy="48.725998"
   inkscape:window-x="0"
   inkscape:window-y="15"
   inkscape:window-maximized="1"
   inkscape:current-layer="Capa_1"
   inkscape:document-rotation="0" />

<g
   id="g28">
</g>
<g
   id="g30">
</g>
<g
   id="g32">
</g>
<g
   id="g34">
</g>
<g
   id="g36">
</g>
<g
   id="g38">
</g>
<g
   id="g40">
</g>
<g
   id="g42">
</g>
<g
   id="g44">
</g>
<g
   id="g46">
</g>
<g
   id="g48">
</g>
<g
   id="g50">
</g>
<g
   id="g52">
</g>
<g
   id="g54">
</g>
<g
   id="g56">
</g>
<g
   id="g5"
   transform="translate(-77.207884,-98.052531)" /><g
   id="g7"
   transform="translate(-77.207884,-98.052531)" /><g
   id="g9"
   transform="translate(-77.207884,-98.052531)" /><g
   id="g11"
   transform="translate(-77.207884,-98.052531)" /><g
   id="g13"
   transform="translate(-77.207884,-98.052531)" /><g
   id="g15"
   transform="translate(-77.207884,-98.052531)" /><g
   id="g17"
   transform="translate(-77.207884,-98.052531)" /><g
   id="g19"
   transform="translate(-77.207884,-98.052531)" /><g
   id="g21"
   transform="translate(-77.207884,-98.052531)" /><g
   id="g23"
   transform="translate(-77.207884,-98.052531)" /><g
   id="g25"
   transform="translate(-77.207884,-98.052531)" /><g
   id="g27"
   transform="translate(-77.207884,-98.052531)" /><g
   id="g29"
   transform="translate(-77.207884,-98.052531)" /><g
   id="g31"
   transform="translate(-77.207884,-98.052531)" /><g
   id="g33"
   transform="translate(-77.207884,-98.052531)" /><g
   id="g762"
   transform="matrix(0.07581043,0,0,0.05024763,-65.462754,-54.95575)"><path
     fill="#fd0100"
     stroke="#fd0100"
     stroke-width="0.0938"
     d="m 1294.05,1463.8199 c 14.7799,-2.9099 29.98,-2.86 44.96,-1.74 19.54,1.39 39.34,6.15 55.85,17.0701 16.04,10.4399 28.42,25.61 38.25,41.86 10.83,17.95 18.6,37.8 22.35,58.45 3.8501,20 2.15,40.52 0.02,60.62 -4.25,35.24 -14.16,69.8401 -29.5699,101.8301 -14.0601,29.1699 -32.9301,56.1799 -56.51,78.45 -19.37,17.55 -40.41,33.61 -63.98,45.12 -14.9601,7.24 -30.7101,12.84 -46.8301,16.87 -6.4099,1.13 -13.09,2.78 -19.5599,1.25 -4.79,-1.23 -8.24,-5.6899 -8.4601,-10.59 -0.8099,-6.73 4.1101,-12.86 10.04,-15.41 18.4,-7.0399 34.5701,-18.84 48.87,-32.21 34.34,-33.13 57.5,-77.41 66.05,-124.29 -19.25,11.8101 -42.3101,15.48 -64.5701,15.5 -19.52,0.14 -39.3199,-4.91 -55.59,-15.9 -17.1899,-11.2899 -29.89,-28.5399 -37.63,-47.4299 -8.03,-19.29 -10.97,-40.61 -8.67,-61.37 2.3101,-22.98 9.1001,-45.51 19.8501,-65.9501 7.4299,-14.1599 17.4199,-27.13 30.4399,-36.59 15.9801,-12.4801 34.6501,-21.8601 54.6901,-25.5402 m 10.18,6.5301 c -19.66,2.04 -38.61,9.74 -54.53,21.38 -9.86,6.92 -19.2,14.9501 -25.9099,25.05 -3.0701,4.7 -6.29,9.34 -8.67,14.4399 -10.47,20.75 -17.04,43.5701 -18.58,66.78 -1.62,22.9 3.84,46.21 15.39,66.04 9.38,16.74 24.4199,30.3099 42.1499,37.71 8.26,3.46 17.11,5.24 25.9601,6.46 22.23,1.4401 45.39,-0.64 65.61,-10.6599 3.2999,-1.64 6.0399,-4.1801 9.27,-5.9501 3.14,-0.3199 6.3199,-0.06 9.48,0.05 0.6799,3.85 -0.66,7.64 -1.16,11.4399 -6.83,37.6901 -23.1,73.5 -46.38,103.86 -19.52,24.3401 -43.4299,46.3601 -72.85,57.89 -3.34,1.4701 -6.9301,5.2001 -5.09,9.0801 0.7699,2.6 3.88,2.1699 6.0199,2.3199 8.8701,-0.37 17.42,-3.03 25.8701,-5.5599 17.99,-5.6901 35.2999,-13.54 51.2799,-23.6001 23.2101,-15.49 45.37,-33.1799 62.8201,-55.12 21.1699,-25.8099 36.83,-55.84 47.72,-87.3199 11.96,-35.53 18.4,-73.1801 16.88,-110.72 -2.27,-21.42 -8.64,-42.4701 -19.04,-61.37 -8.37,-15.8201 -19.33,-30.5601 -33.33,-41.8301 -17.8,-14.88 -41.48,-20.03 -64.12,-21.12 -9.6001,-0.1098 -19.2701,-0.7198 -28.7901,0.7502 z"
     id="path756" /><path
     fill="#c2272d"
     stroke="#c2272d"
     stroke-width="0.0938"
     d="m 1304.23,1470.35 c 9.52,-1.47 19.1901,-0.86 28.79,-0.75 22.64,1.09 46.3199,6.24 64.12,21.12 14,11.27 24.96,26.01 33.33,41.8301 10.4,18.8999 16.77,39.95 19.04,61.37 1.52,37.5399 -4.92,75.1899 -16.88,110.72 -10.89,31.48 -26.55,61.51 -47.72,87.3199 -17.4501,21.9401 -39.61,39.63 -62.8201,55.12 -15.98,10.0601 -33.2899,17.91 -51.2799,23.6001 -8.4501,2.5299 -17,5.1899 -25.8701,5.5599 -2.1399,-0.15 -5.25,0.28 -6.0199,-2.3199 -1.8401,-3.88 1.75,-7.61 5.09,-9.0801 29.42,-11.5299 53.33,-33.5499 72.85,-57.89 23.28,-30.36 39.55,-66.1699 46.38,-103.86 0.5,-3.7999 1.84,-7.59 1.16,-11.4399 -3.16,-0.11 -6.34,-0.37 -9.48,-0.05 -3.2301,1.77 -5.9701,4.3101 -9.27,5.9501 -20.22,10.0199 -43.38,12.1 -65.61,10.6599 -8.8501,-1.22 -17.7001,-3 -25.9601,-6.46 -17.73,-7.4 -32.7699,-20.97 -42.1499,-37.71 -11.55,-19.8301 -17.01,-43.14 -15.39,-66.04 1.5399,-23.21 8.11,-46.03 18.58,-66.78 2.38,-5.1 5.6,-9.74 8.67,-14.4399 6.71,-10.1 16.0499,-18.13 25.9099,-25.05 15.9201,-11.6402 34.87,-19.3402 54.5301,-21.3802 m 7.12,14.14 c -14.2,2.61 -25.71,13.1 -32.4299,25.52 -10.1901,18.9299 -12.89,40.8099 -13.3501,62.02 -0.1799,24.58 3.0601,49.6699 13.2201,72.25 6.1,12.6799 14.3999,25.02 26.83,32.2 11.58,6.99 26.1801,6.92 38.77,2.91 5.8099,-1.55 11.09,-4.62 15.72,-8.4 4.12,-3.58 6.54,-8.65 7.88,-13.85 3.6801,-14.04 3.72,-28.65 4.09,-43.0601 0.3301,-23.36 0.4401,-46.86 -2.85,-70.0199 -1.5599,-10.88 -3.87,-21.76 -8.4299,-31.8 -3.7001,-9.41 -9.91,-18.1 -18.54,-23.55 -9.1602,-5.69 -20.5602,-6.31 -30.9102,-4.22 z"
     id="path758" /><path
     fill="#fd0000"
     stroke="#fd0000"
     stroke-width="0.0938"
     d="m 1311.35,1484.49 c 10.35,-2.09 21.75,-1.47 30.91,4.22 8.63,5.4501 14.84,14.14 18.54,23.55 4.5599,10.04 6.87,20.92 8.4299,31.8 3.29,23.1599 3.1801,46.6599 2.85,70.0199 -0.37,14.41 -0.4099,29.02 -4.09,43.0601 -1.34,5.2 -3.76,10.27 -7.88,13.85 -4.63,3.78 -9.91,6.85 -15.72,8.4 -12.59,4.01 -27.1901,4.08 -38.77,-2.91 -12.4301,-7.1799 -20.73,-19.52 -26.83,-32.2 -10.16,-22.5801 -13.4,-47.67 -13.2201,-72.25 0.4601,-21.2101 3.16,-43.0901 13.3501,-62.02 6.7201,-12.42 18.2301,-22.91 32.4301,-25.52 m 2.74,7.63 c -9.58,1.55 -18.0499,7.39 -23.8199,15.0601 -6.46,8.48 -10.26,18.6699 -12.6901,28.97 -4.62,20.5699 -5,41.95 -2.74,62.87 2.5,19.61 7.73,39.52 19.26,55.88 6.0701,8.5499 14.5,16.08 24.9501,18.52 8.63,1.74 17.71,0.4399 25.9199,-2.5801 5.5801,-2.49 11.85,-5.6699 14,-11.83 2.9601,-7.97 3.77,-16.52 4.4401,-24.92 1.11,-17.99 0.96,-36.0299 0.74,-54.0499 -0.75,-19.88 -2.02,-40.0901 -8.41,-59.0901 -3.33,-9.5 -8.21,-19.1599 -16.8099,-24.9199 C 1331.7,1491.17 1322.45,1490.45 1314.09,1492.12 Z"
     id="path760" /></g><g
   id="g734"
   transform="matrix(0.07573113,0,0,0.05478269,-25.753017,-35.6777)"><path
     fill="#8cc63d"
     stroke="#8cc63d"
     stroke-width="0.0938"
     d="m 517.96,960.02 c 27.46,-3.77 56.45,0.37 80.61,14.4 19.58,11.08 35.81,28.12 45.5,48.46 10.57,20.9301 12.95,45.16 9.77,68.1899 -2.59,20.2201 -9.45,39.76 -19.15,57.64 -19.19,35.49 -47.54,64.88 -76.89,92.11 -21.56,19.78 -43.68,38.9301 -65.65,58.26 -0.91,0.7101 -1.78,1.52 -2.32,2.5801 31.06,0.13 62.13,0.03 93.19,0.05 10.75,0.17 21.71,-1.5399 31.39,-6.38 16.23,-7.98 26.29,-23.76 35.07,-38.89 2.16,-4.0399 7.11,-6.33 11.48,-4.4399 4.93,2.05 11.25,4.28 12.8,10.03 1.15,3.0599 -0.68,6.1699 -1.7,9.03 -13.65,35.6599 -27.39,71.2999 -41.03,106.97 -1.41,3.73 -3.94,7.48 -8.0601,8.4399 -3.71,0.39 -7.93,1 -11.22,-1.1899 -3.28,-1.9301 -3.63,-6.25 -6.23,-8.77 -2.71,-1.9301 -6.06,-2.5 -9.26,-2.97 -9.39,-1.15 -18.86,-0.8501 -28.29,-0.9 -35.31,0 -70.62,0 -105.93,0 -12.38,0.08 -24.77,-0.3101 -37.13,0.58 -10.68,0.29 -21.33,1.6901 -32,1.77 -4.46,0 -7.85,-3.9 -8.86,-7.96 -1.27,-6.1901 0.82,-13.14 5.8,-17.16 30.49,-28.14 60.02,-57.4 87.44,-88.55 23.81,-27.74 47.53,-56.1699 64.22,-88.9199 10.87,-21.26 18.6,-44.41 20.31,-68.3301 1.75,-20.38 -0.75,-42.1699 -12.4,-59.5 -8.75,-13.58 -23.45,-23.1099 -39.46,-25.4 -23.9,-3.98 -48.36,6.82 -64.34,24.4 -5.69,6.16 -10.74,12.89 -15,20.12 -1.9,3.2301 -5.59,6.2001 -9.57,4.9901 -4.32,-1.4501 -8.5,-3.3501 -12.72,-5.0601 -3.68,-2.29 -4.24,-7.0599 -2.55,-10.76 8.93,-22.73 22.48,-43.88 40.68,-60.28 C 466.07,974.52 491.56,963.25 517.96,960.02 m -51.69,27.2 c -21.27,14.05 -37.55,34.73 -48.33,57.6801 -1.68,3.91 -4.16,7.6 -4.77,11.89 3.11,1.6599 6.43,3.1599 9.91,3.86 10.77,-18.12 25.74,-34.62 45.28,-43.33 21.99,-10.11 49.55,-9.45 69.73,4.55 12.84,8.4 21.74,21.79 26.79,36.1 7.29,21.2001 6.32,44.24 2.21,65.99 -7.4901,38.4301 -28.1201,72.78 -51.66,103.49 -35.87,46.62 -77.17,88.8 -120.47,128.52 -3.28,2.53 -3.89,7.0801 -2.74,10.86 9.22,0.52 18.49,-1.0399 27.74,-1.34 23.66,-1.5 47.39,-0.5599 71.08,-0.8199 31.32,0.05 62.63,-0.12 93.94,0.09 8.02,0.6899 16.65,0.21 23.85,4.37 3.65,2.13 5.44,6.02 7.38,9.58 2.47,0.17 6.17,0.8 6.95,-2.39 11.25,-29.1699 22.31,-58.4299 33.6201,-87.58 2.8799,-8.26 6.71,-16.24 9.1,-24.62 -1.79,-2.8 -5.79,-4.08 -8.99,-4.65 -6.94,12.36 -14.78,24.54 -25.49,34 -9.36,8.13 -21.12,13.3401 -33.35,15.2001 -8.61,1.46 -17.37,0.7899 -26.05,0.95 -31.3,0.02 -62.59,-0.04 -93.89,0.04 -0.49,-3.3101 -1.46,-7.6801 1.65,-9.98 31.89,-29.0701 65.37,-56.42 95.79,-87.0901 25.46,-26.11 49.14,-55.24 62.23,-89.6799 7.89,-21.3201 11.2599,-44.5 8.37,-67.11 -3.52,-22.14 -14.19,-43.15 -30.39,-58.6901 -16.8,-16.24 -39.02,-26.46 -62.12,-29.48 C 523.5,964.07 491.7,970.25 466.27,987.22 Z"
     id="path730" /><path
     fill="#c5df96"
     stroke="#c5df96"
     stroke-width="0.0938"
     d="m 466.27,987.22 c 25.43,-16.97 57.23,-23.15 87.37,-19.59 23.1,3.02 45.32,13.24 62.12,29.48 16.2,15.54 26.87,36.55 30.39,58.6901 2.89,22.61 -0.48,45.7899 -8.37,67.11 -13.09,34.4399 -36.77,63.5699 -62.23,89.6799 -30.42,30.67 -63.9,58.02 -95.79,87.0901 -3.11,2.2999 -2.14,6.6699 -1.65,9.98 31.3,-0.08 62.59,-0.02 93.89,-0.04 8.68,-0.16 17.44,0.51 26.05,-0.95 12.23,-1.86 23.99,-7.0701 33.35,-15.2001 10.71,-9.46 18.55,-21.64 25.49,-34 3.2,0.5701 7.2,1.85 8.99,4.65 -2.39,8.38 -6.22,16.36 -9.1,24.62 -11.3101,29.15 -22.3701,58.41 -33.6201,87.58 -0.78,3.1901 -4.48,2.5601 -6.95,2.39 -1.94,-3.5599 -3.73,-7.45 -7.38,-9.58 -7.2,-4.16 -15.83,-3.6801 -23.85,-4.37 -31.31,-0.21 -62.62,-0.04 -93.94,-0.09 -23.69,0.26 -47.42,-0.6801 -71.08,0.8199 -9.25,0.3 -18.52,1.86 -27.74,1.34 -1.15,-3.7799 -0.54,-8.33 2.74,-10.86 43.3,-39.72 84.6,-81.9 120.47,-128.52 23.54,-30.71 44.17,-65.0599 51.66,-103.49 4.11,-21.75 5.08,-44.7899 -2.21,-65.99 -5.05,-14.3099 -13.95,-27.7 -26.79,-36.1 -20.1801,-14 -47.74,-14.66 -69.73,-4.55 -19.54,8.71 -34.51,25.21 -45.28,43.33 -3.48,-0.7001 -6.8,-2.2001 -9.91,-3.86 0.61,-4.29 3.09,-7.98 4.77,-11.89 C 428.72,1021.95 445,1001.27 466.27,987.22 Z"
     id="path732" /></g></svg>
