<?xml version="1.0" encoding="iso-8859-1"?>
<!-- Generator: Adobe Illustrator 19.0.0, SVG Export Plug-In . SVG Version: 6.00 Build 0)  -->
<svg version="1.1" id="Layer_1" xmlns="http://www.w3.org/2000/svg" xmlns:xlink="http://www.w3.org/1999/xlink" x="0px" y="0px"
	 viewBox="0 0 512 512" style="enable-background:new 0 0 512 512;" xml:space="preserve">
<path style="fill:#D6D5D8;" d="M472.328,128.186c-0.39-2.305-1.179-4.534-2.359-6.575c-23.79-41.121-68.049-66.668-115.507-66.668
	v19.692v19.692v30.58v59.077v35.524h-39.385v-35.524v-59.077v-21.876v-21.37v-20.72C292.5,67.959,272.049,80.895,256,98.415
	c-25.009-27.3-60.718-43.471-98.462-43.471c-47.458,0-91.718,25.545-115.507,66.668c-1.179,2.04-1.969,4.268-2.359,6.575
	c-0.185,1.083-0.288,2.181-0.288,3.287v231.985c0,8.91,5.983,16.71,14.587,19.019c1.697,0.456,3.411,0.666,5.106,0.666
	c6.903,0,13.464-3.633,17.046-9.825c0.844-1.457,1.732-2.879,2.647-4.28c0.119-0.184,0.236-0.369,0.356-0.55
	c0.253-0.383,0.512-0.761,0.771-1.141c0.314-0.46,0.631-0.918,0.954-1.371c0.264-0.371,0.532-0.74,0.801-1.108
	c0.328-0.449,0.662-0.895,0.998-1.338c0.274-0.36,0.55-0.718,0.828-1.074c0.347-0.44,0.694-0.876,1.048-1.309
	c0.281-0.347,0.565-0.692,0.849-1.033c0.362-0.433,0.731-0.861,1.1-1.287c0.288-0.331,0.575-0.662,0.866-0.989
	c0.379-0.427,0.767-0.847,1.154-1.264c0.293-0.315,0.584-0.633,0.881-0.944c0.402-0.42,0.807-0.834,1.216-1.247
	c0.294-0.298,0.586-0.596,0.884-0.889c0.423-0.417,0.853-0.827,1.285-1.237c0.293-0.277,0.582-0.558,0.878-0.831
	c0.454-0.419,0.915-0.83,1.377-1.239c0.282-0.251,0.561-0.505,0.845-0.752c0.498-0.432,1.004-0.852,1.508-1.273
	c0.259-0.215,0.515-0.436,0.776-0.648c0.58-0.473,1.17-0.932,1.76-1.39c0.193-0.15,0.385-0.306,0.579-0.454
	c1.591-1.214,3.22-2.378,4.884-3.487c0.156-0.105,0.316-0.203,0.474-0.307c0.671-0.441,1.344-0.88,2.027-1.304
	c0.267-0.165,0.537-0.324,0.805-0.487c0.579-0.353,1.159-0.706,1.746-1.045c0.314-0.182,0.633-0.356,0.949-0.536
	c0.547-0.308,1.095-0.617,1.648-0.915c0.345-0.185,0.693-0.364,1.04-0.545c0.532-0.278,1.065-0.557,1.603-0.824
	c0.365-0.182,0.735-0.357,1.103-0.536c0.463-0.223,0.926-0.445,1.393-0.66c0.062-0.029,0.123-0.059,0.186-0.088
	c0.383-0.176,0.769-0.347,1.155-0.517c0.521-0.232,1.045-0.462,1.571-0.685c0.395-0.167,0.79-0.328,1.187-0.488
	c0.523-0.213,1.048-0.424,1.574-0.628c0.408-0.158,0.815-0.309,1.224-0.461c0.522-0.194,1.049-0.383,1.577-0.568
	c0.415-0.146,0.831-0.287,1.248-0.427c0.528-0.176,1.057-0.348,1.589-0.516c0.421-0.133,0.843-0.263,1.266-0.389
	c0.533-0.16,1.069-0.314,1.606-0.463c0.425-0.119,0.853-0.238,1.283-0.352c0.536-0.142,1.074-0.276,1.613-0.408
	c0.435-0.106,0.869-0.214,1.305-0.314c0.541-0.125,1.084-0.243,1.628-0.357c0.436-0.092,0.87-0.186,1.308-0.272
	c0.549-0.109,1.103-0.207,1.655-0.306c0.437-0.079,0.873-0.159,1.31-0.23c0.561-0.092,1.121-0.173,1.683-0.255
	c0.433-0.063,0.865-0.13,1.3-0.188c0.575-0.075,1.154-0.138,1.732-0.203c0.424-0.047,0.848-0.101,1.275-0.142
	c0.604-0.059,1.212-0.104,1.82-0.152c0.4-0.031,0.8-0.07,1.201-0.096c0.68-0.045,1.36-0.074,2.043-0.104
	c0.331-0.014,0.662-0.037,0.995-0.047c1.015-0.033,2.034-0.051,3.054-0.051s2.039,0.018,3.054,0.051
	c0.333,0.01,0.664,0.033,0.995,0.047c0.683,0.03,1.363,0.058,2.043,0.104c0.402,0.026,0.801,0.064,1.201,0.096
	c0.608,0.049,1.216,0.093,1.82,0.152c0.427,0.042,0.849,0.095,1.275,0.142c0.578,0.064,1.157,0.129,1.732,0.203
	c0.435,0.058,0.866,0.123,1.3,0.188c0.562,0.081,1.122,0.163,1.683,0.255c0.437,0.072,0.873,0.152,1.31,0.23
	c0.553,0.098,1.107,0.198,1.655,0.306c0.437,0.085,0.872,0.18,1.308,0.272c0.544,0.116,1.087,0.232,1.628,0.357
	c0.436,0.101,0.87,0.207,1.305,0.314c0.538,0.133,1.077,0.268,1.613,0.408c0.428,0.114,0.856,0.232,1.284,0.352
	c0.536,0.15,1.07,0.303,1.604,0.463c0.423,0.126,0.844,0.256,1.266,0.389c0.532,0.167,1.061,0.339,1.589,0.516
	c0.417,0.139,0.834,0.281,1.249,0.427c0.528,0.185,1.054,0.375,1.577,0.568c0.408,0.151,0.815,0.303,1.224,0.461
	c0.526,0.203,1.052,0.414,1.574,0.628c0.398,0.161,0.793,0.322,1.187,0.488c0.526,0.222,1.05,0.453,1.571,0.685
	c0.386,0.171,0.772,0.341,1.155,0.517c0.529,0.243,1.054,0.495,1.578,0.748c0.368,0.177,0.738,0.353,1.103,0.536
	c0.538,0.268,1.07,0.546,1.603,0.824c0.347,0.181,0.694,0.358,1.04,0.545c0.553,0.298,1.1,0.607,1.648,0.915
	c0.315,0.179,0.634,0.352,0.949,0.536c0.587,0.34,1.167,0.692,1.746,1.045c0.268,0.163,0.538,0.32,0.805,0.487
	c0.683,0.424,1.356,0.863,2.027,1.304c0.158,0.104,0.318,0.202,0.474,0.307c1.663,1.109,3.293,2.274,4.884,3.487
	c0.194,0.148,0.386,0.305,0.579,0.454c0.591,0.458,1.179,0.918,1.76,1.39c0.261,0.213,0.517,0.433,0.776,0.648
	c0.505,0.421,1.012,0.842,1.508,1.273c0.284,0.247,0.562,0.499,0.843,0.75c0.463,0.411,0.926,0.823,1.382,1.243
	c0.295,0.273,0.583,0.553,0.874,0.83c0.432,0.408,0.863,0.818,1.285,1.235c0.299,0.295,0.592,0.596,0.889,0.894
	c0.406,0.411,0.813,0.823,1.212,1.243c0.297,0.311,0.588,0.628,0.881,0.944c0.097,0.106,0.194,0.214,0.293,0.32
	c0.287,0.314,0.576,0.626,0.861,0.945c0.293,0.327,0.579,0.658,0.866,0.989c0.369,0.425,0.738,0.853,1.1,1.287
	c0.286,0.341,0.57,0.687,0.849,1.033c0.353,0.433,0.701,0.87,1.048,1.309c0.278,0.356,0.554,0.714,0.828,1.074
	c0.336,0.442,0.67,0.889,0.998,1.338c0.269,0.368,0.537,0.737,0.801,1.108c0.322,0.453,0.639,0.911,0.954,1.371
	c0.259,0.379,0.517,0.758,0.771,1.141c0.121,0.182,0.238,0.368,0.356,0.55c0.914,1.401,1.803,2.823,2.647,4.28
	c0.102,0.177,0.217,0.347,0.324,0.52c0.091,0.146,0.179,0.294,0.273,0.437c0.231,0.352,0.473,0.693,0.723,1.027
	c0.041,0.054,0.077,0.109,0.118,0.163c0.305,0.399,0.628,0.782,0.958,1.153c0.062,0.068,0.129,0.133,0.19,0.2
	c0.272,0.294,0.549,0.579,0.836,0.853c0.108,0.104,0.218,0.202,0.328,0.303c0.255,0.234,0.516,0.461,0.782,0.68
	c0.126,0.104,0.249,0.206,0.377,0.306c0.282,0.221,0.572,0.432,0.865,0.637c0.112,0.079,0.221,0.161,0.335,0.238
	c0.4,0.267,0.806,0.519,1.224,0.754c0.116,0.066,0.239,0.125,0.356,0.189c0.315,0.169,0.631,0.332,0.956,0.486
	c0.161,0.076,0.324,0.147,0.488,0.219c0.309,0.137,0.622,0.263,0.939,0.383c0.151,0.056,0.301,0.116,0.454,0.169
	c0.452,0.159,0.907,0.305,1.372,0.431c0.016,0.004,0.028,0.009,0.043,0.013c0.003,0,0.005,0,0.008,0.001
	c0.487,0.131,0.982,0.239,1.48,0.332c0.137,0.025,0.274,0.045,0.411,0.068c0.36,0.059,0.722,0.109,1.086,0.15
	c0.159,0.017,0.318,0.033,0.475,0.047c0.366,0.031,0.735,0.05,1.104,0.059c0.133,0.004,0.264,0.012,0.395,0.013
	c0.049,0,0.097-0.004,0.146-0.004c0.441,0,0.884-0.008,1.322-0.037c0.083-0.005,0.165-0.018,0.247-0.024
	c0.403-0.031,0.802-0.076,1.205-0.134c0.168-0.024,0.335-0.054,0.503-0.083c0.315-0.053,0.631-0.113,0.949-0.184
	c0.179-0.039,0.356-0.08,0.533-0.125c0.265-0.066,0.528-0.143,0.79-0.219c0.272-0.08,0.542-0.163,0.81-0.255
	c0.255-0.087,0.507-0.181,0.756-0.277c0.244-0.095,0.484-0.192,0.726-0.297c0.259-0.112,0.515-0.231,0.768-0.353
	c0.223-0.109,0.445-0.222,0.664-0.339c0.252-0.135,0.502-0.274,0.746-0.419c0.214-0.127,0.425-0.257,0.635-0.393
	c0.235-0.151,0.465-0.307,0.693-0.467c0.21-0.15,0.419-0.303,0.626-0.461c0.21-0.161,0.417-0.328,0.624-0.498
	c0.209-0.175,0.414-0.353,0.617-0.536c0.189-0.172,0.373-0.347,0.555-0.524c0.2-0.196,0.396-0.395,0.588-0.601
	c0.173-0.185,0.343-0.374,0.509-0.566c0.182-0.209,0.358-0.42,0.53-0.638c0.167-0.209,0.328-0.421,0.484-0.637
	c0.155-0.213,0.307-0.425,0.456-0.646c0.16-0.239,0.314-0.483,0.463-0.729c0.081-0.131,0.169-0.253,0.247-0.386
	c0.844-1.457,1.732-2.879,2.647-4.28c0.119-0.184,0.236-0.369,0.356-0.55c0.253-0.383,0.512-0.761,0.771-1.141
	c0.314-0.46,0.631-0.918,0.954-1.371c0.264-0.371,0.532-0.74,0.801-1.108c0.328-0.449,0.662-0.895,0.998-1.338
	c0.274-0.36,0.55-0.718,0.828-1.074c0.347-0.44,0.694-0.876,1.048-1.309c0.281-0.347,0.565-0.692,0.849-1.033
	c0.362-0.433,0.731-0.861,1.1-1.287c0.288-0.331,0.575-0.662,0.866-0.989c0.285-0.319,0.575-0.63,0.861-0.945
	c0.097-0.106,0.194-0.214,0.293-0.32c0.293-0.315,0.584-0.633,0.881-0.944c0.402-0.42,0.807-0.834,1.216-1.247
	c0.294-0.298,0.586-0.596,0.884-0.889c0.423-0.417,0.853-0.827,1.285-1.237c0.293-0.277,0.582-0.558,0.878-0.831
	c0.454-0.419,0.915-0.83,1.377-1.239c0.282-0.251,0.561-0.505,0.845-0.752c0.498-0.432,1.004-0.852,1.508-1.273
	c0.259-0.215,0.515-0.436,0.776-0.648c0.58-0.473,1.17-0.932,1.76-1.39c0.193-0.15,0.385-0.306,0.579-0.454
	c1.591-1.214,3.22-2.378,4.884-3.487c0.156-0.105,0.316-0.203,0.474-0.307c0.671-0.441,1.344-0.88,2.027-1.304
	c0.266-0.165,0.537-0.324,0.805-0.487c0.579-0.353,1.159-0.706,1.746-1.045c0.314-0.182,0.633-0.356,0.949-0.536
	c0.547-0.308,1.095-0.617,1.648-0.915c0.345-0.185,0.693-0.364,1.04-0.545c0.532-0.278,1.065-0.557,1.603-0.824
	c0.365-0.182,0.735-0.357,1.103-0.536c0.524-0.253,1.049-0.505,1.578-0.748c0.383-0.176,0.769-0.347,1.155-0.517
	c0.521-0.232,1.045-0.462,1.571-0.685c0.395-0.167,0.79-0.328,1.187-0.488c0.522-0.213,1.048-0.424,1.574-0.628
	c0.408-0.158,0.815-0.309,1.224-0.461c0.522-0.194,1.049-0.383,1.577-0.568c0.415-0.146,0.831-0.287,1.249-0.427
	c0.528-0.176,1.057-0.348,1.589-0.516c0.421-0.133,0.843-0.263,1.266-0.389c0.533-0.16,1.069-0.314,1.606-0.463
	c0.425-0.119,0.853-0.238,1.283-0.352c0.536-0.142,1.074-0.276,1.613-0.408c0.435-0.106,0.869-0.214,1.305-0.314
	c0.541-0.125,1.084-0.243,1.628-0.357c0.436-0.092,0.87-0.186,1.308-0.272c0.549-0.109,1.103-0.207,1.655-0.306
	c0.437-0.079,0.873-0.159,1.31-0.23c0.561-0.092,1.121-0.173,1.683-0.255c0.433-0.063,0.865-0.13,1.3-0.188
	c0.575-0.075,1.154-0.138,1.732-0.203c0.424-0.047,0.848-0.101,1.275-0.142c0.604-0.059,1.212-0.104,1.82-0.152
	c0.4-0.031,0.799-0.07,1.201-0.096c0.68-0.045,1.36-0.074,2.043-0.104c0.331-0.014,0.662-0.037,0.995-0.047
	c1.015-0.033,2.034-0.051,3.054-0.051c1.02,0,2.039,0.018,3.054,0.051c0.333,0.01,0.664,0.033,0.995,0.047
	c0.683,0.03,1.363,0.058,2.043,0.104c0.402,0.026,0.801,0.064,1.201,0.096c0.608,0.049,1.216,0.093,1.82,0.152
	c0.427,0.042,0.849,0.095,1.275,0.142c0.578,0.064,1.157,0.129,1.732,0.203c0.435,0.058,0.866,0.123,1.3,0.188
	c0.562,0.081,1.122,0.163,1.683,0.255c0.437,0.072,0.873,0.152,1.31,0.23c0.553,0.098,1.107,0.198,1.655,0.306
	c0.437,0.085,0.872,0.18,1.308,0.272c0.544,0.116,1.087,0.232,1.628,0.357c0.436,0.101,0.87,0.207,1.305,0.314
	c0.538,0.133,1.077,0.268,1.613,0.408c0.428,0.114,0.856,0.232,1.284,0.352c0.536,0.15,1.07,0.303,1.604,0.463
	c0.423,0.126,0.844,0.256,1.266,0.389c0.532,0.167,1.061,0.339,1.589,0.516c0.417,0.139,0.834,0.281,1.249,0.427
	c0.528,0.185,1.054,0.375,1.577,0.568c0.408,0.151,0.815,0.303,1.224,0.461c0.526,0.203,1.052,0.414,1.574,0.628
	c0.398,0.161,0.793,0.322,1.187,0.488c0.526,0.222,1.05,0.453,1.571,0.685c0.386,0.171,0.772,0.341,1.155,0.517
	c0.063,0.028,0.125,0.059,0.186,0.088c0.466,0.215,0.93,0.437,1.393,0.66c0.368,0.177,0.738,0.353,1.103,0.536
	c0.538,0.268,1.07,0.546,1.603,0.824c0.347,0.181,0.694,0.358,1.04,0.545c0.553,0.298,1.1,0.607,1.648,0.915
	c0.315,0.179,0.634,0.352,0.949,0.536c0.587,0.34,1.167,0.692,1.746,1.045c0.268,0.163,0.538,0.32,0.805,0.487
	c0.683,0.424,1.356,0.863,2.027,1.304c0.158,0.104,0.318,0.202,0.474,0.307c1.663,1.109,3.293,2.274,4.884,3.487
	c0.194,0.148,0.386,0.305,0.579,0.454c0.591,0.458,1.179,0.918,1.76,1.39c0.261,0.213,0.517,0.433,0.776,0.648
	c0.505,0.421,1.012,0.842,1.508,1.273c0.284,0.247,0.562,0.499,0.843,0.75c0.463,0.411,0.926,0.823,1.382,1.243
	c0.295,0.273,0.583,0.553,0.874,0.83c0.432,0.408,0.863,0.818,1.285,1.235c0.299,0.295,0.592,0.596,0.889,0.894
	c0.406,0.411,0.813,0.823,1.212,1.243c0.297,0.311,0.588,0.628,0.881,0.944c0.387,0.419,0.775,0.839,1.154,1.264
	c0.293,0.327,0.579,0.658,0.866,0.989c0.369,0.425,0.738,0.853,1.1,1.287c0.286,0.341,0.57,0.687,0.849,1.033
	c0.353,0.433,0.701,0.87,1.048,1.309c0.278,0.356,0.554,0.714,0.828,1.074c0.336,0.442,0.67,0.889,0.998,1.338
	c0.269,0.368,0.537,0.737,0.801,1.108c0.322,0.453,0.639,0.911,0.954,1.371c0.259,0.379,0.517,0.757,0.771,1.141
	c0.121,0.182,0.238,0.368,0.356,0.55c0.914,1.401,1.802,2.823,2.647,4.28c3.583,6.193,10.143,9.834,17.044,9.834
	c0.001,0,0.001,0,0.001,0c1.692,0,3.411-0.221,5.106-0.675c8.606-2.309,14.587-10.11,14.587-19.019V131.473
	C472.615,130.366,472.513,129.269,472.328,128.186z"/>
<path style="fill:#FF6243;" d="M472.328,128.186c0.185,1.083,0.287,2.181,0.287,3.286v231.985v52.513
	c0,10.875-8.817,19.692-19.692,19.692H256H59.077c-10.875,0-19.692-8.817-19.692-19.692v-52.513V131.473
	c0-1.105,0.102-2.204,0.288-3.286C16.58,136.216,0,158.159,0,183.986V415.97c0,32.628,26.449,59.077,59.077,59.077H256h196.923
	c32.628,0,59.077-26.449,59.077-59.077V183.986C512,158.159,495.42,136.216,472.328,128.186z"/>
<path style="fill:#C3C3C7;" d="M458.029,382.476c-1.695,0.456-3.413,0.675-5.106,0.675c0,0,0,0-0.001,0
	c-6.903,0-13.463-3.642-17.044-9.834c-0.844-1.457-1.732-2.879-2.647-4.28c-0.119-0.184-0.236-0.369-0.357-0.55
	c-0.253-0.383-0.512-0.761-0.771-1.141c-0.314-0.459-0.631-0.918-0.954-1.371c-0.264-0.372-0.532-0.74-0.801-1.108
	c-0.328-0.449-0.662-0.895-0.998-1.338c-0.274-0.36-0.55-0.718-0.828-1.074c-0.347-0.44-0.694-0.876-1.048-1.309
	c-0.281-0.347-0.565-0.692-0.849-1.033c-0.362-0.433-0.731-0.861-1.1-1.287c-0.288-0.331-0.575-0.662-0.866-0.989
	c-0.379-0.427-0.767-0.847-1.154-1.264c-0.293-0.316-0.584-0.633-0.881-0.944c-0.399-0.42-0.806-0.832-1.212-1.243
	c-0.295-0.299-0.589-0.6-0.889-0.894c-0.423-0.417-0.853-0.826-1.285-1.235c-0.291-0.277-0.579-0.557-0.874-0.83
	c-0.457-0.42-0.919-0.832-1.382-1.243c-0.281-0.249-0.559-0.503-0.843-0.75c-0.498-0.432-1.004-0.852-1.508-1.273
	c-0.259-0.215-0.515-0.436-0.776-0.649c-0.58-0.473-1.17-0.932-1.76-1.39c-0.193-0.15-0.385-0.306-0.579-0.454
	c-1.591-1.214-3.22-2.378-4.884-3.487c-0.156-0.105-0.316-0.203-0.474-0.307c-0.671-0.441-1.344-0.88-2.027-1.304
	c-0.267-0.165-0.537-0.324-0.805-0.487c-0.579-0.353-1.159-0.706-1.746-1.045c-0.314-0.182-0.633-0.357-0.949-0.536
	c-0.547-0.309-1.095-0.617-1.648-0.915c-0.345-0.185-0.693-0.364-1.04-0.545c-0.532-0.278-1.065-0.557-1.603-0.824
	c-0.365-0.182-0.735-0.357-1.103-0.536c-0.462-0.223-0.926-0.445-1.392-0.66c-0.062-0.029-0.123-0.059-0.186-0.088
	c-0.383-0.176-0.769-0.347-1.155-0.517c-0.521-0.232-1.045-0.463-1.571-0.685c-0.395-0.167-0.79-0.328-1.187-0.488
	c-0.524-0.213-1.048-0.424-1.574-0.628c-0.408-0.158-0.815-0.309-1.224-0.461c-0.523-0.193-1.049-0.383-1.577-0.568
	c-0.415-0.146-0.831-0.288-1.248-0.427c-0.528-0.176-1.057-0.348-1.589-0.516c-0.421-0.133-0.843-0.263-1.266-0.389
	c-0.533-0.16-1.067-0.314-1.604-0.463c-0.427-0.119-0.855-0.238-1.284-0.352c-0.536-0.142-1.074-0.277-1.613-0.41
	c-0.435-0.106-0.869-0.214-1.305-0.314c-0.541-0.125-1.084-0.242-1.628-0.357c-0.436-0.092-0.87-0.186-1.308-0.272
	c-0.549-0.109-1.103-0.207-1.655-0.306c-0.437-0.079-0.873-0.159-1.31-0.23c-0.561-0.092-1.121-0.173-1.683-0.255
	c-0.433-0.063-0.865-0.13-1.3-0.188c-0.576-0.075-1.154-0.138-1.732-0.203c-0.424-0.047-0.848-0.101-1.275-0.142
	c-0.604-0.059-1.212-0.104-1.82-0.152c-0.4-0.032-0.8-0.07-1.201-0.096c-0.679-0.045-1.36-0.074-2.043-0.104
	c-0.331-0.014-0.662-0.037-0.995-0.047c-1.015-0.033-2.034-0.051-3.054-0.051c-1.02,0-2.039,0.018-3.054,0.051
	c-0.333,0.01-0.664,0.033-0.995,0.047c-0.681,0.03-1.363,0.058-2.043,0.104c-0.402,0.026-0.801,0.064-1.201,0.096
	c-0.608,0.049-1.216,0.093-1.82,0.152c-0.427,0.042-0.849,0.095-1.275,0.142c-0.578,0.064-1.157,0.129-1.732,0.203
	c-0.435,0.058-0.866,0.123-1.3,0.188c-0.562,0.081-1.122,0.163-1.683,0.255c-0.437,0.072-0.873,0.152-1.31,0.23
	c-0.553,0.098-1.107,0.198-1.655,0.306c-0.437,0.085-0.872,0.18-1.308,0.272c-0.544,0.116-1.087,0.232-1.628,0.357
	c-0.436,0.101-0.87,0.207-1.305,0.314c-0.538,0.133-1.077,0.268-1.613,0.41c-0.428,0.114-0.856,0.232-1.283,0.352
	c-0.536,0.15-1.071,0.303-1.606,0.463c-0.423,0.127-0.844,0.256-1.266,0.389c-0.532,0.167-1.061,0.339-1.589,0.516
	c-0.417,0.139-0.834,0.281-1.249,0.427c-0.528,0.185-1.054,0.375-1.577,0.568c-0.408,0.151-0.815,0.303-1.224,0.461
	c-0.526,0.203-1.052,0.414-1.574,0.628c-0.398,0.161-0.793,0.322-1.187,0.488c-0.526,0.222-1.05,0.453-1.571,0.685
	c-0.386,0.171-0.772,0.341-1.155,0.517c-0.529,0.243-1.054,0.495-1.578,0.748c-0.368,0.177-0.738,0.353-1.103,0.536
	c-0.538,0.268-1.07,0.546-1.603,0.824c-0.347,0.181-0.694,0.358-1.04,0.545c-0.553,0.298-1.1,0.607-1.648,0.915
	c-0.315,0.179-0.634,0.352-0.949,0.536c-0.587,0.34-1.167,0.692-1.746,1.045c-0.268,0.163-0.538,0.32-0.805,0.487
	c-0.683,0.424-1.356,0.863-2.027,1.304c-0.158,0.104-0.318,0.202-0.474,0.307c-1.663,1.109-3.293,2.274-4.884,3.487
	c-0.194,0.148-0.386,0.305-0.579,0.454c-0.591,0.458-1.179,0.918-1.76,1.39c-0.261,0.213-0.517,0.433-0.776,0.649
	c-0.505,0.421-1.011,0.841-1.508,1.273c-0.285,0.248-0.563,0.501-0.845,0.752c-0.462,0.411-0.923,0.821-1.377,1.239
	c-0.297,0.273-0.586,0.554-0.878,0.831c-0.432,0.41-0.863,0.819-1.285,1.237c-0.298,0.293-0.589,0.592-0.884,0.889
	c-0.408,0.414-0.814,0.826-1.216,1.247c-0.297,0.311-0.588,0.629-0.881,0.944c-0.097,0.106-0.194,0.214-0.293,0.32
	c-0.287,0.314-0.576,0.626-0.861,0.945c-0.293,0.327-0.579,0.658-0.866,0.989c-0.369,0.425-0.737,0.853-1.1,1.287
	c-0.286,0.341-0.57,0.687-0.849,1.033c-0.353,0.433-0.701,0.87-1.048,1.309c-0.278,0.356-0.554,0.714-0.828,1.074
	c-0.336,0.442-0.67,0.889-0.998,1.338c-0.269,0.368-0.537,0.737-0.801,1.108c-0.322,0.453-0.639,0.911-0.954,1.371
	c-0.259,0.379-0.517,0.758-0.771,1.141c-0.121,0.182-0.238,0.368-0.356,0.55c-0.914,1.401-1.803,2.823-2.647,4.28
	c-0.077,0.133-0.165,0.255-0.247,0.386c-0.148,0.247-0.302,0.49-0.463,0.729c-0.147,0.221-0.301,0.433-0.456,0.646
	c-0.156,0.215-0.318,0.428-0.484,0.637c-0.172,0.217-0.349,0.429-0.53,0.638c-0.167,0.192-0.336,0.381-0.509,0.566
	c-0.192,0.205-0.389,0.404-0.588,0.601c-0.182,0.179-0.366,0.352-0.555,0.524c-0.202,0.182-0.408,0.361-0.617,0.536
	c-0.205,0.169-0.412,0.335-0.624,0.498c-0.206,0.158-0.415,0.311-0.626,0.461c-0.228,0.16-0.46,0.316-0.693,0.467
	c-0.21,0.135-0.421,0.265-0.635,0.393c-0.245,0.144-0.494,0.285-0.746,0.419c-0.219,0.117-0.441,0.23-0.664,0.339
	c-0.253,0.123-0.509,0.242-0.768,0.354c-0.242,0.105-0.482,0.202-0.726,0.297c-0.249,0.097-0.501,0.192-0.756,0.277
	c-0.268,0.092-0.538,0.175-0.81,0.255c-0.148,0.043-0.293,0.098-0.444,0.139c-0.116,0.03-0.231,0.053-0.347,0.081
	c-0.177,0.045-0.354,0.085-0.533,0.125c-0.316,0.07-0.633,0.13-0.949,0.184c-0.168,0.029-0.335,0.059-0.503,0.083
	c-0.403,0.058-0.802,0.101-1.205,0.134c-0.083,0.007-0.164,0.018-0.247,0.024c-0.442,0.029-0.884,0.046-1.322,0.046c0,0,0,0-0.001,0
	c-0.049,0-0.096-0.004-0.144-0.005c-0.131,0-0.263-0.009-0.395-0.013c-0.369-0.01-0.738-0.028-1.104-0.059
	c-0.158-0.013-0.316-0.029-0.475-0.047c-0.364-0.039-0.726-0.089-1.086-0.15c-0.138-0.024-0.274-0.042-0.412-0.068
	c-0.498-0.093-0.992-0.201-1.48-0.332c-0.003-0.001-0.005-0.001-0.008-0.001c-0.016-0.004-0.028-0.009-0.043-0.013
	c-0.465-0.126-0.92-0.272-1.372-0.431c-0.154-0.054-0.302-0.113-0.454-0.169c-0.316-0.119-0.63-0.247-0.939-0.383
	c-0.164-0.072-0.327-0.143-0.488-0.219c-0.323-0.152-0.639-0.315-0.956-0.486c-0.118-0.064-0.242-0.123-0.356-0.189
	c-0.416-0.236-0.823-0.488-1.224-0.754c-0.114-0.076-0.223-0.159-0.335-0.238c-0.294-0.205-0.583-0.415-0.865-0.637
	c-0.127-0.1-0.251-0.202-0.377-0.306c-0.266-0.219-0.526-0.446-0.782-0.68c-0.11-0.101-0.221-0.2-0.328-0.303
	c-0.288-0.274-0.565-0.561-0.836-0.853c-0.062-0.067-0.129-0.131-0.19-0.2c-0.332-0.37-0.654-0.754-0.958-1.153
	c-0.041-0.054-0.077-0.109-0.118-0.163c-0.249-0.333-0.492-0.675-0.723-1.027c-0.095-0.143-0.182-0.291-0.273-0.437
	c-0.108-0.173-0.222-0.341-0.324-0.52c-0.844-1.457-1.732-2.879-2.647-4.28c-0.119-0.184-0.236-0.369-0.356-0.55
	c-0.253-0.383-0.512-0.761-0.771-1.141c-0.314-0.46-0.631-0.918-0.954-1.371c-0.264-0.372-0.532-0.74-0.801-1.108
	c-0.328-0.449-0.662-0.895-0.998-1.338c-0.274-0.36-0.55-0.718-0.828-1.074c-0.347-0.44-0.694-0.876-1.048-1.309
	c-0.281-0.347-0.564-0.692-0.849-1.033c-0.362-0.433-0.731-0.861-1.1-1.287c-0.288-0.331-0.575-0.662-0.866-0.989
	c-0.285-0.319-0.575-0.63-0.861-0.945c-0.097-0.106-0.194-0.214-0.293-0.32c-0.293-0.316-0.584-0.633-0.881-0.944
	c-0.399-0.42-0.806-0.832-1.212-1.243c-0.295-0.299-0.589-0.6-0.889-0.894c-0.423-0.417-0.853-0.826-1.287-1.235
	c-0.291-0.277-0.579-0.557-0.874-0.83c-0.457-0.42-0.919-0.832-1.382-1.243c-0.281-0.249-0.559-0.503-0.843-0.75
	c-0.498-0.432-1.004-0.852-1.508-1.273c-0.259-0.215-0.515-0.436-0.776-0.649c-0.58-0.473-1.17-0.932-1.76-1.39
	c-0.194-0.15-0.385-0.306-0.579-0.454c-1.591-1.214-3.22-2.378-4.884-3.487c-0.156-0.105-0.316-0.203-0.474-0.307
	c-0.671-0.441-1.344-0.88-2.027-1.304c-0.267-0.165-0.537-0.324-0.805-0.487c-0.579-0.353-1.159-0.706-1.746-1.045
	c-0.314-0.182-0.633-0.357-0.949-0.536c-0.547-0.309-1.095-0.617-1.648-0.915c-0.345-0.185-0.693-0.364-1.04-0.545
	c-0.532-0.278-1.065-0.557-1.603-0.824c-0.365-0.182-0.735-0.357-1.103-0.536c-0.524-0.253-1.049-0.505-1.578-0.748
	c-0.383-0.176-0.769-0.347-1.155-0.517c-0.521-0.232-1.045-0.463-1.571-0.685c-0.395-0.167-0.79-0.328-1.187-0.488
	c-0.522-0.213-1.048-0.424-1.574-0.628c-0.408-0.158-0.815-0.309-1.224-0.461c-0.522-0.193-1.049-0.383-1.577-0.568
	c-0.415-0.146-0.831-0.288-1.248-0.427c-0.528-0.176-1.057-0.348-1.589-0.516c-0.421-0.133-0.843-0.263-1.266-0.389
	c-0.533-0.16-1.069-0.314-1.604-0.463c-0.427-0.119-0.855-0.238-1.283-0.352c-0.536-0.142-1.074-0.277-1.613-0.41
	c-0.435-0.106-0.869-0.214-1.305-0.314c-0.541-0.125-1.084-0.242-1.628-0.357c-0.436-0.092-0.87-0.186-1.308-0.272
	c-0.549-0.109-1.103-0.207-1.655-0.306c-0.437-0.079-0.873-0.159-1.31-0.23c-0.561-0.092-1.121-0.173-1.683-0.255
	c-0.433-0.063-0.865-0.13-1.3-0.188c-0.575-0.075-1.154-0.138-1.732-0.203c-0.424-0.047-0.848-0.101-1.275-0.142
	c-0.604-0.059-1.212-0.104-1.82-0.152c-0.4-0.031-0.8-0.07-1.201-0.096c-0.68-0.045-1.36-0.074-2.043-0.104
	c-0.331-0.014-0.662-0.037-0.995-0.047c-1.016-0.033-2.034-0.051-3.054-0.051s-2.039,0.018-3.054,0.051
	c-0.333,0.01-0.664,0.033-0.995,0.047c-0.683,0.03-1.363,0.058-2.043,0.104c-0.402,0.026-0.801,0.064-1.201,0.096
	c-0.608,0.049-1.216,0.093-1.82,0.152c-0.427,0.042-0.849,0.095-1.275,0.142c-0.578,0.064-1.157,0.129-1.732,0.203
	c-0.435,0.058-0.866,0.123-1.3,0.188c-0.562,0.081-1.122,0.163-1.683,0.255c-0.437,0.072-0.873,0.152-1.31,0.23
	c-0.553,0.098-1.107,0.198-1.655,0.306c-0.437,0.085-0.872,0.18-1.308,0.272c-0.544,0.116-1.087,0.232-1.628,0.357
	c-0.436,0.101-0.87,0.207-1.305,0.314c-0.538,0.133-1.077,0.268-1.613,0.41c-0.428,0.114-0.856,0.232-1.283,0.352
	c-0.536,0.15-1.071,0.303-1.606,0.463c-0.423,0.127-0.844,0.256-1.266,0.389c-0.532,0.167-1.061,0.339-1.589,0.516
	c-0.417,0.139-0.834,0.281-1.248,0.427c-0.528,0.185-1.054,0.375-1.577,0.568c-0.408,0.151-0.815,0.303-1.224,0.461
	c-0.526,0.203-1.052,0.414-1.574,0.628c-0.398,0.161-0.793,0.322-1.187,0.488c-0.526,0.222-1.05,0.453-1.571,0.685
	c-0.386,0.171-0.772,0.341-1.155,0.517c-0.063,0.029-0.125,0.059-0.186,0.088c-0.466,0.217-0.929,0.437-1.393,0.66
	c-0.368,0.177-0.738,0.353-1.103,0.536c-0.538,0.268-1.07,0.546-1.603,0.824c-0.347,0.181-0.694,0.358-1.04,0.545
	c-0.553,0.298-1.1,0.607-1.648,0.915c-0.315,0.179-0.634,0.352-0.949,0.536c-0.587,0.34-1.167,0.692-1.746,1.045
	c-0.268,0.163-0.538,0.32-0.805,0.487c-0.683,0.424-1.356,0.863-2.027,1.304c-0.158,0.104-0.318,0.202-0.474,0.307
	c-1.663,1.109-3.293,2.274-4.884,3.487c-0.194,0.148-0.386,0.305-0.579,0.454c-0.591,0.458-1.179,0.918-1.76,1.39
	c-0.261,0.213-0.517,0.433-0.776,0.649c-0.505,0.421-1.012,0.841-1.508,1.273c-0.285,0.248-0.563,0.501-0.845,0.752
	c-0.462,0.411-0.923,0.82-1.377,1.239c-0.297,0.273-0.586,0.554-0.878,0.831c-0.432,0.41-0.863,0.819-1.287,1.237
	c-0.297,0.293-0.589,0.592-0.884,0.889c-0.408,0.414-0.814,0.826-1.216,1.247c-0.297,0.311-0.588,0.629-0.881,0.944
	c-0.387,0.419-0.775,0.839-1.154,1.264c-0.293,0.327-0.579,0.658-0.866,0.989c-0.369,0.425-0.738,0.853-1.1,1.287
	c-0.286,0.341-0.57,0.687-0.851,1.033c-0.353,0.433-0.701,0.87-1.048,1.309c-0.278,0.356-0.554,0.714-0.828,1.074
	c-0.336,0.442-0.67,0.889-0.998,1.338c-0.269,0.368-0.537,0.736-0.801,1.108c-0.322,0.453-0.639,0.911-0.954,1.371
	c-0.259,0.379-0.517,0.757-0.771,1.141c-0.121,0.182-0.238,0.368-0.356,0.55c-0.914,1.401-1.803,2.823-2.647,4.28
	c-3.583,6.193-10.144,9.825-17.046,9.825c-1.695,0-3.408-0.211-5.106-0.666c-8.588-2.309-14.571-10.11-14.571-19.019v52.513
	c0,10.875,8.817,19.692,19.692,19.692H256h196.923c10.875,0,19.692-8.817,19.692-19.692v-52.513
	C472.615,372.366,466.633,380.167,458.029,382.476z"/>
<g>
	<path style="fill:#DEDEE0;" d="M256,383.151c0.438,0,0.88-0.017,1.322-0.046c-0.438,0.029-0.881,0.037-1.322,0.037
		c-0.049,0-0.097,0.004-0.146,0.004c0.049,0.001,0.096,0.005,0.144,0.005C256,383.151,256,383.151,256,383.151z"/>
	<path style="fill:#DEDEE0;" d="M261.549,382.337c-0.261,0.077-0.524,0.154-0.79,0.219c0.116-0.029,0.231-0.05,0.347-0.081
		C261.257,382.436,261.4,382.381,261.549,382.337z"/>
</g>
<polygon style="fill:#FFB655;" points="315.077,103.032 315.077,124.909 315.077,183.986 315.077,219.508 354.462,219.508 
	354.462,183.986 354.462,124.909 354.462,94.329 354.462,74.637 354.462,54.945 354.462,36.953 315.077,36.953 315.077,60.942 
	315.077,81.662 "/>
<path style="fill:#DEDEE0;" d="M39.385,363.458c0,8.91,5.983,16.71,14.587,19.019c1.697,0.456,3.411,0.666,5.106,0.666
	c6.903,0.001,13.464-3.633,17.046-9.825c0.844-1.457,1.732-2.879,2.647-4.28c0.119-0.184,0.236-0.369,0.356-0.55
	c0.253-0.383,0.512-0.761,0.771-1.141c0.314-0.46,0.631-0.918,0.954-1.371c0.264-0.371,0.532-0.74,0.801-1.108
	c0.328-0.449,0.662-0.895,0.998-1.338c0.274-0.36,0.55-0.718,0.828-1.074c0.347-0.44,0.694-0.876,1.048-1.309
	c0.281-0.347,0.565-0.692,0.851-1.033c0.362-0.433,0.731-0.861,1.1-1.287c0.288-0.331,0.575-0.662,0.866-0.989
	c0.379-0.427,0.767-0.847,1.154-1.264c0.293-0.315,0.584-0.633,0.881-0.944c0.402-0.42,0.807-0.834,1.216-1.247
	c0.294-0.298,0.586-0.596,0.884-0.889c0.423-0.417,0.853-0.827,1.287-1.237c0.293-0.277,0.582-0.558,0.878-0.831
	c0.454-0.419,0.915-0.83,1.377-1.239c0.282-0.251,0.561-0.505,0.845-0.752c0.498-0.432,1.004-0.852,1.508-1.273
	c0.259-0.215,0.515-0.436,0.776-0.648c0.58-0.473,1.17-0.932,1.76-1.39c0.193-0.15,0.385-0.306,0.579-0.454
	c1.591-1.214,3.22-2.378,4.884-3.487c0.156-0.105,0.316-0.203,0.474-0.307c0.671-0.441,1.344-0.88,2.027-1.304
	c0.267-0.165,0.537-0.324,0.805-0.487c0.579-0.353,1.159-0.706,1.746-1.045c0.314-0.182,0.633-0.357,0.949-0.536
	c0.547-0.308,1.095-0.617,1.648-0.915c0.345-0.185,0.693-0.364,1.04-0.545c0.532-0.278,1.065-0.557,1.603-0.824
	c0.365-0.182,0.735-0.357,1.103-0.536c0.463-0.223,0.926-0.445,1.393-0.66c0.062-0.029,0.123-0.059,0.186-0.088
	c0.383-0.176,0.769-0.347,1.155-0.517c0.521-0.232,1.045-0.463,1.571-0.685c0.395-0.167,0.789-0.328,1.187-0.488
	c0.523-0.213,1.048-0.424,1.574-0.628c0.407-0.158,0.815-0.309,1.224-0.461c0.523-0.193,1.049-0.383,1.577-0.568
	c0.415-0.146,0.831-0.287,1.248-0.427c0.528-0.176,1.057-0.348,1.589-0.516c0.421-0.133,0.843-0.263,1.266-0.389
	c0.533-0.16,1.069-0.314,1.606-0.463c0.425-0.119,0.853-0.238,1.283-0.352c0.536-0.142,1.074-0.276,1.613-0.41
	c0.435-0.106,0.869-0.214,1.305-0.314c0.541-0.125,1.084-0.242,1.628-0.357c0.436-0.092,0.87-0.186,1.308-0.272
	c0.549-0.109,1.103-0.207,1.655-0.306c0.437-0.079,0.873-0.159,1.31-0.23c0.561-0.092,1.121-0.173,1.683-0.255
	c0.433-0.063,0.865-0.13,1.3-0.188c0.575-0.075,1.154-0.138,1.732-0.203c0.424-0.047,0.848-0.101,1.275-0.142
	c0.604-0.059,1.212-0.104,1.82-0.152c0.4-0.032,0.8-0.07,1.201-0.096c0.68-0.045,1.36-0.074,2.043-0.104
	c0.331-0.014,0.662-0.037,0.995-0.047c1.016-0.033,2.034-0.051,3.054-0.051c1.02,0,2.039,0.018,3.054,0.051
	c0.333,0.01,0.664,0.033,0.995,0.047c0.683,0.03,1.363,0.058,2.043,0.104c0.402,0.026,0.801,0.064,1.201,0.096
	c0.608,0.049,1.216,0.093,1.82,0.152c0.427,0.042,0.849,0.095,1.275,0.142c0.578,0.064,1.157,0.129,1.732,0.203
	c0.435,0.058,0.866,0.123,1.3,0.188c0.562,0.081,1.122,0.163,1.683,0.255c0.437,0.072,0.873,0.152,1.31,0.23
	c0.553,0.098,1.107,0.198,1.655,0.306c0.437,0.085,0.872,0.18,1.308,0.272c0.544,0.116,1.087,0.232,1.628,0.357
	c0.436,0.101,0.87,0.207,1.305,0.314c0.538,0.133,1.077,0.268,1.613,0.41c0.428,0.114,0.856,0.232,1.283,0.352
	c0.536,0.15,1.071,0.303,1.604,0.463c0.423,0.126,0.844,0.256,1.266,0.389c0.532,0.167,1.061,0.339,1.589,0.516
	c0.417,0.139,0.834,0.281,1.249,0.427c0.528,0.185,1.054,0.375,1.577,0.568c0.408,0.151,0.815,0.303,1.224,0.461
	c0.526,0.203,1.052,0.414,1.574,0.628c0.398,0.161,0.793,0.322,1.187,0.488c0.526,0.222,1.05,0.453,1.571,0.685
	c0.386,0.171,0.772,0.341,1.155,0.517c0.529,0.243,1.054,0.495,1.578,0.748c0.368,0.177,0.738,0.353,1.103,0.536
	c0.538,0.268,1.07,0.546,1.603,0.824c0.347,0.181,0.694,0.358,1.04,0.545c0.553,0.298,1.1,0.607,1.648,0.915
	c0.315,0.179,0.634,0.352,0.949,0.536c0.587,0.34,1.167,0.692,1.746,1.045c0.268,0.163,0.538,0.32,0.805,0.487
	c0.683,0.424,1.356,0.863,2.027,1.304c0.158,0.104,0.318,0.202,0.474,0.307c1.663,1.109,3.293,2.274,4.884,3.487
	c0.194,0.148,0.386,0.305,0.579,0.454c0.591,0.458,1.179,0.918,1.76,1.39c0.261,0.213,0.517,0.433,0.776,0.648
	c0.505,0.421,1.011,0.842,1.508,1.273c0.284,0.247,0.562,0.499,0.843,0.75c0.463,0.412,0.926,0.823,1.382,1.243
	c0.295,0.273,0.583,0.553,0.874,0.83c0.432,0.41,0.863,0.818,1.287,1.235c0.298,0.295,0.592,0.596,0.889,0.894
	c0.406,0.411,0.813,0.823,1.212,1.243c0.297,0.311,0.588,0.628,0.881,0.944c0.097,0.106,0.194,0.214,0.293,0.32
	c0.287,0.314,0.576,0.626,0.861,0.945c0.293,0.327,0.579,0.658,0.866,0.989c0.369,0.425,0.737,0.853,1.1,1.287
	c0.286,0.341,0.57,0.687,0.849,1.033c0.353,0.433,0.701,0.87,1.048,1.309c0.278,0.356,0.554,0.714,0.828,1.074
	c0.336,0.442,0.67,0.889,0.998,1.338c0.269,0.368,0.537,0.737,0.801,1.108c0.322,0.453,0.639,0.911,0.954,1.371
	c0.259,0.379,0.517,0.758,0.771,1.141c0.121,0.182,0.238,0.368,0.356,0.55c0.914,1.401,1.803,2.823,2.647,4.28
	c0.102,0.177,0.217,0.347,0.324,0.52c0.091,0.146,0.179,0.294,0.273,0.437c0.231,0.352,0.473,0.693,0.723,1.027
	c0.041,0.054,0.077,0.109,0.118,0.163c0.305,0.399,0.628,0.782,0.958,1.153c0.062,0.068,0.129,0.133,0.19,0.2
	c0.272,0.294,0.549,0.579,0.836,0.853c0.108,0.104,0.218,0.202,0.328,0.303c0.255,0.234,0.516,0.461,0.782,0.68
	c0.126,0.104,0.249,0.206,0.377,0.306c0.282,0.221,0.572,0.432,0.865,0.637c0.112,0.079,0.221,0.161,0.335,0.238
	c0.4,0.267,0.806,0.519,1.224,0.754c0.116,0.066,0.239,0.125,0.356,0.189c0.315,0.169,0.633,0.333,0.956,0.486
	c0.161,0.076,0.324,0.147,0.488,0.219c0.309,0.137,0.622,0.263,0.939,0.383c0.151,0.056,0.301,0.116,0.454,0.169
	c0.452,0.159,0.907,0.305,1.372,0.431c0.016,0.004,0.028,0.009,0.043,0.013c0.003,0,0.005,0,0.008,0.001
	c0.487,0.131,0.982,0.239,1.48,0.332c0.138,0.026,0.274,0.045,0.412,0.068c0.36,0.059,0.722,0.109,1.086,0.15
	c0.159,0.017,0.318,0.033,0.475,0.047c0.366,0.031,0.734,0.05,1.104,0.059c0.133,0.004,0.264,0.012,0.395,0.013
	c0.049,0.001,0.097-0.004,0.146-0.004V98.415c-25.009-27.3-60.718-43.471-98.462-43.471c-47.458,0-91.718,25.545-115.507,66.668
	c-1.179,2.04-1.969,4.268-2.359,6.575c-0.194,1.083-0.297,2.181-0.297,3.287V363.458z"/>
<path style="fill:#FF0C38;" d="M59.077,435.661c-10.875,0-19.692-8.817-19.692-19.692v-52.513V131.473
	c0-1.105,0.102-2.204,0.288-3.286C16.58,136.216,0,158.159,0,183.986V415.97c0,32.628,26.449,59.077,59.077,59.077H256v-39.385
	H59.077V435.661z"/>
<path style="fill:#C3C3C7;" d="M458.029,382.476c-1.695,0.456-3.413,0.675-5.106,0.675c0,0,0,0-0.001,0
	c-6.903,0-13.463-3.642-17.044-9.834c-0.844-1.457-1.732-2.879-2.647-4.28c-0.119-0.184-0.236-0.369-0.356-0.55
	c-0.253-0.383-0.512-0.761-0.771-1.141c-0.314-0.459-0.631-0.918-0.954-1.371c-0.264-0.372-0.532-0.74-0.801-1.108
	c-0.328-0.449-0.662-0.895-0.998-1.338c-0.274-0.36-0.55-0.718-0.828-1.074c-0.347-0.44-0.694-0.876-1.048-1.309
	c-0.281-0.347-0.565-0.692-0.849-1.033c-0.362-0.433-0.731-0.861-1.1-1.287c-0.288-0.331-0.575-0.662-0.866-0.989
	c-0.379-0.427-0.767-0.847-1.154-1.264c-0.293-0.316-0.584-0.633-0.881-0.944c-0.399-0.42-0.806-0.832-1.212-1.243
	c-0.297-0.299-0.589-0.6-0.889-0.894c-0.423-0.417-0.853-0.826-1.285-1.235c-0.291-0.277-0.579-0.557-0.874-0.83
	c-0.457-0.42-0.919-0.832-1.382-1.243c-0.281-0.249-0.559-0.503-0.843-0.75c-0.498-0.432-1.004-0.852-1.508-1.273
	c-0.259-0.215-0.515-0.436-0.776-0.649c-0.58-0.473-1.17-0.932-1.76-1.39c-0.193-0.15-0.385-0.306-0.579-0.454
	c-1.591-1.214-3.22-2.378-4.884-3.487c-0.156-0.105-0.316-0.203-0.474-0.307c-0.671-0.441-1.344-0.88-2.027-1.304
	c-0.266-0.165-0.537-0.324-0.805-0.487c-0.579-0.353-1.159-0.706-1.746-1.045c-0.314-0.182-0.633-0.356-0.949-0.536
	c-0.547-0.309-1.095-0.617-1.648-0.915c-0.345-0.185-0.693-0.364-1.04-0.545c-0.532-0.278-1.065-0.557-1.603-0.824
	c-0.365-0.182-0.735-0.357-1.103-0.536c-0.463-0.223-0.926-0.445-1.393-0.66c-0.062-0.029-0.123-0.059-0.186-0.088
	c-0.383-0.176-0.769-0.347-1.155-0.517c-0.521-0.232-1.045-0.462-1.571-0.685c-0.395-0.167-0.79-0.328-1.187-0.488
	c-0.523-0.213-1.048-0.424-1.574-0.628c-0.408-0.158-0.815-0.309-1.224-0.461c-0.523-0.194-1.049-0.383-1.577-0.568
	c-0.415-0.146-0.831-0.288-1.248-0.427c-0.528-0.176-1.057-0.348-1.589-0.516c-0.421-0.133-0.843-0.263-1.266-0.389
	c-0.533-0.16-1.067-0.314-1.604-0.463c-0.427-0.119-0.855-0.238-1.284-0.352c-0.536-0.142-1.074-0.277-1.613-0.408
	c-0.435-0.106-0.869-0.214-1.305-0.314c-0.541-0.125-1.084-0.242-1.628-0.357c-0.436-0.092-0.87-0.186-1.308-0.272
	c-0.549-0.109-1.103-0.207-1.655-0.306c-0.437-0.079-0.873-0.159-1.31-0.23c-0.561-0.092-1.121-0.173-1.683-0.255
	c-0.433-0.063-0.865-0.13-1.3-0.188c-0.575-0.075-1.154-0.138-1.732-0.203c-0.424-0.047-0.848-0.101-1.275-0.142
	c-0.604-0.059-1.212-0.104-1.82-0.152c-0.4-0.032-0.8-0.07-1.201-0.096c-0.68-0.045-1.36-0.074-2.043-0.104
	c-0.331-0.014-0.662-0.037-0.995-0.047c-1.015-0.033-2.034-0.051-3.054-0.051c-1.02,0-2.039,0.018-3.054,0.051
	c-0.333,0.01-0.664,0.033-0.995,0.047c-0.683,0.03-1.363,0.058-2.043,0.104c-0.402,0.026-0.801,0.064-1.201,0.096
	c-0.608,0.049-1.216,0.093-1.82,0.152c-0.427,0.042-0.849,0.095-1.275,0.142c-0.578,0.064-1.157,0.129-1.732,0.203
	c-0.435,0.058-0.866,0.123-1.3,0.188c-0.562,0.081-1.122,0.163-1.683,0.255c-0.437,0.072-0.873,0.152-1.31,0.23
	c-0.553,0.098-1.107,0.198-1.655,0.306c-0.437,0.085-0.872,0.18-1.308,0.272c-0.544,0.116-1.087,0.232-1.628,0.357
	c-0.436,0.101-0.87,0.207-1.305,0.314c-0.538,0.133-1.077,0.268-1.613,0.408c-0.428,0.114-0.856,0.232-1.283,0.352
	c-0.536,0.15-1.071,0.303-1.606,0.463c-0.423,0.127-0.844,0.256-1.266,0.389c-0.532,0.167-1.061,0.339-1.589,0.516
	c-0.417,0.139-0.834,0.281-1.249,0.427c-0.528,0.185-1.054,0.375-1.577,0.568c-0.408,0.151-0.815,0.303-1.224,0.461
	c-0.526,0.203-1.052,0.414-1.574,0.628c-0.398,0.161-0.793,0.322-1.187,0.488c-0.526,0.222-1.05,0.453-1.571,0.685
	c-0.386,0.171-0.772,0.341-1.155,0.517c-0.529,0.243-1.054,0.495-1.578,0.748c-0.368,0.177-0.738,0.353-1.103,0.536
	c-0.538,0.268-1.07,0.546-1.603,0.824c-0.347,0.181-0.694,0.358-1.04,0.545c-0.553,0.298-1.1,0.607-1.648,0.915
	c-0.315,0.179-0.634,0.352-0.949,0.536c-0.587,0.34-1.167,0.692-1.746,1.045c-0.268,0.163-0.538,0.32-0.805,0.487
	c-0.683,0.424-1.356,0.863-2.027,1.304c-0.158,0.104-0.318,0.202-0.474,0.307c-1.663,1.109-3.293,2.274-4.884,3.487
	c-0.194,0.148-0.386,0.305-0.579,0.454c-0.591,0.458-1.179,0.918-1.76,1.39c-0.261,0.213-0.517,0.433-0.776,0.649
	c-0.505,0.421-1.012,0.841-1.508,1.273c-0.285,0.247-0.563,0.501-0.845,0.752c-0.462,0.411-0.923,0.821-1.377,1.239
	c-0.297,0.273-0.586,0.554-0.878,0.831c-0.432,0.41-0.863,0.818-1.285,1.237c-0.298,0.293-0.589,0.592-0.884,0.889
	c-0.408,0.414-0.814,0.826-1.216,1.247c-0.297,0.311-0.588,0.629-0.881,0.944c-0.097,0.106-0.194,0.214-0.293,0.32
	c-0.287,0.314-0.576,0.626-0.861,0.945c-0.293,0.327-0.579,0.658-0.866,0.989c-0.369,0.425-0.738,0.853-1.1,1.287
	c-0.286,0.341-0.57,0.687-0.849,1.033c-0.353,0.433-0.701,0.87-1.048,1.309c-0.278,0.356-0.554,0.714-0.828,1.074
	c-0.336,0.442-0.67,0.889-0.998,1.338c-0.269,0.368-0.537,0.737-0.801,1.108c-0.322,0.453-0.639,0.911-0.954,1.371
	c-0.259,0.379-0.517,0.758-0.771,1.141c-0.121,0.182-0.238,0.368-0.356,0.55c-0.914,1.401-1.803,2.823-2.647,4.28
	c-0.077,0.133-0.165,0.255-0.247,0.386c-0.148,0.247-0.302,0.49-0.463,0.729c-0.147,0.219-0.301,0.433-0.456,0.646
	c-0.156,0.215-0.318,0.428-0.484,0.637c-0.172,0.217-0.349,0.429-0.53,0.638c-0.167,0.192-0.336,0.381-0.509,0.566
	c-0.192,0.205-0.389,0.404-0.588,0.601c-0.182,0.179-0.366,0.352-0.555,0.524c-0.202,0.182-0.408,0.361-0.617,0.536
	c-0.205,0.169-0.412,0.335-0.624,0.498c-0.206,0.158-0.415,0.311-0.626,0.461c-0.228,0.16-0.46,0.316-0.693,0.467
	c-0.21,0.135-0.421,0.265-0.635,0.393c-0.245,0.144-0.494,0.285-0.746,0.419c-0.219,0.117-0.441,0.23-0.664,0.339
	c-0.253,0.123-0.509,0.242-0.768,0.353c-0.242,0.105-0.482,0.202-0.726,0.297c-0.249,0.097-0.501,0.19-0.756,0.277
	c-0.268,0.092-0.538,0.175-0.81,0.255c-0.148,0.043-0.293,0.098-0.444,0.139c-0.116,0.03-0.231,0.053-0.347,0.081
	c-0.177,0.045-0.356,0.085-0.533,0.125c-0.316,0.07-0.633,0.13-0.949,0.184c-0.168,0.029-0.335,0.059-0.503,0.083
	c-0.403,0.058-0.802,0.101-1.205,0.134c-0.083,0.007-0.164,0.018-0.247,0.024c-0.442,0.03-0.884,0.046-1.322,0.046c0,0,0,0-0.001,0
	c-0.049,0-0.096-0.004-0.144-0.005c-0.131,0-0.263-0.009-0.395-0.013c-0.369-0.01-0.738-0.028-1.104-0.059
	c-0.158-0.013-0.316-0.029-0.475-0.047c-0.364-0.039-0.726-0.089-1.086-0.15c-0.137-0.024-0.274-0.042-0.411-0.068
	c-0.498-0.093-0.992-0.201-1.48-0.332c-0.003,0-0.005,0-0.008-0.001c-0.016-0.004-0.028-0.009-0.043-0.013
	c-0.465-0.126-0.92-0.272-1.372-0.431c-0.154-0.054-0.302-0.113-0.454-0.169c-0.316-0.119-0.629-0.247-0.939-0.383
	c-0.164-0.072-0.327-0.143-0.488-0.219c-0.323-0.152-0.639-0.315-0.956-0.486c-0.118-0.064-0.242-0.123-0.356-0.189
	c-0.416-0.236-0.823-0.488-1.224-0.754c-0.114-0.076-0.223-0.159-0.335-0.238c-0.294-0.205-0.583-0.415-0.865-0.637
	c-0.127-0.1-0.251-0.202-0.377-0.306c-0.267-0.219-0.526-0.446-0.782-0.68c-0.11-0.101-0.221-0.2-0.328-0.303
	c-0.288-0.274-0.564-0.561-0.836-0.853c-0.062-0.067-0.129-0.131-0.19-0.2c-0.332-0.37-0.654-0.754-0.958-1.153
	c-0.041-0.054-0.077-0.109-0.118-0.163c-0.249-0.333-0.492-0.675-0.723-1.027c-0.095-0.143-0.182-0.291-0.273-0.437
	c-0.108-0.173-0.222-0.341-0.324-0.52c-0.844-1.457-1.732-2.879-2.647-4.28c-0.119-0.184-0.236-0.369-0.356-0.55
	c-0.253-0.383-0.512-0.761-0.771-1.141c-0.314-0.46-0.631-0.918-0.954-1.371c-0.264-0.372-0.532-0.74-0.801-1.108
	c-0.328-0.449-0.662-0.895-0.998-1.338c-0.274-0.36-0.55-0.718-0.828-1.074c-0.347-0.44-0.694-0.876-1.048-1.309
	c-0.281-0.347-0.564-0.692-0.849-1.033c-0.362-0.433-0.731-0.861-1.1-1.287c-0.287-0.331-0.575-0.662-0.866-0.989
	c-0.285-0.319-0.575-0.63-0.861-0.945c-0.097-0.106-0.194-0.214-0.293-0.32c-0.293-0.316-0.584-0.633-0.881-0.944
	c-0.399-0.42-0.806-0.832-1.212-1.243c-0.297-0.299-0.589-0.6-0.889-0.894c-0.423-0.417-0.853-0.826-1.285-1.235
	c-0.291-0.277-0.579-0.557-0.874-0.83c-0.457-0.42-0.919-0.832-1.382-1.243c-0.281-0.249-0.559-0.503-0.843-0.75
	c-0.498-0.432-1.004-0.852-1.508-1.273c-0.259-0.215-0.515-0.436-0.776-0.649c-0.58-0.473-1.17-0.932-1.76-1.39
	c-0.193-0.15-0.385-0.306-0.579-0.454c-1.591-1.214-3.22-2.378-4.884-3.487c-0.156-0.105-0.316-0.203-0.474-0.307
	c-0.671-0.441-1.344-0.88-2.027-1.304c-0.267-0.165-0.537-0.324-0.805-0.487c-0.579-0.353-1.159-0.706-1.746-1.045
	c-0.314-0.182-0.633-0.356-0.949-0.536c-0.547-0.309-1.095-0.617-1.648-0.915c-0.345-0.185-0.693-0.364-1.04-0.545
	c-0.532-0.278-1.065-0.557-1.603-0.824c-0.365-0.182-0.735-0.357-1.103-0.536c-0.524-0.253-1.049-0.505-1.578-0.748
	c-0.383-0.176-0.769-0.347-1.155-0.517c-0.521-0.232-1.045-0.462-1.571-0.685c-0.395-0.167-0.79-0.328-1.187-0.488
	c-0.523-0.213-1.048-0.424-1.574-0.628c-0.408-0.158-0.815-0.309-1.224-0.461c-0.523-0.194-1.049-0.383-1.577-0.568
	c-0.415-0.146-0.831-0.288-1.249-0.427c-0.528-0.176-1.057-0.348-1.589-0.516c-0.421-0.133-0.843-0.263-1.266-0.389
	c-0.533-0.16-1.067-0.314-1.604-0.463c-0.427-0.119-0.855-0.238-1.284-0.352c-0.536-0.142-1.074-0.277-1.613-0.408
	c-0.435-0.106-0.869-0.214-1.305-0.314c-0.541-0.125-1.084-0.242-1.628-0.357c-0.436-0.092-0.87-0.186-1.308-0.272
	c-0.549-0.109-1.103-0.207-1.655-0.306c-0.437-0.079-0.873-0.159-1.31-0.23c-0.561-0.092-1.121-0.173-1.683-0.255
	c-0.433-0.063-0.865-0.13-1.3-0.188c-0.575-0.075-1.154-0.138-1.732-0.203c-0.424-0.047-0.848-0.101-1.275-0.142
	c-0.604-0.059-1.212-0.104-1.82-0.152c-0.4-0.032-0.8-0.07-1.201-0.096c-0.68-0.045-1.36-0.074-2.043-0.104
	c-0.331-0.014-0.662-0.037-0.995-0.047c-1.015-0.033-2.034-0.051-3.054-0.051c-1.02,0-2.039,0.018-3.054,0.051
	c-0.333,0.01-0.664,0.033-0.995,0.047c-0.683,0.03-1.363,0.058-2.043,0.104c-0.402,0.026-0.801,0.064-1.201,0.096
	c-0.608,0.049-1.216,0.093-1.82,0.152c-0.427,0.042-0.849,0.095-1.275,0.142c-0.578,0.064-1.157,0.129-1.732,0.203
	c-0.435,0.058-0.866,0.123-1.3,0.188c-0.562,0.081-1.122,0.163-1.683,0.255c-0.437,0.072-0.873,0.152-1.31,0.23
	c-0.553,0.098-1.107,0.198-1.655,0.306c-0.437,0.085-0.872,0.18-1.308,0.272c-0.544,0.116-1.087,0.232-1.628,0.357
	c-0.436,0.101-0.87,0.207-1.305,0.314c-0.538,0.133-1.077,0.268-1.613,0.408c-0.428,0.114-0.856,0.232-1.283,0.352
	c-0.536,0.15-1.071,0.303-1.606,0.463c-0.423,0.127-0.844,0.256-1.266,0.389c-0.532,0.167-1.061,0.339-1.589,0.516
	c-0.417,0.139-0.834,0.281-1.248,0.427c-0.528,0.185-1.054,0.375-1.577,0.568c-0.408,0.151-0.815,0.303-1.224,0.461
	c-0.526,0.203-1.052,0.414-1.574,0.628c-0.398,0.161-0.793,0.322-1.187,0.488c-0.526,0.222-1.05,0.453-1.571,0.685
	c-0.386,0.171-0.772,0.341-1.155,0.517c-0.063,0.028-0.125,0.059-0.186,0.088c-0.466,0.215-0.929,0.437-1.393,0.66
	c-0.368,0.177-0.738,0.353-1.103,0.536c-0.538,0.268-1.07,0.546-1.603,0.824c-0.347,0.181-0.694,0.358-1.04,0.545
	c-0.553,0.298-1.1,0.607-1.648,0.915c-0.315,0.179-0.634,0.352-0.949,0.536c-0.587,0.34-1.167,0.692-1.746,1.045
	c-0.268,0.163-0.538,0.32-0.805,0.487c-0.683,0.424-1.356,0.863-2.027,1.304c-0.158,0.104-0.318,0.202-0.474,0.307
	c-1.663,1.109-3.293,2.274-4.884,3.487c-0.194,0.148-0.386,0.305-0.579,0.454c-0.591,0.458-1.179,0.918-1.76,1.39
	c-0.261,0.213-0.517,0.433-0.776,0.649c-0.505,0.421-1.012,0.841-1.508,1.273c-0.285,0.247-0.563,0.501-0.845,0.752
	c-0.462,0.411-0.923,0.82-1.377,1.239c-0.297,0.273-0.586,0.554-0.878,0.831c-0.432,0.41-0.863,0.818-1.285,1.237
	c-0.298,0.293-0.589,0.592-0.884,0.889c-0.408,0.414-0.814,0.826-1.216,1.247c-0.297,0.311-0.588,0.629-0.881,0.944
	c-0.387,0.419-0.775,0.839-1.154,1.264c-0.293,0.327-0.579,0.658-0.866,0.989c-0.369,0.425-0.738,0.853-1.1,1.287
	c-0.286,0.341-0.57,0.687-0.849,1.033c-0.353,0.433-0.701,0.87-1.048,1.309c-0.278,0.356-0.554,0.714-0.828,1.074
	c-0.336,0.442-0.67,0.889-0.998,1.338c-0.269,0.368-0.537,0.736-0.801,1.108c-0.322,0.453-0.639,0.911-0.954,1.371
	c-0.259,0.379-0.517,0.757-0.771,1.141c-0.121,0.182-0.238,0.368-0.356,0.55c-0.914,1.401-1.803,2.823-2.647,4.28
	c-3.583,6.193-10.144,9.825-17.046,9.825c-1.695,0-3.408-0.211-5.106-0.666c-8.592-2.308-14.575-10.109-14.575-19.019v52.513
	c0,10.875,8.817,19.692,19.692,19.692H256h196.923c10.875,0,19.692-8.817,19.692-19.692v-52.513
	C472.615,372.366,466.633,380.167,458.029,382.476z"/>
<path style="fill:#A9A8AE;" d="M255.999,383.151c-0.049,0-0.096-0.004-0.144-0.005c-0.131,0-0.263-0.009-0.395-0.013
	c-0.369-0.01-0.738-0.028-1.104-0.059c-0.158-0.013-0.316-0.029-0.475-0.047c-0.364-0.039-0.726-0.089-1.086-0.15
	c-0.137-0.024-0.274-0.042-0.411-0.068c-0.498-0.093-0.992-0.201-1.48-0.332c-0.003,0-0.005,0-0.008-0.001
	c-0.016-0.004-0.028-0.009-0.043-0.013c-0.465-0.126-0.92-0.272-1.372-0.431c-0.154-0.054-0.302-0.113-0.454-0.169
	c-0.316-0.119-0.629-0.247-0.939-0.383c-0.164-0.072-0.327-0.143-0.488-0.219c-0.323-0.152-0.639-0.315-0.956-0.486
	c-0.118-0.064-0.242-0.123-0.356-0.189c-0.416-0.236-0.823-0.488-1.224-0.754c-0.114-0.076-0.223-0.159-0.335-0.238
	c-0.294-0.205-0.583-0.415-0.865-0.637c-0.127-0.1-0.251-0.202-0.377-0.306c-0.267-0.219-0.526-0.446-0.782-0.68
	c-0.11-0.101-0.221-0.2-0.328-0.303c-0.288-0.274-0.564-0.561-0.836-0.853c-0.062-0.067-0.129-0.131-0.19-0.2
	c-0.332-0.37-0.654-0.754-0.958-1.153c-0.041-0.054-0.077-0.109-0.118-0.163c-0.249-0.333-0.492-0.675-0.723-1.027
	c-0.095-0.143-0.182-0.291-0.273-0.437c-0.108-0.173-0.222-0.341-0.324-0.52c-0.844-1.457-1.732-2.879-2.647-4.28
	c-0.119-0.184-0.236-0.369-0.356-0.55c-0.253-0.383-0.512-0.761-0.771-1.141c-0.314-0.46-0.631-0.918-0.954-1.371
	c-0.264-0.372-0.532-0.74-0.801-1.108c-0.328-0.449-0.662-0.895-0.998-1.338c-0.274-0.36-0.55-0.718-0.828-1.074
	c-0.347-0.44-0.694-0.876-1.048-1.309c-0.281-0.347-0.564-0.692-0.849-1.033c-0.362-0.433-0.731-0.861-1.1-1.287
	c-0.287-0.331-0.575-0.662-0.866-0.989c-0.285-0.319-0.575-0.63-0.861-0.945c-0.097-0.106-0.194-0.214-0.293-0.32
	c-0.293-0.316-0.584-0.633-0.881-0.944c-0.399-0.42-0.806-0.832-1.212-1.243c-0.297-0.299-0.589-0.6-0.889-0.894
	c-0.423-0.417-0.853-0.826-1.285-1.235c-0.291-0.277-0.579-0.557-0.874-0.83c-0.457-0.42-0.919-0.832-1.382-1.243
	c-0.281-0.249-0.559-0.503-0.843-0.75c-0.498-0.432-1.004-0.852-1.508-1.273c-0.259-0.215-0.515-0.436-0.776-0.649
	c-0.58-0.473-1.17-0.932-1.76-1.39c-0.193-0.15-0.385-0.306-0.579-0.454c-1.591-1.214-3.22-2.378-4.884-3.487
	c-0.156-0.105-0.316-0.203-0.474-0.307c-0.671-0.441-1.344-0.88-2.027-1.304c-0.267-0.165-0.537-0.324-0.805-0.487
	c-0.579-0.353-1.159-0.706-1.746-1.045c-0.314-0.182-0.633-0.356-0.949-0.536c-0.547-0.309-1.095-0.617-1.648-0.915
	c-0.345-0.185-0.693-0.364-1.04-0.545c-0.532-0.278-1.065-0.557-1.603-0.824c-0.365-0.182-0.735-0.357-1.103-0.536
	c-0.524-0.253-1.049-0.505-1.578-0.748c-0.383-0.176-0.769-0.347-1.155-0.517c-0.521-0.232-1.045-0.462-1.571-0.685
	c-0.395-0.167-0.79-0.328-1.187-0.488c-0.523-0.213-1.048-0.424-1.574-0.628c-0.408-0.158-0.815-0.309-1.224-0.461
	c-0.523-0.194-1.049-0.383-1.577-0.568c-0.415-0.146-0.831-0.288-1.249-0.427c-0.528-0.176-1.057-0.348-1.589-0.516
	c-0.421-0.133-0.843-0.263-1.266-0.389c-0.533-0.16-1.067-0.314-1.604-0.463c-0.427-0.119-0.855-0.238-1.284-0.352
	c-0.536-0.142-1.074-0.277-1.613-0.408c-0.435-0.106-0.869-0.214-1.305-0.314c-0.541-0.125-1.084-0.242-1.628-0.357
	c-0.436-0.092-0.87-0.186-1.308-0.272c-0.549-0.109-1.103-0.207-1.655-0.306c-0.437-0.079-0.873-0.159-1.31-0.23
	c-0.561-0.092-1.121-0.173-1.683-0.255c-0.433-0.063-0.865-0.13-1.3-0.188c-0.575-0.075-1.154-0.138-1.732-0.203
	c-0.424-0.047-0.848-0.101-1.275-0.142c-0.604-0.059-1.212-0.104-1.82-0.152c-0.4-0.032-0.8-0.07-1.201-0.096
	c-0.68-0.045-1.36-0.074-2.043-0.104c-0.331-0.014-0.662-0.037-0.995-0.047c-1.015-0.033-2.034-0.051-3.054-0.051
	c-1.02,0-2.039,0.018-3.054,0.051c-0.333,0.01-0.664,0.033-0.995,0.047c-0.683,0.03-1.363,0.058-2.043,0.104
	c-0.402,0.026-0.801,0.064-1.201,0.096c-0.608,0.049-1.216,0.093-1.82,0.152c-0.427,0.042-0.849,0.095-1.275,0.142
	c-0.578,0.064-1.157,0.129-1.732,0.203c-0.435,0.058-0.866,0.123-1.3,0.188c-0.562,0.081-1.122,0.163-1.683,0.255
	c-0.437,0.072-0.873,0.152-1.31,0.23c-0.553,0.098-1.107,0.198-1.655,0.306c-0.437,0.085-0.872,0.18-1.308,0.272
	c-0.544,0.116-1.087,0.232-1.628,0.357c-0.436,0.101-0.87,0.207-1.305,0.314c-0.538,0.133-1.077,0.268-1.613,0.408
	c-0.428,0.114-0.856,0.232-1.283,0.352c-0.536,0.15-1.071,0.303-1.606,0.463c-0.423,0.127-0.844,0.256-1.266,0.389
	c-0.532,0.167-1.061,0.339-1.589,0.516c-0.417,0.139-0.834,0.281-1.248,0.427c-0.528,0.185-1.054,0.375-1.577,0.568
	c-0.408,0.151-0.815,0.303-1.224,0.461c-0.526,0.203-1.052,0.414-1.574,0.628c-0.398,0.161-0.793,0.322-1.187,0.488
	c-0.526,0.222-1.05,0.453-1.571,0.685c-0.386,0.171-0.772,0.341-1.155,0.517c-0.063,0.028-0.125,0.059-0.186,0.088
	c-0.466,0.215-0.929,0.437-1.393,0.66c-0.368,0.177-0.738,0.353-1.103,0.536c-0.538,0.268-1.07,0.546-1.603,0.824
	c-0.347,0.181-0.694,0.358-1.04,0.545c-0.553,0.298-1.1,0.607-1.648,0.915c-0.315,0.179-0.634,0.352-0.949,0.536
	c-0.587,0.34-1.167,0.692-1.746,1.045c-0.268,0.163-0.538,0.32-0.805,0.487c-0.683,0.424-1.356,0.863-2.027,1.304
	c-0.158,0.104-0.318,0.202-0.474,0.307c-1.663,1.109-3.293,2.274-4.884,3.487c-0.194,0.148-0.386,0.305-0.579,0.454
	c-0.591,0.458-1.179,0.918-1.76,1.39c-0.261,0.213-0.517,0.433-0.776,0.649c-0.505,0.421-1.012,0.841-1.508,1.273
	c-0.285,0.247-0.563,0.501-0.845,0.752c-0.462,0.411-0.923,0.82-1.377,1.239c-0.297,0.273-0.586,0.554-0.878,0.831
	c-0.432,0.41-0.863,0.818-1.285,1.237c-0.298,0.293-0.589,0.592-0.884,0.889c-0.408,0.414-0.814,0.826-1.216,1.247
	c-0.297,0.311-0.588,0.629-0.881,0.944c-0.387,0.419-0.775,0.839-1.154,1.264c-0.293,0.327-0.579,0.658-0.866,0.989
	c-0.369,0.425-0.738,0.853-1.1,1.287c-0.286,0.341-0.57,0.687-0.849,1.033c-0.353,0.433-0.701,0.87-1.048,1.309
	c-0.278,0.356-0.554,0.714-0.828,1.074c-0.336,0.442-0.67,0.889-0.998,1.338c-0.269,0.368-0.537,0.736-0.801,1.108
	c-0.322,0.453-0.639,0.911-0.954,1.371c-0.259,0.379-0.517,0.757-0.771,1.141c-0.121,0.182-0.238,0.368-0.356,0.55
	c-0.914,1.401-1.803,2.823-2.647,4.28c-3.583,6.193-10.144,9.825-17.046,9.825c-1.695,0-3.408-0.211-5.106-0.666
	c-8.599-2.307-14.581-10.107-14.581-19.018v52.513c0,10.875,8.817,19.692,19.692,19.692H256L255.999,383.151
	C256,383.151,256,383.151,255.999,383.151z"/>
<g>
</g>
<g>
</g>
<g>
</g>
<g>
</g>
<g>
</g>
<g>
</g>
<g>
</g>
<g>
</g>
<g>
</g>
<g>
</g>
<g>
</g>
<g>
</g>
<g>
</g>
<g>
</g>
<g>
</g>
</svg>
