<?xml version="1.0" encoding="iso-8859-1"?>
<!-- Generator: Adobe Illustrator 19.0.0, SVG Export Plug-In . SVG Version: 6.00 Build 0)  -->
<svg version="1.1" id="Layer_1" xmlns="http://www.w3.org/2000/svg" xmlns:xlink="http://www.w3.org/1999/xlink" x="0px" y="0px"
	 viewBox="0 0 512 512" style="enable-background:new 0 0 512 512;" xml:space="preserve">
<path style="fill:#FF0C38;" d="M442.182,0H256h-77.576C105.706,0,46.545,59.162,46.545,131.882
	c0,72.716,59.161,131.876,131.879,131.876h54.303v224.97C232.727,501.58,243.147,512,256,512c12.853,0,23.273-10.42,23.273-23.273
	V240.485V46.545h46.545v442.182c0,12.853,10.42,23.273,23.273,23.273c12.853,0,23.273-10.42,23.273-23.273V46.545h69.818
	c12.853,0,23.273-10.42,23.273-23.273S455.035,0,442.182,0z M232.727,217.212h-54.303c-47.053,0-85.333-38.279-85.333-85.33
	c0-47.054,38.281-85.336,85.333-85.336h54.303V217.212z"/>
<g>
</g>
<g>
</g>
<g>
</g>
<g>
</g>
<g>
</g>
<g>
</g>
<g>
</g>
<g>
</g>
<g>
</g>
<g>
</g>
<g>
</g>
<g>
</g>
<g>
</g>
<g>
</g>
<g>
</g>
</svg>
