<?xml version="1.0" encoding="iso-8859-1"?>
<!-- Generator: Adobe Illustrator 19.0.0, SVG Export Plug-In . SVG Version: 6.00 Build 0)  -->
<svg version="1.1" id="Layer_1" xmlns="http://www.w3.org/2000/svg" xmlns:xlink="http://www.w3.org/1999/xlink" x="0px" y="0px"
	 viewBox="0 0 496 496" style="enable-background:new 0 0 496 496;" xml:space="preserve">
<rect x="239.283" y="39.134" transform="matrix(0.7071 0.7071 -0.7071 0.7071 211.716 -190.0609)" style="fill:#4BB19B;" width="191.998" height="242.798"/>
<rect x="183.083" y="113.86" transform="matrix(0.7071 -0.7071 0.7071 0.7071 -2.5027 253.2773)" style="fill:#61C2AB;" width="242.798" height="31.6"/>
<path style="fill:#E8E3E3;" d="M74.4,451.2l8,8L314,316.8L297.6,300L108.4,416.4c-0.4,0-0.8,0.4-1.2,0.4c-0.8,0-1.2-0.4-1.6-0.8
	c-0.4-0.8-0.4-2,0.8-2.8l188.4-116L179.2,181.6L36.8,413.2L74.4,451.2L74.4,451.2L74.4,451.2z"/>
<g>
	
		<rect x="22.699" y="432.922" transform="matrix(0.707 0.7072 -0.7072 0.707 333.6581 103.6817)" style="fill:#AEB1B4;" width="38" height="43.2"/>
	<path style="fill:#AEB1B4;" d="M6,470.8c0,5.2,2,10,5.6,13.6S20,490,25.2,490c4.4,0,8.4-1.6,12-4.4l-26.4-26.4
		C7.6,462.4,6,466.4,6,470.8z"/>
</g>
<g>
	<polygon style="fill:#CCCCCC;" points="70.4,452.4 71.6,451.2 51.6,431.2 44.8,424.4 43.6,425.6 	"/>
	<path style="fill:#CCCCCC;" d="M71.6,451.2l-20-20L71.6,451.2z"/>
</g>
<path d="M82.4,465.6c-1.2,0-2-0.4-2.8-1.2l-48.4-48c-1.2-1.2-1.6-3.2-0.4-4.8l144.8-235.2c0-0.4,0.4-0.4,0.4-0.8L350.4,1.2
	c0.8-0.8,1.6-1.2,2.8-1.2l0,0c1.2,0,2,0.4,2.8,1.2L494.4,140c1.6,1.6,1.6,4,0,5.6L320,320c-0.4,0.4-0.4,0.4-0.8,0.4L84.4,464.8
	C84,465.6,83.2,465.6,82.4,465.6z M39.2,412.8l44,43.6L314.8,314L486,142.8L353.2,9.6L182,180.8L39.2,412.8z"/>
<path d="M25.2,496c-6.4,0-12.8-2.4-17.6-7.2c-9.6-9.6-9.6-25.6,0-35.2l33.2-33.2c1.6-1.6,4-1.6,5.6,0s1.6,4,0,5.6l-33.2,33.2
	c-6.4,6.4-6.4,17.6,0,24s17.2,6.4,24,0L70.4,450c1.6-1.6,4-1.6,5.6,0s1.6,4,0,5.6l-33.2,33.2C38,493.6,31.6,496,25.2,496z"/>
<path d="M317.2,321.2c-1.2,0-2-0.4-2.8-1.2L176,181.2c-1.6-1.6-1.6-4,0-5.6s4-1.6,5.6,0L320,314.4c1.6,1.6,1.6,4,0,5.6
	C319.2,320.8,318.4,321.2,317.2,321.2z"/>
<path d="M107.2,418.8c-1.2,0-2.8-0.8-3.6-2c-1.2-2-0.4-4.4,1.2-5.6l190.4-116.8c2-1.2,4.4-0.4,5.6,1.2c1.2,2,0.4,4.4-1.2,5.6
	L109.2,418C108.8,418.8,108,418.8,107.2,418.8z"/>
<path d="M40,489.6c-1.2,0-2-0.4-2.8-1.2L7.6,459.2c-1.6-1.6-1.6-4,0-5.6s4-1.6,5.6,0l29.6,29.2c1.6,1.6,1.6,4,0,5.6
	C42,489.2,41.2,489.6,40,489.6z"/>
<g>
</g>
<g>
</g>
<g>
</g>
<g>
</g>
<g>
</g>
<g>
</g>
<g>
</g>
<g>
</g>
<g>
</g>
<g>
</g>
<g>
</g>
<g>
</g>
<g>
</g>
<g>
</g>
<g>
</g>
</svg>
