<?xml version="1.0" encoding="iso-8859-1"?>
<!-- Generator: Adobe Illustrator 19.0.0, SVG Export Plug-In . SVG Version: 6.00 Build 0)  -->
<svg version="1.1" id="Layer_1" xmlns="http://www.w3.org/2000/svg" xmlns:xlink="http://www.w3.org/1999/xlink" x="0px" y="0px"
	 viewBox="0 0 460 460" style="enable-background:new 0 0 460 460;" xml:space="preserve">
<g id="XMLID_1151_">
	<polygon id="XMLID_1152_" style="fill:#FB992D;" points="201.48,173.196 85.295,85.295 64.082,134.792 138.077,208.788 	"/>
	<polygon id="XMLID_1153_" style="fill:#FFD488;" points="387.486,387.486 445.858,431.716 414.583,448.849 366.273,436.984 	"/>
	<polygon id="XMLID_1154_" style="fill:#FFEAC3;" points="436.984,366.273 448.849,414.583 438.787,438.787 387.486,387.486 	"/>
	<polygon id="XMLID_1155_" style="fill:#FB992D;" points="265.356,237.072 230.001,300.711 366.273,436.984 401.628,401.628 	"/>
	<path id="XMLID_1156_" style="fill:#FA6121;" d="M14.584,85.295l28.284,28.284l63.64-35.355l-91.924-63.64
		C-4.861,34.03-4.861,65.849,14.584,85.295z"/>
	<path id="XMLID_1157_" style="fill:#FB7B46;" d="M85.295,14.584l28.284,28.284L92.366,92.366L14.584,14.584
		C34.03-4.861,65.849-4.861,85.295,14.584z"/>
	<polygon id="XMLID_1158_" style="fill:#FFB739;" points="85.295,85.295 401.628,401.628 436.984,366.273 134.792,64.082 	"/>
	<polygon id="XMLID_1159_" style="fill:#FFD488;" points="64.082,134.792 99.437,99.437 95.901,81.759 78.224,78.224 
		42.868,113.579 	"/>
	
		<rect id="XMLID_1160_" x="81.51" y="56.153" transform="matrix(0.7071 -0.7071 0.7071 0.7071 -19.1165 96.1537)" style="fill:#FFEAC3;" width="49.999" height="30"/>
	<polygon id="XMLID_1161_" style="fill:#233145;" points="431.716,431.716 452.929,438.787 460,460 414.583,448.849 	"/>
	<polygon id="XMLID_1162_" style="fill:#466289;" points="448.849,414.583 460,460 431.716,431.716 	"/>
	<polygon id="XMLID_1163_" style="fill:#BEC8D6;" points="93.724,436.987 0,460 58.369,387.49 	"/>
	<polygon id="XMLID_1164_" style="fill:#DAE0E7;" points="23.014,366.277 0,460 65.44,394.561 	"/>
	<polygon id="XMLID_1165_" style="fill:#233145;" points="362.425,168.287 93.724,436.987 58.369,401.632 327.069,104.647 	"/>
	<polygon id="XMLID_1166_" style="fill:#BEC8D6;" points="460,28.274 431.726,0 369.495,62.22 397.78,90.505 	"/>
	<polygon id="XMLID_1167_" style="fill:#466289;" points="433.135,97.576 383.638,147.074 327.069,104.647 397.78,62.221 	"/>
	<polygon id="XMLID_1168_" style="fill:#466289;" points="341.212,118.789 58.369,401.632 23.014,366.277 291.714,97.576 	"/>
	<polygon id="XMLID_1169_" style="fill:#6B81A1;" points="397.78,62.221 334.141,125.86 312.927,76.363 362.425,26.865 	"/>
	<polygon id="XMLID_1170_" style="fill:#BEC8D6;" points="362.425,168.287 327.069,132.931 330.605,115.254 348.283,111.718 
		383.638,147.074 	"/>
	<polygon id="XMLID_1171_" style="fill:#DAE0E7;" points="348.282,111.718 291.719,55.155 138.077,208.787 159.29,230 
		291.714,97.576 327.069,132.931 	"/>
</g>
<g>
</g>
<g>
</g>
<g>
</g>
<g>
</g>
<g>
</g>
<g>
</g>
<g>
</g>
<g>
</g>
<g>
</g>
<g>
</g>
<g>
</g>
<g>
</g>
<g>
</g>
<g>
</g>
<g>
</g>
</svg>
