<?xml version="1.0" encoding="UTF-8" standalone="no"?>
<svg
   xmlns:dc="http://purl.org/dc/elements/1.1/"
   xmlns:cc="http://creativecommons.org/ns#"
   xmlns:rdf="http://www.w3.org/1999/02/22-rdf-syntax-ns#"
   xmlns:svg="http://www.w3.org/2000/svg"
   xmlns="http://www.w3.org/2000/svg"
   xmlns:sodipodi="http://sodipodi.sourceforge.net/DTD/sodipodi-0.dtd"
   xmlns:inkscape="http://www.inkscape.org/namespaces/inkscape"
   version="1.1"
   id="Layer_1"
   x="0px"
   y="0px"
   viewBox="0 0 460.025 460.025"
   style="enable-background:new 0 0 460.025 460.025;"
   xml:space="preserve"
   sodipodi:docname="scissors.svg"
   inkscape:version="1.0.2 (e86c870879, 2021-01-15)"><metadata
   id="metadata51"><rdf:RDF><cc:Work
       rdf:about=""><dc:format>image/svg+xml</dc:format><dc:type
         rdf:resource="http://purl.org/dc/dcmitype/StillImage" /></cc:Work></rdf:RDF></metadata><defs
   id="defs49" /><sodipodi:namedview
   pagecolor="#ffffff"
   bordercolor="#666666"
   borderopacity="1"
   objecttolerance="10"
   gridtolerance="10"
   guidetolerance="10"
   inkscape:pageopacity="0"
   inkscape:pageshadow="2"
   inkscape:window-width="1680"
   inkscape:window-height="982"
   id="namedview47"
   showgrid="false"
   inkscape:zoom="0.86190969"
   inkscape:cx="-1.3931496"
   inkscape:cy="210.62301"
   inkscape:window-x="0"
   inkscape:window-y="15"
   inkscape:window-maximized="1"
   inkscape:current-layer="Layer_1" />
<path
   style="fill:#dd6e12;fill-opacity:1"
   d="M363.72,10.091c-17.237-10.009-37.326-12.684-56.564-7.526c-19.296,5.17-35.415,17.586-45.388,34.96  c-15.021,26.167-12.461,57.757,3.938,80.91l-15.446,26.907l53.011,30.782l15.31-26.67c2.549,0.268,5.112,0.409,7.683,0.409  c6.452,0,12.948-0.849,19.349-2.563c19.296-5.171,35.415-17.587,45.39-34.961C411.514,76.606,399.276,30.738,363.72,10.091z   M356.311,92.424c-4.636,8.075-12.111,13.842-21.051,16.237c-8.883,2.378-18.161,1.143-26.125-3.482  c-16.576-9.625-22.263-31.041-12.676-47.741c4.635-8.075,12.11-13.841,21.05-16.236c2.954-0.792,5.95-1.184,8.929-1.184  c5.979,0,11.88,1.578,17.196,4.665C360.211,54.308,365.898,75.725,356.311,92.424z"
   id="path2" />
<path
   style="fill:#D8D9DD;"
   d="M201.976,352.585l101.34-176.537l-53.011-30.782l-77.994,135.867  c-6.803,11.851-86.856,147.044-32.01,178.892L201.976,352.585z"
   id="path4" />
<path
   style="opacity:0.3;fill:#dd6e12;fill-opacity:1;enable-background:new"
   d="M 363.764,10.016 C 346.528,0.008 326.44,-2.666 307.202,2.488 c -19.296,5.17 -35.416,17.586 -45.391,34.962 -15.02,26.167 -12.459,57.755 3.94,80.908 l -15.446,26.908 v 0 l -77.949,135.79 C 165.553,292.907 85.5,428.1 140.346,459.948 l 61.675,-107.439 101.34,-176.538 v 0 l 15.265,-26.593 c 2.548,0.268 5.111,0.409 7.682,0.409 6.452,0 12.948,-0.849 19.349,-2.563 19.296,-5.17 35.416,-17.586 45.391,-34.961 20.51,-35.734 8.272,-81.601 -27.284,-102.247 z m -7.409,82.332 c -4.636,8.076 -12.112,13.843 -21.052,16.238 -8.883,2.379 -18.16,1.143 -26.124,-3.482 -16.575,-9.625 -22.263,-31.041 -12.677,-47.74 4.636,-8.076 12.112,-13.843 21.052,-16.238 2.953,-0.791 5.95,-1.183 8.928,-1.183 5.979,0 11.88,1.577 17.196,4.665 16.577,9.625 22.263,31.042 12.677,47.74 z"
   id="path6" />
<path
   style="fill:#ff9100;fill-opacity:1"
   d="M209.764,145.342l-15.446-26.908c16.4-23.152,18.96-54.742,3.939-80.909  c-9.974-17.374-26.093-29.79-45.389-34.961c-19.237-5.153-39.326-2.48-56.563,7.527C60.749,30.738,48.511,76.606,69.023,112.338  c9.974,17.374,26.093,29.79,45.389,34.961c6.402,1.715,12.895,2.563,19.349,2.563c2.571,0,5.134-0.141,7.683-0.409l15.31,26.67  L209.764,145.342z M124.765,108.662c-8.939-2.395-16.416-8.161-21.051-16.237c-9.586-16.699-3.899-38.116,12.677-47.741  c5.316-3.087,11.218-4.665,17.196-4.665c2.978,0,5.976,0.392,8.929,1.184c8.939,2.395,16.416,8.161,21.051,16.237  c9.586,16.699,3.899,38.115-12.678,47.74C142.923,109.804,133.645,111.04,124.765,108.662z"
   id="path8" />
<path
   style="fill:#D8D9DD;"
   d="M258.049,352.585l-101.34-176.537l53.011-30.782l77.994,135.868  c6.803,11.851,86.856,147.044,32.01,178.892L258.049,352.585z"
   id="path10" />
<ellipse
   style="fill:#808083;"
   cx="231.33"
   cy="239.884"
   rx="18.837"
   ry="18.945"
   id="ellipse12" />
<polygon
   style="opacity:0.4;fill:#5B5B5F;enable-background:new    ;"
   points="241.041,233.663 237.495,230.137 231.33,236.337   225.165,230.137 221.619,233.663 227.804,239.883 221.619,246.104 225.165,249.629 231.33,243.429 237.495,249.629 241.041,246.104   234.856,239.883 "
   id="polygon14" />
<g
   id="g16">
</g>
<g
   id="g18">
</g>
<g
   id="g20">
</g>
<g
   id="g22">
</g>
<g
   id="g24">
</g>
<g
   id="g26">
</g>
<g
   id="g28">
</g>
<g
   id="g30">
</g>
<g
   id="g32">
</g>
<g
   id="g34">
</g>
<g
   id="g36">
</g>
<g
   id="g38">
</g>
<g
   id="g40">
</g>
<g
   id="g42">
</g>
<g
   id="g44">
</g>
</svg>
