<?xml version="1.0" encoding="UTF-8" standalone="no"?>
<svg
   xmlns:dc="http://purl.org/dc/elements/1.1/"
   xmlns:cc="http://creativecommons.org/ns#"
   xmlns:rdf="http://www.w3.org/1999/02/22-rdf-syntax-ns#"
   xmlns:svg="http://www.w3.org/2000/svg"
   xmlns="http://www.w3.org/2000/svg"
   xmlns:sodipodi="http://sodipodi.sourceforge.net/DTD/sodipodi-0.dtd"
   xmlns:inkscape="http://www.inkscape.org/namespaces/inkscape"
   version="1.1"
   id="Capa_1"
   x="0px"
   y="0px"
   viewBox="0 0 59 59"
   style="enable-background:new 0 0 59 59;"
   xml:space="preserve"
   sodipodi:docname="server.svg"
   inkscape:version="1.0.2 (e86c870879, 2021-01-15)"><metadata
   id="metadata119"><rdf:RDF><cc:Work
       rdf:about=""><dc:format>image/svg+xml</dc:format><dc:type
         rdf:resource="http://purl.org/dc/dcmitype/StillImage" /></cc:Work></rdf:RDF></metadata><defs
   id="defs117">
	
	
</defs><sodipodi:namedview
   pagecolor="#ffffff"
   bordercolor="#666666"
   borderopacity="1"
   objecttolerance="10"
   gridtolerance="10"
   guidetolerance="10"
   inkscape:pageopacity="0"
   inkscape:pageshadow="2"
   inkscape:window-width="1680"
   inkscape:window-height="982"
   id="namedview115"
   showgrid="false"
   inkscape:zoom="13.440678"
   inkscape:cx="29.648802"
   inkscape:cy="29.5"
   inkscape:window-x="0"
   inkscape:window-y="15"
   inkscape:window-maximized="1"
   inkscape:current-layer="Capa_1" />
<g
   id="g74">
		<path
   style="fill:#556080"
   d="M 54.392,19 H 3.608 C 1.616,19 0,17.384 0,15.392 V 3.608 C 0,1.616 1.616,0 3.608,0 H 54.391 C 56.384,0 58,1.616 58,3.608 V 15.391 C 58,17.384 56.384,19 54.392,19 Z"
   id="path2" />
		<path
   style="fill:#38454f"
   d="M 54.392,38 H 3.608 C 1.616,38 0,36.384 0,34.392 V 22.608 C 0,20.616 1.616,19 3.608,19 H 54.391 C 56.384,19 58,20.616 58,22.608 V 34.391 C 58,36.384 56.384,38 54.392,38 Z"
   id="path4" />
		<path
   style="fill:#556080"
   d="M 54.392,57 H 3.608 C 1.616,57 0,55.384 0,53.392 V 41.608 C 0,39.616 1.616,38 3.608,38 H 54.391 C 56.384,38 58,39.616 58,41.608 V 53.391 C 58,55.384 56.384,57 54.392,57 Z"
   id="path6" />
		<circle
   style="fill:#8697cb"
   cx="9.5"
   cy="9.5"
   r="3.5"
   id="circle8" />
		<circle
   style="fill:#8697cb"
   cx="49"
   cy="8"
   r="1"
   id="circle10" />
		<circle
   style="fill:#8697cb"
   cx="45"
   cy="8"
   r="1"
   id="circle12" />
		<circle
   style="fill:#8697cb"
   cx="51"
   cy="11"
   r="1"
   id="circle14" />
		<circle
   style="fill:#8697cb"
   cx="47"
   cy="11"
   r="1"
   id="circle16" />
		<circle
   style="fill:#8697cb"
   cx="41"
   cy="8"
   r="1"
   id="circle18" />
		<circle
   style="fill:#8697cb"
   cx="43"
   cy="11"
   r="1"
   id="circle20" />
		<circle
   style="fill:#8697cb"
   cx="37"
   cy="8"
   r="1"
   id="circle22" />
		<circle
   style="fill:#8697cb"
   cx="39"
   cy="11"
   r="1"
   id="circle24" />
		<circle
   style="fill:#8697cb"
   cx="33"
   cy="8"
   r="1"
   id="circle26" />
		<circle
   style="fill:#8697cb"
   cx="35"
   cy="11"
   r="1"
   id="circle28" />
		<circle
   style="fill:#8697cb"
   cx="9.5"
   cy="28.5"
   r="3.5"
   id="circle30" />
		<circle
   style="fill:#8697cb"
   cx="49"
   cy="27"
   r="1"
   id="circle32" />
		<circle
   style="fill:#8697cb"
   cx="45"
   cy="27"
   r="1"
   id="circle34" />
		<circle
   style="fill:#8697cb"
   cx="51"
   cy="30"
   r="1"
   id="circle36" />
		<circle
   style="fill:#8697cb"
   cx="47"
   cy="30"
   r="1"
   id="circle38" />
		<circle
   style="fill:#8697cb"
   cx="41"
   cy="27"
   r="1"
   id="circle40" />
		<circle
   style="fill:#8697cb"
   cx="43"
   cy="30"
   r="1"
   id="circle42" />
		<circle
   style="fill:#8697cb"
   cx="37"
   cy="27"
   r="1"
   id="circle44" />
		<circle
   style="fill:#8697cb"
   cx="39"
   cy="30"
   r="1"
   id="circle46" />
		<circle
   style="fill:#8697cb"
   cx="33"
   cy="27"
   r="1"
   id="circle48" />
		<circle
   style="fill:#8697cb"
   cx="35"
   cy="30"
   r="1"
   id="circle50" />
		<circle
   style="fill:#8697cb"
   cx="9.5"
   cy="47.5"
   r="3.5"
   id="circle52" />
		<circle
   style="fill:#8697cb"
   cx="49"
   cy="46"
   r="1"
   id="circle54" />
		<circle
   style="fill:#8697cb"
   cx="45"
   cy="46"
   r="1"
   id="circle56" />
		<circle
   style="fill:#8697cb"
   cx="51"
   cy="49"
   r="1"
   id="circle58" />
		<circle
   style="fill:#8697cb"
   cx="47"
   cy="49"
   r="1"
   id="circle60" />
		<circle
   style="fill:#8697cb"
   cx="41"
   cy="46"
   r="1"
   id="circle62" />
		<circle
   style="fill:#8697cb"
   cx="43"
   cy="49"
   r="1"
   id="circle64" />
		<circle
   style="fill:#8697cb"
   cx="37"
   cy="46"
   r="1"
   id="circle66" />
		<circle
   style="fill:#8697cb"
   cx="39"
   cy="49"
   r="1"
   id="circle68" />
		<circle
   style="fill:#8697cb"
   cx="33"
   cy="46"
   r="1"
   id="circle70" />
		<circle
   style="fill:#8697cb"
   cx="35"
   cy="49"
   r="1"
   id="circle72" />
	</g>
<g
   id="g84">
</g>
<g
   id="g86">
</g>
<g
   id="g88">
</g>
<g
   id="g90">
</g>
<g
   id="g92">
</g>
<g
   id="g94">
</g>
<g
   id="g96">
</g>
<g
   id="g98">
</g>
<g
   id="g100">
</g>
<g
   id="g102">
</g>
<g
   id="g104">
</g>
<g
   id="g106">
</g>
<g
   id="g108">
</g>
<g
   id="g110">
</g>
<g
   id="g112">
</g>
</svg>
