<?xml version="1.0" encoding="iso-8859-1"?>
<!-- Generator: Adobe Illustrator 19.0.0, SVG Export Plug-In . SVG Version: 6.00 Build 0)  -->
<svg version="1.1" id="Layer_1" xmlns="http://www.w3.org/2000/svg" xmlns:xlink="http://www.w3.org/1999/xlink" x="0px" y="0px"
	 viewBox="0 0 512.001 512.001" style="enable-background:new 0 0 512.001 512.001;" xml:space="preserve">
<path style="fill:#FFCD00;" d="M507.093,483.425L28.578,4.91c-4.78-4.779-11.989-6.239-18.244-3.629
	C4.08,3.869,0.003,9.972,0.003,16.745v478.514c0,9.247,7.493,16.74,16.74,16.74h478.514c6.773,0,12.876-4.076,15.464-10.332
	C513.315,495.412,511.883,488.209,507.093,483.425z M268.249,401.231c-2.588,6.255-8.691,10.332-15.464,10.332H117.18
	c-9.247,0-16.74-7.493-16.74-16.74v-135.6c0-6.767,4.076-12.876,10.332-15.464c6.266-2.61,13.47-1.155,18.244,3.629l135.606,135.6
	C269.41,387.772,270.843,394.975,268.249,401.231z"/>
<path style="fill:#FFA733;" d="M510.722,501.668c2.594-6.255,1.161-13.46-3.629-18.244L267.835,244.168l-71.019,71.019
	l67.804,67.802c4.79,4.784,6.223,11.988,3.629,18.244c-2.588,6.255-8.691,10.332-15.464,10.332H117.18
	c-4.623,0-8.808-1.873-11.838-4.901L4.904,507.1c3.03,3.029,7.215,4.901,11.838,4.901h478.514
	C502.031,512,508.133,507.923,510.722,501.668z"/>
<g>
	<path style="fill:#FF9811;" d="M256.477,232.809l-32.239,32.239c-6.538,6.533-6.538,17.137,0,23.671
		c3.27,3.27,7.553,4.905,11.835,4.905c4.282,0,8.566-1.635,11.835-4.905l32.239-32.239L256.477,232.809z"/>
	<path style="fill:#FF9811;" d="M172.269,174.98c-6.538,6.533-6.538,17.137,0,23.671c3.27,3.27,7.553,4.905,11.835,4.905
		s8.566-1.635,11.835-4.905l13.19-13.19l-23.671-23.671L172.269,174.98z"/>
	<path style="fill:#FF9811;" d="M82.197,123.013c-6.538,6.533-6.538,17.137,0,23.671c3.27,3.27,7.553,4.905,11.835,4.905
		c4.282,0,8.566-1.635,11.835-4.905l32.243-32.243l-23.671-23.671L82.197,123.013z"/>
</g>
<g>
	<path style="fill:#EE8700;" d="M398.517,374.85l-32.239,32.239c-6.538,6.533-6.538,17.137,0,23.671
		c3.27,3.27,7.553,4.905,11.835,4.905c4.282,0,8.566-1.635,11.835-4.905l32.239-32.239L398.517,374.85z"/>
	<path style="fill:#EE8700;" d="M327.498,303.831l-13.189,13.191c-6.538,6.538-6.538,17.137,0,23.671
		c3.27,3.27,7.553,4.905,11.835,4.905c4.282,0,8.572-1.635,11.835-4.905l13.188-13.191L327.498,303.831z"/>
	<path style="fill:#EE8700;" d="M267.835,244.168l-44.051,44.051c0.153,0.165,0.292,0.34,0.453,0.501
		c3.27,3.27,7.553,4.905,11.835,4.905c4.282,0,8.566-1.635,11.835-4.905l32.239-32.239L267.835,244.168z"/>
</g>
<g>
</g>
<g>
</g>
<g>
</g>
<g>
</g>
<g>
</g>
<g>
</g>
<g>
</g>
<g>
</g>
<g>
</g>
<g>
</g>
<g>
</g>
<g>
</g>
<g>
</g>
<g>
</g>
<g>
</g>
</svg>
