<?xml version="1.0" encoding="iso-8859-1"?>
<!-- Generator: Adobe Illustrator 19.0.0, SVG Export Plug-In . SVG Version: 6.00 Build 0)  -->
<svg version="1.1" id="Layer_1" xmlns="http://www.w3.org/2000/svg" xmlns:xlink="http://www.w3.org/1999/xlink" x="0px" y="0px"
	 viewBox="0 0 183.317 183.317" style="enable-background:new 0 0 183.317 183.317;" xml:space="preserve">
<g>
	<g>
		<path d="M177.046,37.383L161.459,2.314C160.836,0.906,159.439,0,157.9,0H25.417c-1.539,0-2.936,0.906-3.56,2.314L6.271,37.383
			c-0.875,1.967,0.011,4.269,1.977,5.145c1.969,0.871,4.271-0.015,5.143-1.979L27.95,7.793h59.812v89.621H29.314v7.793h58.448
			v70.138H72.176v7.793h15.586v0.179h7.793v-0.179h15.586v-7.793H95.555v-70.138h58.448v-7.793H95.555V7.793h59.812l14.559,32.755
			c0.645,1.454,2.068,2.314,3.561,2.314c0.529,0,1.065-0.106,1.581-0.335C177.034,41.652,177.921,39.35,177.046,37.383z"/>
	</g>
</g>
<g>
</g>
<g>
</g>
<g>
</g>
<g>
</g>
<g>
</g>
<g>
</g>
<g>
</g>
<g>
</g>
<g>
</g>
<g>
</g>
<g>
</g>
<g>
</g>
<g>
</g>
<g>
</g>
<g>
</g>
</svg>
