<?xml version="1.0" encoding="iso-8859-1"?>
<!-- Generator: Adobe Illustrator 19.0.0, SVG Export Plug-In . SVG Version: 6.00 Build 0)  -->
<svg version="1.1" id="Layer_1" xmlns="http://www.w3.org/2000/svg" xmlns:xlink="http://www.w3.org/1999/xlink" x="0px" y="0px"
	 viewBox="0 0 512 512" style="enable-background:new 0 0 512 512;" xml:space="preserve">
<path style="fill:#CFF09E;" d="M453.019,446.612h-32.848V270.594c0-2.923-2.368-5.29-5.289-5.29H328.21
	c-2.923,0-5.29,2.368-5.29,5.29v39.855c0,2.923,2.368,5.289,5.29,5.289h36.317v130.872h-32.848c-2.923,0-5.29,2.368-5.29,5.29
	v39.857c0,2.923,2.368,5.29,5.29,5.29h121.342c2.923,0,5.29-2.368,5.29-5.29V451.9C458.31,448.979,455.942,446.612,453.019,446.612z
	"/>
<path style="fill:#507C5C;" d="M453.021,512H331.678c-11.161,0-20.24-9.079-20.24-20.242v-39.857c0-11.161,9.079-20.24,20.24-20.24
	h17.897v-100.97H328.21c-11.161,0-20.24-9.08-20.24-20.24v-39.855c0-11.161,9.079-20.24,20.24-20.24h86.673
	c11.161,0,20.24,9.079,20.24,20.24v161.066h17.899c11.161,0,20.24,9.079,20.24,20.24v39.857
	C473.261,502.921,464.181,512,453.021,512z M341.34,482.099h102.02v-20.536h-23.188c-8.256,0-14.951-6.695-14.951-14.951V280.255
	H337.87v20.533h26.655c8.256,0,14.951,6.695,14.951,14.951v130.872c0,8.256-6.695,14.951-14.951,14.951h-23.187v20.538H341.34z"/>
<rect x="146.949" y="350.936" style="fill:#CFF09E;" width="138.592" height="52.977"/>
<g>
	<path style="fill:#507C5C;" d="M285.538,335.984h-17.219v-120.37c0-8.256-6.695-14.951-14.951-14.951
		c-8.256,0-14.951,6.695-14.951,14.951v120.37h-91.474c-8.256,0-14.951,6.695-14.951,14.951v52.979
		c0,8.256,6.695,14.951,14.951,14.951h138.594c8.256,0,14.951-6.695,14.951-14.951v-52.979
		C300.489,342.677,293.795,335.984,285.538,335.984z M270.587,388.961H161.895v-23.078h108.692V388.961z"/>
	<path style="fill:#507C5C;" d="M178.299,312.507c-8.256,0-14.951-6.695-14.951-14.951V95.198h-29.954v23.393
		c0,8.256-6.695,14.951-14.951,14.951H53.688c-8.256,0-14.951-6.695-14.951-14.951V14.951C38.738,6.695,45.433,0,53.688,0h324.02
		c8.256,0,14.951,6.695,14.951,14.951v103.641c0,8.256-6.695,14.951-14.951,14.951h-64.756c-8.256,0-14.951-6.695-14.951-14.951
		V95.198h-29.683v57.41c0,8.256-6.695,14.951-14.951,14.951c-8.256,0-14.951-6.695-14.951-14.951V80.247
		c0-8.256,6.695-14.951,14.951-14.951h59.584c8.256,0,14.951,6.695,14.951,14.951v23.393h34.854V29.901H68.639v73.739h34.854V80.247
		c0-8.256,6.695-14.951,14.951-14.951h59.855c8.256,0,14.951,6.695,14.951,14.951v217.31
		C193.249,305.813,186.554,312.507,178.299,312.507z"/>
</g>
<g>
</g>
<g>
</g>
<g>
</g>
<g>
</g>
<g>
</g>
<g>
</g>
<g>
</g>
<g>
</g>
<g>
</g>
<g>
</g>
<g>
</g>
<g>
</g>
<g>
</g>
<g>
</g>
<g>
</g>
</svg>
