<?xml version="1.0" encoding="iso-8859-1"?>
<!-- Generator: Adobe Illustrator 19.0.0, SVG Export Plug-In . SVG Version: 6.00 Build 0)  -->
<svg version="1.1" id="Layer_1" xmlns="http://www.w3.org/2000/svg" xmlns:xlink="http://www.w3.org/1999/xlink" x="0px" y="0px"
	 viewBox="0 0 306.388 306.388" style="enable-background:new 0 0 306.388 306.388;" xml:space="preserve">
<g>
	<path style="fill:#324D5B;" d="M52.66,0h201.067c10.57,0,19.149,8.579,19.149,19.149v268.09c0,10.58-8.579,19.149-19.149,19.149
		H52.66c-10.57,0-19.149-8.569-19.149-19.149V19.149C33.511,8.579,42.09,0,52.66,0z"/>
	<path style="fill:#576E78;" d="M52.66,38.299v220.216h201.067V38.299H52.66z M153.194,268.09c-7.928,0-14.362,6.434-14.362,14.362
		s6.434,14.362,14.362,14.362c7.928,0,14.362-6.434,14.362-14.362S161.122,268.09,153.194,268.09z"/>
</g>
<g>
</g>
<g>
</g>
<g>
</g>
<g>
</g>
<g>
</g>
<g>
</g>
<g>
</g>
<g>
</g>
<g>
</g>
<g>
</g>
<g>
</g>
<g>
</g>
<g>
</g>
<g>
</g>
<g>
</g>
</svg>
