<?xml version="1.0" encoding="iso-8859-1"?>
<!-- Generator: Adobe Illustrator 19.0.0, SVG Export Plug-In . SVG Version: 6.00 Build 0)  -->
<svg version="1.1" id="Capa_1" xmlns="http://www.w3.org/2000/svg" xmlns:xlink="http://www.w3.org/1999/xlink" x="0px" y="0px"
	 viewBox="0 0 360 360" style="enable-background:new 0 0 360 360;" xml:space="preserve">
<g id="XMLID_903_">
	<path id="XMLID_911_" style="fill:#EA348B;" d="M110,320v-40h70v-40h-70v-40h70v-80c-11.046,0-20-8.955-20-20V50h-40l-50,80v230
		h110v-40H110z"/>
	<path id="XMLID_912_" style="fill:#B02768;" d="M240,50h-40v50c0,11.045-8.954,20-20,20v80h70v40h-70v40h70v40h-70v40h110V130
		L240,50z"/>
	<path id="XMLID_913_" style="fill:#FFFFFF;" d="M160,100c0,11.045,8.954,20,20,20s20-8.955,20-20h-20H160z"/>
	<polygon id="XMLID_914_" style="fill:#CCF8F3;" points="180,100 180,0 160,0 160,50 160,100 	"/>
	<polygon id="XMLID_915_" style="fill:#00D7DF;" points="180,100 200,100 200,50 200,0 180,0 	"/>
	<rect id="XMLID_916_" x="110" y="200" style="fill:#FFDA44;" width="70" height="40"/>
	<rect id="XMLID_917_" x="110" y="280" style="fill:#FFDA44;" width="70" height="40"/>
	<rect id="XMLID_918_" x="180" y="200" style="fill:#FF9811;" width="70" height="40"/>
	<rect id="XMLID_919_" x="180" y="280" style="fill:#FF9811;" width="70" height="40"/>
</g>
<g>
</g>
<g>
</g>
<g>
</g>
<g>
</g>
<g>
</g>
<g>
</g>
<g>
</g>
<g>
</g>
<g>
</g>
<g>
</g>
<g>
</g>
<g>
</g>
<g>
</g>
<g>
</g>
<g>
</g>
</svg>
