<?xml version="1.0" encoding="UTF-8" standalone="no"?>
<svg
   xmlns:dc="http://purl.org/dc/elements/1.1/"
   xmlns:cc="http://creativecommons.org/ns#"
   xmlns:rdf="http://www.w3.org/1999/02/22-rdf-syntax-ns#"
   xmlns:svg="http://www.w3.org/2000/svg"
   xmlns="http://www.w3.org/2000/svg"
   xmlns:sodipodi="http://sodipodi.sourceforge.net/DTD/sodipodi-0.dtd"
   xmlns:inkscape="http://www.inkscape.org/namespaces/inkscape"
   width="48px"
   height="48px"
   viewBox="0 0 48 48"
   version="1.1"
   id="svg10"
   sodipodi:docname="thumbs-down.svg"
   inkscape:version="1.0.2 (e86c870879, 2021-01-15)">
  <metadata
     id="metadata16">
    <rdf:RDF>
      <cc:Work
         rdf:about="">
        <dc:format>image/svg+xml</dc:format>
        <dc:type
           rdf:resource="http://purl.org/dc/dcmitype/StillImage" />
        <dc:title>70 Basic icons by Xicons.co</dc:title>
      </cc:Work>
    </rdf:RDF>
  </metadata>
  <defs
     id="defs14" />
  <sodipodi:namedview
     pagecolor="#ffffff"
     bordercolor="#666666"
     borderopacity="1"
     objecttolerance="10"
     gridtolerance="10"
     guidetolerance="10"
     inkscape:pageopacity="0"
     inkscape:pageshadow="2"
     inkscape:window-width="1680"
     inkscape:window-height="982"
     id="namedview12"
     showgrid="false"
     inkscape:zoom="8.2604167"
     inkscape:cx="32.99542"
     inkscape:cy="24.88175"
     inkscape:window-x="0"
     inkscape:window-y="15"
     inkscape:window-maximized="1"
     inkscape:current-layer="svg10" />
  <title
     id="title2">70 Basic icons by Xicons.co</title>
  <rect
     x="-47.406136"
     y="-29.857943"
     width="16"
     height="26"
     rx="2"
     ry="2"
     fill="#38b1e7"
     id="rect4"
     transform="rotate(-179.67536)" />
  <path
     d="M 16.577647,29.782346 5.0178302,29.716846 A 4,4 0 0 1 1.1456572,24.794827 L 4.8952912,8.985819 a 4,4 0 0 1 3.917502,-3.0778527 l 15.3397558,0.086917 a 3,3 0 0 1 0.899192,0.1450972 l 6.348566,2.0360039 -0.09808,17.3097226 -1.381961,0.342175 a 1,1 0 0 0 -0.562541,0.44682 l -4.654801,7.893752 a 1,1 0 0 0 -0.132944,0.519255 c -0.0057,0.999984 0.0849,4.430552 -0.341611,5.578154 -0.497698,1.357202 -5.021565,3.791609 -7.690131,-1.763601 -2.668567,-5.555209 0.04822,-8.509863 0.04822,-8.509863 z"
     fill="#fac591"
     id="path6" />
  <circle
     cx="-37.406139"
     cy="-9.8579369"
     fill="#fff"
     id="circle8"
     r="2"
     transform="rotate(-179.67536)" />
</svg>
