<?xml version="1.0" encoding="iso-8859-1"?>
<!-- Generator: Adobe Illustrator 19.0.0, SVG Export Plug-In . SVG Version: 6.00 Build 0)  -->
<svg version="1.1" id="Capa_1" xmlns="http://www.w3.org/2000/svg" xmlns:xlink="http://www.w3.org/1999/xlink" x="0px" y="0px"
	 viewBox="0 0 440 440" style="enable-background:new 0 0 440 440;" xml:space="preserve">
<g id="XMLID_1757_">
	<rect id="XMLID_1758_" y="275" style="fill:#DEDDE0;" width="210" height="30"/>
	<polygon id="XMLID_1759_" style="fill:#DEDDE0;" points="140,145 210,145 210,105 0,105 0,145 70,145 	"/>
	<polygon id="XMLID_1760_" style="fill:#DEDDE0;" points="210,215 140,215 70,215 0,215 0,245 210,245 	"/>
	<polygon id="XMLID_1761_" style="fill:#CDCDD0;" points="280,145 280,145.002 340.001,145.002 410.001,215.002 280,215.002 
		280,215 210,215 210,245 440,245 300,105 210,105 210,145 	"/>
	<rect id="XMLID_1762_" x="210" y="275" style="fill:#CDCDD0;" width="230" height="30"/>
	<polygon id="XMLID_1763_" style="fill:#565659;" points="280,215.002 410.001,215.002 340.001,145.002 280,145.002 280,215 	"/>
	<rect id="XMLID_1764_" y="245" style="fill:#FF5023;" width="210" height="30"/>
	<rect id="XMLID_1765_" x="210" y="245" style="fill:#BF3C1A;" width="230" height="30"/>
	<polygon id="XMLID_1766_" style="fill:#565659;" points="0,305 0,335 440,335 440,305 210,305 	"/>
	<rect id="XMLID_1767_" y="145" style="fill:#ACABB1;" width="70" height="70"/>
	<rect id="XMLID_1768_" x="140" y="145" style="fill:#ACABB1;" width="70" height="70"/>
	<rect id="XMLID_1769_" x="70" y="145" style="fill:#FFFFFF;" width="70" height="70"/>
	<polygon id="XMLID_1770_" style="fill:#FFFFFF;" points="280,145.002 280,145 210,145 210,215 280,215 	"/>
</g>
<g>
</g>
<g>
</g>
<g>
</g>
<g>
</g>
<g>
</g>
<g>
</g>
<g>
</g>
<g>
</g>
<g>
</g>
<g>
</g>
<g>
</g>
<g>
</g>
<g>
</g>
<g>
</g>
<g>
</g>
</svg>
