<?xml version="1.0" encoding="iso-8859-1"?>
<!-- Generator: Adobe Illustrator 19.0.0, SVG Export Plug-In . SVG Version: 6.00 Build 0)  -->
<svg version="1.1" id="Layer_1" xmlns="http://www.w3.org/2000/svg" xmlns:xlink="http://www.w3.org/1999/xlink" x="0px" y="0px"
	 viewBox="0 0 497.164 497.164" style="enable-background:new 0 0 497.164 497.164;" xml:space="preserve">
<polygon style="fill:#F46991;" points="477.481,50.351 248.586,446.813 19.69,50.351 "/>
<polygon style="fill:#E5486E;" points="398.712,50.351 248.586,446.813 98.46,50.351 "/>
<path style="fill:#BC2B71;" d="M248.586,466.505c-7.042,0-13.54-3.757-17.061-9.846L2.629,60.197
	c-3.505-6.089-3.505-13.603,0-19.692c3.521-6.089,10.012-9.846,17.061-9.846h457.783c7.042,0,13.54,3.757,17.061,9.846
	c3.505,6.089,3.505,13.603,0,19.692L265.632,456.659C262.126,462.748,255.628,466.505,248.586,466.505z M53.797,70.044
	l194.788,337.384L443.374,70.044H53.797z"/>
<g>
	<circle style="fill:#FCACC7;" cx="216.59" cy="248.582" r="8.365"/>
	<circle style="fill:#FCACC7;" cx="248.586" cy="248.582" r="8.365"/>
	<circle style="fill:#FCACC7;" cx="280.582" cy="248.582" r="8.365"/>
	<circle style="fill:#FCACC7;" cx="248.586" cy="216.586" r="8.365"/>
	<circle style="fill:#FCACC7;" cx="248.586" cy="248.582" r="8.365"/>
	<circle style="fill:#FCACC7;" cx="248.586" cy="280.578" r="8.365"/>
</g>
<g>
</g>
<g>
</g>
<g>
</g>
<g>
</g>
<g>
</g>
<g>
</g>
<g>
</g>
<g>
</g>
<g>
</g>
<g>
</g>
<g>
</g>
<g>
</g>
<g>
</g>
<g>
</g>
<g>
</g>
</svg>
