<?xml version="1.0" encoding="iso-8859-1"?>
<!-- Generator: Adobe Illustrator 19.0.0, SVG Export Plug-In . SVG Version: 6.00 Build 0)  -->
<svg version="1.1" id="Layer_1" xmlns="http://www.w3.org/2000/svg" xmlns:xlink="http://www.w3.org/1999/xlink" x="0px" y="0px"
	 viewBox="0 0 512 512" style="enable-background:new 0 0 512 512;" xml:space="preserve">
<path style="fill:#C9D5DD;" d="M0,320v48c0,17.672,14.328,32,32,32h448c17.672,0,32-14.328,32-32v-48H0z"/>
<circle style="fill:#8FAEBF;" cx="256" cy="360" r="16"/>
<path style="fill:#123247;" d="M480,48c8.84,0,16,7.16,16,16v240H16V64c0-8.84,7.16-16,16-16H480 M480,32H32
	C14.328,32,0,46.328,0,64v256h512V64C512,46.328,497.672,32,480,32L480,32z"/>
<path style="fill:#35495C;" d="M496,64c0-8.84-7.16-16-16-16H32c-8.84,0-16,7.16-16,16v240h480V64z"/>
<g>
	<polygon style="fill:#B2C4D0;" points="320,472 192,472 208,400 304,400 	"/>
	<path style="fill:#B2C4D0;" d="M168,464h176c4.416,0,8,3.584,8,8l0,0c0,4.416-3.584,8-8,8H168c-4.416,0-8-3.584-8-8l0,0
		C160,467.584,163.584,464,168,464z"/>
</g>
<g>
	<path style="fill:#8FAEBF;" d="M318.24,464L304,400h-96c-1.592,7.072,2.848,14.088,9.92,15.68c0.944,0.216,1.912,0.32,2.88,0.32
		h30.16c14.616-0.024,27.384,9.848,31.04,24l6,24H318.24z"/>
	<path style="fill:#8FAEBF;" d="M176,472c-4.416,0-8,3.584-8,8h176c4.416,0,8-3.584,8-8H176z"/>
</g>
<path style="fill:#B2C4D0;" d="M512,368v-48h-16v48c0,8.84-7.16,16-16,16H48c-8.84,0-16,7.16-16,16h448
	C497.672,400,512,385.672,512,368z"/>
<g>
	<polygon style="fill:#435970;" points="272,304 200,304 336,48 408,48 	"/>
	<polygon style="fill:#435970;" points="320,304 296,304 432,48 456,48 	"/>
	<polygon style="fill:#435970;" points="88,304 64,304 200,48 224,48 	"/>
</g>
<g>
</g>
<g>
</g>
<g>
</g>
<g>
</g>
<g>
</g>
<g>
</g>
<g>
</g>
<g>
</g>
<g>
</g>
<g>
</g>
<g>
</g>
<g>
</g>
<g>
</g>
<g>
</g>
<g>
</g>
</svg>
