<?xml version="1.0" encoding="iso-8859-1"?>
<!-- Generator: Adobe Illustrator 19.0.0, SVG Export Plug-In . SVG Version: 6.00 Build 0)  -->
<svg version="1.1" id="Layer_1" xmlns="http://www.w3.org/2000/svg" xmlns:xlink="http://www.w3.org/1999/xlink" x="0px" y="0px"
	 viewBox="0 0 414.98 414.98" style="enable-background:new 0 0 414.98 414.98;" xml:space="preserve">
<g>
	<polygon style="fill:#F5C525;" points="131,408.98 131,364.98 185.49,364.98 185.49,60 66.49,60 66.49,86.5 22.49,86.5 22.49,6 
		392.49,6 392.49,86.5 348.49,86.5 348.49,60 229.49,60 229.49,364.98 283.98,364.98 283.98,408.98 	"/>
	<path style="fill:#EB7830;" d="M343.36,329.73v-58.06c0-6.638-14.002-17.935-29-21.486v79.546h-44V129.49h44v71.926
		c15.968-6.195,29-18.72,29-28.256v-43.67h44v43.67c0,18.826-9.41,36.997-26.561,51.411c17.149,12.931,26.561,29.575,26.561,47.099
		v58.06H343.36z"/>
	<g>
		<path style="fill:#231F20;" d="M390.49,0h-366c-4.41,0-8,3.58-8,8v76.5c0,4.42,3.59,8,8,8h40c4.42,0,8-3.58,8-8V66h107v292.98H133
			c-4.42,0-8,3.58-8,8v40c0,4.42,3.58,8,8,8h148.98c4.42,0,8-3.58,8-8v-40c0-4.42-3.58-8-8-8h-46.49V66h107v18.5c0,4.42,3.59,8,8,8
			h40c4.42,0,8-3.58,8-8V8C398.49,3.58,394.91,0,390.49,0z M382.49,76.5h-24V58c0-4.42-3.58-8-8-8h-123c-4.41,0-8,3.58-8,8v308.98
			c0,4.42,3.59,8,8,8h46.49v24H141v-24h46.49c4.42,0,8-3.58,8-8V58c0-4.42-3.58-8-8-8h-123c-4.41,0-8,3.58-8,8v18.5h-24V16h350V76.5
			z"/>
		<path style="fill:#231F20;" d="M393.36,131.49c0-4.42-3.58-8-8-8h-40c-4.42,0-8,3.58-8,8v41.67c0,4.99-6.91,12.92-17,18.74v-60.41
			c0-4.42-3.58-8-8-8h-40c-4.42,0-8,3.58-8,8v196.24c0,4.42,3.58,8,8,8h40c4.42,0,8-3.58,8-8v-69.25c9.42,4.04,16.39,10.56,17,13.32
			v55.93c0,4.42,3.58,8,8,8h40c4.42,0,8-3.58,8-8v-56.06c0-17.43-8.22-33.95-23.36-47.33c15.13-14.75,23.36-32.63,23.36-51.18
			V131.49z M377.36,173.16c0,16.44-8.81,32.51-24.81,45.24c-1.96,1.57-3.08,3.97-3.01,6.48c0.07,2.51,1.31,4.84,3.36,6.3
			c15.77,11.21,24.46,25.59,24.46,40.49v48.06h-24v-48.06c0-13.92-21.28-28.53-39.59-31.82c-2.33-0.42-4.73,0.22-6.55,1.74
			c-1.81,1.52-2.86,3.77-2.86,6.14v72h-24V139.49h24v64.78c0,2.57,1.24,4.99,3.33,6.49c2.09,1.51,4.78,1.91,7.22,1.09
			c18.64-6.28,38.45-21.97,38.45-38.69v-33.67h24V173.16z"/>
	</g>
</g>
<g>
</g>
<g>
</g>
<g>
</g>
<g>
</g>
<g>
</g>
<g>
</g>
<g>
</g>
<g>
</g>
<g>
</g>
<g>
</g>
<g>
</g>
<g>
</g>
<g>
</g>
<g>
</g>
<g>
</g>
</svg>
