<?xml version="1.0" encoding="UTF-8" standalone="no"?>
<svg
   xmlns:dc="http://purl.org/dc/elements/1.1/"
   xmlns:cc="http://creativecommons.org/ns#"
   xmlns:rdf="http://www.w3.org/1999/02/22-rdf-syntax-ns#"
   xmlns:svg="http://www.w3.org/2000/svg"
   xmlns="http://www.w3.org/2000/svg"
   xmlns:sodipodi="http://sodipodi.sourceforge.net/DTD/sodipodi-0.dtd"
   xmlns:inkscape="http://www.inkscape.org/namespaces/inkscape"
   version="1.1"
   id="Layer_1"
   x="0px"
   y="0px"
   viewBox="0 0 488 488"
   style="enable-background:new 0 0 488 488;"
   xml:space="preserve"
   sodipodi:docname="wifi-signal-2.svg"
   inkscape:version="1.0.2 (e86c870879, 2021-01-15)"><metadata
   id="metadata53"><rdf:RDF><cc:Work
       rdf:about=""><dc:format>image/svg+xml</dc:format><dc:type
         rdf:resource="http://purl.org/dc/dcmitype/StillImage" /></cc:Work></rdf:RDF></metadata><defs
   id="defs51" /><sodipodi:namedview
   pagecolor="#ffffff"
   bordercolor="#666666"
   borderopacity="1"
   objecttolerance="10"
   gridtolerance="10"
   guidetolerance="10"
   inkscape:pageopacity="0"
   inkscape:pageshadow="2"
   inkscape:window-width="1345"
   inkscape:window-height="928"
   id="namedview49"
   showgrid="false"
   inkscape:zoom="1.625"
   inkscape:cx="244"
   inkscape:cy="244"
   inkscape:window-x="0"
   inkscape:window-y="15"
   inkscape:window-maximized="0"
   inkscape:current-layer="Layer_1" />
<path
   style="fill:#82CC00;"
   d="M40,324.8c-19.2,0-40,3.2-40,26.4v84c0,23.2,20.8,26.4,40,26.4s40-3.2,40-26.4v-84  C80,328,59.2,324.8,40,324.8z"
   id="path2" />
<path
   style="fill:#61C105;"
   d="M42.4,460.8c19.2,0,37.6-3.2,37.6-26.4v-83.2c0-23.2-19.2-26.4-38.4-26.4"
   id="path4" />
<path
   style="fill:#82CC00;"
   d="M180,225.6c-19.2,0-36,3.2-36,26.4v183.2c0,23.2,16.8,26.4,36,26.4s36-3.2,36-26.4V252  C216,228.8,199.2,225.6,180,225.6z"
   id="path6" />
<path
   style="fill:#61C105;"
   d="M178.4,460.8c19.2,0,37.6-3.2,37.6-26.4V252c0-23.2-19.2-26.4-38.4-26.4"
   id="path8" />
<path
   style="fill:#bcbcbc;fill-opacity:1"
   d="M316,126.4c-19.2,0-36,3.2-36,26.4v282.4c0,23.2,16.8,26.4,36,26.4s36-3.2,36-26.4V152.8  C352,129.6,335.2,126.4,316,126.4z"
   id="path10" />
<path
   style="fill:#a9aaa9;fill-opacity:1"
   d="M314.4,460.8c19.2,0,37.6-3.2,37.6-26.4V152.8c0-23.2-19.2-26.4-38.4-26.4"
   id="path12" />
<path
   style="fill:#BCBCBC;"
   d="M452,27.2c-19.2,0-36,3.2-36,26.4v381.6c0,23.2,16.8,26.4,36,26.4s36-3.2,36-26.4V52.8  C488,29.6,471.2,27.2,452,27.2z"
   id="path14" />
<path
   style="fill:#A9AAA9;"
   d="M450.4,460.8c19.2,0,37.6-3.2,37.6-26.4V52.8c0-23.2-19.2-26.4-38.4-26.4"
   id="path16" />
<g
   id="g18">
</g>
<g
   id="g20">
</g>
<g
   id="g22">
</g>
<g
   id="g24">
</g>
<g
   id="g26">
</g>
<g
   id="g28">
</g>
<g
   id="g30">
</g>
<g
   id="g32">
</g>
<g
   id="g34">
</g>
<g
   id="g36">
</g>
<g
   id="g38">
</g>
<g
   id="g40">
</g>
<g
   id="g42">
</g>
<g
   id="g44">
</g>
<g
   id="g46">
</g>
</svg>
