<?xml version="1.0" encoding="UTF-8" standalone="no"?>
<svg
   xmlns:dc="http://purl.org/dc/elements/1.1/"
   xmlns:cc="http://creativecommons.org/ns#"
   xmlns:rdf="http://www.w3.org/1999/02/22-rdf-syntax-ns#"
   xmlns:svg="http://www.w3.org/2000/svg"
   xmlns="http://www.w3.org/2000/svg"
   xmlns:sodipodi="http://sodipodi.sourceforge.net/DTD/sodipodi-0.dtd"
   xmlns:inkscape="http://www.inkscape.org/namespaces/inkscape"
   version="1.1"
   id="Layer_1"
   x="0px"
   y="0px"
   viewBox="0 0 496.4 496.4"
   style="enable-background:new 0 0 496.4 496.4;"
   xml:space="preserve"
   sodipodi:docname="zoom.svg"
   inkscape:version="1.0.2 (e86c870879, 2021-01-15)"><metadata
   id="metadata61"><rdf:RDF><cc:Work
       rdf:about=""><dc:format>image/svg+xml</dc:format><dc:type
         rdf:resource="http://purl.org/dc/dcmitype/StillImage" /><dc:title></dc:title></cc:Work></rdf:RDF></metadata><defs
   id="defs59" /><sodipodi:namedview
   pagecolor="#ffffff"
   bordercolor="#666666"
   borderopacity="1"
   objecttolerance="10"
   gridtolerance="10"
   guidetolerance="10"
   inkscape:pageopacity="0"
   inkscape:pageshadow="2"
   inkscape:window-width="1680"
   inkscape:window-height="982"
   id="namedview57"
   showgrid="false"
   inkscape:zoom="1.1296045"
   inkscape:cx="146.96005"
   inkscape:cy="252.57997"
   inkscape:window-x="0"
   inkscape:window-y="15"
   inkscape:window-maximized="1"
   inkscape:current-layer="Layer_1" />
<g
   id="g6">
	<path
   style="fill:#C6C6C6;"
   d="M400.8,412.8c-3.2,0-6.4-1.6-8.8-4l-48-48c-4.8-4.8-4.8-12.8,0-17.6c4.8-4.8,12.8-4.8,17.6,0l48,48   c4.8,4.8,4.8,12.8,0,17.6C407.2,412,404,412.8,400.8,412.8z"
   id="path2" />
	<path
   style="fill:#C6C6C6;"
   d="M208,416C93.6,416,0,323.2,0,208C0,93.6,93.6,0,208,0s208,93.6,208,208C416,323.2,323.2,416,208,416   z M208,33.6C112,33.6,33.6,112,33.6,208c0,96.8,78.4,175.2,174.4,175.2c96.8,0,175.2-78.4,175.2-175.2   C383.2,112,304.8,33.6,208,33.6z"
   id="path4" />
</g>
<path
   style="fill:#B5B5B5;"
   d="M208,0L208,0v32l0,0c96.8,0,175.2,79.2,175.2,176S304.8,384,208,384l0,0v32l0,0  c114.4,0,208-93.6,208-208S323.2,0,208,0z"
   id="path8" />
<path
   style="fill:#7da7f9;fill-opacity:1"
   d="M488,447.2c11.2,11.2,11.2,28.8,0,40l0,0c-11.2,11.2-28.8,11.2-40,0l-73.6-73.6  c-11.2-11.2-11.2-28.8,0-40l0,0c11.2-11.2,28.8-11.2,40,0L488,447.2z"
   id="path10" />
<path
   style="fill:#427ef6;fill-opacity:1"
   d="M414.4,374.4L488,448c11.2,11.2,11.2,28.8,0,40l0,0c-11.2,11.2-28.8,11.2-40,0"
   id="path12" />
<path
   style="fill:#ababab;fill-opacity:1"
   d="M392.8,208c0,101.6-82.4,184-184,184s-184-82.4-184-184C24,106.4,106.4,24,208,24  S392.8,106.4,392.8,208z"
   id="path14" />
<path
   style="fill:#c7c7c7;fill-opacity:1"
   d="M208,24c101.6,0,184,82.4,184,184s-82.4,184-184,184"
   id="path16" />
<path
   style="fill:#d6d6d6;fill-opacity:1"
   d="M77.6,77.6c72-72,188.8-72,260.8,0s72,188.8,0,260.8"
   id="path18" />

<g
   id="g26">
</g>
<g
   id="g28">
</g>
<g
   id="g30">
</g>
<g
   id="g32">
</g>
<g
   id="g34">
</g>
<g
   id="g36">
</g>
<g
   id="g38">
</g>
<g
   id="g40">
</g>
<g
   id="g42">
</g>
<g
   id="g44">
</g>
<g
   id="g46">
</g>
<g
   id="g48">
</g>
<g
   id="g50">
</g>
<g
   id="g52">
</g>
<g
   id="g54">
</g>
</svg>
