<?xml version="1.0" encoding="iso-8859-1"?>
<!-- Generator: Adobe Illustrator 19.0.0, SVG Export Plug-In . SVG Version: 6.00 Build 0)  -->
<svg version="1.1" id="Layer_1" xmlns="http://www.w3.org/2000/svg" xmlns:xlink="http://www.w3.org/1999/xlink" x="0px" y="0px"
	 viewBox="0 0 496.4 496.4" style="enable-background:new 0 0 496.4 496.4;" xml:space="preserve">
<g>
	<path style="fill:#C6C6C6;" d="M401.2,412.8c-3.2,0-6.4-1.6-8.8-4l-48-48c-4.8-4.8-4.8-12.8,0-17.6c4.8-4.8,12.8-4.8,17.6,0l48,48
		c4.8,4.8,4.8,12.8,0,17.6C407.6,412,404.4,412.8,401.2,412.8z"/>
	<path style="fill:#C6C6C6;" d="M208.4,416C94,416,0.4,322.4,0.4,208S94,0,208.4,0s208,93.6,208,208
		C416.4,323.2,322.8,416,208.4,416z M208.4,33.6C111.6,33.6,33.2,112,33.2,208c0,96.8,78.4,175.2,175.2,175.2S383.6,304.8,383.6,208
		C382.8,112,304.4,33.6,208.4,33.6z"/>
</g>
<path style="fill:#B5B5B5;" d="M208.4,0C208.4,0,207.6,0,208.4,0l-0.8,32h0.8c96.8,0,175.2,79.2,175.2,176s-78.4,176-175.2,176h-0.8
	v32h0.8c114.4,0,208-93.6,208-208S322.8,0,208.4,0z"/>
<path style="fill:#DD2A73;" d="M487.6,447.2c11.2,11.2,11.2,28.8,0,40l0,0c-11.2,11.2-28.8,11.2-40,0L374,413.6
	c-11.2-11.2-11.2-28.8,0-40l0,0c11.2-11.2,28.8-11.2,40,0L487.6,447.2z"/>
<path style="fill:#C60E6A;" d="M414,374.4l73.6,73.6c11.2,11.2,11.2,28.8,0,40l0,0c-11.2,11.2-28.8,11.2-40,0"/>
<path style="fill:#DD2A73;" d="M392.4,208c0,101.6-82.4,184-184,184s-184-82.4-184-184s82.4-184,184-184S392.4,106.4,392.4,208z"/>
<path style="fill:#C60E6A;" d="M208.4,24c101.6,0,184,82.4,184,184s-82.4,184-184,184"/>
<path style="fill:#D31C70;" d="M78,77.6c72-72,188.8-72,260.8,0s72,188.8,0,260.8"/>
<path style="fill:#FFFFFF;" d="M271.6,216H145.2c-4,0-8-4-8-8s3.2-8,8-8h126.4c4,0,8,4,8,8S275.6,216,271.6,216z"/>
<g>
</g>
<g>
</g>
<g>
</g>
<g>
</g>
<g>
</g>
<g>
</g>
<g>
</g>
<g>
</g>
<g>
</g>
<g>
</g>
<g>
</g>
<g>
</g>
<g>
</g>
<g>
</g>
<g>
</g>
</svg>
