<?xml version="1.0" encoding="iso-8859-1"?>
<!-- Generator: Adobe Illustrator 19.0.0, SVG Export Plug-In . SVG Version: 6.00 Build 0)  -->
<svg version="1.1" id="Layer_1" xmlns="http://www.w3.org/2000/svg" xmlns:xlink="http://www.w3.org/1999/xlink" x="0px" y="0px"
	 viewBox="0 0 496.4 496.4" style="enable-background:new 0 0 496.4 496.4;" xml:space="preserve">
<g>
	<path style="fill:#C6C6C6;" d="M400.8,412.8c-3.2,0-6.4-1.6-8.8-4l-48-48c-4.8-4.8-4.8-12.8,0-17.6c4.8-4.8,12.8-4.8,17.6,0l48,48
		c4.8,4.8,4.8,12.8,0,17.6C407.2,412,404,412.8,400.8,412.8z"/>
	<path style="fill:#C6C6C6;" d="M208,416C93.6,416,0,323.2,0,208C0,93.6,93.6,0,208,0s208,93.6,208,208C416,323.2,323.2,416,208,416
		z M208,33.6C112,33.6,33.6,112,33.6,208c0,96.8,78.4,175.2,174.4,175.2c96.8,0,175.2-78.4,175.2-175.2
		C383.2,112,304.8,33.6,208,33.6z"/>
</g>
<path style="fill:#B5B5B5;" d="M208,0L208,0v32l0,0c96.8,0,175.2,79.2,175.2,176S304.8,384,208,384l0,0v32l0,0
	c114.4,0,208-93.6,208-208S323.2,0,208,0z"/>
<path style="fill:#0DBFBA;" d="M488,447.2c11.2,11.2,11.2,28.8,0,40l0,0c-11.2,11.2-28.8,11.2-40,0l-73.6-73.6
	c-11.2-11.2-11.2-28.8,0-40l0,0c11.2-11.2,28.8-11.2,40,0L488,447.2z"/>
<path style="fill:#09ADB5;" d="M414.4,374.4L488,448c11.2,11.2,11.2,28.8,0,40l0,0c-11.2,11.2-28.8,11.2-40,0"/>
<path style="fill:#1BCEB8;" d="M392.8,208c0,101.6-82.4,184-184,184s-184-82.4-184-184C24,106.4,106.4,24,208,24
	S392.8,106.4,392.8,208z"/>
<path style="fill:#09ADB5;" d="M208,24c101.6,0,184,82.4,184,184s-82.4,184-184,184"/>
<path style="fill:#0DBFBA;" d="M77.6,77.6c72-72,188.8-72,260.8,0s72,188.8,0,260.8"/>
<g>
	<path style="fill:#FFFFFF;" d="M208,279.2c-4,0-8-3.2-8-8V144.8c0-4,4-8,8-8s8,3.2,8,8v126.4C216,276,212,279.2,208,279.2z"/>
	<path style="fill:#FFFFFF;" d="M271.2,216H144.8c-4,0-8-4-8-8s3.2-8,8-8h126.4c4,0,8,4,8,8S276,216,271.2,216z"/>
</g>
<g>
</g>
<g>
</g>
<g>
</g>
<g>
</g>
<g>
</g>
<g>
</g>
<g>
</g>
<g>
</g>
<g>
</g>
<g>
</g>
<g>
</g>
<g>
</g>
<g>
</g>
<g>
</g>
<g>
</g>
</svg>
