<?xml version="1.0" encoding="iso-8859-1"?>
<!-- Generator: Adobe Illustrator 19.0.0, SVG Export Plug-In . SVG Version: 6.00 Build 0)  -->
<svg version="1.1" id="Layer_1" xmlns="http://www.w3.org/2000/svg" xmlns:xlink="http://www.w3.org/1999/xlink" x="0px" y="0px"
	 viewBox="0 0 512 512" style="enable-background:new 0 0 512 512;" xml:space="preserve">
<g>
	<g>
		<path d="M486.4,426.667h-45.926L380.741,307.2h88.593c4.713,0,8.533-3.82,8.533-8.533v-85.333c0-4.713-3.821-8.533-8.533-8.533
			h-81.97L277.649,102.4h72.217c4.713,0,8.533-3.821,8.533-8.533V8.533C358.4,3.82,354.579,0,349.867,0H162.133
			c-4.713,0-8.533,3.82-8.533,8.533v85.333c0,4.713,3.82,8.533,8.533,8.533h72.217L124.636,204.8h-81.97
			c-4.713,0-8.533,3.821-8.533,8.533v85.333c0,4.713,3.82,8.533,8.533,8.533h88.593L71.526,426.667H25.6
			c-4.713,0-8.533,3.82-8.533,8.533v68.267c0,4.713,3.82,8.533,8.533,8.533H128c4.713,0,8.533-3.82,8.533-8.533V435.2
			c0-4.713-3.82-8.533-8.533-8.533H90.607l56.177-112.354l91.288,112.354H204.8c-4.713,0-8.533,3.82-8.533,8.533v68.267
			c0,4.713,3.82,8.533,8.533,8.533h102.4c4.713,0,8.533-3.82,8.533-8.533V435.2c0-4.713-3.82-8.533-8.533-8.533h-33.272
			l91.288-112.354l56.177,112.354H384c-4.713,0-8.533,3.82-8.533,8.533v68.267c0,4.713,3.82,8.533,8.533,8.533h102.4
			c4.713,0,8.533-3.82,8.533-8.533V435.2C494.933,430.487,491.113,426.667,486.4,426.667z M119.467,494.933H34.133v-51.2h85.333
			V494.933z M460.8,290.133h-93.926c-0.001,0-0.002,0-0.003,0h-76.738v-68.267H460.8V290.133z M170.667,17.067h170.667v68.267
			H170.667V17.067z M256,105.539L362.351,204.8H281.6c-4.713,0-8.533,3.821-8.533,8.533v85.333c0,4.713,3.82,8.533,8.533,8.533
			h67.405L256,421.668L162.995,307.2H230.4c4.713,0,8.533-3.82,8.533-8.533v-85.333c0-4.713-3.821-8.533-8.533-8.533h-80.751
			L256,105.539z M51.2,221.867h170.667v68.267h-76.738c-0.001,0-0.002,0-0.003,0H51.2V221.867z M298.667,494.933h-85.333v-51.2
			h42.605c0.001,0,0.002,0,0.003,0h0.118c0.001,0,0.002,0,0.003,0h42.605V494.933z M477.867,494.933h-85.333v-51.2h85.333V494.933z"
			/>
	</g>
</g>
<g>
</g>
<g>
</g>
<g>
</g>
<g>
</g>
<g>
</g>
<g>
</g>
<g>
</g>
<g>
</g>
<g>
</g>
<g>
</g>
<g>
</g>
<g>
</g>
<g>
</g>
<g>
</g>
<g>
</g>
</svg>
