<?xml version="1.0" encoding="UTF-8" standalone="no"?>
<svg
   xmlns:dc="http://purl.org/dc/elements/1.1/"
   xmlns:cc="http://creativecommons.org/ns#"
   xmlns:rdf="http://www.w3.org/1999/02/22-rdf-syntax-ns#"
   xmlns:svg="http://www.w3.org/2000/svg"
   xmlns="http://www.w3.org/2000/svg"
   xmlns:sodipodi="http://sodipodi.sourceforge.net/DTD/sodipodi-0.dtd"
   xmlns:inkscape="http://www.inkscape.org/namespaces/inkscape"
   width="24"
   height="24"
   viewBox="0 0 24 24"
   fill="none"
   stroke="currentColor"
   stroke-width="2"
   stroke-linecap="round"
   stroke-linejoin="round"
   version="1.1"
   id="svg8"
   sodipodi:docname="pangaea-note.svg"
   inkscape:version="1.0.2 (e86c870879, 2021-01-15)">
  <metadata
     id="metadata14">
    <rdf:RDF>
      <cc:Work
         rdf:about="">
        <dc:format>image/svg+xml</dc:format>
        <dc:type
           rdf:resource="http://purl.org/dc/dcmitype/StillImage" />
        <dc:title></dc:title>
      </cc:Work>
    </rdf:RDF>
  </metadata>
  <defs
     id="defs12" />
  <sodipodi:namedview
     pagecolor="#ffffff"
     bordercolor="#666666"
     borderopacity="1"
     objecttolerance="10"
     gridtolerance="10"
     guidetolerance="10"
     inkscape:pageopacity="0"
     inkscape:pageshadow="2"
     inkscape:window-width="1680"
     inkscape:window-height="980"
     id="namedview10"
     showgrid="false"
     inkscape:zoom="5.8409966"
     inkscape:cx="-1.7476296"
     inkscape:cy="6.1960265"
     inkscape:window-x="0"
     inkscape:window-y="0"
     inkscape:window-maximized="1"
     inkscape:current-layer="svg8" />
  <path
     d="M 19.723078,4.7516507 V 3.039306 H 12.885273 L 12.90228,2.9108622 C 12.963162,2.4519596 12.841683,1.9975158 12.560997,1.6307389 12.280239,1.2643216 11.874001,1.0310946 11.418028,0.97356097 10.48979,0.85712728 9.632581,1.5214969 9.5087445,2.4554116 L 9.4311413,3.039306 H 2.3690294 v 17.465557 h 1.7014124 v 1.712344 H 21.424491 V 4.7516507 Z M 10.183093,2.5462428 c 0.07489,-0.5626789 0.591385,-0.9616027 1.150472,-0.8927781 0.27497,0.034592 0.51957,0.1753337 0.688711,0.3959033 0.169426,0.2208572 0.242242,0.4945015 0.205513,0.7708787 l -0.02894,0.2192032 h -1.029994 l 0.04359,-0.2917675 C 11.240312,2.5606981 11.112402,2.3863712 10.926612,2.3583236 10.742179,2.3291972 10.56725,2.4586478 10.539739,2.6459917 l -0.05888,0.3934582 H 10.11778 Z M 3.0495944,19.820069 V 3.7243158 H 9.3406041 L 9.1908998,4.8557866 c -0.060882,0.4589027 0.060596,0.9133464 0.3412829,1.2801233 0.2807581,0.3664173 0.6869963,0.5996443 1.1429693,0.6571779 0.07146,0.00892 0.142201,0.013377 0.212301,0.013377 0.843918,0 1.582649,-0.6328699 1.696982,-1.4951552 0.02487,-0.1877035 -0.106186,-0.3599448 -0.292263,-0.3849 C 12.107382,4.9034676 11.934526,5.0329183 11.90973,5.2205498 11.835199,5.7832288 11.318344,6.183519 10.759615,6.113328 10.484645,6.0787359 10.240045,5.9383538 10.070904,5.7174247 9.9014771,5.4965674 9.8286615,5.2229231 9.8653909,4.9465459 L 10.027029,3.7243158 h 9.015627 V 19.820069 Z m 17.6943316,1.712272 v 0 H 4.7509353 V 20.504935 H 19.723078 V 5.4365886 h 1.020848 z"
     id="path83"
     style="stroke-width:0.143374" />
  <rect
     x="4.0703702"
     y="8.8612061"
     width="13.951296"
     height="0.68493789"
     id="rect85"
     style="stroke-width:0.143374" />
  <rect
     x="4.0703702"
     y="10.573551"
     width="13.951296"
     height="0.68493789"
     id="rect87"
     style="stroke-width:0.143374" />
  <rect
     x="4.0703702"
     y="12.285824"
     width="13.951296"
     height="0.68493789"
     id="rect89"
     style="stroke-width:0.143374" />
  <path
     d="M 7.9764734,15.983589 V 7.5604785 l 7.5110086,-1.295864 v 8.4231105"
     id="path2"
     style="stroke-width:1.27366" />
  <ellipse
     cx="6.0987215"
     cy="15.983591"
     id="circle4"
     rx="1.8777525"
     ry="1.9437954"
     style="stroke-width:1.27366" />
  <ellipse
     cx="13.609733"
     cy="14.687728"
     id="circle6"
     rx="1.8777525"
     ry="1.9437954"
     style="stroke-width:1.27366" />
</svg>
