<?xml version="1.0" encoding="UTF-8" standalone="no"?>
<svg
   xmlns:dc="http://purl.org/dc/elements/1.1/"
   xmlns:cc="http://creativecommons.org/ns#"
   xmlns:rdf="http://www.w3.org/1999/02/22-rdf-syntax-ns#"
   xmlns:svg="http://www.w3.org/2000/svg"
   xmlns="http://www.w3.org/2000/svg"
   xmlns:sodipodi="http://sodipodi.sourceforge.net/DTD/sodipodi-0.dtd"
   xmlns:inkscape="http://www.inkscape.org/namespaces/inkscape"
   version="1.1"
   id="Capa_1"
   x="0px"
   y="0px"
   viewBox="0 0 360 360"
   style="enable-background:new 0 0 360 360;"
   xml:space="preserve"
   sodipodi:docname="extra-c-lang.svg"
   inkscape:version="1.0.2 (e86c870879, 2021-01-15)"><metadata
   id="metadata42"><rdf:RDF><cc:Work
       rdf:about=""><dc:format>image/svg+xml</dc:format><dc:type
         rdf:resource="http://purl.org/dc/dcmitype/StillImage" /><dc:title></dc:title></cc:Work></rdf:RDF></metadata><defs
   id="defs40">
	
	
	
	
</defs><sodipodi:namedview
   pagecolor="#ffffff"
   bordercolor="#666666"
   borderopacity="1"
   objecttolerance="10"
   gridtolerance="10"
   guidetolerance="10"
   inkscape:pageopacity="0"
   inkscape:pageshadow="2"
   inkscape:window-width="1680"
   inkscape:window-height="982"
   id="namedview38"
   showgrid="false"
   inkscape:zoom="2.2027778"
   inkscape:cx="180.45397"
   inkscape:cy="180"
   inkscape:window-x="0"
   inkscape:window-y="15"
   inkscape:window-maximized="1"
   inkscape:current-layer="Capa_1" />
<path
   id="XMLID_971_"
   d="M 345.715,124.238 H 294.286 V 77.834 L 211.262,0 H 14.285 v 360 h 280 v -53.034 h 51.429 V 124.238 Z m -30,152.728 h -210 V 154.238 h 210 z" /><path
   id="XMLID_974_"
   d="m 134.586,234.324 c 2.79,3.16 6.118,5.72 9.982,7.682 3.864,1.964 8.126,2.944 12.788,2.944 2.636,0 5.336,-0.337 8.096,-1.012 2.76,-0.674 5.35,-1.656 7.774,-2.944 2.422,-1.288 4.6,-2.867 6.532,-4.738 1.932,-1.87 3.419,-4.032 4.462,-6.486 l -10.396,-5.98 c -0.736,1.779 -1.718,3.297 -2.944,4.554 -1.228,1.258 -2.561,2.286 -4.002,3.082 -1.442,0.798 -2.96,1.38 -4.554,1.748 -1.595,0.368 -3.128,0.552 -4.6,0.552 -2.822,0 -5.414,-0.612 -7.774,-1.84 -2.362,-1.226 -4.386,-2.852 -6.072,-4.876 -1.688,-2.024 -2.99,-4.37 -3.91,-7.038 -0.92,-2.669 -1.38,-5.442 -1.38,-8.326 0,-2.576 0.398,-5.166 1.196,-7.774 0.796,-2.607 1.977,-4.937 3.542,-6.992 1.564,-2.054 3.526,-3.726 5.888,-5.014 2.36,-1.288 5.136,-1.932 8.326,-1.932 1.472,0 2.974,0.169 4.508,0.506 1.533,0.338 3.004,0.874 4.416,1.61 1.41,0.736 2.729,1.734 3.956,2.99 1.226,1.258 2.269,2.806 3.128,4.646 l 9.752,-6.716 c -2.148,-4.232 -5.414,-7.666 -9.798,-10.304 -4.386,-2.636 -9.584,-3.956 -15.594,-3.956 -5.091,0 -9.629,0.952 -13.616,2.852 -3.988,1.902 -7.36,4.386 -10.12,7.452 -2.76,3.067 -4.861,6.547 -6.302,10.442 -1.442,3.895 -2.162,7.836 -2.162,11.822 0,4.172 0.782,8.266 2.346,12.282 1.564,4.018 3.741,7.605 6.532,10.764 z" />
<g
   id="g7">
</g>
<g
   id="g9">
</g>
<g
   id="g11">
</g>
<g
   id="g13">
</g>
<g
   id="g15">
</g>
<g
   id="g17">
</g>
<g
   id="g19">
</g>
<g
   id="g21">
</g>
<g
   id="g23">
</g>
<g
   id="g25">
</g>
<g
   id="g27">
</g>
<g
   id="g29">
</g>
<g
   id="g31">
</g>
<g
   id="g33">
</g>
<g
   id="g35">
</g>
</svg>
