<?xml version="1.0" encoding="UTF-8" standalone="no"?>
<svg
   xmlns:dc="http://purl.org/dc/elements/1.1/"
   xmlns:cc="http://creativecommons.org/ns#"
   xmlns:rdf="http://www.w3.org/1999/02/22-rdf-syntax-ns#"
   xmlns:svg="http://www.w3.org/2000/svg"
   xmlns="http://www.w3.org/2000/svg"
   xmlns:sodipodi="http://sodipodi.sourceforge.net/DTD/sodipodi-0.dtd"
   xmlns:inkscape="http://www.inkscape.org/namespaces/inkscape"
   version="1.1"
   id="Capa_1"
   x="0px"
   y="0px"
   viewBox="0 0 58 58"
   style="enable-background:new 0 0 58 58;"
   xml:space="preserve"
   sodipodi:docname="extra-tson.svg"
   inkscape:version="1.0.2 (e86c870879, 2021-01-15)"><metadata
   id="metadata55"><rdf:RDF><cc:Work
       rdf:about=""><dc:format>image/svg+xml</dc:format><dc:type
         rdf:resource="http://purl.org/dc/dcmitype/StillImage" /><dc:title></dc:title></cc:Work></rdf:RDF></metadata><defs
   id="defs53">
	
	
	
	
	
	
	
	
</defs><sodipodi:namedview
   pagecolor="#ffffff"
   bordercolor="#666666"
   borderopacity="1"
   objecttolerance="10"
   gridtolerance="10"
   guidetolerance="10"
   inkscape:pageopacity="0"
   inkscape:pageshadow="2"
   inkscape:window-width="1920"
   inkscape:window-height="1012"
   id="namedview51"
   showgrid="false"
   inkscape:zoom="13.672414"
   inkscape:cx="30.24338"
   inkscape:cy="29"
   inkscape:window-x="0"
   inkscape:window-y="0"
   inkscape:window-maximized="1"
   inkscape:current-layer="Capa_1" />
<path
   d="m 49.99743,12.004467 -1.361,-1.361 -9.504,-9.505 c -10e-4,-10e-4 -10e-4,-10e-4 -0.002,-10e-4 l -0.77,-0.77099999 c -0.355,-0.354 -0.826,-0.549 -1.327,-0.549 H 8.0114304 c -1.187,0 -2.463,0.916 -2.463,2.92599999 v 36.074 16.537 0.463 c 0,0.837 0.841,1.652 1.836,1.909 0.051,0.014 0.1,0.033 0.152,0.043 0.156,0.031 0.315,0.048 0.475,0.048 H 48.08543 c 0.16,0 0.319,-0.017 0.475,-0.048 0.052,-0.01 0.101,-0.029 0.152,-0.043 0.995,-0.257 1.836,-1.072 1.836,-1.909 v -0.463 -16.537 -25.022 c 0,-0.767 -0.093,-1.334 -0.551,-1.791 z m -11.449,-8.622 8.435,8.435 h -8.435 z m -30.5369996,52.435 c -0.071,0 -0.135,-0.025 -0.198,-0.049 -0.155,-0.074 -0.265,-0.23 -0.265,-0.414 v -14.537 H 48.54843 v 14.537 c 0,0.184 -0.11,0.34 -0.265,0.414 -0.063,0.024 -0.127,0.049 -0.198,0.049 z m -0.463,-17 v -36.074 c 0,-0.217 0.033,-0.926 0.463,-0.926 H 36.60643 c -0.033,0.126 -0.058,0.256 -0.058,0.391 v 11.389 c -0.532,-0.48 -1.229,-0.78 -2,-0.78 -0.553,0 -1,0.448 -1,1 0,0.552 0.447,1 1,1 0.552,0 1,0.449 1,1 v 4 c 0,1.2 0.542,2.266 1.382,3 -0.84,0.734 -1.382,1.8 -1.382,3 v 4 c 0,0.551 -0.448,1 -1,1 -0.553,0 -1,0.448 -1,1 0,0.552 0.447,1 1,1 1.654,0 3,-1.346 3,-3 v -4 c 0,-1.103 0.897,-2 2,-2 0.553,0 1,-0.448 1,-1 0,-0.552 -0.447,-1 -1,-1 -1.103,0 -2,-0.897 -2,-2 v -4 c 0,-0.771 -0.301,-1.468 -0.78,-2 h 11.389 c 0.135,0 0.265,-0.025 0.391,-0.058 0,0.015 10e-4,0.021 10e-4,0.036 v 25.022 z"
   id="path2" /><path
   d="m 25.083,49.064 c -0.314,-0.228 -0.654,-0.422 -1.019,-0.581 -0.365,-0.159 -0.702,-0.323 -1.012,-0.492 -0.31,-0.169 -0.569,-0.364 -0.779,-0.588 -0.21,-0.224 -0.314,-0.518 -0.314,-0.882 0,-0.146 0.036,-0.299 0.109,-0.458 0.073,-0.159 0.173,-0.303 0.301,-0.431 0.128,-0.128 0.273,-0.234 0.438,-0.321 0.165,-0.087 0.337,-0.139 0.52,-0.157 0.328,-0.027 0.597,-0.032 0.807,-0.014 0.21,0.018 0.378,0.05 0.506,0.096 0.128,0.046 0.226,0.091 0.294,0.137 0.068,0.046 0.13,0.082 0.185,0.109 0.009,-0.009 0.036,-0.055 0.082,-0.137 0.046,-0.082 0.101,-0.185 0.164,-0.308 0.063,-0.123 0.132,-0.255 0.205,-0.396 0.073,-0.141 0.137,-0.271 0.191,-0.39 -0.265,-0.173 -0.61,-0.299 -1.039,-0.376 -0.429,-0.077 -0.853,-0.116 -1.271,-0.116 -0.41,0 -0.8,0.063 -1.169,0.191 -0.369,0.128 -0.692,0.313 -0.971,0.554 -0.279,0.241 -0.499,0.535 -0.663,0.882 -0.164,0.347 -0.248,0.744 -0.248,1.19 0,0.492 0.104,0.902 0.314,1.23 0.21,0.328 0.474,0.613 0.793,0.854 0.319,0.241 0.661,0.451 1.025,0.629 0.364,0.178 0.704,0.355 1.019,0.533 0.315,0.178 0.576,0.376 0.786,0.595 0.21,0.219 0.314,0.483 0.314,0.793 0,0.511 -0.148,0.896 -0.444,1.155 -0.296,0.259 -0.723,0.39 -1.278,0.39 -0.183,0 -0.378,-0.019 -0.588,-0.055 -0.21,-0.036 -0.419,-0.084 -0.629,-0.144 -0.21,-0.06 -0.412,-0.123 -0.608,-0.191 -0.196,-0.068 -0.357,-0.139 -0.485,-0.212 l -0.287,1.176 c 0.155,0.137 0.34,0.253 0.554,0.349 0.214,0.096 0.439,0.171 0.677,0.226 0.237,0.055 0.472,0.094 0.704,0.116 0.232,0.022 0.458,0.034 0.677,0.034 0.511,0 0.966,-0.077 1.367,-0.232 0.401,-0.155 0.738,-0.362 1.012,-0.622 0.274,-0.26 0.485,-0.561 0.636,-0.902 0.151,-0.341 0.226,-0.695 0.226,-1.06 0,-0.538 -0.104,-0.978 -0.314,-1.319 -0.21,-0.341 -0.474,-0.627 -0.788,-0.855 z"
   id="path6" /><path
   d="m 34.872,45.072 c -0.378,-0.429 -0.82,-0.754 -1.326,-0.978 -0.506,-0.224 -1.06,-0.335 -1.661,-0.335 -0.601,0 -1.155,0.111 -1.661,0.335 -0.506,0.224 -0.948,0.549 -1.326,0.978 -0.378,0.429 -0.675,0.964 -0.889,1.606 -0.214,0.642 -0.321,1.388 -0.321,2.235 0,0.847 0.107,1.595 0.321,2.242 0.214,0.647 0.511,1.185 0.889,1.613 0.378,0.428 0.82,0.752 1.326,0.971 0.506,0.219 1.06,0.328 1.661,0.328 0.601,0 1.155,-0.109 1.661,-0.328 0.506,-0.219 0.948,-0.542 1.326,-0.971 0.378,-0.429 0.675,-0.966 0.889,-1.613 0.214,-0.647 0.321,-1.395 0.321,-2.242 0,-0.847 -0.107,-1.593 -0.321,-2.235 -0.214,-0.642 -0.511,-1.177 -0.889,-1.606 z m -0.677,5.626 c -0.137,0.487 -0.326,0.882 -0.567,1.183 -0.241,0.301 -0.515,0.518 -0.82,0.649 -0.305,0.131 -0.627,0.198 -0.964,0.198 -0.328,0 -0.641,-0.07 -0.937,-0.212 -0.296,-0.142 -0.561,-0.364 -0.793,-0.67 -0.232,-0.306 -0.415,-0.699 -0.547,-1.183 -0.132,-0.484 -0.203,-1.066 -0.212,-1.75 0.009,-0.702 0.082,-1.294 0.219,-1.777 0.137,-0.483 0.326,-0.877 0.567,-1.183 0.241,-0.306 0.515,-0.521 0.82,-0.649 0.305,-0.128 0.627,-0.191 0.964,-0.191 0.328,0 0.641,0.068 0.937,0.205 0.296,0.137 0.561,0.36 0.793,0.67 0.232,0.31 0.415,0.704 0.547,1.183 0.132,0.479 0.203,1.06 0.212,1.743 -0.009,0.702 -0.082,1.297 -0.219,1.784 z"
   id="path8" /><polygon
   points="38.393,43.924 38.393,54 40.061,54 40.061,47.055 44.012,54 45.68,54 45.68,43.924 44.012,43.924 44.012,50.869 40.061,43.924 "
   id="polygon10" /><path
   d="m 20.5,20 v -4 c 0,-0.551 0.448,-1 1,-1 0.553,0 1,-0.448 1,-1 0,-0.552 -0.447,-1 -1,-1 -1.654,0 -3,1.346 -3,3 v 4 c 0,1.103 -0.897,2 -2,2 -0.553,0 -1,0.448 -1,1 0,0.552 0.447,1 1,1 1.103,0 2,0.897 2,2 v 4 c 0,1.654 1.346,3 3,3 0.553,0 1,-0.448 1,-1 0,-0.552 -0.447,-1 -1,-1 -0.552,0 -1,-0.449 -1,-1 v -4 c 0,-1.2 -0.542,-2.266 -1.382,-3 0.84,-0.734 1.382,-1.8 1.382,-3 z"
   id="path12" /><circle
   cx="28.5"
   cy="19.5"
   r="1.5"
   id="circle14" /><path
   d="m 28.5,25 c -0.553,0 -1,0.448 -1,1 v 3 c 0,0.552 0.447,1 1,1 0.553,0 1,-0.448 1,-1 v -3 c 0,-0.552 -0.447,-1 -1,-1 z"
   id="path16" />
<g
   id="g20">
</g>
<g
   id="g22">
</g>
<g
   id="g24">
</g>
<g
   id="g26">
</g>
<g
   id="g28">
</g>
<g
   id="g30">
</g>
<g
   id="g32">
</g>
<g
   id="g34">
</g>
<g
   id="g36">
</g>
<g
   id="g38">
</g>
<g
   id="g40">
</g>
<g
   id="g42">
</g>
<g
   id="g44">
</g>
<g
   id="g46">
</g>
<g
   id="g48">
</g>
<text
   xml:space="preserve"
   style="font-style:normal;font-weight:normal;font-size:15.8706px;line-height:1.25;font-family:sans-serif;letter-spacing:0px;word-spacing:0px;fill:#000000;fill-opacity:1;stroke:none;stroke-width:0.396767"
   x="7.8492317"
   y="60.178322"
   id="text997"
   transform="scale(1.1120379,0.89924992)"><tspan
     sodipodi:role="line"
     id="tspan995"
     x="7.8492317"
     y="60.178322"
     style="stroke-width:0.396767">T</tspan></text></svg>
