<?xml version="1.0" encoding="iso-8859-1"?>
<!-- Generator: Adobe Illustrator 16.0.0, SVG Export Plug-In . SVG Version: 6.00 Build 0)  -->
<!DOCTYPE svg PUBLIC "-//W3C//DTD SVG 1.1//EN" "http://www.w3.org/Graphics/SVG/1.1/DTD/svg11.dtd">
<svg version="1.1" id="Capa_1" xmlns="http://www.w3.org/2000/svg" xmlns:xlink="http://www.w3.org/1999/xlink" x="0px" y="0px"
	 width="31.444px" height="31.444px" viewBox="0 0 31.444 31.444" style="enable-background:new 0 0 31.444 31.444;"
	 xml:space="preserve">
<g>
	<g>
		<path d="M11.158,0L3.015,8.598v22.846H28.43V0H11.158z M10.439,3.617v3.81H6.832L10.439,3.617z M26.465,29.479H4.979V9.391h7.425
			V1.965h14.06V29.479z"/>
		<path d="M10.871,14.755h0.864c0.391,0,0.667,0.099,0.842,0.297c0.018,0.021,0.174,0.236,0.174,1.303v8.494
			c0,0.938-0.105,1.18-0.134,1.228c-0.077,0.119-0.183,0.207-0.321,0.269c-0.153,0.069-0.343,0.104-0.562,0.104h-0.863v1.097h6.373
			V26.45h-0.873c-0.39,0-0.663-0.099-0.843-0.306c-0.017-0.02-0.177-0.228-0.177-1.295v-3.379c1.518,0.283,2.719,0.244,3.693-0.101
			c0.546-0.192,1.019-0.47,1.402-0.821c0.385-0.357,0.682-0.785,0.879-1.275c0.2-0.484,0.299-1.026,0.299-1.607
			c0-0.439-0.07-0.854-0.211-1.232c-0.138-0.377-0.332-0.725-0.573-1.037c-0.241-0.309-0.526-0.577-0.843-0.804
			c-0.316-0.225-0.662-0.407-1.029-0.542c-0.723-0.259-1.701-0.389-2.908-0.389h-5.189V14.755z M15.351,15.291
			c0.138-0.029,0.267-0.052,0.386-0.068c0.623-0.088,1.057-0.033,1.479,0.137c0.289,0.115,0.545,0.287,0.76,0.51
			c0.217,0.227,0.389,0.507,0.514,0.835c0.125,0.334,0.188,0.724,0.188,1.155c0,0.359-0.059,0.693-0.172,0.99
			c-0.117,0.301-0.273,0.561-0.465,0.774c-0.188,0.209-0.414,0.376-0.666,0.494c-0.407,0.188-0.794,0.206-1.43,0.128
			c-0.177-0.021-0.375-0.052-0.593-0.089V15.291z"/>
	</g>
</g>
<g>
</g>
<g>
</g>
<g>
</g>
<g>
</g>
<g>
</g>
<g>
</g>
<g>
</g>
<g>
</g>
<g>
</g>
<g>
</g>
<g>
</g>
<g>
</g>
<g>
</g>
<g>
</g>
<g>
</g>
</svg>
