<?xml version="1.0" encoding="UTF-8" standalone="no"?>
<svg
   xmlns:dc="http://purl.org/dc/elements/1.1/"
   xmlns:cc="http://creativecommons.org/ns#"
   xmlns:rdf="http://www.w3.org/1999/02/22-rdf-syntax-ns#"
   xmlns:svg="http://www.w3.org/2000/svg"
   xmlns="http://www.w3.org/2000/svg"
   xmlns:sodipodi="http://sodipodi.sourceforge.net/DTD/sodipodi-0.dtd"
   xmlns:inkscape="http://www.inkscape.org/namespaces/inkscape"
   width="24"
   height="24"
   viewBox="0 0 24 24"
   fill="none"
   stroke="currentColor"
   stroke-width="2"
   stroke-linecap="round"
   stroke-linejoin="round"
   version="1.1"
   id="svg8"
   sodipodi:docname="cherry-tree.svg"
   inkscape:version="1.0.2 (e86c870879, 2021-01-15)">
  <metadata
     id="metadata14">
    <rdf:RDF>
      <cc:Work
         rdf:about="">
        <dc:format>image/svg+xml</dc:format>
        <dc:type
           rdf:resource="http://purl.org/dc/dcmitype/StillImage" />
        <dc:title></dc:title>
      </cc:Work>
    </rdf:RDF>
  </metadata>
  <defs
     id="defs12" />
  <sodipodi:namedview
     pagecolor="#ffffff"
     bordercolor="#666666"
     borderopacity="1"
     objecttolerance="10"
     gridtolerance="10"
     guidetolerance="10"
     inkscape:pageopacity="0"
     inkscape:pageshadow="2"
     inkscape:window-width="1680"
     inkscape:window-height="980"
     id="namedview10"
     showgrid="false"
     inkscape:zoom="5.8409966"
     inkscape:cx="37.1261"
     inkscape:cy="2.0301817"
     inkscape:window-x="0"
     inkscape:window-y="0"
     inkscape:window-maximized="1"
     inkscape:current-layer="svg8" />
  <g
     id="g6"
     transform="matrix(0.0349224,0,0,0.0413809,3.0613965,1.3313446)">
    <g
       id="g4">
      <path
         d="m 481.642,304.43 c -15.464,-14.759 -34.645,-21.5 -52.625,-18.506 -18.899,3.151 -33.064,11.954 -42.103,26.163 -0.477,0.75 -0.913,1.518 -1.351,2.283 L 280.984,84.295 V 13.803 H 243.72 V 54.607 C 192.783,11.123 115.884,13.701 68.564,61.854 L 0,131.623 l 13.288,13.06 c 24.188,23.771 56.099,36.809 90.006,36.809 0.461,0 0.929,-0.003 1.391,-0.007 34.233,-0.359 66.202,-13.995 90.027,-38.398 l 41.463,-42.193 -97.028,213.466 c -0.441,-0.766 -0.884,-1.53 -1.356,-2.273 -9.038,-14.209 -23.204,-23.012 -42.103,-26.163 -17.975,-2.992 -37.161,3.749 -52.625,18.506 -22.178,21.165 -33.518,54.808 -29.591,87.801 5.391,45.303 35.665,83.123 79.008,98.703 13.58,4.882 27.557,7.261 41.368,7.261 30.273,0 59.74,-11.444 82.4,-33.077 24.033,-22.945 36.707,-56.107 33.078,-86.548 -2.53,-21.228 -13.027,-38.641 -28.801,-47.776 -14.927,-8.643 -29.802,-11.293 -44.305,-7.945 l 86.134,-189.493 86.134,189.494 c -14.503,-3.346 -29.381,-0.699 -44.305,7.945 -15.773,9.135 -26.27,26.548 -28.801,47.776 -3.63,30.441 9.045,63.603 33.078,86.548 22.661,21.635 52.125,33.077 82.4,33.077 13.809,0 27.79,-2.381 41.368,-7.261 43.344,-15.58 73.618,-53.4 79.008,-98.703 3.924,-32.994 -7.415,-66.637 -29.594,-87.802 z"
         id="path2"
         style="fill:#000000;fill-opacity:1" />
    </g>
  </g>
</svg>
